<?xml version="1.0" standalone="no"?>
<!DOCTYPE svg PUBLIC "-//W3C//DTD SVG 1.1//EN" "http://www.w3.org/Graphics/SVG/1.1/DTD/svg11.dtd" >
<svg xmlns="http://www.w3.org/2000/svg">
<metadata></metadata>
<defs>
<font id="averia_sanslightitalic" horiz-adv-x="1023" >
<font-face units-per-em="2048" ascent="1594" descent="-454" />
<missing-glyph horiz-adv-x="608" />
<glyph horiz-adv-x="0" />
<glyph unicode="&#xd;" horiz-adv-x="2048" />
<glyph unicode=" "  horiz-adv-x="608" />
<glyph unicode="&#x09;" horiz-adv-x="608" />
<glyph unicode="&#xa0;" horiz-adv-x="608" />
<glyph unicode="!" horiz-adv-x="631" d="M161 28v6l1 4v7l3 24q1 4 1 7q0 63 33 96t70 33l3 1l4 1l29 3h14l4 -1l22 -3q3 -1 6 -1q17 0 17 -17v-33l-1 -3l-3 -21q-1 -4 -1 -7q0 -52 -40 -100q-22 -26 -66 -26q-6 -2 -10 -2l-19 -2h-24l-4 1h-6q-6 2 -9 2q-24 0 -24 31zM272 405l16 109q3 24 9 60t9 60 q47 374 125 734q16 73 94 73h19q45 0 45 -24v-10q0 -7 -91.5 -447t-119.5 -531q-15 -48 -60 -48h-19q-27 0 -27 24z" />
<glyph unicode="&#x22;" horiz-adv-x="788" d="M279 959v12l1 6l2 26q5 35 6 51q2 24 6 56l5 44q3 24 3 48l15 112q0 85 22 129q11 21 66 21h37q40 0 40 -12v-11q0 -25 -47 -228t-60.5 -235.5t-60.5 -32.5h-15q-20 0 -20 14zM598 959v5l1 6v13l28 264l11 79q0 96 18.5 117t72.5 21h32q40 0 40 -16v-6q0 -23 -46 -223.5 t-59.5 -237t-61.5 -36.5h-15q-21 0 -21 14z" />
<glyph unicode="#" horiz-adv-x="1219" d="M216 454q0 41 70 71l30 10l32 6q51 14 69.5 33.5t29.5 75.5t24 103t13 69q0 48 -71 63.5t-71 45.5q0 43 28.5 64.5t93.5 32t73 16.5q22 17 69.5 179t57.5 175q25 31 81 31q16 0 16 -31l-78 -300q0 -38 43 -49t120 -11q30 0 74.5 154t64.5 180t60.5 26t40.5 -24 q0 -8 -14 -47q-56 -149 -56 -239q0 -30 44 -53q80 -43 80 -51q0 -40 -28.5 -58.5t-95 -27t-85.5 -28.5t-29 -74.5t-13 -69.5l-8 -35q-16 -59 -16 -68q0 -51 62 -65q85 -19 85 -70q0 -39 -92.5 -59t-107.5 -41t-59 -160.5t-57 -159.5q-27 -42 -105 -42l-7 15q0 10 17 56.5 t45 140.5t28 116q0 42 -148 42q-47 0 -64 -32q-8 -14 -18 -68t-36 -142.5t-47 -118.5t-62.5 -30t-41.5 21q0 14 18 58q67 164 67 225.5t-52 86.5q-74 35 -74 58zM478 517l2 -1h7q19 0 88 23t98 23t52 46q108 216 108 284v5q0 19 -83 19l-5 1q-105 0 -143 -54q-6 -9 -24 -73 l-49 -144l-5 -13l-3 -6l-12 -32l-3 -6l-2 -7z" />
<glyph unicode="$" horiz-adv-x="1159" d="M153 179q0 16 30 46t68 30q5 0 88 -54t137 -54t74.5 44t54 179.5t33.5 194t-107.5 129.5t-151.5 131.5t-44 143.5t41.5 171.5t105.5 144.5t194 75q51 7 71.5 17t52.5 51.5t73 41.5q33 0 33 -45t92 -88.5t92 -100.5q0 -19 -29 -40.5t-74 -21.5q-11 0 -68.5 35t-102 35 t-66.5 -53q-84 -202 -84 -327q0 -45 21 -65q21 -21 62 -47q125 -81 177 -149.5t52 -148.5t-36 -168q-96 -236 -311 -258q-82 -8 -105 -22q-7 -4 -38 -67.5t-73 -63.5h-21q-26 0 -26 37q8 51 8 57q0 25 -111.5 90.5t-111.5 119.5zM468 990q0 -61 35 -110t74 -49h3q12 0 12 52 l4 44l3 23q0 35 22.5 117t39 123.5t16.5 51.5v3q0 9 -8 9h-3l-4 -1h-4q-63 0 -125 -80t-62 -142l-1 -5l-1 -6l-1 -24v-6zM614 140q0 -7 9 -7h8l5 1q64 0 134 90t70 183v32q0 63 -39 109.5t-75 46.5q-13 0 -13 -43l-1 -18l-2 -24q-2 -12 -2 -49.5t-22 -103.5q-22 -67 -25 -79 l-34 -98l-5 -11l-8 -21v-8z" />
<glyph unicode="%" horiz-adv-x="1577" d="M267 -5q0 16 112 162q904 1179 966 1246q31 34 79 34h16q25 0 25 -8q0 -51 -1065 -1394q-38 -48 -92 -48h-16q-25 0 -25 8zM268 929v43q0 72 34 168q32 96 82 160q106 139 230 139h9l10 -1q63 0 106.5 -52.5t43.5 -139.5v-31v-5q0 -78 -33 -171q-62 -178 -185 -259 q-63 -42 -119 -42h-28q-70 0 -110 57.5t-40 133.5zM385 967q3 -21 3 -44.5t23 -50.5t48 -27h15q59 0 123.5 101.5t64.5 201.5l3 34v39q-2 14 -2 35t-23.5 48t-47.5 27h-16q-64 0 -127.5 -109.5t-63.5 -227.5v-27zM951 193q0 91 32 187q33 96 87 168q106 138 229 138h9 q63 0 110.5 -47.5t47.5 -136.5v-52q0 -70 -33 -164.5t-86.5 -164.5t-112 -103t-106.5 -33h-28q-69 0 -109 58t-40 150zM1069 213q0 -64 24.5 -92.5t49.5 -28.5h16q57 0 122 102t65 209q2 14 2 21v27q0 56 -20 92t-59 36h-5q-63 0 -129 -103.5t-66 -229.5v-33z" />
<glyph unicode="&#x26;" horiz-adv-x="1325" d="M190 402q0 100 40 168t164.5 163t124.5 128q0 11 -23.5 108.5t-23.5 202t70.5 177.5t168.5 73t178 -80t80 -199t-45 -186q-21 -32 -95.5 -94t-80.5 -70q-48 -59 -48 -130.5t77 -179.5q46 -65 79.5 -65t103 78t122.5 78q29 0 49 -23.5t20 -42.5t-43 -121t-43 -143t38 -103 l41 -58q21 -30 21 -38q0 -32 -41 -32t-122 64q-46 36 -129 36q-10 -1 -58 -21q-109 -46 -278 -46t-250 74q-45 41 -71 112q-26 70 -26 170zM317 398l1 -8q0 -120 79.5 -192.5t186.5 -72.5h6l6 1q65 0 123.5 42.5t58.5 58.5v11q0 9 -71 99t-129.5 200t-70.5 110h-6 q-64 0 -137 -94q-47 -60 -47 -155zM584 1026q0 -69 34 -130q8 -14 16 -14h4q46 0 160 146q64 82 64 157v22q0 34 -21.5 60t-47.5 26h-30q-59 0 -119 -77.5t-60 -163.5v-26z" />
<glyph unicode="'" horiz-adv-x="517" d="M306 954v11l1 7l3 39q9 60 10.5 86.5t3.5 46.5t4 32q6 44 5 54l10 72q0 98 23 136q13 21 66 21h37q40 0 40 -11v-12q0 -8 -101 -446q-12 -50 -62 -50h-20q-20 0 -20 14z" />
<glyph unicode="(" horiz-adv-x="698" d="M182 295v65q0 298 147 616q84 184 215 343.5t172 159.5h15q40 0 40 -30q0 -12 -76.5 -112.5t-112.5 -153.5q-98 -143 -158 -295q-113 -286 -113 -585q0 -215 79 -448q47 -137 47 -150q0 -43 -55 -43t-127.5 217.5t-72.5 415.5z" />
<glyph unicode=")" horiz-adv-x="698" d="M-22 -312q0 16 84 126.5t102 138.5q110 167 166 313q109 283 109 589q0 198 -84 447q-42 123 -42 145q0 32 54 32h16q11 0 23 -16q57 -75 110 -263t53 -367q0 -362 -155 -680q-91 -188 -215 -339t-172.5 -151t-48.5 25z" />
<glyph unicode="*" horiz-adv-x="948" d="M351 915l1 10q0 43 30 77.5t30 58.5l2 21q0 5 -18 16q-42 25 -43 111q0 38 45 38t84.5 -23.5t47.5 -23.5q40 0 54 56q35 147 41 153q20 23 60 23q28 0 28 -39.5t-24.5 -115t-24.5 -87t3 -11.5q10 0 90.5 41.5t115.5 41.5t35 -25v-12q0 -63 -97.5 -103t-97.5 -73 q0 -5 28 -45t28 -85.5t-57.5 -45.5t-84.5 23q-10 7 -16.5 7t-14 -6.5t-51.5 -28.5t-53 -22h-9q-44 0 -118 40q-14 8 -14 29z" />
<glyph unicode="+" horiz-adv-x="1221" d="M203 536q0 80 33 96q16 8 179 26t172.5 25t50 183.5t42.5 180.5q16 34 90 34h15q15 0 15 -16l-68 -349q0 -17 27 -17q2 0 131.5 18.5t187.5 18.5q16 0 16 -31q0 -79 -33 -95q-16 -8 -178 -26t-173.5 -26t-49.5 -180t-44 -184q-16 -34 -89 -34h-15q-15 0 -15 17l68 349 q0 17 -18 17t-151 -18.5t-176 -18.5q-17 0 -17 30z" />
<glyph unicode="," horiz-adv-x="592" d="M22 -258q0 8 71 94.5t71 143.5q0 6 -5 21t-5 39l2 28q0 62 29 111.5t63 49.5h36q64 0 64 -28v-6q0 -119 -110 -308q-51 -88 -104.5 -131.5t-76.5 -43.5h-13q-22 0 -22 25v5z" />
<glyph unicode="-" horiz-adv-x="703" d="M120 516v10q5 25 5 35q0 47 31 59q10 4 63 4h351q69 0 69 -15v-9l-1 -5l-4 -30q0 -63 -74 -63h-377q-63 0 -63 14z" />
<glyph unicode="." horiz-adv-x="589" d="M131 27v21l2 18l4 23q0 42 42 105q16 24 57 24q10 3 15 3l23 3h26q47 0 47 -27v-28l-1 -4v-7q-4 -16 -4 -22q0 -67 -45 -112q-23 -23 -62 -23l-8 -2l-34 -3h-4l-18 2h-7q-6 2 -9 2q-24 0 -24 27z" />
<glyph unicode="/" horiz-adv-x="854" d="M-51 -171q0 13 117.5 224t419.5 783.5t335 624.5t85 52t52 -11.5t-32.5 -68.5t-401.5 -756.5t-444 -816.5q-28 -44 -79.5 -44t-51.5 13z" />
<glyph unicode="0" horiz-adv-x="1160" d="M224 348v41l1 21v6q0 161 53 366q105 409 299 568q102 83 192 83h33q112 0 177 -95.5t65 -252.5v-81q0 -183 -58.5 -391t-132.5 -343.5t-172.5 -212.5t-211.5 -77t-179 97t-66 271zM364 381q0 -126 36.5 -192.5t103.5 -66.5h12q60 0 124 60q139 131 220 496 q44 201 44 308v76q0 105 -36 167t-102 62h-23q-67 0 -137 -83q-143 -168 -210 -532q-32 -171 -32 -280v-15z" />
<glyph unicode="1" horiz-adv-x="1066" d="M333 144.5q0 72.5 76 145.5t100 150q10 32 59 289t49 330.5t-14 90.5t-83 17l-30 2h-30q-46 0 -46 31q0 45 53 75q186 106 252.5 106t66.5 -60v-18l-1 -19q0 -127 -62.5 -463t-62.5 -386t32.5 -105.5t32.5 -112.5t-50 -107q-111 -111 -179 -111l-17 1h-18q-44 0 -60 14 q-68 58 -68 130.5z" />
<glyph unicode="2" horiz-adv-x="1126" d="M90 70q0 79 129 208q53 53 293.5 252.5t324.5 307t84 244.5q0 92 -67 145.5t-166.5 53.5t-214 -88t-157 -88t-42.5 39q0 84 172 186q138 82 288.5 82t241.5 -93t91 -244.5t-120 -301.5q-80 -100 -360 -326t-280 -281q0 -28 255 -28t301 -14.5t46 -69t-49 -54.5l-171 13 h-227q-279 0 -315 7q-57 11 -57 50z" />
<glyph unicode="3" horiz-adv-x="1125" d="M79 191q0 53 51 53q26 0 138 -69.5t237.5 -69.5t223.5 96t98 211q0 187 -165 238q-17 5 -67.5 15.5t-57.5 13.5q-36 16 -36 51.5t16 52t55 30.5l31 10q33 11 83 33t99 74q95 100 95 213q0 140 -203 140q-81 0 -188 -46.5t-136 -46.5q-40 0 -40 35q0 54 212 141 q110 45 216 45h33q265 0 265 -234q0 -112 -66 -215q-41 -64 -132 -136.5t-91 -76.5t43.5 -27.5t49.5 -27.5q127 -85 127 -272q0 -77 -37 -163t-109.5 -150.5t-159.5 -94.5t-165 -30h-32q-122 0 -255 73t-133 134z" />
<glyph unicode="4" horiz-adv-x="1143" d="M177 398.5q0 24.5 32 80.5q108 190 651 869q73 91 148 91q29 0 29 -31q0 -14 -96.5 -400t-96.5 -424t51.5 -58t51.5 -78t-78 -80t-90.5 -50.5t-17.5 -126t-10 -120.5q-8 -36 -42 -36h-17q-54 0 -54 45q0 2 11.5 59.5t11.5 96t-23 59t-109 20.5q-252 0 -335 49 q-17 10 -17 34.5zM293 502q0 -4 15 -4h98l54 4q196 0 225 49q14 23 62.5 218.5t74 275.5t25.5 106v10h-2q-3 0 -30.5 -39t-69.5 -95l-104 -136q-159 -208 -171 -220t-94.5 -88.5t-82.5 -80.5z" />
<glyph unicode="5" horiz-adv-x="1127" d="M81 141v20q0 59 86 59q14 0 62 -31t61 -38q84 -45 168 -45q172 0 282 112t110 253.5t-78 212.5t-205 71q-39 0 -114.5 -11t-95.5 -11q-70 0 -70 86q0 34 93 365q38 136 74 169q49 45 334 45q73 0 98 2l61 6q51 5 59 5h26q56 0 56 -18q0 -75 -62 -106q-26 -13 -234.5 -13 t-251.5 -48q-26 -29 -64.5 -166t-38.5 -161q0 -31 59 -31l29 1l63 5q183 0 293.5 -98t110.5 -282q0 -99 -39 -193q-81 -193 -273 -277q-96 -42 -205 -42q-108 0 -205 42q-189 81 -189 117z" />
<glyph unicode="6" horiz-adv-x="1142" d="M185 578v44q0 120 68.5 277t163.5 260q196 213 429 213h23q96 0 164 -33q27 -13 27 -28q0 -47 -46 -47l-160 11q-60 0 -137.5 -32.5t-150 -101.5t-112.5 -147t-40 -146q0 -25 34 -25q3 0 44.5 13.5t107.5 13.5q68 0 142 -36q141 -69 199 -236q32 -92 32 -193 q0 -169 -88 -270.5t-223 -101.5h-23h-4q-101 0 -183 49q-175 103 -239 322q-28 98 -28 194zM355 307q2 -18 2 -27q0 -63 41 -108.5t94 -45.5h25q39 0 99 32t124 119q100 136 100 281v37q0 67 -37 112.5t-94 45.5h-25q-44 0 -113 -34.5t-126 -105.5q-90 -113 -90 -278v-28z " />
<glyph unicode="7" horiz-adv-x="1115" d="M203 13q0 51 184 355t374 579.5t190 282.5q0 42 -285.5 42t-323.5 12t-38 69.5t50 57.5h40l184 -13h205q282 0 324.5 -9.5t42.5 -41.5q0 -71 -807 -1334q-22 -34 -64 -34q-76 0 -76 34z" />
<glyph unicode="8" horiz-adv-x="1145" d="M182 232v42q0 135 81.5 252t163.5 169q55 36 55 44.5t-44 49.5t-72.5 89t-28.5 114t40 152q39 86 111 156q138 135 308 135h3q110 0 176.5 -66.5t66.5 -166.5v-20q0 -210 -201 -374q-45 -37 -45 -46.5t50 -51t79.5 -83t29.5 -131.5t-41 -184.5t-104 -163.5 q-156 -170 -372 -170q-108 0 -182 74.5t-74 179.5zM280 292q0 -56 42 -87q61 -44 136 -44h19q150 0 264 96.5t114 198.5v21q0 56 -61.5 100.5t-145.5 44.5h-28q-111 0 -225.5 -106t-114.5 -202v-22zM446 999q0 -55 57.5 -95.5t130.5 -40.5h8q97 0 197.5 91.5t100.5 182.5v6 q0 53 -42.5 86t-103.5 33h-41q-113 0 -210 -79.5t-97 -171.5v-12z" />
<glyph unicode="9" horiz-adv-x="1142" d="M186 99v9q0 33 76 33l19 -2l40 -6q16 -2 70 -2t130.5 32.5t150 100t119 152.5t45.5 150q0 29 -18 29q-3 0 -55.5 -15.5t-123.5 -15.5t-143 40q-221 124 -221 447q0 155 91 253t216 98h23q186 0 317 -151q61 -71 101 -181.5t40 -229.5v-44q0 -118 -64.5 -268t-159.5 -259 t-209 -167.5t-243 -58.5t-189 39q-12 8 -12 17zM409 826q0 -73 37.5 -118.5t95.5 -45.5h25q48 0 112.5 34.5t125.5 110.5q86 108 86 266v38q0 83 -39.5 131t-90.5 48h-33q-37 0 -97.5 -32t-107.5 -97q-114 -155 -114 -306v-29z" />
<glyph unicode=":" horiz-adv-x="614" d="M164 21v31l1 4l3 22q1 4 1 7q0 44 43 108q15 22 53 22l15 3l8 2l26 2h15l26 -4q22 0 22 -28v-17l-2 -14v-7q-2 -8 -2 -11q0 -71 -44 -115q-23 -23 -57 -23q-12 -3 -15 -3l-23 -3h-26q-44 0 -44 24zM313 800v18l1 3v7l3 22q1 4 1 8q0 57 42 107q22 26 64 26l4 1l3 1l31 3 h14q50 0 50 -30v-21l-1 -3l-3 -26q-1 -4 -1 -7q0 -58 -42 -108q-20 -24 -56 -24l-12 -3l-22 -3h-8l-11 -1l-3 1h-14q-15 3 -17 3q-23 0 -23 26z" />
<glyph unicode=";" horiz-adv-x="615" d="M54 -251q0 8 71.5 95t71.5 142q0 5 -5.5 23t-5.5 38q0 83 31 135.5t70 52.5h30q10 -2 17 -2q46 0 46 -27v-12q0 -114 -102 -289q-57 -98 -129 -157q-35 -29 -60 -29h-12q-23 0 -23 30zM322 806v20l1 4l3 26q1 4 1 7q0 58 42 108q20 24 56 24l15 3l23 3h29l23 -4 q19 0 19 -19v-35l-4 -25q0 -47 -43 -112q-16 -24 -56 -24q-10 -3 -15 -3l-22 -3h-30l-22 4q-20 0 -20 26z" />
<glyph unicode="&#x3c;" horiz-adv-x="1203" d="M176 618q0 52 44 79q21 13 166 81q146 68 214 104t192 94t212 108q88 49 98 49t10 -22q0 -98 -71 -141q-27 -17 -359 -174t-332 -166q0 -36 306 -188t350 -189q44 -36 45 -108q0 -38 -14 -38h-12h-1q-20 0 -88 45q-70 46 -344 187t-361 193q-55 34 -55 86z" />
<glyph unicode="=" horiz-adv-x="1223" d="M163 394v26q0 46 12 54.5t64 8.5h832q72 0 72 -26v-26q-2 -16 -2 -25q0 -38 -74 -38h-843q-61 0 -61 26zM191 779v25q0 47 12 56.5t85 9.5h788q95 0 95 -25v-25q0 -48 -11.5 -57t-96.5 -9h-766q-106 0 -106 25z" />
<glyph unicode="&#x3e;" horiz-adv-x="1202" d="M163 126q0 94 56 131q31 21 368.5 180.5t337.5 171.5q0 27 -319.5 195t-329.5 176q-52 42 -52 113q0 36 27 36q20 0 106 -55.5t341.5 -183t348.5 -185.5q53 -33 53 -85t-46 -80q-16 -10 -65 -33t-115 -56t-113.5 -55.5t-123.5 -60.5t-186 -90t-185 -97t-93 -45 q-10 0 -10 23z" />
<glyph unicode="?" horiz-adv-x="974" d="M267 1234q0 58 130 127t236 69h20q126 0 209.5 -80.5t83.5 -183.5v-36q0 -81 -50 -165t-127 -174.5t-135.5 -138.5t-68 -65t-26 -105t-49.5 -88h-32q-46 0 -46 71q0 117 38.5 182.5t143.5 160.5t153.5 166.5t48.5 157.5t-56.5 129.5t-130 43.5t-168.5 -64.5t-134.5 -64.5 t-39.5 58zM280 28v7l1 3v7l3 25q1 4 1 7q0 32 39 100q15 26 52 26q14 4 18 4l22 3h28q9 -3 19 -3q23 0 23 -25v-23l-8 -46q0 -33 -37 -88q-17 -26 -62 -26l-3 -1l-4 -1l-29 -3h-17l-28 5q-18 0 -18 29z" />
<glyph unicode="@" horiz-adv-x="1721" d="M143 561q1 173 69 329q140 320 423 457q167 81 362 81q282 0 459.5 -164.5t177.5 -411t-124 -419t-284 -172.5q-52 0 -88 23l-31 29q-36 36 -52 36l-35 -15l-42 -24q-81 -42 -166 -42t-176 98t-91 241.5t88 227t218 83.5q29 0 61 -9q-76 -35 -138.5 -119.5t-90 -178 t-27.5 -144.5v-36q0 -46 25 -85t74 -39h7q44 0 107 43.5t96 102.5q120 213 120 375v15q0 22 -6 37l27 16l45 14q56 0 56 -70l-5 -47l-15 -100q-11 -100 -11 -176t11 -100q19 -42 60 -42t100.5 40t107.5 125q68 120 68 305q0 82 -43.5 183t-123.5 165.5t-171 96t-221 31.5 t-262 -56q-189 -81 -323 -277.5t-134 -455.5q0 -124 43 -238q87 -231 316 -323q122 -49 260.5 -49t274.5 43l52 17l47 11q64 0 64 -15q0 -42 -109 -75q-198 -60 -354 -60q-296 0 -483 174q-213 196 -213 544z" />
<glyph unicode="A" horiz-adv-x="1251" d="M93 53q0 14 70.5 122.5t309.5 633.5t251 548q43 81 113 81q50 0 57 -51q2 -11 10 -92l61 -608l20 -194q36 -353 36 -384v-24q0 -51 -71 -51h-21q-56 0 -71 36q-8 19 -22.5 151.5t-43.5 154.5q-45 35 -317 35q-84 0 -99 -22t-63 -146.5t-82.5 -164t-120.5 -39.5 q-17 0 -17 14zM475 558.5q0 -8.5 65 -8.5l49 -2l7 -1l22 -1l77 -6q71 0 96.5 17t25.5 53v9l-1 10l-7 135v20l-9 173v19l-4 77v19l-2 39v19l-2 35l-2 28q0 19 -5 19t-19 -41.5t-24.5 -65.5t-59 -149t-67.5 -160.5t-35.5 -73t-65.5 -100.5q-39 -55 -39 -63.5z" />
<glyph unicode="B" horiz-adv-x="1216" d="M171 21v15v1v1q0 18 57 196q117 366 144 667q27 285 73 405q21 55 83 71q160 41 328 41h20q98 0 161 -55.5t63 -162.5v-21q0 -147 -165 -295q-76 -69 -76 -77.5t47.5 -51.5t77 -102t29.5 -160.5t-44 -198.5q-84 -186 -287 -263q-96 -36 -202 -36h-195q-114 0 -114 26z M302 198q0 -17 26 -17l8 1h9l148 18l20 2l31 1q171 0 286 79q56 39 85.5 97.5t29.5 102.5v8q0 56 -50 90.5t-145 34.5h-96l-10 -1h-32l-21 -1h-21l-21 -1l-88 -6q-39 0 -58 -44q-101 -231 -101 -352v-12zM428 865q0 -17 27 -17h7l172 24q142 0 222 55.5t106 111t26 90.5v14 q0 44 -39.5 69.5t-109.5 25.5h-74l-10 -1h-19l-28 -2h-19l-45 -3l-35 -2q-64 0 -82 -34q-99 -184 -99 -326v-5z" />
<glyph unicode="C" horiz-adv-x="1280" d="M158 569q0 174 57 333.5t156 276t228.5 183.5t266 67t288.5 -60t152 -110q0 -26 -26 -49t-44 -23t-60 26q-149 91 -284 91q-247 0 -405 -195q-86 -106 -134.5 -244.5t-48.5 -281.5q0 -306 207 -414q77 -40 178 -40t206 46q15 6 97.5 51.5t103.5 45.5q48 0 48 -65 q0 -56 -170 -126.5t-296 -70.5q-244 0 -382 156t-138 403z" />
<glyph unicode="D" horiz-adv-x="1349" d="M156 24q0 20 75 251t134.5 493t87 419t36.5 171t57 29q115 36 283 36l18 -1h19q165 0 252.5 -117t87.5 -327q0 -420 -223 -701q-97 -123 -249.5 -201t-312.5 -78h-122q-143 0 -143 26zM347 169q0 -20 62 -20l23 -2h39l13 1q244 0 412 231q80 109 120 256.5t40 280.5 l-1 18q0 170 -65.5 257.5t-191.5 87.5h-28l-14 -1q-144 0 -164 -59q-5 -15 -8 -38t-9 -59l-5 -33l-3 -16l-5 -33q-80 -447 -173 -725q-42 -126 -42 -146z" />
<glyph unicode="E" horiz-adv-x="1122" d="M139 140.5q0 62.5 103.5 384t115.5 375t20.5 226t28.5 202t65 33t245.5 31.5t290.5 28h34q72 0 72 -50t-36.5 -67t-156.5 -17l-211 12q-103 0 -132.5 -43t-71.5 -167.5t-42 -148.5q0 -48 146.5 -48t260.5 -38q38 -13 38 -60q0 -80 -58 -100q-24 -8 -220.5 -32.5 t-232.5 -53.5q-82 -66 -82 -340q0 -100 30 -114.5t311 -14.5l141 -1q34 -1 67 -1q81 0 81 -46q0 -25 -21.5 -51t-76.5 -26h-427q-125 0 -231 44q-51 21 -51 83.5z" />
<glyph unicode="F" horiz-adv-x="1053" d="M155 112q0 19 59 200t74 268.5t32 366.5t45.5 352t107.5 98t221 25l55 1l28 1h253q109 0 109 -50q0 -62 -44 -72q-14 -3 -264.5 -3t-280 -25t-75 -151t-45.5 -206q0 -44 44 -57q26 -7 170 -25t183.5 -37t39.5 -57q0 -73 -47 -92q-20 -8 -114 -21q-273 -37 -306.5 -69.5 t-71 -229.5t-40.5 -206q-17 -48 -69 -48h-20q-44 0 -44 37z" />
<glyph unicode="G" horiz-adv-x="1396" d="M154 584q0 157 59 318.5t167 286.5q212 243 520 243q142 0 299.5 -60.5t157.5 -122.5q0 -23 -24 -46t-52.5 -23t-74.5 28q-162 100 -335 100q-108 0 -214.5 -58t-190.5 -166q-166 -214 -166 -537q0 -105 36 -189q103 -234 374 -234q145 0 249 85q52 43 86 110.5t34 112.5 t-72 75q-103 43 -103 91q0 54 62 77q95 35 169 35t99.5 -16t25.5 -65.5t-82 -363.5q-25 -97 -51.5 -119.5t-56 -29t-156 -58t-251.5 -51.5t-221 47q-288 140 -288 530z" />
<glyph unicode="H" horiz-adv-x="1367" d="M96 50q0 28 25 113t34 123.5t61.5 321t69.5 338.5q94 316 119.5 359.5t83 43.5t76.5 -19t19 -63.5t-38.5 -211t-38.5 -201.5q0 -70 257 -70q102 0 242 29q57 12 86 41q27 27 71 235t61 239q37 66 123 66q25 0 25 -24v-26q0 -57 -55 -244q-5 -17 -68 -331t-68 -332 q-77 -259 -96 -295q-26 -51 -110 -51q-39 0 -57.5 17.5t-18.5 72.5t41 255t41 221q0 35 -46 49q-45 14 -155 14q-104 0 -300 -35q-56 -10 -85.5 -39t-79.5 -277t-66 -284q-28 -63 -131 -63q-22 0 -22 28z" />
<glyph unicode="I" horiz-adv-x="592" d="M131 62v15q0 46 36 149.5t48.5 149.5t74 404t61.5 415q0 122 53 210q20 33 87 33h14q42 0 54 -6.5t12 -57.5v-14q0 -63 -51 -184q-16 -38 -93 -424t-77 -468l2 -56q0 -97 -47 -184q-24 -45 -80 -45h-42q-52 0 -52 63z" />
<glyph unicode="J" horiz-adv-x="866" d="M-21 127q0 71 55 71q43 0 101 -37.5t130 -37.5t140 68t99 150t90.5 372t59.5 436l-2 109q0 101 20 131q32 48 112 48h17q33 0 33 -159v-37q0 -2 -25.5 -142t-38 -202t-30.5 -159q-70 -383 -123 -505.5t-147 -188t-195.5 -65.5t-198.5 47t-97 101z" />
<glyph unicode="K" horiz-adv-x="1224" d="M215 87.5q0 47.5 34.5 353t41.5 334.5q98 403 153 554q33 91 100 91h29q39 0 39 -45l-140 -529q0 -24 11 -24q34 0 231 207q92 97 162.5 179.5t108.5 115.5q88 76 171 76q14 0 14 -13.5t-72.5 -84.5t-135.5 -143l-167 -189q-22 -26 -48 -54l-24 -26q-54 -65 -54 -142 q0 -33 142 -356l88 -196q28 -64 54 -106t26 -58.5t-43 -16.5q-66 0 -115 83q-29 49 -111.5 262.5t-94.5 235.5q-26 48 -65 48q-56 0 -88 -74q-43 -99 -55.5 -186.5t-23.5 -199.5t-11 -113q-13 -61 -72 -61q-38 0 -61.5 15t-23.5 62.5z" />
<glyph unicode="L" horiz-adv-x="1003" d="M136 105q0 5 58.5 327t68.5 372t18 94l8 44l9 44l8 45l9 44q12 66 29 149.5t32 177.5q6 35 44 35h17q72 0 72 -46.5t-107 -581.5t-107 -588.5t90 -68t269 -14.5t202.5 -13.5t23.5 -69t-45 -55.5l-55 3l-40 4q-60 6 -82 6h-180q-219 0 -293 19q-49 13 -49 73z" />
<glyph unicode="M" horiz-adv-x="1613" d="M85 82q0 53 29 136.5t50 170.5q196 825 219 890q39 111 97 111q78 0 137 -194q10 -32 90.5 -420.5t94.5 -388.5t239 391.5t268 450.5q119 161 193 161q56 0 56 -66q0 -37 -62 -475l-37 -266q-3 -24 -18 -126t-19 -201t-8 -120q-14 -71 -55 -71t-50.5 38.5t-9.5 123.5 t46.5 434t46.5 394.5t-12 45.5t-293 -475.5t-311 -475.5q-56 0 -79 76l-100 474q-83 398 -104 398q-33 0 -130 -403t-133 -499q-53 -141 -110 -141q-35 0 -35 27z" />
<glyph unicode="N" horiz-adv-x="1397" d="M95 64q0 52 258 1266q16 74 53 74q59 0 96 -25.5t68 -84.5t246 -538.5t235 -479.5q3 0 97.5 496.5t109.5 551t44 76t97 21.5l15 -16q0 -20 -23 -97t-69 -323.5t-64 -340t-26 -135.5l-24 -126q-16 -83 -28 -146t-20 -104l-8 -41q-15 -64 -62 -64q-75 0 -113 65.5 t-266 574.5t-250 509q-3 0 -102.5 -520.5t-111 -556t-38.5 -62t-90 -26.5q-24 0 -24 52z" />
<glyph unicode="O" horiz-adv-x="1458" d="M243 387v63v4q0 152 71 344q145 395 411 559q133 82 255 82h38q78 0 137 -35q170 -101 170 -381q0 -172 -67 -368t-175.5 -346.5t-240.5 -232t-254 -81.5h-38q-59 0 -118.5 27t-99.5 76q-89 111 -89 289zM409 435q0 -131 56 -217t152 -86h27q78 0 168 63q184 130 287 447 q59 182 59 322v50q0 135 -60.5 211.5t-145.5 76.5h-28q-85 0 -176 -68q-190 -141 -290 -472q-49 -162 -49 -310v-17z" />
<glyph unicode="P" horiz-adv-x="1149" d="M107 16.5q0 14.5 16 71.5t62.5 307.5t56.5 288.5q134 489 200 609q26 48 103 67q173 42 343 42h38q103 0 160 -60t57 -141v-39q0 -92 -48 -193.5t-145.5 -180.5t-167.5 -106.5t-219.5 -57.5t-183 -68t-91.5 -359q-20 -108 -27 -126q-26 -69 -119 -69h-16q-19 0 -19 14.5z M413 769q0 -14 20 -14h7q18 2 26 2q107 0 234.5 42.5t174.5 77t86.5 105t39.5 143.5l-1 8q0 51 -37 81t-99 30h-57l-60 -4q-40 -4 -49 -4q-121 0 -147 -37q-1 -2 -69.5 -195.5t-68.5 -227.5v-7z" />
<glyph unicode="Q" horiz-adv-x="1463" d="M302 521v55q0 133 46 310.5t124 305.5q165 271 378 271h41q83 0 151 -39q143 -82 198 -279q28 -101 28 -200v-78q0 -160 -66 -362q-36 -110 -111.5 -236t-75.5 -173t85 -136l12 -11l7 -8q9 -9 14 -15q-5 -1 -33 -10q-24 -8 -122 -20q-94 -12 -95 -12h-20q-69 0 -216 73.5 t-191 125.5q-154 184 -154 438zM419 465q0 -197 167 -295q55 -32 98 -32h26q84 0 84 92t48 143q21 23 64.5 44.5t54.5 29.5q61 44 97 118q103 213 103 426v35q0 120 -56 198.5t-148 78.5h-29h-2q-93 0 -184 -77q-185 -155 -275 -449q-48 -157 -48 -268v-44z" />
<glyph unicode="R" horiz-adv-x="1226" d="M215 18q0 115 116 798q1 4 35 119t67.5 259.5t40.5 161.5q32 78 300 78h47q126 0 201.5 -65.5t75.5 -183.5q0 -290 -198 -443q-105 -81 -105 -109q0 -46 78 -314.5t78 -282.5q0 -33 -55 -33h-19q-37 0 -59.5 45t-73.5 232t-99 270q-37 64 -137 64q-66 0 -80 -38 q-2 -7 -25 -223.5t-46 -282t-112 -65.5q-30 0 -30 13zM420 818q0 -24 22 -24h7l9 1q27 0 247 33q178 27 268 149q48 65 48 133v16l-1 8q0 48 -43 75.5t-114 27.5h-58l-10 -1l-159 -8q-20 -2 -29 -2q-56 0 -79 -50q-108 -231 -108 -351v-7z" />
<glyph unicode="S" horiz-adv-x="1129" d="M75 207q0 69 74 69q32 0 101 -53.5t128.5 -77t146.5 -23.5q150 0 244 80t94 183.5t-59.5 161.5t-236 144.5t-240 165.5t-63.5 202q0 78 37.5 150t103.5 125q132 105 302 105h34q95 0 235.5 -60.5t140.5 -107.5q0 -67 -76 -67q-25 0 -72 30t-75 44q-79 39 -196 39 t-202.5 -74.5t-85.5 -194.5q0 -78 84 -146q45 -36 206 -118t219 -141q91 -93 91 -227q0 -186 -147 -305q-141 -115 -347 -115q-114 0 -222.5 45.5t-191.5 114.5q-27 22 -27 51z" />
<glyph unicode="T" horiz-adv-x="1078" d="M325 1317v16q0 57 43.5 80.5t132.5 23.5h529q89 0 89 -23q0 -88 -64 -112q-23 -9 -150 -19t-146 -42q-10 -16 -19 -99t-32.5 -199t-88.5 -467.5t-83 -415.5q-16 -54 -126 -54q-27 0 -27 26q0 1 16.5 59.5t45.5 216.5l42 219l5 24q8 41 62.5 336.5t54.5 311.5 q0 75 -187 86q-97 6 -97 32z" />
<glyph unicode="U" horiz-adv-x="1343" d="M184 388q0 91 49 346.5t52 271.5t14 73l13 69q15 79 21 133l6 63q5 52 7 58q8 24 36 24q101 0 101 -59q0 -44 -76 -447.5t-76 -526t74 -201.5t205 -79q262 0 369 214q59 118 141 552t95 471q25 69 116 69q39 0 39 -14q0 -34 -24.5 -113t-39.5 -161l-40 -206 q-8 -40 -20 -104q-78 -420 -142.5 -546.5t-184 -207t-286.5 -80.5h-38h-6q-90 0 -171 31q-234 88 -234 370z" />
<glyph unicode="V" horiz-adv-x="1200" d="M225 1380q0 29 46 29q91 0 121 -120q11 -42 84.5 -542.5t96.5 -500.5q5 0 86 159t175.5 338t180.5 347.5t112 213.5q65 110 170 110q34 0 34 -25q0 -16 -69.5 -127.5t-335 -615t-294.5 -552.5q-50 -85 -108 -85t-78 77q-29 114 -97.5 577t-79.5 513q-44 193 -44 204z" />
<glyph unicode="W" horiz-adv-x="1804" d="M233 1360.5q0 43.5 44 43.5t73 -25.5t39.5 -92.5t43.5 -523t52 -456q13 0 276 537t295 537q70 0 88 -78q7 -31 55 -516t75 -485q7 0 154 323t200.5 444t73.5 163l25 47q45 78 94 107q28 17 74 17q23 0 23 -41q0 -14 -36 -78l-52 -90l-24 -48q-14 -28 -115 -251l-117 -253 q-188 -408 -208 -452l-47 -98q-35 -59 -102 -59q-42 0 -64 96.5t-66 538t-67 441.5l-23 -36l-93 -200q-23 -50 -161 -338t-196.5 -392t-127.5 -104q-39 0 -56 51l-7 52q-6 50 -15.5 166.5t-13.5 161.5l-19 220q-8 85 -10 111l-10 112q-17 187 -21 218l-8 51l-10 49 q-16 86 -16 129.5z" />
<glyph unicode="X" horiz-adv-x="1196" d="M99 16q0 5 35 48q36 44 76 108q40 66 200 314t160 287q0 13 -92 305t-93 313q0 45 89 45q53 0 76 -50q1 -1 77 -242l75 -235q27 0 173 234t166 252q42 38 131 38l19 -4q0 -13 -34 -53t-66 -90l-88 -139q-23 -35 -35 -54q-213 -335 -213 -384q0 -15 98 -335t98 -346 t-107 -26q-46 0 -69 61q-3 7 -79 257t-83 250q-27 0 -187 -258t-167 -264q-43 -45 -130 -45q-30 0 -30 13z" />
<glyph unicode="Y" horiz-adv-x="1144" d="M345 1384q0 51 72 51h20q47 0 72 -74q12 -37 78 -299t70 -262q22 0 182 275t167 284q54 69 145 69q21 0 21 -9q0 -17 -38 -59t-62 -84t-47 -82q-23 -38 -162 -277t-163 -293t-49 -176t-49 -249q-24 -128 -25 -131q-18 -68 -82 -68h-21q-40 0 -40 28q0 34 50 289t50 299 t-94 394q-94 349 -95 374z" />
<glyph unicode="Z" horiz-adv-x="1157" d="M42 65q0 61 475 618.5t475 592.5q0 22 -291 22t-331 8q-58 12 -58 71t58 59q16 0 79.5 -6t144.5 -6h247q369 0 369 -40q0 -57 -67 -143l-384 -459q-14 -16 -258 -308t-244 -309q0 -26 326 -26t357 -7q57 -13 57 -72t-59 -59q-17 0 -80 6t-144 6h-283q-302 0 -345.5 7.5 t-43.5 44.5z" />
<glyph unicode="[" horiz-adv-x="696" d="M95 -211q0 62 64.5 371.5t139 715t94.5 477t47.5 90t114.5 18.5l180 11q48 0 48 -11q0 -59 -39 -89q-8 -7 -88.5 -15.5t-103.5 -21.5t-34 -38.5t-146 -687.5t-135 -768q0 -40 62 -52q33 -7 74 -11.5t56.5 -13.5t15.5 -54.5t-45 -45.5h-79q-152 0 -197 21q-29 14 -29 83 v21z" />
<glyph unicode="\" horiz-adv-x="836" d="M201 1492q0 10 31 10h29q36 0 53 -33q52 -101 132 -420q289 -1156 289 -1184q0 -20 -61 -20q-54 0 -86 128q-146 583 -214.5 807t-136.5 566q-3 14 -19.5 75t-16.5 71z" />
<glyph unicode="]" horiz-adv-x="695" d="M-31 -322q0 65 45 88q10 5 82 11t100.5 17.5t50.5 72.5t73 337.5t123.5 624.5t72.5 448q0 44 -31 57q-13 5 -83 18.5t-81 24t-11 62.5q0 32 50 32h80q158 0 188 -19t30 -91v-22q0 -49 -67 -377.5t-138 -714t-92 -462t-50 -93.5t-94 -17l-184 -12h-20q-44 0 -44 15z" />
<glyph unicode="^" horiz-adv-x="1141" d="M172 694q0 13 44 75.5t188.5 317.5t149.5 263q48 74 102.5 74t88 -57t133.5 -286t140 -295t40 -85v-10l-11 -3q-102 0 -138 54q-19 29 -71 147q-174 394 -195 394q-12 0 -80 -124t-73 -133t-47 -83l-35 -61q-75 -132 -88 -147q-40 -46 -140 -46z" />
<glyph unicode="_" horiz-adv-x="1081" d="M-73 -248l1 9v10q0 55 50 55h1003q45 0 45 -24q0 -74 -51 -74h-1003q-45 0 -45 24z" />
<glyph unicode="`" horiz-adv-x="798" d="M365 1474q0 21 47 21h18l32 -4q42 0 61.5 -22.5t46.5 -71t63.5 -107t36.5 -76.5v-7q0 -12 -14 -12h-22q-53 0 -80 31q-189 221 -189 248z" />
<glyph unicode="a" d="M82 318v39q0 109 40 231q38 122 110 206q153 180 348 180h17q66 0 129 -23t81 -23l102 32q54 0 54 -80v-15q0 -10 -52 -322t-52 -400t-22 -122q-13 -20 -82 -20q-41 0 -55.5 57t-16.5 57q-13 0 -51 -32q-122 -104 -252 -104t-214 91t-84 248zM251 349q0 -106 47 -170.5 t124 -64.5h20q54 0 118 41q123 80 171 271q34 136 34 209l2 20l1 31v40q0 73 -31 99t-107 26h-21l-10 -1q-127 0 -236 -134q-48 -59 -80 -151t-32 -172v-44z" />
<glyph unicode="b" horiz-adv-x="1122" d="M161 52q0 32 53 236q129 498 161 950q10 153 15 166q9 27 51 27q55 0 55 -52q0 -8 -40 -183q-39 -171 -39 -215q0 -7 7.5 -7t39.5 21q121 78 184 78q63 -1 125 -31q185 -92 185 -382q0 -253 -139 -464q-57 -86 -135 -146.5t-138 -60.5t-140.5 29t-107.5 43.5t-33.5 14.5 t-31.5 -28t-48.5 -28t-23.5 32zM355 260l1 -10q0 -68 30.5 -101.5t83.5 -33.5h17q51 0 117.5 46t113.5 126q118 204 118 392v33q0 77 -31.5 128.5t-80.5 51.5h-25q-57 0 -121 -52q-132 -107 -188 -354q-35 -154 -35 -226z" />
<glyph unicode="c" horiz-adv-x="977" d="M115 401v24v5q0 111 45 222q91 228 272 316q96 47 184 47h21q116 0 217 -39.5t101 -82.5q0 -32 -25 -54.5t-42.5 -22.5t-52.5 20t-87.5 43t-124.5 23t-141 -39.5t-117 -104.5q-112 -153 -112 -345q0 -137 66 -217.5t170 -80.5q104 1 193 49q90 48 113 48q45 0 45 -61 q0 -51 -120.5 -99t-215.5 -48h-43q-63 0 -131 28q-131 54 -183 187q-32 82 -32 182z" />
<glyph unicode="d" horiz-adv-x="1125" d="M183 278v25q0 144 38 233q129 304 325 397q80 38 200 38l116 -4q53 0 63 20q4 8 45 202l10 47q5 23 15 70l10 47l4 23q5 30 7 37q14 46 57 46h18q54 0 54 -51q0 -99 -69 -406t-242 -838q-30 -91 -102 -91q-29 0 -38 22q-15 37 -20 37t-54 -47q-112 -107 -219.5 -107 t-162.5 79t-55 221zM327 287q0 -79 33 -126.5t82 -47.5h26q52 0 110 43.5t103.5 122t84 219.5t38.5 215l2 21v39q0 61 -34 89.5t-77 28.5h-26q-53 0 -114 -44.5t-114 -131.5t-83.5 -198t-30.5 -174v-56z" />
<glyph unicode="e" horiz-adv-x="1046" d="M108 394v24q0 104 62 221q114 217 316 300q147 61 252 61t164.5 -54.5t59.5 -153.5v-21q0 -59 -20.5 -114t-46.5 -71t-198 -45t-283.5 -44.5t-126.5 -21.5q-43 -18 -43 -115t66.5 -170.5t201.5 -73.5q63 0 180.5 50t126.5 50q59 0 59 -49t-136 -107t-236 -59 q-192 0 -295 107t-103 286zM295 629q0 -6 17 -6h11l7 1l27 2q28 4 42 5.5t39 4.5t47 3l8 1l7 1l44 3q8 1 14 1l131 7q109 0 127 9t18 50v28q0 50 -52.5 91t-128.5 41h-38q-98 0 -190 -67q-130 -95 -130 -171v-4z" />
<glyph unicode="f" horiz-adv-x="661" d="M101 -57.5q0 32.5 41.5 149t87.5 361.5t46 348q0 23 -21.5 54.5t-21.5 60.5t79 122q38 45 76 160q38 114 86 170q95 108 245 108h22q113 0 113 -41.5t-50 -68.5q-17 -9 -81 -9q-104 0 -159 -63q-76 -87 -76 -198q0 -45 71.5 -74.5t71.5 -58.5q0 -48 -76 -89t-109 -114 q-34 -72 -84 -338q-84 -440 -141 -490q-26 -22 -72 -22h-18q-30 0 -30 32.5z" />
<glyph unicode="g" horiz-adv-x="1133" d="M52 -247q0 93 31 93t132.5 -63t189.5 -63q141 0 229 90q51 52 89 147.5t38 128.5l-4 10q-2 0 -27 -11.5t-68 -30.5q-42 -19 -112 -19q-149 0 -241 117t-92 303q0 106 31 215t78 182t140.5 137t164 64t116.5 -27t71.5 -51.5t31 -24.5t24 20.5t41.5 20.5q55 0 55 -50.5 t-40 -264.5t-59.5 -478.5t-39.5 -314.5q-53 -135 -176 -208.5t-257 -73.5t-240 50t-106 102zM323 349q0 -83 31 -133.5t90 -50.5h9l8 1q49 0 116 46t114 123t85 210t38 211v39q0 47 -32.5 82.5t-84.5 35.5h-26q-63 0 -127 -51.5t-113 -131.5q-108 -177 -108 -370v-11z" />
<glyph unicode="h" horiz-adv-x="1097" d="M177 45v27q0 11 60.5 324.5t74.5 409t29.5 318.5t16.5 230q9 56 48 56h21q53 0 53 -86q0 -6 -9.5 -62t-16.5 -103l-24 -158q0 -13 7 -13l9 3l22 13q18 8 78.5 22.5t146 14.5t151 -73t65.5 -191v-32q0 -225 -118 -687q-12 -46 -58 -46q-59 0 -59 63.5t57 362.5t57 324 q0 132 -117 132q-49 0 -110 -51.5t-103 -137t-91 -331t-52 -255.5q-33 -111 -75 -111q-63 0 -63 37z" />
<glyph unicode="i" horiz-adv-x="515" d="M116 19v10q0 26 69.5 373.5t69.5 442t18 136.5t71 42h49q25 0 25 -15v-50q0 -52 -47.5 -290.5t-58 -352.5t-42.5 -236q-20 -78 -84 -78h-29q-41 0 -41 18zM336 1262v13l1 3v9l6 34q0 43 25.5 74.5t57.5 31.5l6 2l34 4h6l28 -5q21 0 21 -24v-25l-1 -3l-3 -23 q-1 -4 -3 -11.5t-2 -27.5t-23 -49t-48 -29q-15 -5 -19 -5l-24 -3h-22q-40 0 -40 34z" />
<glyph unicode="j" horiz-adv-x="525" d="M-155 -382q0 49 22 72.5t74.5 41t91 51t61.5 101.5t97.5 450t74.5 499.5t15.5 154t74.5 36.5h29q35 0 36.5 -46t1.5 -48v-46q0 -55 -94.5 -528.5t-115.5 -527.5q-90 -234 -316 -234q-52 0 -52 24zM353 1263v15l2 16l3 17l5 23q0 28 29 71q14 21 44 21q15 5 19 5l27 3h13 l25 -5q19 0 19 -31v-13l-2 -12v-7q-4 -12 -4 -20l-5 -20q0 -32 -23.5 -61.5t-57.5 -29.5l-4 -1l-3 -1l-26 -3h-20l-3 1h-6q-4 2 -8 2q-24 0 -24 30z" />
<glyph unicode="k" horiz-adv-x="1006" d="M179 66l4 24l6 26q7 37 12.5 100t31.5 293.5t42 306.5q57 262 136 504q34 105 71 105q56 0 56 -36t-84.5 -353t-84.5 -351.5t10 -34.5q39 0 217 182t202 199.5t70 17.5t46 -13v-14q0 -27 -140 -184.5t-166.5 -197.5t-26.5 -93q0 -28 99.5 -248t99.5 -246q0 -40 -56.5 -40 t-78.5 37q-11 19 -96 225.5t-121 206.5q-73 0 -113 -272q-16 -108 -37.5 -149.5t-64.5 -41.5q-34 0 -34 47z" />
<glyph unicode="l" horiz-adv-x="531" d="M152 113v47q0 63 56 379.5t85 458t46.5 278.5t25.5 163q12 40 66 40h26q43 0 43 -13v-12q0 -46 -95.5 -571.5t-95.5 -675.5l5 -96q0 -65 -20.5 -89t-65.5 -24h-27q-49 0 -49 115z" />
<glyph unicode="m" horiz-adv-x="1615" d="M105 88v34q0 138 106 488.5t149.5 350.5t60.5 -28q5 -8 12 -44.5t17.5 -36.5t45 16.5t74.5 32.5t112 16q122 0 195 -58l21 -21q29 -30 43 -30q13 0 73 56q130 122 249.5 122t175 -76t55.5 -204v-39q0 -232 -87 -525q-31 -104 -98 -104q-46 0 -46 64q0 2 15.5 64.5 t24.5 111.5l15 82q54 277 54 353q0 75 -38 117q-40 42 -102 42q-126 0 -214 -140q-68 -108 -143 -409q-27 -106 -37 -137l-12 -31q-18 -32 -80.5 -32t-74 13.5t-11.5 117.5t26.5 249t26.5 221.5t-22.5 112t-82.5 35.5t-123 -46.5t-110.5 -126t-79.5 -247.5t-38 -237 t-25 -120.5t-73 -51.5t-54 45z" />
<glyph unicode="n" horiz-adv-x="1096" d="M89 91q0 178 164 784q23 86 80 86q48 0 58.5 -15.5t12.5 -52t14 -36.5q4 -1 32 25q142 128 269.5 128t196 -66.5t68.5 -199.5v-26q0 -221 -99 -650q-8 -35 -36 -35q-96 0 -96 57q0 26 41 272t41 344q0 202 -167 202q-77 0 -151 -50t-115 -120q-66 -113 -96 -278 q-52 -284 -75 -344.5t-97 -60.5q-45 0 -45 36z" />
<glyph unicode="o" horiz-adv-x="1107" d="M173 283v31q1 114 51 252q103 280 308 404q98 59 186 59h28q107 0 171 -77t64 -209v-15l-1 -16q0 -116 -52 -258t-134 -244q-171 -213 -371 -213h-14q-108 0 -172 77t-64 209zM329 319q0 -84 36 -140t99 -56h19q109 0 218 158q46 67 84.5 183t38.5 209v45 q0 84 -38.5 134.5t-95.5 50.5h-19h-1q-118 0 -225 -169q-56 -88 -85 -195.5t-29 -162.5l-2 -22v-35z" />
<glyph unicode="p" horiz-adv-x="1127" d="M38 -332q0 157 295 1178q30 105 113 105q29 0 34 -25q6 -25 8 -25q2 -1 38 33q118 110 196 110h34q111 0 169 -90t58 -260v-61q0 -68 -64 -209.5t-129 -218t-154.5 -121t-161 -44.5t-132 19t-80.5 19t-64 -229.5t-73 -229.5h-15q-72 0 -72 49zM369 241q0 -42 30.5 -72.5 t80.5 -30.5h17q127 0 239 177q45 71 78.5 181.5t33.5 210.5t-34 149.5t-95 49.5l-8 -1q-51 0 -110 -40.5t-105.5 -116.5t-86.5 -223t-40 -235v-49z" />
<glyph unicode="q" horiz-adv-x="1123" d="M201 338v25v6q0 117 37 238q76 251 254 377q77 55 145.5 55t165.5 -47t102.5 -47t18 19.5t23 32.5t25.5 13q28 0 28 -22v-13q0 -10 -64 -277q-130 -542 -149 -884q-5 -105 -9 -123q-10 -44 -53 -44q-52 0 -52 50q0 16 33 160t33 181.5t-5.5 37.5t-31.5 -21l-67 -55 q-78 -54 -142.5 -54t-123.5 37q-168 105 -168 355zM326 299q0 -71 33.5 -119.5t80.5 -48.5h24h2q39 0 102 43q126 85 198 347q39 143 39 228v40q0 57 -31 88t-88 31h-9q-118 0 -228 -162q-49 -71 -86 -187.5t-37 -204.5v-55z" />
<glyph unicode="r" horiz-adv-x="722" d="M86 18q0 8 12 54t13 52l6 34l19 101q35 172 79 416.5t85 290.5q21 24 69 24q75 0 75 -84q0 -30 7 -30t33 34q78 104 169 104h12q78 0 78 -52q0 -92 -51 -92l-38 4q-14 1 -53.5 1t-90 -29t-108.5 -124.5t-117.5 -384.5t-61.5 -293q-22 -43 -116 -43q-21 0 -21 17z" />
<glyph unicode="s" horiz-adv-x="899" d="M51 139q0 75 75 75q3 0 128 -69q71 -39 156.5 -39t154.5 44.5t69 118.5t-42.5 110t-170.5 98.5t-179 120.5t-51 161t97 184t223 81h25q81 0 195.5 -40t114.5 -77q0 -73 -77 -73q-16 0 -88.5 40t-156.5 40t-141.5 -46t-57.5 -110t65 -112q17 -12 146 -78t171 -111 q63 -67 63 -178.5t-103 -197.5t-245 -86h-26q-90 0 -217.5 51.5t-127.5 92.5z" />
<glyph unicode="t" horiz-adv-x="681" d="M189 201.5q0 81.5 48.5 324t48.5 300t-37 68t-37 53.5t59.5 67.5t63.5 31t20.5 95.5t39.5 123t82 34h14q25 0 25 -30l-26 -142q0 -53 64 -83q96 -44 96 -54q0 -40 -23 -63t-91 -34.5t-93 -66.5t-68.5 -273t-43.5 -300.5t88 -115.5t88 -96q0 -46 -80 -46h-16 q-101 0 -161.5 63t-60.5 144.5z" />
<glyph unicode="u" horiz-adv-x="1091" d="M144 274v27q0 219 94 626q15 66 50 66q91 0 91 -56q0 -7 -44.5 -269t-44.5 -357q0 -200 161 -200q76 0 147.5 44t126 123.5t101 324.5t59.5 283q30 86 110 86q35 0 35 -57v-17q0 -59 -34.5 -173.5t-42.5 -157.5q-79 -412 -82 -419q-30 -77 -106 -77q-21 0 -27.5 10.5 t-13 30.5t-11.5 20q-11 0 -54 -32.5t-105 -63.5t-162.5 -31t-174 69t-73.5 200z" />
<glyph unicode="v" horiz-adv-x="970" d="M148 983q0 15 46 15t71 -19q23 -19 43 -88t68 -373t66 -305q13 0 181 319q168 320 199 368q66 101 155 101q35 0 35 -22q0 -23 -50 -97t-254 -434q-203 -360 -217 -381q-39 -58 -91 -58t-67 57q-5 20 -67 352t-64 344q-2 10 -28 101t-26 120z" />
<glyph unicode="w" horiz-adv-x="1436" d="M145 963.5q0 30.5 53 30.5q68 0 96 -102q12 -45 42.5 -340t52.5 -295q15 0 170.5 319.5t166.5 339.5q35 63 84 63t64 -50q4 -13 20 -158q59 -519 83 -519q14 0 162 313t178 353q58 77 133 77q26 0 26 -21t-63 -132.5t-200 -389t-180 -354t-91 -76.5t-65 52 q-11 33 -53 359t-58 326q-4 0 -159 -310t-173 -343q-47 -84 -97.5 -84t-65.5 44q-9 23 -35 252.5t-38.5 336.5t-32.5 192.5t-20 116z" />
<glyph unicode="x" horiz-adv-x="989" d="M63 13q0 11 33 45l34 33q28 28 34.5 35.5t135.5 194t129 219.5q0 5 -40 111l-42 111q-74 208 -74 221q0 33 94 33h23q37 0 58 -43q5 -11 54 -152t54 -141q10 0 65.5 68t104.5 140.5t62 85.5q43 42 138 42l13 -3q0 -11 -80 -96q-25 -27 -138.5 -195t-113.5 -195t83.5 -248 t83.5 -242q0 -32 -97 -32h-23q-43 0 -60 39q-3 7 -29 83l-32 90q-58 162 -66 162t-66 -74t-115 -158.5t-62 -89.5q-48 -50 -134 -50q-27 0 -27 6z" />
<glyph unicode="y" horiz-adv-x="981" d="M-8 -366q0 54 128 124q91 50 156 152t65 241q0 43 -47 406t-47 403q0 58 70 58q52 0 69 -82q10 -53 44 -363t46 -310q12 1 156 323q146 322 146 323q54 101 136 101q25 0 25 -10t-26 -55q-26 -44 -70 -142q-339 -755 -431 -906t-161 -210q-111 -96 -172 -96h-23 q-64 0 -64 26v17z" />
<glyph unicode="z" horiz-adv-x="961" d="M32 45q0 46 351 436t351 391q0 22 -222 22t-252 12.5t-30 81.5q0 33 56 33l191 -12h212q260 0 260 -26q0 -49 -55.5 -114.5t-349 -383.5t-293.5 -343q0 -14 230 -14t264 -7q51 -10 51 -69q0 -52 -57 -52q-8 0 -43 3l-48 5q-48 4 -100 4h-239q-277 0 -277 33z" />
<glyph unicode="{" horiz-adv-x="760" d="M152 558q0 52 98 94q72 31 107.5 105t65 286.5t87.5 299.5q38 57 115 98.5t178 41.5q33 0 33 -22q0 -42 -22.5 -64.5t-45.5 -29.5l-23 -6q-88 -22 -128 -83.5t-73 -266.5t-62 -270q-40 -91 -132 -141q-34 -18 -35 -31q0 -3 36.5 -47t52 -76t15.5 -94.5t-29.5 -207.5 t-29.5 -225.5t77.5 -122t77.5 -90.5t-36 -49h-21q-104 0 -180 87q-51 58 -51 135t32 237t32 222q0 111 -93 161q-46 25 -46 59z" />
<glyph unicode="|" horiz-adv-x="739" d="M338 -325l1 21l7 427v42l1 22v42l1 21v43l1 21v42l2 64v42l1 21v42l1 21v43l4 211v43l1 21v42l1 22v42l1 21v43l4 192v43l4 235q0 63 43 63h33q43 0 43 -58v-43l-1 -21l-7 -427v-43l-1 -21v-42l-1 -22v-42l-1 -21v-43l-2 -63v-43l-1 -21v-42l-1 -21v-42l-4 -212v-42 l-1 -22v-42l-1 -21v-43l-1 -21v-43l-3 -127v-43l-1 -21v-43l-4 -235q0 -63 -43 -63h-33q-43 0 -43 58v43z" />
<glyph unicode="}" horiz-adv-x="760" d="M-24 -322q0 43 22 65t45 29l23 6q89 25 129 89t72 265q32 200 59 264q42 98 137 149q35 19 35 29.5t-35.5 46t-53.5 71.5t-18 98.5t29.5 207.5t29.5 226t-77.5 119.5t-77.5 110.5q0 28 34 28h21q103 0 183 -88q50 -55 50 -175q0 -51 -31 -194.5t-31 -211.5 q0 -107 80 -158q57 -36 57 -54v-21q0 -40 -86 -82t-116.5 -108.5t-66.5 -291.5t-83 -293t-105 -99q-95 -50 -170 -50h-21q-34 0 -34 22z" />
<glyph unicode="~" horiz-adv-x="1187" d="M143 532q0 74 90 159t177 85h36q74 0 209.5 -82.5t198.5 -82.5t129.5 75t90.5 75q45 0 45 -31v-9q0 -72 -114 -168q-76 -64 -165 -64h-12q-75 0 -216.5 82.5t-203 82.5t-129.5 -76.5t-92 -76.5q-44 0 -44 31z" />
<glyph unicode="&#xa1;" horiz-adv-x="599" d="M73 -364.5q0 15.5 61.5 384.5t124.5 621q13 50 62 50h49q26 0 26 -23v-11q0 -24 -12 -98.5t-45 -349t-88 -539.5q-10 -50 -59 -50h-62q-57 0 -57 15.5zM264 947v12l1 3l2 19q0 33 34 67t77 34h23q38 0 63.5 -25.5t25.5 -57.5l2 -19v-8l-1 -4v-7q-2 -8 -2 -12 q0 -40 -37 -70.5t-86 -30.5t-73.5 24.5t-25.5 40.5t-1 19z" />
<glyph unicode="&#xa2;" horiz-adv-x="1004" d="M143 437v50q0 89 36 182q95 246 346 332q111 38 127 51.5t43 114.5t75 101q39 0 56 -45q62 -163 62 -238q0 -27 8.5 -47t8.5 -31q0 -40 -44 -40l-16 1l-21 5l-21 3q-53 0 -78 -65q-33 -85 -108 -400l-29 -115q-11 -42 -11 -46q0 -40 59 -40q31 0 87 21.5t67 21.5 q30 0 30 -45.5t-55 -81.5q-5 -3 -98 -45t-97 -46q-35 -35 -75 -138t-93 -103q-39 0 -39 18l22 168q0 70 -40 118q-7 7 -39 29q-79 53 -121 135.5t-42 174.5zM303 452q0 -78 37 -138q58 -94 106 -94q19 0 23.5 23.5t79.5 324t75 305.5v6q0 5 -9 5h-7q-32 0 -99 -36t-117 -103 q-87 -116 -87 -227l-2 -16v-50z" />
<glyph unicode="&#xa3;" horiz-adv-x="1042" d="M100 58q0 52 71.5 104.5t99.5 103.5q60 108 60 178t-40 127q-8 12 -41 39t-33 28q0 12 15.5 40.5t26 52t33.5 46.5t29 37.5t18.5 106.5t38 172.5t88.5 159.5t156 122.5t189.5 43.5t174.5 -42t78 -80q0 -64 -14 -92.5t-67 -28.5t-109 28t-103 28q-96 0 -175.5 -104 t-79.5 -222q0 -45 96 -97l45 -25q49 -44 49 -109q0 -34 -16 -39q-27 -8 -31 -13t-21 -32.5t-32 -41.5l-40 -32q-48 -41 -53.5 -48.5t-44 -124.5t-38.5 -121q0 -42 43.5 -64t176.5 -22q24 0 95 19t113 19q80 0 80 -62q0 -56 -46 -91t-152 -35h-33q-46 0 -150.5 19t-166.5 19 t-122 -5l-30 -3q-48 -5 -54 -5q-84 0 -84 46z" />
<glyph unicode="&#xa4;" horiz-adv-x="1101" d="M103 266v16q0 6 56 58.5t56 76t-7 43.5l-8 19q-11 28 -21.5 63t-10.5 119t39 173.5t39 94.5q0 41 -41 97.5t-41 65.5t33.5 42.5t47.5 33.5t66 -48.5t94 -48.5l17 5l36 13l19 5l40 14q58 17 121.5 17t144 -25.5t84.5 -25.5q33 0 96 47t64 47q23 0 51 -28t28 -45v-16 q0 -3 -75 -76q-37 -36 -37 -83q0 -9 22 -63t22 -136t-16 -131.5t-38.5 -98.5t-22.5 -76.5t40.5 -81t40.5 -63t-33 -43.5t-47.5 -34t-66.5 48.5t-71 48.5t-102 -27t-149.5 -27t-121.5 16l-58 19q-50 14 -53 14q-43 0 -94.5 -46.5t-69.5 -46.5t-45.5 29.5t-27.5 44.5zM311 644 q0 -118 78 -196t188 -78l9 1q124 0 216.5 99.5t92.5 216.5v40q0 109 -77 186t-178 77h-20l-10 -1q-116 0 -207.5 -98.5t-91.5 -236.5v-10z" />
<glyph unicode="&#xa5;" horiz-adv-x="1076" d="M183 446q0 35 132 66.5t132 75.5q0 15 -101.5 74t-101.5 81q0 11 53 34.5t74.5 48.5t21.5 72t-63.5 223t-63.5 233t35 57q95 0 127 -75q3 -7 93.5 -279t95.5 -272t180 266.5t189 284.5q58 74 169 74q25 0 25 -28.5t-150 -245t-150 -298.5q0 -43 16 -57t29 -21t13 -12 q0 -27 -93 -96t-93 -70q0 -19 67 -68t67 -67q0 -5 -91 -57t-148 -114q-24 -26 -52 -116l-18 -68q-14 -51 -22 -63q-20 -31 -85.5 -31t-65.5 45l25 178q0 103 -32 132q-9 8 -111.5 40.5t-102.5 52.5z" />
<glyph unicode="&#xa6;" horiz-adv-x="747" d="M311 -351l1 10l1 28v19l1 10v18l1 19v19l2 46v19l3 64v18l1 18v18l1 9v188q0 180 14 219q4 11 47 11h56q37 0 37 -20v-47l-1 -10l-1 -28v-19l-2 -38v-18l-2 -47v-18l-1 -19v-18l-1 -9v-18l-1 -19v-18l-2 -45v-18l-1 -9v-18l-2 -45v-19l-1 -9v-18l-1 -19v-28l-2 -46v-19 l-1 -10v-19l-1 -19v-28l-1 -10v-19q-2 -18 -2 -27q0 -19 -21 -19h-93q-28 0 -28 20v37zM347 757v28l1 9l1 28v19l2 46v18l2 45v18l1 18v18l1 9v18l1 17v18l2 44q0 307 12 371q3 18 39 18h64q39 0 39 -26v-18l-1 -10v-28l-3 -64v-27l-2 -46v-18l-2 -36v-26l-2 -45v-17l-1 -9 v-17q0 -380 -33 -380h-90q-31 0 -31 25z" />
<glyph unicode="&#xa7;" horiz-adv-x="1016" d="M91 -89q0 74 60 74q34 0 101.5 -65.5t160 -65.5t151.5 49t59 126t-55 136q-32 34 -150.5 110t-165.5 130q-77 89 -77 183t30 155.5t94.5 120.5t64.5 107l-9 25l-24 56q-14 44 -14 100q0 139 113.5 236t274.5 97q107 0 194 -53t87 -129t-55 -76q-46 0 -107 58t-164 58 q-61 0 -118.5 -49t-57.5 -126.5t64 -137.5q28 -26 148.5 -100t176 -145t55.5 -168.5t-34.5 -160.5t-93.5 -128t-59 -89l8 -25l23 -54q17 -46 17 -111q-1 -65 -29 -127q-62 -135 -209 -187q-71 -25 -130 -25h-35q-107 0 -186 45q-109 62 -109 125v31zM331 624q0 -75 76 -151 q125 -125 195 -125h7q46 0 103 69.5t57 141.5v29q0 81 -85 158q-121 110 -184 110h-7q-47 0 -104.5 -70t-57.5 -140v-22z" />
<glyph unicode="&#xa8;" horiz-adv-x="753" d="M285 1260v11l1 3v3l3 20q0 22 29.5 51.5t63.5 29.5h24q32 0 56.5 -24.5t24.5 -54.5v-24l-1 -3v-7q-3 -9 -3 -12q0 -27 -32.5 -53t-63.5 -26h-17l-3 1h-7q-6 2 -14 2t-34.5 21.5t-26.5 61.5zM660 1260v14l1 3v7q2 6 2 20t30 44t64 30h24q32 0 54.5 -22.5t22.5 -37.5l5 -33 l-5 -32q0 -14 -24.5 -45t-55.5 -31l-19 -3h-14l-3 1h-7q-6 2 -9 2q-63 0 -63 64z" />
<glyph unicode="&#xa9;" horiz-adv-x="1567" d="M187 658v47q0 135 52.5 269t138.5 226q178 192 413 192h19q110 0 218.5 -48t185.5 -140.5t122 -224t45 -263.5v-47v-6q0 -130 -41 -255q-87 -267 -290 -362q-132 -62 -235 -62h-20l-20 1q-109 1 -221 53q-225 106 -324 376q-43 118 -43 244zM273 693l1 -20v-20 q0 -107 47 -225q88 -219 279 -311q93 -45 197 -45l17 1h17q87 1 181 51q202 108 274 349q30 98 30 210l-1 20q0 241 -149 423q-68 83 -163 130.5t-183 47.5h-52q-98 0 -192 -55q-184 -108 -259 -311q-44 -118 -44 -245zM426 678v21q0 182 107 298q50 54 117 82.5t127 28.5 h39q85 0 175.5 -47t90.5 -104q0 -36 -46 -36q-9 0 -78.5 43t-141.5 43q-107 0 -165 -91.5t-58 -233t66.5 -226t184.5 -84.5q49 0 122 46.5t79 46.5q50 0 50 -35q0 -53 -89.5 -108t-192.5 -55h-38q-67 0 -136.5 34t-118.5 93q-94 114 -94 284z" />
<glyph unicode="&#xaa;" horiz-adv-x="709" d="M157 983v25q0 127 99 261t203 134h30q26 0 71 -9t53 -9l85 17q45 0 45 -50v-21q0 -56 -28 -224t-28 -227q0 -96 -57 -96q-38 0 -54 25t-27.5 25t-68 -31t-107.5 -31h-24q-84 0 -138 61.5t-54 149.5zM278 1012q0 -63 31.5 -103.5t72.5 -40.5h30q77 0 131 85t54 166 q4 24 4 31l2 13v13l2 31v12l-1 6l-2 29q0 53 -90 53h-13q-73 0 -147 -74t-74 -188v-33z" />
<glyph unicode="&#xab;" horiz-adv-x="945" d="M92 533q0 5 168 209t202 204h10q66 0 66 -33v-7q0 -18 -146 -196t-146 -182q0 -6 82 -171t83 -187q0 -46 -84 -46q-27 0 -75 92q-160 304 -160 317zM461 524v9q0 4 168 208t202 204h9q66 0 66 -33v-8q0 -16 -146 -194t-146 -186t82 -166q82 -157 83 -178q0 -54 -75 -54 h-10q-26 0 -74 91q-159 302 -159 307z" />
<glyph unicode="&#xac;" horiz-adv-x="1162" d="M145 677v13q0 94 34 94h840q49 0 65 -9t16 -57v-14q-2 -28 -2 -44q0 -236 -31 -403q-4 -20 -42 -20h-15q-81 0 -81 66l16 265q0 64 -43 71q-25 4 -391 4t-366 34z" />
<glyph unicode="&#xad;" horiz-adv-x="597" d="M100 484v6q0 103 29 121q6 4 188 4h232q18 0 18 -11v-15q0 -99 -28 -116q-5 -3 -218 -3h-125l-24 -1h-47q-25 0 -25 15z" />
<glyph unicode="&#xae;" horiz-adv-x="1459" d="M225 780v21l1 22q0 251 153 450q71 93 166 143.5t193 50.5h35q101 0 195 -53q190 -107 272 -349q42 -123 42 -244v-21l-1 -22q0 -140 -42 -250q-91 -240 -271 -335q-98 -52 -196 -52l-17 1h-18q-88 0 -181 45t-171 135.5t-119 211t-41 246.5zM327 795q0 -220 130 -385 q58 -74 135.5 -114t159.5 -40l14 1h15q68 0 141.5 41t133 116t91.5 174.5t32 181.5v71v5q0 83 -31 178q-65 200 -221 292q-79 46 -159 46h-28q-78 0 -154 -42q-78 -42 -134 -116q-125 -164 -125 -371v-3v-35zM534 740v60l16 225l2 31l1 47q0 45 23 60.5t121 15.5l26 2l53 1 q201 0 201 -182q0 -122 -91 -196q-36 -29 -36 -39l38 -71q42 -78 50 -94l35 -69q14 -28 26.5 -51t12.5 -25v-8q0 -5 -46.5 -5t-63 19t-72.5 127.5t-74 125.5t-69 17q-42 0 -42 -57l2 -31l3 -104q0 -98 -22 -98h-23q-46 0 -52 24q-10 39 -10 152l-3 31q0 2 -2 30zM605 930 q0 -67 8.5 -77.5t64.5 -10.5h66l5 1l46 3q15 3 21 3q48 0 78 35t30 70v14q0 37 -35.5 67.5t-78.5 30.5l-5 1l-6 1l-22 2h-12l-23 1h-6l-6 -1h-5q-90 0 -110 -20q-10 -10 -10 -107v-13z" />
<glyph unicode="&#xaf;" horiz-adv-x="826" d="M261 1319l2 32q0 70 63 70h617q30 0 30 -17q-4 -34 -4 -41q0 -62 -54 -62h-633q-21 0 -21 18z" />
<glyph unicode="&#xb0;" horiz-adv-x="826" d="M249 1167v37q0 111 89 200t202 89h37q95 0 169.5 -74.5t74.5 -165.5v-38q0 -110 -89.5 -199.5t-210.5 -89.5h-19q-104 0 -178.5 74.5t-74.5 166.5zM361 1181q0 -52 43 -101t106 -49h23q73 0 125 59.5t52 129.5v6q0 70 -46 116t-115 46l-6 -1h-6q-74 0 -125 -58.5 t-51 -118.5v-29z" />
<glyph unicode="&#xb1;" horiz-adv-x="1157" d="M124 62v10q2 22 2 33q0 72 31 72h898q19 0 19 -23l-1 -11l-1 -21q-3 -33 -3 -43q0 -40 -18 -40h-908q-19 0 -19 23zM167 688v17q0 85 25 94q11 4 189.5 4t189 9.5t24 178.5t16.5 176q8 20 57 20h37q43 0 43 -31l-23 -313q0 -30 11.5 -35t188 -5t182.5 -2q19 -6 19 -35 q0 -84 -21 -92.5t-196 -8.5t-188.5 -12t-23.5 -184l-2 -19l-3 -37l-2 -37q-4 -49 -5 -55q-6 -36 -42 -36h-74q-25 0 -25 30l20 299q0 40 -11 45.5t-168 5.5h-130q-36 2 -62 2t-26 21z" />
<glyph unicode="&#xb2;" horiz-adv-x="716" d="M162 688q0 36 192 228t231.5 244.5t39.5 107.5t-31 85t-84.5 30t-115.5 -42t-94 -42t-32 49t87 99.5t160 50.5h39q89 0 148.5 -57t59.5 -146.5t-57.5 -171t-189.5 -204t-132 -137t154 -14.5t154 -43q0 -68 -48 -68h-430q-51 0 -51 31z" />
<glyph unicode="&#xb3;" horiz-adv-x="712" d="M161 737v17q0 64 51 64q19 0 78 -31.5t108 -31.5q87 0 132 49t45 108.5t-35.5 89t-96.5 39t-61 33.5q0 45 18 58t48 19q78 13 121 54t43 106q0 31 -27.5 54.5t-76 23.5t-110.5 -30t-73 -30q-37 0 -37 47t79 85.5t169.5 38.5t151.5 -41.5t61 -122.5v-19q0 -112 -116 -191 q-33 -24 -33 -26q0 -4 34 -24q78 -48 78 -158.5t-91.5 -192t-222.5 -81.5h-21q-113 0 -186 56q-30 23 -30 37z" />
<glyph unicode="&#xb4;" horiz-adv-x="692" d="M370 1150q0 3 75.5 116t109.5 147t73 34h5l5 -1h10q97 0 97 -28v-8q0 -13 -135.5 -148.5t-164.5 -135.5l-10 -2h-6l-5 1q-54 0 -54 25z" />
<glyph unicode="&#xb5;" horiz-adv-x="1054" d="M26 -347q0 34 105 616l59 338q8 46 31 185t27 151q14 42 57 42h31q70 0 70 -46q0 -26 -49.5 -300.5t-49.5 -354.5t45.5 -121t113.5 -41q150 0 227 128q39 64 89.5 348t52.5 292q24 89 95.5 89t71.5 -47q0 -15 -53 -309t-53 -405q0 -205 -137 -205q-40 0 -64 18 q-26 35 -43 35q-1 0 -72.5 -21t-106.5 -21t-68 -13l-45 -18q-35 -11 -82 -11q-38 0 -63 -148t-51.5 -200.5t-77.5 -52.5q-60 0 -60 72z" />
<glyph unicode="&#xb6;" horiz-adv-x="1124" d="M197 979v41q1 76 35 158q34 84 108 148q144 126 380 126q302 0 394 -23q34 -9 34 -41q0 -73 -46 -128t-57 -122l-30 -253q-5 -43 -10 -85l-38 -335q-61 -506 -99 -682q-18 -85 -85 -85q-34 0 -49.5 22.5t-15.5 125t92.5 637.5t92.5 705q0 38 -18.5 58.5t-74.5 20.5 t-64 -24l-35 -325q-8 -74 -16 -150l-20 -191q-93 -716 -99 -738.5t-35 -50.5t-49 -28q-55 0 -55 66q0 108 18 351l8 125l19 214l1 39q0 15 -97.5 104t-143 164t-45.5 156z" />
<glyph unicode="&#xb7;" horiz-adv-x="585" d="M255 573v20l4 27q0 27 35 62t86 35h8q45 0 73 -28t28 -54l3 -23v-12q0 -57 -40 -90.5t-85 -33.5h-8q-40 0 -72 27t-32 70z" />
<glyph unicode="&#xb8;" horiz-adv-x="694" d="M121 -353q0 3 94 54q64 35 64 90q0 15 -12.5 40t-12.5 41.5t24 60.5t36 44h13l6 -1q59 0 59 -33q0 -7 21.5 -55.5t21.5 -65.5v-18q0 -87 -79.5 -150.5t-167.5 -63.5h-6q-61 0 -61 47v10z" />
<glyph unicode="&#xb9;" horiz-adv-x="682" d="M324 1348v10q0 47 57 77q97 51 200 51q41 0 41 -34v-10q0 -5 -9 -59l-6 -36l-5 -24q-6 -36 -11 -66.5t-26.5 -161t-21.5 -145t7.5 -41.5t7.5 -83t-57 -139q-21 -31 -49 -31h-61q-61 0 -61 84q0 62 38 130.5t47 120.5q42 252 42 279q0 48 -57 48l-38 -3q-38 0 -38 33z" />
<glyph unicode="&#xba;" horiz-adv-x="693" d="M151 1034l1 11v10q0 141 99 255q99 113 245 113h11q108 0 175.5 -72.5t67.5 -195.5l-1 -10q0 -161 -101.5 -269.5t-231.5 -108.5h-21q-114 0 -179 76t-65 191zM278 1032q0 -70 37 -117.5t94 -47.5h13q81 0 141 85.5t60 185.5v20q0 73 -35.5 118.5t-87.5 45.5h-27 q-76 0 -135.5 -85t-59.5 -184v-21z" />
<glyph unicode="&#xbb;" horiz-adv-x="946" d="M75 153v16q0 15 144 190t144 188l-63 124q-18 34 -61.5 126t-43.5 97q0 48 83 48q30 0 71 -78q166 -315 166 -326v-9q0 -15 -171.5 -210.5t-201.5 -195.5q-67 0 -67 30zM445 151v17q0 15 144.5 190.5t144.5 179.5q0 15 -84 175t-84 182q0 48 82 48q30 0 71 -78 q167 -317 167 -327v-9q0 -16 -171.5 -211.5t-201.5 -195.5h-10q-58 0 -58 29z" />
<glyph unicode="&#xbc;" horiz-adv-x="1607" d="M229 -41q0 8 548.5 739t568.5 731h18q68 0 68 -19q0 -7 -548.5 -738t-568.5 -731h-18q-68 0 -68 18zM298 1273v8q0 49 70.5 90t186.5 41q28 0 28 -43t-37 -247q-41 -226 -41 -312t-43 -183q-12 -27 -46 -27h-45q-40 0 -40 55t23 139l5 21l3 10l5 21q14 58 33 168t19 154 q0 64 -57 64q-64 0 -64 41zM868 183v8q0 55 409 512q82 92 156 92q14 0 14 -31t-34.5 -210.5t-34.5 -208.5t37 -76t37 -51q0 -35 -34 -50q-57 -26 -66.5 -38.5t-24 -88.5t-46.5 -76h-26q-62 0 -62 28l8 75q0 58 -47 84q-14 8 -150 8t-136 23zM1023 263q0 -4 19 -4l5 1l156 2 q4 1 9 1q34 0 34 46q11 55 11 63l5 29q6 30 6 35l15 83l12 57v8h-2q-5 0 -25 -28l-71 -86q-3 -4 -10 -11q-164 -164 -164 -194v-2z" />
<glyph unicode="&#xbd;" horiz-adv-x="1634" d="M214 -21q0 61 683 908q21 27 109.5 144.5t104.5 137.5q215 269 229 269q76 0 76 -23.5t-276.5 -380.5t-419.5 -548q-401 -534 -430 -534q-76 0 -76 27zM290 1275v9q0 56 64 88q90 45 180 45h9q39 0 39 -51q0 -24 -37.5 -240t-37.5 -276q0 -141 -45 -217q-16 -27 -36 -27 h-69q-36 0 -36 64.5t26.5 139.5t31.5 108q38 228 38 252q0 72 -38 72q-12 4 -29 4q-60 0 -60 29zM957 4v10q0 42 173.5 209.5t224.5 232.5t51 122t-31.5 84.5t-82.5 27.5t-111 -40.5t-91.5 -40.5t-31.5 36q0 55 80 107.5t163 52.5h39q88 0 144.5 -56.5t56.5 -146t-77 -194.5 q-32 -43 -163 -169t-131 -138t150.5 -12t150.5 -43q0 -65 -51 -65h-418q-45 0 -45 23z" />
<glyph unicode="&#xbe;" horiz-adv-x="1624" d="M167 705q0 54 57 54q11 0 66 -31.5t119 -31.5t112 44.5t48 108t-36.5 91.5t-92.5 37t-56 37q0 35 14 51q2 3 65 21q142 41 142 148q0 81 -117 81q-33 0 -87.5 -30t-82 -30t-27.5 46t73.5 85t153.5 39h20q88 0 145 -41.5t57 -126.5v-17q0 -97 -104 -174q-37 -27 -37 -34 l9 -8q96 -54 96 -163t-85 -190.5t-210 -81.5h-39q-77 0 -140 36t-63 80zM308 -40q0 7 548.5 738t568.5 731h18q68 0 68 -18q0 -41 -1062 -1426q-34 -44 -73 -44q-68 0 -68 19zM918 184v9q0 78 409 511q88 93 157 93q13 0 13 -31.5t-34 -208.5t-34 -211t36.5 -77t36.5 -52 t-84 -68q-15 -11 -46 -135q-12 -49 -54 -49l-13 1h-13q-49 0 -49 28l8 75q0 70 -56 88q-13 4 -145 4t-132 23zM1073 266q0 -6 14 -6h24l5 1h54q125 0 125 43l10 58q11 55 11 64l7 39l5 25q4 20 4 24l13 66v4l-2 1q-6 0 -37 -41t-132 -156.5t-101 -121.5z" />
<glyph unicode="&#xbf;" horiz-adv-x="848" d="M40 -115q0 79 35.5 144.5t103 138t127.5 177t60 114.5l-7 59q0 93 35 128t106 35h16q14 0 26 -23q46 -88 46 -170t-35 -137t-151.5 -151t-161.5 -157.5t-45 -134.5t40.5 -109t107.5 -36t137 57t130 57q26 0 26 -72.5t-91.5 -132.5t-219.5 -60t-206.5 72.5t-78.5 182.5v18 zM450 954v4l1 4q0 54 35 89t89 35h4q46 0 72 -26t26 -61v-31q-3 -12 -3 -27t-29.5 -50.5t-65.5 -35.5l-22 -3h-12q-42 0 -68.5 26.5t-26.5 75.5z" />
<glyph unicode="&#xc0;" horiz-adv-x="1169" d="M-20 16q0 21 93.5 199.5t317 625.5t273.5 534q35 60 108 60q44 0 59 -75q246 -1230 246 -1308q0 -36 -18.5 -45t-71 -9t-76 54.5t-46.5 174.5t-41 134q-29 21 -245 21t-240 -18.5t-83.5 -143.5t-100 -175t-97.5 -50h-40q-38 0 -38 21zM415 552l1 -6v-6q0 -17 65 -17h225 q104 0 104 38v15q0 3 -42.5 257t-47 294t-7.5 40t-55.5 -112.5t-82 -171.5t-37.5 -76t-14 -29l-79 -161q-30 -60 -30 -65zM534 1795v4q0 26 92 26q10 2 14 2l19 2h19q35 0 73.5 -69t79 -130t40.5 -73v-7q0 -18 -47 -18q-10 -2 -15 -2l-19 -2h-5q-27 0 -138 126.5t-111 133.5 z" />
<glyph unicode="&#xc1;" horiz-adv-x="1169" d="M-17 16q0 21 93.5 199.5t320.5 632.5t265.5 520.5t112.5 66.5q42 0 59 -75l9 -47l4 -23q2 -9 9 -48l26 -143q42 -224 67.5 -351t45.5 -238.5t52.5 -281.5t32.5 -176q0 -54 -99 -54q-42 0 -64 50t-48.5 176t-41.5 137q-29 21 -245 21t-238.5 -17t-89 -149.5t-91.5 -164.5 q-45 -56 -102 -56h-40q-38 0 -38 21zM418 552l1 -6v-5q0 -18 65 -18h225q104 0 104 38v15q0 86 -93 582q-2 9 -4.5 9t-58.5 -120t-147.5 -303t-91.5 -192zM668 1553q0 51 194 245q33 33 82 33h10q10 -2 15 -2q92 0 92 -28v-4q0 -15 -142 -141.5t-170 -126.5l-10 -2h-10 q-61 0 -61 26z" />
<glyph unicode="&#xc2;" horiz-adv-x="1169" d="M-21 16.5q0 19.5 176 363.5t323 637.5t183 356.5t110 63q38 0 54 -52q4 -14 63.5 -337.5t123.5 -637t64 -355.5q0 -55 -70.5 -55t-94.5 54t-46.5 174.5t-46.5 138.5t-239 18t-237.5 -16.5t-88 -147t-103 -177.5t-93.5 -47h-20q-58 0 -58 19.5zM415 543q0 -17 57 -17h241 q97 0 97 44v8q0 24 -19 109l-24 144l-3 17l-44 280q-5 42 -10 42t-47 -96t-145 -302.5t-103 -217.5v-11zM477 1551q0 10 145.5 143.5t196.5 133.5t80 -32q156 -172 156 -238v-6q0 -27 -82 -27h-7q-25 0 -95 83.5t-72.5 83.5t-102.5 -83t-159.5 -83t-59.5 25z" />
<glyph unicode="&#xc3;" horiz-adv-x="1169" d="M-25 19q0 8 87 186q464 950 596 1170q36 60 109 60q42 0 59 -75l48 -261q42 -224 67.5 -351t47 -247t52.5 -282t31 -182.5t-18.5 -29.5t-71.5 -9t-74 48t-47.5 176t-41.5 139q-29 21 -245 21t-238.5 -17t-89 -149.5t-91.5 -164.5q-45 -56 -102 -56h-41q-37 0 -37 24z M410 546q0 -23 66 -23h225q104 0 104 38v15q0 55 -93 582q-2 9 -6.5 9t-44.5 -92t-145.5 -303t-105.5 -220v-6zM466 1600v8q0 49 63.5 107t122.5 58h23q45 0 128 -41.5t119 -41.5t68.5 38.5t72 38.5t39.5 -39v-8q0 -48 -62.5 -105.5t-124.5 -57.5h-22q-41 0 -125 42t-117 42 t-72.5 -39.5t-68.5 -39.5q-44 0 -44 38z" />
<glyph unicode="&#xc4;" horiz-adv-x="1169" d="M-22 10q0 21 55 126t88 171t79 154l161 317q115 225 199 393t102 198q36 60 108 60q43 0 59 -75q29 -132 79.5 -413.5t108.5 -584.5t58 -310q0 -55 -70.5 -55t-94.5 54t-46.5 175t-45.5 138.5t-238 17.5t-238.5 -17t-88 -145t-101.5 -176.5t-95 -48.5h-41q-38 0 -38 21z M414 534q0 -17 66 -17h224q105 0 105 45v8q0 86 -93 582q-2 9 -6.5 9t-48.5 -100t-145.5 -303.5t-101.5 -212.5v-11zM495 1635v20l4 23q0 21 27 48t49 27q6 2 10 2l13 2h20q12 -3 17 -3q61 0 61 -65q2 -6 2 -10l1 -13v-3l-1 -4v-7l-2 -12q0 -26 -28 -54t-50 -28q-6 -2 -9 -2 l-13 -2h-17l-4 1h-6l-13 3q-16 0 -38.5 22.5t-22.5 54.5zM875 1633v24q0 38 31 69t67 31h23q34 0 57.5 -23.5t23.5 -49.5l2 -13v-13q0 -47 -35.5 -75.5t-62.5 -28.5h-24q-33 0 -57.5 24.5t-24.5 54.5z" />
<glyph unicode="&#xc5;" horiz-adv-x="1170" d="M-19 9q0 18 319 656t357 701.5t114 63.5q42 0 58 -75q249 -1145 249 -1308q0 -53 -99 -53q-42 0 -67 54.5t-47 173t-46.5 137t-239 18.5t-237 -16t-88.5 -148t-103 -177t-92 -45h-40q-38 0 -38 18zM414 547l1 -6v-5q0 -18 65 -18h225q105 0 105 45v7q0 75 -95 582 q-2 10 -5 10t-31 -60.5t-31 -65.5q-234 -439 -234 -489zM586 1654l1 6q0 77 61.5 138.5t142.5 61.5h20q68 0 121.5 -47.5t53.5 -108.5v-32q0 -77 -65 -135t-139 -58h-26q-69 0 -119.5 50.5t-50.5 124.5zM683 1647q0 -22 22 -49.5t45 -27.5q6 -2 10 -2l14 -2h10q33 0 68 28 t35 57l3 16v24q0 28 -26.5 54.5t-61.5 26.5h-13q-34 0 -68.5 -28t-34.5 -57l-3 -16v-24z" />
<glyph unicode="&#xc6;" horiz-adv-x="1635" d="M11 59q0 41 81 177q621 1045 662.5 1103t80.5 75.5t148 17.5h371q104 0 173 -33l17 -12q0 -68 -65 -94q-31 -12 -278 -12q-114 0 -148 -46.5t-34 -251.5q0 -101 55 -137q29 -19 172.5 -19t169.5 -8q64 -20 64 -56q0 -18 -27.5 -45.5t-51 -33t-192 -5.5t-196.5 -27 t-28 -228t34 -242q25 -31 299 -31q133 0 157 -7q65 -19 65 -51q0 -65 -33 -83q-18 -10 -73 -10h-412q-142 0 -175 24.5t-33 170.5l1 40q2 53 2 94.5t-40 73.5t-175.5 32t-195 -41.5t-118 -137.5t-115.5 -158.5t-109.5 -62.5t-52.5 24zM491 588q0 -12 27 -12h243q56 0 80 91 q13 49 13 274l6 133v18l3 63v41q0 23 -10 23h-4q-17 0 -96 -149q-11 -20 -27 -46l-84 -147l-4 -8q-147 -257 -147 -281z" />
<glyph unicode="&#xc7;" horiz-adv-x="1230" d="M172 620v32q0 158 68 332q70 174 186 305q233 262 555 262q146 0 266 -62q64 -33 64 -108t-54 -75q-9 0 -59 24.5t-104 43.5t-168 19q-114 -1 -225 -73q-223 -147 -310 -431q-35 -115 -35 -236q0 -234 118.5 -374t305.5 -140q133 0 260 72q69 39 70 39q29 0 29 -78 t-83 -119q-147 -72 -295 -72h-30q-120 0 -229.5 50.5t-179.5 136.5q-150 183 -150 452zM430 -373q0 5 39.5 33t56.5 47q63 71 63 119l3 21q0 23 20.5 53.5t34.5 30.5q39 0 76 -32t37 -37l-1 -4v-8q0 -59 -102 -173.5t-151 -114.5q-20 0 -48 24.5t-28 36.5v4z" />
<glyph unicode="&#xc8;" horiz-adv-x="993" d="M109 96q0 6 90 583t106.5 646t48.5 82q53 22 176 22h454q42 0 42 -47q0 -82 -70 -96q-39 -8 -252.5 -8t-232.5 -32q-10 -18 -37.5 -174t-27.5 -198q0 -27 45.5 -37.5t223.5 -10.5t192 -7t14 -38q0 -83 -44 -97q-20 -6 -212 -6t-203 -3q-37 -10 -56 -48q-6 -11 -34 -175 t-28 -199q0 -83 53 -94q43 -9 243 -9t223 -11.5t23 -63.5t-21.5 -64.5t-85.5 -12.5h-454q-123 0 -163 29q-13 9 -13 69zM480 1807l1 4v3q0 20 76 20q20 4 24 4l29 3h14q36 0 75 -71q20 -36 31.5 -53.5t24 -40t17.5 -29.5l15 -27l3 -4l5 -9q22 -29 22 -38v-7q0 -19 -52 -19 l-24 -3h-9q-28 0 -140 128t-112 139z" />
<glyph unicode="&#xc9;" horiz-adv-x="993" d="M109 87q0 50 43.5 301.5t55.5 331t27.5 170.5t42 261t36 207t39.5 49q53 22 176 22h455q42 0 42 -47q0 -82 -70 -96q-40 -8 -253.5 -8t-231.5 -32q-13 -22 -39 -186.5t-26 -185.5q0 -27 44.5 -37.5t223 -10.5t193 -7.5t14.5 -37.5q0 -83 -44 -97q-19 -6 -211.5 -6 t-203.5 -3q-36 -10 -56 -49q-7 -15 -34.5 -173.5t-27.5 -199.5q0 -83 47.5 -93t248 -10t223.5 -11.5t23 -63t-22.5 -64.5t-84.5 -13h-454q-124 0 -163 29q-13 10 -13 60zM597 1565q0 51 194 245q33 33 82 33h10q10 -2 15 -2q91 0 91 -25v-10q0 -13 -143 -140t-178 -127h-10 q-61 0 -61 26z" />
<glyph unicode="&#xca;" horiz-adv-x="993" d="M109 82q0 45 27.5 204t90.5 568.5t79.5 475t47.5 78.5q53 22 176 22h454q42 0 42 -47q0 -81 -70 -97q-32 -7 -248 -7t-236 -33q-11 -18 -38.5 -178t-27.5 -193q0 -27 45 -37.5t223.5 -10.5t193 -7.5t14.5 -37.5q0 -83 -45 -97q-23 -7 -213 -7t-214 -7t-38 -34t-40.5 -195 t-26.5 -189q0 -71 30 -87t248.5 -16t240.5 -11t22 -63t-21.5 -65t-117.5 -13h-390q-152 0 -194 29q-14 10 -14 55zM414 1564q0 10 145.5 143.5t195 133.5t81.5 -32q2 -2 29.5 -42t35 -49.5t25.5 -37.5t42 -62.5t24 -47.5q0 -32 -83 -32h-7q-31 0 -93.5 83.5t-73.5 83.5 q-4 0 -126 -103q-73 -62 -134 -62t-61 24z" />
<glyph unicode="&#xcb;" horiz-adv-x="993" d="M99 70q0 47 54.5 369t96.5 591.5t52.5 311t40.5 53.5q53 22 177 22h454q42 0 42 -47q0 -81 -70 -96q-37 -8 -251.5 -8t-233.5 -33q-13 -22 -39 -188t-26 -183q0 -27 45.5 -37.5t223.5 -10.5t192 -7t14 -38q0 -83 -44 -97q-22 -7 -213 -7t-202 -3q-37 -11 -56 -48 q-6 -12 -34 -175t-28 -216t30.5 -69.5t249 -16.5t240.5 -11t22 -63t-21 -64.5t-86 -12.5h-454q-123 0 -163 28q-13 9 -13 56zM419 1645v27q3 9 3 20t25 42.5t52 31.5q6 2 10 2l13 2h20q12 -3 17 -3q60 0 60 -62l3 -16v-24q0 -36 -29.5 -65.5t-53.5 -29.5l-20 -3h-16l-4 1h-6 q-8 2 -10 2q-60 0 -60 59q-4 12 -4 16zM799 1646v27l5 22q0 11 25.5 43t66.5 32h24q33 0 58 -25t25 -61v-10l-4 -26q0 -22 -29.5 -51.5t-64.5 -29.5h-24q-27 0 -54.5 22t-27.5 57z" />
<glyph unicode="&#xcc;" horiz-adv-x="522" d="M113 8q0 124 33.5 247.5t35.5 136.5q39 255 69.5 424t38 283.5t28 205.5t32 108t53.5 17h84q39 0 39 -10v-14q0 -109 -34 -233l-12 -45q-34 -134 -80.5 -440.5t-47.5 -317.5q-11 -163 -24 -221q-34 -151 -75 -151h-101q-39 0 -39 10zM227 1807v3q0 31 125 31h19 q35 0 77 -75q20 -36 30 -51t28 -47.5t38 -64.5t20 -38q0 -22 -48 -22l-24 -3h-19q-23 0 -134.5 127.5t-111.5 139.5z" />
<glyph unicode="&#xcd;" horiz-adv-x="522" d="M109 8v14q0 103 34 233l12 45q8 35 22 89t59 349.5t47 320.5q11 161 30.5 247.5t31.5 105t53 18.5h85q39 0 39 -10q0 -124 -33.5 -246.5t-43 -187t-49 -287.5t-49 -354t-24.5 -196q-34 -151 -74 -151h-101q-39 0 -39 10zM346 1564q0 52 193 245q32 32 77 32h20 q10 -2 15 -2q86 0 86 -27v-4l-1 -3q0 -16 -142.5 -140.5t-167.5 -124.5l-10 -2h-10q-60 0 -60 26z" />
<glyph unicode="&#xce;" horiz-adv-x="522" d="M113 9q0 124 33.5 246.5t35.5 138.5q38 249 69 420.5t38.5 286t28 204t32.5 108t53 18.5h84q39 0 39 -10v-14q0 -109 -34 -233l-12 -45q-7 -31 -20 -79t-59.5 -352.5t-63.5 -470.5t-47 -211q-11 -17 -53 -17h-84q-40 0 -40 10zM169 1562q0 11 145 144t194 133h8 q45 0 74 -32q155 -171 155 -232v-12q0 -27 -89 -27q-36 0 -93.5 83.5t-73.5 83.5q-3 -1 -53 -43q-144 -122 -205.5 -122t-61.5 24z" />
<glyph unicode="&#xcf;" horiz-adv-x="522" d="M110 -5v14q0 86 12.5 142.5t36 147t34.5 167t21 132.5l9 51q12 83 18 114.5t7 37.5l5 33q23 132 41.5 322.5t51.5 243.5q12 18 52 18h84q41 0 41 -9q0 -124 -33.5 -246.5t-43 -187t-49.5 -291.5t-49 -354t-30 -218.5t-32 -108.5t-52 -17h-84q-40 0 -40 9zM181 1654v7 q0 51 34 78t50 27l16 3h24q75 0 75 -59l5 -25v-17l-4 -23q0 -13 -24.5 -43.5t-48.5 -30.5l-26 -5h-17q-39 0 -61.5 28.5t-22.5 59.5zM560 1645v24q0 30 28 65t70 35h27q23 0 49 -20.5t26 -42.5q2 -6 2 -9l2 -13v-14q0 -41 -30 -71t-55 -30l-20 -3h-17q-33 0 -57.5 24.5 t-24.5 54.5z" />
<glyph unicode="&#xd0;" horiz-adv-x="1249" d="M67 710q0 78 26 99q10 8 72 8t73 42q8 29 45 275t54 265q31 36 208 36h49q464 0 592 -312q47 -113 47 -257v-26v-6q0 -179 -61 -339q-121 -321 -411 -439q-141 -57 -315 -57h-188q-101 0 -126.5 9.5t-25.5 31.5t17 120t31 190l12 69q34 196 34 225q0 24 -66.5 28.5 t-66.5 37.5zM298 182q0 -33 97 -33h20q447 0 592 401q48 133 48 265v41q0 102 -32 186q-92 243 -424 243h-3h-40q-71 0 -84 -37q-4 -10 -32 -189t-28 -198q0 -43 175 -43q97 0 97 -31q0 -77 -19.5 -95t-137.5 -18t-149 -58q-17 -31 -37 -157l-21 -130q-4 -22 -13 -70.5 t-9 -60.5v-16z" />
<glyph unicode="&#xd1;" horiz-adv-x="1343" d="M100 44l7 41q23 141 56 336t46 285l21 125q25 150 41 249l46 289q13 62 59 62q70 0 118 -79q33 -55 396 -781l123 -245q15 0 92 496t88 531q23 74 95 74h10q62 0 62 -13q0 -14 -97 -634.5t-123 -731.5q-14 -61 -60 -61q-64 0 -111 87q-15 28 -159.5 313t-185.5 366 t-106 215t-69 134q-15 0 -94.5 -503t-85.5 -523q-18 -60 -63 -75q-15 -5 -78 -5q-28 0 -28 48zM566 1619q0 47 64 105.5t123 58.5h23q45 0 129 -42t117 -42t69 39t68 39q44 0 44 -39v-8q0 -48 -62.5 -105.5t-124.5 -57.5h-23q-35 0 -124.5 42t-122.5 42t-66 -39.5t-69 -39.5 q-45 0 -45 47z" />
<glyph unicode="&#xd2;" horiz-adv-x="1387" d="M119 525v45q0 167 63 339.5t168.5 292.5t231.5 180q122 59 246 59h4q379 0 493 -347q34 -105 34 -240l-1 -22q0 -158 -59 -330q-59 -174 -171 -302q-209 -239 -497 -239h-2q-229 0 -366 151q-72 80 -108 190.5t-36 222.5zM295 540q0 -188 93 -305q46 -58 109 -88.5 t122 -30.5h51q82 0 176 52q193 108 291 391q46 134 46 271v34l-1 18q0 92 -30 172q-87 233 -308 233h-2h-17q-105 0 -203 -58q-186 -110 -276 -369q-51 -148 -51 -268v-52zM648 1791v10q0 27 120 27h23q32 0 73 -66q121 -194 121 -209v-4q0 -18 -48 -18q-10 -2 -14 -2 l-19 -2h-5q-15 0 -133 118t-118 146z" />
<glyph unicode="&#xd3;" horiz-adv-x="1387" d="M119 525v45q0 167 60.5 332.5t163 290t233.5 186.5q130 62 256 62q379 0 493 -347q34 -105 34 -240l-1 -22q0 -168 -58 -328q-121 -329 -381 -471q-131 -71 -267 -71h-46q-99 0 -190 40q-191 85 -263 306q-34 105 -34 217zM295 540q0 -188 93 -305q47 -59 111.5 -89 t119.5 -30h51q94 0 190.5 61t173 169.5t113 242.5t36.5 241v34l-1 18q0 92 -30 174q-85 231 -310 231h-17q-91 0 -186.5 -48t-173 -152t-124 -239.5t-46.5 -273.5v-34zM776 1549q0 21 191 244q32 37 85 37h5l5 -1h5q102 0 102 -31.5t-154.5 -151.5t-167.5 -120h-11 q-10 2 -15 2q-45 0 -45 21z" />
<glyph unicode="&#xd4;" horiz-adv-x="1387" d="M118 549l1 22v23q0 148 61 315t161.5 285t227 183t257.5 65h46q96 0 188 -40q190 -83 258 -287q40 -120 40 -237v-45q0 -171 -63 -339q-126 -334 -396 -470q-122 -61 -247 -61h-47h-5q-96 0 -186 41q-190 85 -261 305q-35 108 -35 240zM294 558l1 -17q0 -186 93 -305 q46 -59 110.5 -89t120.5 -30h50q95 1 191 61q200 126 286 414q37 122 37 256l-1 18q0 190 -92 306t-248 116h-18q-96 0 -192 -51q-193 -103 -292 -392q-46 -134 -46 -287zM585 1552q0 19 152.5 148t187.5 129q54 0 83 -32q155 -171 155 -238v-6q0 -27 -82 -27h-7 q-25 0 -95 83.5t-73 83.5q-3 -1 -53 -43q-144 -124 -206 -124q-62 1 -62 26z" />
<glyph unicode="&#xd5;" horiz-adv-x="1387" d="M117 547v23q0 167 61.5 335.5t163.5 287.5q212 248 489 248q247 0 386.5 -154.5t139.5 -409.5v-45q0 -172 -61.5 -336.5t-160.5 -284t-229.5 -185t-269.5 -65.5q-252 0 -385.5 165t-133.5 421zM293 557l1 -17q0 -95 28.5 -180t73.5 -137q93 -107 222 -107h50q96 0 188 58 q188 119 274 369q51 148 51 269v70q0 89 -30 171q-86 234 -311 234h-17h-2q-202 0 -357 -199q-76 -96 -123.5 -236t-47.5 -278v-17zM574 1600v8q0 43 61 104t125 61h23q45 0 129 -42t117.5 -42t68.5 39t68 39q44 0 44 -40v-7q0 -49 -62.5 -106t-124.5 -57h-22q-41 0 -125 42 t-117 42t-72.5 -39.5t-68.5 -39.5q-44 0 -44 38z" />
<glyph unicode="&#xd6;" horiz-adv-x="1387" d="M113 537v23q0 167 61.5 335.5t163.5 287.5q212 248 489 248q247 0 386.5 -154.5t139.5 -409.5v-45v-5q0 -169 -61 -331q-123 -330 -379 -464q-135 -71 -275 -71q-259 0 -392 165t-133 421zM289 547l1 -17q0 -95 28.5 -180t73.5 -137q93 -107 222 -107h50q96 0 188 58 q188 119 274 369q51 148 51 269v70q0 89 -30 171q-86 234 -311 234h-17h-2q-202 0 -357 -199q-76 -96 -123.5 -236t-47.5 -278v-17zM597 1637v21l4 23q0 26 33.5 52.5t68.5 26.5h11q30 0 57 -21.5t27 -47.5l3 -19v-10l-1 -4l-2 -16q0 -25 -30.5 -55.5t-73.5 -30.5h-10l-3 1 h-7q-6 2 -15 2t-35.5 21t-26.5 57zM977 1639v20q0 38 29.5 67.5t44.5 30.5t17 1l17 2h10q9 -3 20 -3q62 0 62 -60q2 -8 2 -10l2 -13v-13q0 -42 -29.5 -71.5t-52.5 -29.5q-6 -2 -9 -2l-14 -2h-13l-3 1h-7q-6 2 -10 2q-63 0 -63 63z" />
<glyph unicode="&#xd7;" horiz-adv-x="1157" d="M150 237q0 11 176 176.5t176 185t-144.5 178t-144.5 174t36.5 52t47.5 36.5t167 -166t172 -166q2 0 83 76l100 94q175 160 182 160q18 0 52 -36t34 -44.5t-177 -180t-177 -184t146 -173t146 -177.5t-37.5 -53.5t-47.5 -36.5q-18 0 -165.5 167t-158.5 167t-191 -164 t-189 -164q-20 0 -53 34t-33 45z" />
<glyph unicode="&#xd8;" horiz-adv-x="1388" d="M83 -2q0 17 54.5 102t54.5 118q0 6 -23 66q-47 123 -47 299q0 177 68 345q66 168 170 286q202 232 505 232q150 0 267 -57q51 -25 78 -25q7 0 57.5 49.5t66.5 49.5h18q49 0 49 -53q0 -19 -53 -104t-53 -102t19 -63.5t33.5 -109.5t14.5 -217t-68 -325t-172 -287 q-209 -232 -510 -232q-116 0 -250 54q-52 20 -55 20q-37 0 -89.5 -51t-72.5 -51q-62 0 -62 56zM298 545q0 -95 33 -179q8 -20 19 -20t360.5 411t349.5 430q0 37 -67.5 71t-142.5 34h-40q-96 0 -186 -56q-192 -119 -284 -393q-42 -126 -42 -244v-54zM432 226 q0 -38 65.5 -70.5t144.5 -32.5h13l13 1q100 0 196 59q184 114 277 378q46 133 46 283v13q0 168 -42 210q-15 0 -364 -410.5t-349 -420.5v-10z" />
<glyph unicode="&#xd9;" horiz-adv-x="1259" d="M157 357v36q0 60 52 377l49 304q47 293 51 307q12 48 70.5 48t78 -10t19.5 -45l-78 -476q-68 -427 -68 -480q0 -146 68.5 -217.5t194.5 -71.5q233 0 327 213q39 88 109 513l16 101q11 67 38 233t29 175q17 66 117 66q59 0 59 -9q0 -55 -86.5 -553.5t-137.5 -599.5 q-146 -293 -493 -293q-174 0 -285 88q-60 48 -95 128.5t-35 165.5zM593 1802v10q0 27 124 27l10 1h4q36 0 80 -71q119 -190 119 -208t-43 -18q-10 -2 -15 -2l-24 -3q-32 0 -143.5 127.5t-111.5 136.5z" />
<glyph unicode="&#xda;" horiz-adv-x="1259" d="M157 357v36q0 66 75 523.5t77 464.5q13 49 70 49t77.5 -10.5t20.5 -35.5t-24 -162q-122 -696 -122 -823t68.5 -198.5t214.5 -71.5q101 0 181.5 56.5t122.5 150.5t112 519l38 236q43 267 45 274q17 65 117 65q59 0 59 -9q0 -55 -86.5 -553.5t-137.5 -599.5 q-147 -293 -495 -293q-176 0 -283 88q-63 52 -96.5 130t-33.5 164zM719 1563v4q0 47 190 237q37 37 85 37h5l5 -1h5q102 0 102 -29v-4q0 -16 -143 -143t-179 -127h-10q-10 2 -16 2q-44 0 -44 24z" />
<glyph unicode="&#xdb;" horiz-adv-x="1259" d="M157 388.5q0 196.5 146 960.5q15 81 69 81q64 0 85 -10t21 -38.5t-73.5 -451t-73.5 -512.5q0 -144 67.5 -216.5t215.5 -72.5q101 0 183 57.5t123.5 152t116.5 558t76 468.5q17 65 118 65q58 0 58 -9q0 -42 -36.5 -250t-83 -498t-110.5 -417.5t-186.5 -203.5t-310.5 -76 t-297 108q-108 108 -108 304.5zM536 1563q0 10 145.5 143.5t195 133.5t81.5 -32l41 -58q14 -22 24.5 -35.5t31 -45.5t40 -57.5t19.5 -42.5v-6q0 -26 -83 -26h-13q-25 0 -87 83t-75 83t-103 -82.5t-153.5 -82.5t-63.5 25z" />
<glyph unicode="&#xdc;" horiz-adv-x="1259" d="M150 344v36q0 134 145 956q14 81 69 81q66 0 86 -10.5t20 -38.5t-73.5 -450.5t-73.5 -512.5q0 -146 68.5 -217.5t214.5 -71.5q101 0 182.5 57t122.5 151t111 518l39 237q15 92 22 136l22 137q17 65 118 65q58 0 58 -6.5t-107 -677.5q-57 -360 -122 -490t-190.5 -205 t-291.5 -75q-292 0 -386 215q-34 78 -34 166zM540 1646v24q3 9 3 20.5t25 43t55 31.5l16 3h24q25 0 51 -20.5t26 -44.5l3 -16v-23q-3 -12 -3 -22t-25 -41t-49 -31q-9 -3 -10 -3l-16 -2h-17q-34 0 -57 23t-23 42zM919 1658l1 3v7l4 22q0 25 30.5 49.5t43.5 24.5q12 4 16 4h31 q29 0 54 -25t25 -64v-6l-5 -30q0 -19 -28 -47t-52 -28l-17 -3h-20q-27 0 -53.5 21.5t-26.5 47.5q-2 8 -2 10z" />
<glyph unicode="&#xdd;" horiz-adv-x="1054" d="M217 1393q0 35 69.5 35t106.5 -67q19 -35 111 -299.5t95 -264.5q10 0 189.5 276t200.5 299q52 57 145 57h25q29 0 29 -20t-237.5 -364t-267.5 -405.5t-73.5 -332.5t-46.5 -280q-10 -30 -78 -30h-26q-64 0 -64 35q0 24 43 263t43 304t-132 417t-132 377zM636 1556 q0 25 190 242q32 37 80 37h15q10 -2 16 -2q91 0 91 -28v-4l-1 -3q0 -15 -142.5 -140t-168.5 -125l-10 -2h-10q-60 0 -60 25z" />
<glyph unicode="&#xde;" horiz-adv-x="1005" d="M94 41v17q0 42 68 430.5t79 462.5t23 142l7 41q37 249 44 262q14 36 73 36h41q52 0 52 -45l-17 -118q0 -63 24 -78t102.5 -20.5t95.5 -8.5q208 -30 278 -189q29 -65 29 -142v-22q0 -204 -146 -344q-75 -72 -169.5 -98.5t-199 -31.5t-139.5 -22t-56.5 -142t-38.5 -148 t-83.5 -23t-66.5 41zM339 507.5q0 -27.5 76 -27.5h28q264 0 346 177q31 66 31 131v38q0 92 -71.5 145.5t-206.5 53.5h-29q-83 0 -93 -28q-1 -4 -12.5 -67.5t-12.5 -73.5l-6 -34q-3 -18 -3.5 -23t-23.5 -134.5t-23 -157z" />
<glyph unicode="&#xdf;" horiz-adv-x="1062" d="M30 -72q0 22 36 100q97 210 118 590q4 77 17 143q73 377 132.5 499.5t162 187t221 64.5t203.5 -65q46 -35 74.5 -88t28.5 -104v-41q0 -75 -35.5 -132.5t-99.5 -126.5t-64 -90.5t67 -146.5t84 -174t17 -131q0 -83 -34 -163q-111 -263 -424 -263h-2q-95 0 -95 64 q0 58 51 80l33 7l73 4q85 9 143 57q87 72 87 201t-107 283.5t-107 196.5t92.5 107.5t119 103.5t26.5 98t-44 111.5t-111.5 51.5t-123 -49t-98 -144t-112.5 -535t-107.5 -564t-68 -155.5t-101.5 -31.5q-52 0 -52 55z" />
<glyph unicode="&#xe0;" d="M76 308v38q0 124 44 244q88 242 283 334q83 39 170 39h36q37 0 109 -22.5t85 -22.5t51.5 15.5t59.5 15.5q43 0 43 -79v-15q0 -20 -51.5 -320t-51.5 -384q-2 -32 -2 -71.5t-17.5 -64.5t-66 -25t-67.5 37q-4 8 -9 42.5t-16.5 34.5t-49.5 -32q-124 -103 -233 -103h-2h-36 q-122 0 -200.5 97.5t-78.5 241.5zM245 328q0 -100 49 -162.5t121.5 -62.5t137.5 42q127 82 172 271q33 139 33 198l4 51v50q-2 20 -2 29q0 50 -23 66q-42 30 -113 30h-32q-124 0 -235 -134q-45 -55 -78.5 -146t-33.5 -177v-55zM430 1392v7q0 32 118 32l10 1h9q33 0 68 -63 q113 -203 113 -224v-8q0 -23 -48 -23l-24 -3h-9q-30 0 -103 98q-134 179 -134 183z" />
<glyph unicode="&#xe1;" d="M75 308v38q1 111 39 229q81 248 288 349q81 39 171 39h35q38 0 110 -22.5t85 -22.5t51.5 15.5t58.5 15.5q43 0 43 -79v-15q0 -20 -52 -323t-52 -395.5t-17.5 -119.5t-66.5 -27t-68 37q-4 8 -9 42.5t-17 34.5t-48 -31q-122 -104 -236 -104h-35q-123 0 -201.5 97.5 t-78.5 241.5zM244 339q0 -106 47.5 -171t122 -65t138.5 41.5t102 100t72.5 180t34.5 250.5l1 30q-2 20 -2 30q0 57 -31.5 81t-105.5 24h-31q-58 0 -125 -35.5t-117 -106.5q-106 -150 -106 -326v-33zM544 1132v8q0 8 47.5 69.5t88.5 122.5q67 100 116 100h26q97 0 97 -29v-7 q0 -13 -136.5 -149.5t-174.5 -136.5h-10q-54 0 -54 22z" />
<glyph unicode="&#xe2;" d="M76 310v38q0 237 140 424q60 79 151.5 136t188.5 57h53q38 0 110 -22.5t84.5 -22.5t51.5 15.5t59 15.5q43 0 43 -79v-15q0 -20 -52 -323t-52 -395.5t-17.5 -119.5t-66.5 -27t-68 37q-4 8 -9 42.5t-15 34.5q-15 0 -55 -33q-122 -102 -231 -102h-35q-123 0 -201.5 97.5 t-78.5 241.5zM245 341q0 -102 45.5 -168.5t116.5 -66.5h29q54 0 118 41q126 81 171 271q34 143 34 209l2 20l1 31v39q0 76 -25 95q-40 31 -124 31l-10 -1q-136 0 -246 -134q-44 -55 -78 -146.5t-34 -176.5v-44zM366 1131v5q0 11 144 155t194 144t80 -43q140 -202 140 -248 v-6q0 -29 -81 -29h-7q-27 0 -86.5 92.5t-67.5 92.5t-30 -22l-28 -28q-6 -4 -12 -10l-30 -29q-104 -96 -139 -96h-8q-69 0 -69 22z" />
<glyph unicode="&#xe3;" d="M73 311v39q0 110 39.5 231.5t112.5 207.5q151 178 346 178h17q66 0 129 -23t77.5 -23t55 15.5t61.5 15.5q43 0 43 -79v-15q0 -10 -52 -322t-52 -399.5t-22 -122.5q-13 -20 -82 -20q-41 0 -55.5 56.5t-16.5 56.5q-15 1 -52 -31q-122 -104 -254 -104h-1q-131 0 -212 94 q-82 94 -82 245zM242 342q0 -106 47 -170.5t124 -64.5h19q54 0 118 41q123 80 172 271q34 136 34 209l2 20l1 31v40q0 73 -31 99t-118 26h-10q-135 0 -246 -135q-48 -59 -80 -151t-32 -172v-44zM348 1200v8q0 53 63 110.5t126 57.5h15q42 0 128 -43t118 -43t65.5 40.5 t67.5 40.5q43 0 43 -41v-7q0 -46 -59.5 -105.5t-124.5 -59.5h-22q-32 0 -123.5 43t-120.5 43t-64 -42t-69 -42q-43 0 -43 40z" />
<glyph unicode="&#xe4;" d="M72 308v57q0 105 44 225q88 242 283 334q83 39 170 39h36q37 0 109 -22.5t85 -22.5t51.5 15.5t59.5 15.5q43 0 43 -79v-15q0 -10 -52.5 -325t-52.5 -401.5t-18 -112.5t-66 -26t-67 37q-4 8 -9 42.5t-17 34.5t-52 -32q-126 -102 -233 -103h-35q-122 0 -200.5 97.5 t-78.5 241.5zM241 328q0 -97 46.5 -160.5t114.5 -63.5h29q54 0 118.5 41.5t99.5 96t72 178t37 256.5v39q-2 20 -2 29q0 50 -23 66q-42 30 -113 30h-32q-126 0 -229 -126q-51 -62 -84.5 -153.5t-33.5 -177.5v-55zM375 1246v14l1 3v7q2 6 2 16t25.5 42t52.5 32q6 2 10 2l16 2 h7l26 -4q22 0 42 -25t20 -51v-23q0 -45 -35 -73t-62 -28h-27q-23 0 -48.5 20.5t-25.5 42.5q-2 6 -2 10zM750 1239v24q0 38 29.5 67.5t51.5 29.5q6 2 10 2l16 2h7q32 0 60 -22.5t28 -57.5v-23q0 -45 -35 -73t-62 -28h-27q-29 0 -53.5 24.5t-24.5 54.5z" />
<glyph unicode="&#xe5;" d="M72 304v57q0 97 40 217t116 208q147 172 341 173h18q68 0 130.5 -23t77.5 -23t55 16t60 16q43 0 43 -80v-15q0 -19 -52.5 -325.5t-52.5 -396.5t-18 -116t-85 -26q-40 0 -55.5 57t-17.5 57q-12 0 -52 -32q-125 -103 -234 -103h-35q-126 0 -202.5 98.5t-76.5 240.5z M241 324q0 -97 47 -161t124 -64h10l9 1q66 0 128 47t99.5 105.5t68.5 188.5t31 230v40q0 77 -25 95q-42 30 -113 30h-32q-57 0 -118 -32q-131 -70 -195 -247q-34 -92 -34 -179v-54zM464 1252v6l1 7q0 79 60 139t125 60l12 2h33q62 0 116 -48t54 -121v-13q0 -72 -57.5 -136.5 t-140.5 -64.5h-33q-62 0 -116 48t-54 121zM560 1264l1 -4v-6l2 -13q0 -19 25.5 -44.5t54.5 -25.5h28q9 3 22.5 3t42 28.5t28.5 48.5q3 9 3 13l2 17v7q0 35 -27 62t-56 27h-27l-20 -4q-10 0 -44.5 -27.5t-34.5 -78.5v-3z" />
<glyph unicode="&#xe6;" horiz-adv-x="1679" d="M66 328q0 254 165 435q70 77 168.5 122.5t210.5 45.5q41 0 86 -6l30 -5l30 -6l30 -7l24 10q24 11 67 22t49 11t25 -22.5t36 -22.5q54 0 137.5 30.5t157.5 30.5q160 0 243.5 -74t83.5 -187v-30q0 -47 -31 -109t-70 -84q-128 -72 -492 -72q-91 0 -91 -56q0 -116 65 -190 t174.5 -74t185 41t93.5 41q53 0 53 -59.5t-93 -110.5t-212 -51h-30q-93 0 -156 27t-89 27l-34 -8q-53 0 -115 43q-16 11 -36 48q-10 26 -11 26l-60 -61q-34 -31 -71 -52q-88 -50 -166 -50h-30q-146 0 -236.5 102.5t-90.5 274.5zM250 339q0 -99 48.5 -174t137.5 -75h20l10 1 q67 0 131 51.5t102.5 124t75.5 259t37 222.5q0 74 -162.5 74t-270.5 -114q-129 -139 -129 -324v-45zM950 557q0 -23 67 -23h63l7 1l63 3l27 2q14 2 20 2q114 0 207 59q45 29 45 89v7q0 61 -51 96.5t-118 35.5h-36q-85 0 -178 -74q-49 -39 -82.5 -106t-33.5 -81v-11z" />
<glyph unicode="&#xe7;" horiz-adv-x="866" d="M117 408v22q0 104 44 218q43 114 119 198q160 176 373 177h21q99 0 179 -46q43 -25 43 -65t-18 -76t-26 -37q-8 1 -26 13q-90 62 -172 62q-153 0 -258.5 -133t-105.5 -328q0 -123 70.5 -204.5t177.5 -81.5q58 0 91.5 13.5t81.5 40.5t52 27q22 0 22 -88q0 -49 -49 -80 q-90 -57 -217 -57l-21 1h-20q-71 0 -145 36t-127 102q-89 111 -89 286zM230 -369q0 10 44.5 37.5t80.5 79t36 88.5t20.5 67.5t34.5 30.5q45 0 78.5 -33.5t33.5 -35.5v-12q0 -43 -94.5 -164.5t-153.5 -121.5h-5q-20 0 -47.5 24t-27.5 36v4z" />
<glyph unicode="&#xe8;" horiz-adv-x="952" d="M84 365v22q0 105 36 213q76 228 261 327q97 51 199 51h21q135 0 220 -88t85 -225q0 -75 -21 -110q-70 -116 -517 -116q-76 0 -98 -16t-22 -61q0 -121 60.5 -186t162.5 -65q65 0 175 46t120 46q36 0 36 -59t-95 -111q-122 -66 -258 -66q-176 0 -270.5 109.5t-94.5 288.5z M281 588q0 -25 54 -25h26l7 1l192 9q18 3 30 3q57 0 127 35q24 12 24 42l2 12v31q0 53 -41 99t-102 46l-13 2h-39q-18 -3 -24 -3q-65 0 -154 -89t-89 -163zM390 1392v7q0 32 118 32l10 1h9q39 0 63 -54l14 -28l23 -45l14 -28l3 -5q64 -128 64 -131l-1 -4v-3q0 -21 -52 -21 l-14 -2h-15q-37 0 -102 98q-3 5 -68.5 89t-65.5 94z" />
<glyph unicode="&#xe9;" horiz-adv-x="952" d="M82 365v22q0 105 38.5 220t112.5 200q149 171 345 171h21q123 0 214 -81.5t91 -209.5v-22q0 -79 -24 -115q-72 -111 -514 -111q-76 0 -98 -16t-22 -61q0 -121 60.5 -186t162.5 -65q65 0 175 46t120 46q36 0 36 -59t-95 -111q-122 -66 -276 -66t-250.5 107.5t-96.5 290.5z M280 583q0 -20 53 -20h26l7 1l192 9q18 3 30 3q75 0 132 38q22 15 22 63v6q0 71 -43.5 114.5t-100.5 43.5l-13 2h-39q-18 -3 -24 -3q-74 0 -158 -94.5t-84 -157.5v-5zM509 1132v8q0 18 142 201q71 91 110 91h26q97 0 97 -29v-3l-1 -4q0 -12 -64.5 -76.5t-78.5 -80.5 q-113 -129 -167 -129h-10q-54 0 -54 22z" />
<glyph unicode="&#xea;" horiz-adv-x="952" d="M83 368v22q0 101 36 212t106 197t160 133.5t172 47.5h43q133 0 219 -86t86 -226q-1 -74 -23 -112q-66 -114 -537 -114q-54 0 -76 -16t-22 -99.5t60.5 -148.5t161.5 -65q63 0 174.5 46.5t121.5 46.5q36 0 36 -61.5t-113 -118t-218 -56.5h-22q-261 0 -339 231 q-26 78 -26 167zM280 589.5q0 -23.5 28 -23.5h85l6 1l166 9q30 5 42 5q51 0 114 35q21 12 21 51v31q0 63 -47.5 105.5t-115.5 42.5h-26q-73 0 -154 -63q-46 -36 -82.5 -103t-36.5 -90.5zM324 1130v6q0 10 144 154t191.5 144t77.5 -37q9 -10 51 -84.5t68 -114.5t26 -55v-6 q0 -29 -88 -29q-27 0 -87 93t-69 93q-1 0 -102 -92.5t-143 -92.5q-69 0 -69 21z" />
<glyph unicode="&#xeb;" horiz-adv-x="952" d="M80 344v43q0 113 42 228q40 115 112 197q143 166 341 166h22q123 0 213.5 -81t90.5 -210v-43q-1 -54 -23 -92q-68 -112 -493 -112q-96 0 -119 -16.5t-23 -60.5q0 -122 60.5 -187t162.5 -65q63 0 173.5 46t122.5 46q36 0 36 -59.5t-96 -110.5q-123 -65 -235 -65h-44 q-73 0 -139.5 29.5t-111.5 81.5q-92 107 -92 265zM277 583q0 -19 22 -19h110l7 1l140 8q24 4 36 4q59 0 126 37q21 12 21 57v25q-2 12 -2 19q0 51 -50 90t-117 39h-7l-6 -1q-91 0 -185.5 -84t-94.5 -171v-5zM331 1246v14l1 3l2 16q0 25 30 55t67 30h20q33 0 56 -23t23 -44 l3 -16v-20q0 -39 -31 -70t-66 -31h-23q-27 0 -52.5 20.5t-25.5 42.5q-2 6 -2 10zM706 1239v24q0 38 30 68t54 30l20 3h13q12 -3 25.5 -3t36.5 -23t23 -54v-23q0 -39 -31 -70t-66 -31h-23q-33 0 -57.5 24.5t-24.5 54.5z" />
<glyph unicode="&#xec;" horiz-adv-x="491" d="M122 6v10q0 65 44 318t44 289l2 22q2 22 2 32l2 21q1 11 1 21l1 21v28q0 120 23 175q10 24 90 24h48q34 0 34 -12v-72q0 -45 -41.5 -283.5t-41.5 -286.5l-4 -53l-3 -31q-2 -21 -2 -32q0 -146 -34 -191q-11 -14 -73 -14h-71q-21 0 -21 14zM156 1403l1 3q0 33 117 33h24 q28 0 63 -63q113 -203 113 -228t-38 -25q-10 -2 -15 -2l-19 -2h-14q-25 0 -98 98q-134 179 -134 186z" />
<glyph unicode="&#xed;" horiz-adv-x="491" d="M115 6l1 10v11q0 59 44 312.5t44 294.5l4 54l2 21q1 11 1 28v41q0 132 28 173q11 16 85 16h48q34 0 34 -12v-83q0 -33 -41.5 -271.5t-41.5 -287.5l-3 -43l-5 -62q0 -113 -30 -192q-9 -24 -78 -24h-71q-21 0 -21 14zM258 1139.5q0 21.5 183 265.5q26 35 74 35h10l5 -1 q103 0 103 -31q0 -17 -136.5 -153.5t-168.5 -136.5h-21q-49 0 -49 21.5z" />
<glyph unicode="&#xee;" horiz-adv-x="491" d="M94 1137v6q0 9 64 73t86 88q127 138 182 138t84 -43q141 -212 141 -247.5t-82 -35.5h-7q-23 0 -87 92.5t-66.5 92.5t-103.5 -92.5t-127 -92.5h-15q-69 0 -69 21zM124 7q3 30 3 56t43 284t43 288l2 22q1 11 1 21l2 21q2 21 2 39v41q0 136 28 174q11 15 85 15h59 q23 0 23 -12v-83q0 -34 -41 -269.5t-41 -279.5q-4 -40 -4 -53l-2 -21q-2 -21 -2 -31q0 -121 -31 -202q-9 -24 -78 -24h-59q-33 0 -33 14z" />
<glyph unicode="&#xef;" horiz-adv-x="491" d="M108 1250v14l1 3l2 16q0 26 28 54t53 28l16 3h20q27 0 54.5 -22t27.5 -60v-17l-1 -3v-7q-2 -6 -2 -20.5t-28 -42.5t-50 -28q-6 -2 -9 -2l-13 -2h-14l-3 1h-7q-6 2 -9 2q-62 0 -62 60q-2 6 -2 10zM119 3v10q0 54 45.5 327t45.5 324l2 21q2 21 2 31l1 21v28q0 149 28 184 q12 15 97 15h36q34 0 34 -12v-72q0 -27 -19 -141l-26 -156q-4 -34 -21.5 -128.5t-17.5 -155.5l-2 -21q-1 -11 -1 -21l-6 -73q0 -133 -33 -181q-10 -14 -73 -14h-71q-21 0 -21 14zM478 1246v17l1 4l2 24q0 10 25.5 42t55.5 32l16 3h20q27 0 54.5 -22t27.5 -57v-23l-1 -4 l-3 -25q0 -8 -24.5 -38.5t-51.5 -30.5q-6 -2 -10 -2l-13 -2h-13q-37 0 -61.5 24.5t-24.5 57.5z" />
<glyph unicode="&#xf0;" horiz-adv-x="1018" d="M86 336v28q0 112 40.5 224.5t117 200t162.5 122.5t209.5 35t123.5 42q0 77 -45 129.5t-101 52.5q-7 0 -53 -12.5t-77 -12.5q-50 0 -50 41q0 16 59 65q60 49 60 70.5t-31 61.5t-31 57t21.5 40t29.5 23h21q22 0 97 -56.5t110 -56.5q12 0 71 27t100.5 27t41.5 -38v-19 q0 -11 -83 -73q-52 -39 -52 -98q0 -1 40 -97.5t66.5 -202t26.5 -259.5t-41.5 -286t-114.5 -222q-144 -177 -367 -177q-151 0 -248 97q-45 45 -74 115t-29 152zM249 377q0 -117 54.5 -191t142.5 -74h31q43 0 103 32t113 106q98 139 98 306v55q0 97 -52.5 162.5t-141.5 65.5 h-31q-124 0 -220.5 -136.5t-96.5 -314.5v-11z" />
<glyph unicode="&#xf1;" horiz-adv-x="1004" d="M77 20v21q0 22 35.5 222t62 390t36 234t30.5 60t59.5 16t51 -17t12.5 -106q0 -14 40 24q126 120 265 120h26q109 0 166.5 -73.5t57.5 -190.5q0 -199 -104 -688q-8 -38 -44 -38h-51q-64 0 -64 33q0 42 49.5 322.5t49.5 333.5q0 165 -134 165q-61 0 -128 -38t-115 -119 t-99 -396l-12 -76q-9 -50 -18 -107.5t-13 -66.5q-21 -51 -110 -51q-49 0 -49 26zM331 1215.5q0 49.5 63 107.5t119 58h23q53 0 128.5 -42.5t110.5 -42.5t72 40t73.5 40t36.5 -33v-15q0 -46 -59.5 -105.5t-131.5 -59.5h-7q-48 0 -129.5 43t-115.5 43t-72 -41.5t-68 -41.5 q-43 0 -43 49.5z" />
<glyph unicode="&#xf2;" horiz-adv-x="1018" d="M80 359v32q0 115 44 225q91 229 274 321q88 44 189 44h16q159 0 256.5 -107.5t97.5 -271.5v-47q0 -115 -44 -227q-90 -229 -260 -314q-100 -50 -186 -50h-49q-64 0 -133.5 30.5t-114.5 86.5q-90 110 -90 278zM246 368q2 -22 2 -33q0 -88 57 -159.5t137 -71.5h31 q53 0 115.5 37t106.5 105q95 147 95 290v54q0 110 -57 181t-148 71h-11l-10 -1q-115 0 -216 -132q-45 -59 -73.5 -149t-28.5 -171v-21zM401 1392v11q0 29 118 29h23q29 0 66 -67q111 -200 111 -225.5t-48 -25.5l-24 -3h-5q-20 0 -130.5 126t-110.5 155z" />
<glyph unicode="&#xf3;" horiz-adv-x="1018" d="M78 343v48q0 116 44 229q88 223 274 317q88 44 188 44h17q164 0 259 -110.5t95 -284.5v-15q0 -241 -145 -423q-71 -90 -165 -137t-181 -47h-48q-67 0 -132.5 30t-106.5 76q-99 109 -99 273zM244 368q0 -107 54 -185.5t142 -78.5h31q44 0 105 32.5t104 92.5 q108 153 108 318v43q0 103 -54.5 177.5t-150.5 74.5h-11l-10 -1q-49 0 -108 -31t-108 -101q-102 -145 -102 -309v-32zM526 1137v4q0 47 183 256q32 36 75 36h10l5 -1q102 0 102 -28v-7q0 -13 -137 -150t-179 -137l-5 1q-54 0 -54 26z" />
<glyph unicode="&#xf4;" horiz-adv-x="1018" d="M78 346v47q0 117 44 230q88 223 274 317q88 44 188 44h17q163 0 258.5 -110.5t95.5 -284.5v-16l-1 -15q0 -118 -46 -235t-115.5 -193.5t-155.5 -119.5t-173 -43h-48q-67 0 -134.5 31t-113.5 85q-90 105 -90 263zM244 371q0 -114 55 -189t141 -75h31q46 0 105.5 31.5 t103.5 93.5q108 153 108 318v43q0 103 -54.5 177.5t-150.5 74.5h-11q-195 0 -300 -281q-28 -76 -28 -161v-32zM342 1130v6q0 9 61 70t83 85q131 143 186 143t87 -42q141 -188 141 -249q0 -34 -82 -34h-7q-23 0 -87 92.5t-66.5 92.5t-103.5 -92.5t-129 -92.5h-14 q-69 0 -69 21z" />
<glyph unicode="&#xf5;" horiz-adv-x="1018" d="M78 346v64q0 101 43 210q90 229 261 314q100 50 186 50h49q67 0 135.5 -31.5t112.5 -85.5q89 -109 89 -262v-47q0 -100 -39 -214t-109 -198q-149 -179 -358 -179h-16q-160 0 -257 107.5t-97 271.5zM244 361q0 -109 58 -181.5t148 -72.5h10q118 0 207 109 q54 66 86.5 154.5t32.5 158.5l2 21v33q0 107 -53 184.5t-142 77.5h-31q-47 0 -107 -31.5t-109 -101.5q-102 -145 -102 -298v-53zM329 1201v15q0 45 62.5 102.5t118.5 57.5h31q45 0 120.5 -42.5t112.5 -42.5t70 40t68 40q43 0 43 -40v-8q0 -51 -61.5 -107.5t-122.5 -56.5h-22 q-31 0 -121.5 42.5t-121.5 42.5t-65.5 -41.5t-68.5 -41.5q-43 0 -43 40z" />
<glyph unicode="&#xf6;" horiz-adv-x="1018" d="M74 359v16l1 16q0 114 42.5 226t112.5 193.5t159.5 126t175.5 44.5h49q67 0 135.5 -31.5t112.5 -85.5q89 -109 89 -262v-47q-1 -117 -45 -231q-88 -225 -272 -316q-88 -44 -189 -44h-16q-160 0 -257.5 108.5t-97.5 286.5zM240 379l1 -11q0 -119 58 -191.5t148 -72.5h10 l10 1q114 0 216 133q46 60 74 149t28 171v11l-1 10q0 110 -52.5 186.5t-141.5 76.5h-32q-121 0 -219.5 -139.5t-98.5 -313.5v-10zM355 1240v24l1 3v7q3 9 3 20.5t29.5 41t76.5 29.5l33 -5q55 0 55 -59q2 -6 2 -10l2 -16v-7l-4 -26q0 -16 -24.5 -46.5t-49.5 -30.5 q-9 -3 -13 -3l-20 -2h-3l-29 5q-59 0 -59 75zM729 1247v10l4 26q0 23 27 50t48 27q9 3 12 3l20 2l33 -5q19 0 39 -25.5t20 -52.5v-17q0 -42 -29.5 -71.5t-51.5 -29.5q-6 -2 -10 -2l-16 -2h-7l-29 5q-14 0 -37 23t-23 59z" />
<glyph unicode="&#xf7;" horiz-adv-x="1151" d="M151 592v21l3 43q0 51 31 51h904q19 0 19 -23v-21l-2 -22q-1 -11 -1 -22q0 -51 -31 -51h-904q-19 0 -19 24zM493 256v11q0 43 27.5 76t57.5 33q6 2 10 2l14 2h15q9 -3 26.5 -3t40 -22.5t22.5 -48.5l3 -21v-15l-4 -25q0 -25 -30 -55t-75 -30h-15q-41 0 -65 24t-24 50z M553 988v12q0 49 29.5 78.5t51.5 29.5q10 3 14 3l18 2h11q9 -3 26.5 -3t41.5 -24t24 -69v-7l-1 -4v-7l-2 -14q0 -31 -29 -60t-56 -29l-21 -3h-19q-37 0 -61 24t-24 50z" />
<glyph unicode="&#xf8;" horiz-adv-x="1020" d="M38 2q0 15 38.5 64.5t38.5 91.5q0 12 -19 74.5t-19 175t46.5 228.5t126.5 203q138 149 340 149q113 0 171.5 -23t71 -23t50 35t56.5 35q50 0 50 -57q0 -12 -35.5 -58t-35.5 -74t8 -57l10 -34q19 -70 19 -175t-43 -220.5t-120 -201.5q-145 -162 -355 -162 q-74 0 -156.5 22.5t-89 22.5t-45.5 -36t-58 -36q-50 0 -50 56zM243 372q2 -16 2 -24q0 -71 18 -71q12 0 80 81.5t123 141.5q237 259 237 281v12q0 11 -29.5 35t-93.5 24h-9q-126 0 -210 -109q-118 -153 -118 -313v-58zM329 183.5q0 -20.5 31 -46t88 -25.5h25q114 0 199 110 q115 150 115 297l2 17v49q0 98 -21 98q-12 0 -75.5 -76t-213.5 -239.5t-150 -184z" />
<glyph unicode="&#xf9;" horiz-adv-x="996" d="M117 236v26q0 47 48 342.5t50 301.5q14 59 74 59h24q66 0 66 -29q0 -6 -49.5 -315t-49.5 -365t34 -98.5t106.5 -42.5t136.5 42.5t102.5 113.5t82 337.5t49.5 284.5q23 64 92 64q62 0 62 -66v-21q0 -12 -59.5 -370t-61.5 -363q-31 -97 -109 -97q-32 0 -49 29 q-8 12 -18.5 12t-54.5 -25q-120 -68 -232.5 -68t-178 69.5t-65.5 178.5zM400 1398v7q0 33 117 33l10 1h9q33 0 68 -63q113 -203 113 -223v-8q0 -25 -52 -25l-14 -2h-15q-17 0 -126.5 125.5t-109.5 154.5z" />
<glyph unicode="&#xfa;" horiz-adv-x="996" d="M115 236v26q0 47 48 342.5t50 301.5q14 59 75 59h23q67 0 67 -29q0 -6 -22 -143l-12 -75l-9 -50l-8 -50q-49 -306 -49 -362.5t34.5 -98.5t106.5 -42q141 0 232 145q42 67 86.5 338.5t52.5 294.5q23 64 91 64q62 0 62 -66v-21q0 -12 -59.5 -370t-61.5 -363 q-31 -97 -109 -97q-23 0 -30 5.5t-17 20.5t-21 15t-53 -24.5t-95 -46.5t-135 -22q-119 0 -183 70.5t-64 177.5zM521 1143v4q0 17 136 192q78 100 117 100h25q97 0 97 -29v-7q0 -13 -136.5 -149.5t-174.5 -136.5h-10q-54 0 -54 26z" />
<glyph unicode="&#xfb;" horiz-adv-x="996" d="M116 237v26q0 49 45 330t53 314q14 59 74 59h24q66 0 66 -29q0 -6 -49.5 -315t-49.5 -365t34 -98.5t106.5 -42.5t136.5 42.5t102.5 113.5t82 337.5t49.5 284.5q23 64 92 64q62 0 62 -66v-21q0 -12 -59.5 -370t-61.5 -363q-31 -97 -109 -97q-25 0 -31.5 6t-16.5 20.5 t-20 14.5t-54 -25q-120 -68 -232.5 -68t-178 69.5t-65.5 178.5zM343 1137v5q0 11 144 155t194 144t80 -43q140 -202 140 -248v-6q0 -29 -81 -29h-7q-26 0 -85.5 92.5t-70.5 92.5l-116 -106q-86 -79 -121 -79h-8q-69 0 -69 22z" />
<glyph unicode="&#xfc;" horiz-adv-x="996" d="M110 259q0 43 46.5 333t51.5 311q14 59 75 59q90 0 90 -29q0 -21 -50 -298.5t-50 -365t41 -122.5t105.5 -35t125.5 40t102.5 107.5t84.5 334.5t53 295q23 64 91 64q63 0 63 -87q0 -11 -10.5 -69t-29.5 -175l-28 -170q-5 -37 -7.5 -50t-7.5 -46l-11 -75q-18 -111 -27 -147 q-24 -96 -109 -97q-26 0 -36 9l-14 20q-9 12 -19.5 12t-53.5 -25q-117 -68 -232.5 -68t-179.5 70.5t-64 203.5zM348 1243v23l4 23q0 20 29 49t64 29h26l20 -4q54 0 54 -56q3 -9 3 -12l2 -17v-7q0 -37 -26.5 -70t-51.5 -33q-9 -3 -13 -3l-16 -2h-7l-26 4q-16 0 -39 23t-23 53 zM722 1250v10l4 26q0 23 29 52t65 29h27l19 -4q55 0 55 -59q2 -6 2 -10l2 -13v-13q0 -34 -26.5 -67t-51.5 -33q-9 -3 -13 -3l-16 -2h-7l-26 4q-17 0 -40 23t-23 60z" />
<glyph unicode="&#xfd;" horiz-adv-x="902" d="M-20 -431q0 53 101 140.5t155 185t54 220.5q0 67 -84 416t-84 393q0 38 54 38q80 0 109 -84q14 -39 37 -152l33 -159q5 -20 37.5 -178t35.5 -158q10 0 110.5 200.5t150 307t71.5 139.5q56 86 128 86q50 0 50 -32q0 -21 -67 -158q-323 -661 -522 -980q-99 -159 -175 -223 q-42 -35 -92 -35h-26q-76 0 -76 33zM483 1144q0 52 183 261q31 35 75 35h15l5 -1q98 0 98 -28v-3q0 -16 -137 -153t-169 -137h-16q-54 0 -54 26z" />
<glyph unicode="&#xfe;" horiz-adv-x="1039" d="M20 -408q0 19 47 297t138.5 846t102 623.5t23.5 75.5q26 40 74 40h23q42 0 42 -103l-72 -452q0 -28 15 -28t54 22.5t61 32.5q72 33 156 33q129 0 218.5 -97t89.5 -267v-29q0 -124 -42 -240q-86 -240 -279 -329q-79 -36 -156 -36t-110 11t-69 26.5t-44 15.5q-32 0 -45 -46 q-4 -14 -34.5 -196t-39.5 -203q-19 -42 -102 -42q-51 0 -51 45zM301 245q0 -135 162 -135h11l10 1q137 0 237 130q49 65 77 157.5t28 162.5v44q0 111 -53.5 178t-143.5 67l-10 -1q-58 0 -115 -30q-116 -61 -167 -272q-32 -134 -33 -177.5t-1 -53.5l-2 -41v-30z" />
<glyph unicode="&#xff;" horiz-adv-x="903" d="M-24 -430q0 54 98 139t154.5 181t56.5 226q0 74 -83.5 414.5t-83.5 394.5q0 38 53 38q82 0 110 -84q15 -44 76 -345.5t66 -301.5q13 0 166.5 313.5t166.5 333.5q55 86 128 86q50 0 50 -31q0 -17 -68 -159q-465 -971 -679 -1185q-52 -52 -110 -52h-26q-75 0 -75 32z M301 1248v24l4 23q0 20 27 47t50 27q6 2 9 2l13 2h14q9 -3 20 -3q61 0 61 -61q2 -6 2 -9l2 -17v-7l-4 -26q0 -23 -29 -52t-64 -29h-24q-32 0 -56.5 24.5t-24.5 54.5zM675 1255v14q0 33 28.5 68.5t72.5 35.5h17q9 -3 20 -3q61 0 61 -61q2 -6 2 -9l2 -17v-6l-4 -27 q0 -22 -29.5 -51.5t-63.5 -29.5h-24q-32 0 -56 24t-24 49z" />
<glyph unicode="&#x152;" horiz-adv-x="1909" d="M267 480v40q0 144 70 302q103 232 233 381q164 188 483 188l171 -11q71 0 189 21t227 21t148 2l76 4q52 0 52 -50q0 -84 -343 -84q-184 0 -215.5 -27.5t-81 -155t-49.5 -160.5t16.5 -43t140.5 -16t156 -12q56 -10 56 -48q0 -90 -62 -114l-38 -7l-116 -16 q-176 -25 -186 -28q-94 -26 -120.5 -140.5t-26.5 -244.5q0 -96 65 -128q40 -20 230 -20l184 -5q55 0 69 -17.5t14 -63.5t-136 -46h-31l-31 1q-55 0 -113 10t-133 10l-155 9l-34 -4l-37 -7l-37 -6q-62 -9 -151.5 -9t-176 24.5t-145.5 74t-110.5 158.5t-51.5 217zM387 446 q0 -131 53.5 -218t159.5 -87h27q77 0 153 47q35 22 61 90q62 163 137.5 508.5t75.5 429.5v13q0 28 -30.5 49t-93.5 21h-26q-91 0 -186.5 -67.5t-171.5 -182.5t-117.5 -271t-41.5 -283v-49z" />
<glyph unicode="&#x153;" horiz-adv-x="1748" d="M94 443v25q0 84 44 168q91 173 303 248q97 34 185 34h33q99 0 159 -27t82 -49l18 -22l17 -25q18 -23 34 -23l84 54q141 92 306.5 92t247.5 -65t82 -161q0 -159 -50 -199q-63 -50 -318 -50q-90 0 -180 12l-83 10q-56 0 -56 -66q0 -93 87 -170q65 -57 180 -57t239 87 q39 28 71.5 28t32.5 -28q0 -52 -120.5 -98.5t-246.5 -46.5t-184.5 25t-105.5 57.5t-71 32.5t-50 -15l-44 -30q-17 -11 -50 -26q-111 -51 -233 -51h-32q-162 0 -271 93q-46 39 -78 101.5t-32 141.5zM318 317q0 -83 34 -138.5t95 -55.5h17q117 0 223 183.5t106 387.5 q0 102 -34 155t-93 53h-9q-53 0 -113.5 -41.5t-112.5 -126.5q-113 -185 -113 -372v-45zM1028 635q0 -10 21 -10h11l6 1l47 4q56 8 76 8l28 3l245 15q30 5 50 5q34 0 34 53v26q0 49 -51 89t-123 40h-38q-90 0 -198 -78.5t-108 -155.5z" />
<glyph unicode="&#x178;" horiz-adv-x="1144" d="M355 1373q0 53 93 53q47 0 72 -73q10 -31 35.5 -134t39.5 -155t40 -161t31 -109q29 0 172 256.5t175 298.5q52 69 144 69q21 0 21 -8q0 -16 -41.5 -64t-73.5 -103l-113 -193q-209 -360 -222 -386q-50 -102 -88 -322t-55 -284.5t-83 -64.5h-20q-39 0 -39 27.5t50 287.5 t50 305t-94 385t-94 375zM534 1617v18l6 35q0 47 35 75t82 28h3q51 0 51 -39v-27l-4 -26q0 -35 -26.5 -68.5t-51.5 -33.5q-12 -4 -15 -4l-22 -3h-10q-48 0 -48 45zM899 1613v24q0 57 40 107q23 29 79 29h9l22 -4q28 0 28 -46v-6l-1 -3v-9l-6 -32q0 -30 -27 -63.5t-60 -33.5 q-6 -2 -9 -2l-16 -2h-12q-47 0 -47 41z" />
<glyph unicode="&#x2c6;" horiz-adv-x="838" d="M267 1210q0 9 56 56.5t84 75.5q146 146 196 146h7q59 0 105 -81q33 -56 77.5 -115.5t44.5 -68.5v-5q0 -13 -56 -13t-103 68q-74 107 -89 107q-9 0 -107.5 -90t-149.5 -90h-15l-8 1q-42 0 -42 9z" />
<glyph unicode="&#x2dc;" horiz-adv-x="843" d="M252 1260v6q0 46 90 128q48 44 104 44h25q43 0 131 -49.5t121.5 -49.5t74.5 48.5t65 48.5q48 0 48 -32q0 -44 -85 -122q-51 -47 -111 -47h-16q-44 0 -132.5 50t-125 50t-75 -50t-65.5 -50h-8q-41 0 -41 25z" />
<glyph unicode="&#x2000;" horiz-adv-x="930" />
<glyph unicode="&#x2001;" horiz-adv-x="1860" />
<glyph unicode="&#x2002;" horiz-adv-x="930" />
<glyph unicode="&#x2003;" horiz-adv-x="1860" />
<glyph unicode="&#x2004;" horiz-adv-x="620" />
<glyph unicode="&#x2005;" horiz-adv-x="465" />
<glyph unicode="&#x2006;" horiz-adv-x="310" />
<glyph unicode="&#x2007;" horiz-adv-x="310" />
<glyph unicode="&#x2008;" horiz-adv-x="232" />
<glyph unicode="&#x2009;" horiz-adv-x="372" />
<glyph unicode="&#x200a;" horiz-adv-x="103" />
<glyph unicode="&#x2010;" horiz-adv-x="703" d="M120 516v10q5 25 5 35q0 47 31 59q10 4 63 4h351q69 0 69 -15v-9l-1 -5l-4 -30q0 -63 -74 -63h-377q-63 0 -63 14z" />
<glyph unicode="&#x2011;" horiz-adv-x="703" d="M120 516v10q5 25 5 35q0 47 31 59q10 4 63 4h351q69 0 69 -15v-9l-1 -5l-4 -30q0 -63 -74 -63h-377q-63 0 -63 14z" />
<glyph unicode="&#x2012;" horiz-adv-x="703" d="M120 516v10q5 25 5 35q0 47 31 59q10 4 63 4h351q69 0 69 -15v-9l-1 -5l-4 -30q0 -63 -74 -63h-377q-63 0 -63 14z" />
<glyph unicode="&#x2013;" horiz-adv-x="1090" d="M85 526v16q0 57 16 68.5t87 11.5h763q101 0 101 -23q0 -67 -17 -78t-76 -11h-774q-100 0 -100 16z" />
<glyph unicode="&#x2014;" horiz-adv-x="1831" d="M124 533q0 61 19.5 75t64.5 14h1455q91 0 91 -23q0 -48 -13 -68.5t-71 -20.5h-1455q-91 0 -91 23z" />
<glyph unicode="&#x2018;" horiz-adv-x="552" d="M286 998v6l1 7q0 131 87 280q57 98 106 133.5t70 35.5h12q21 0 21 -23.5t-26.5 -50t-64.5 -79t-38 -99.5q0 -10 7 -25.5t7 -68.5t-32 -112q-21 -38 -60 -38h-29q-12 2 -17 2q-44 0 -44 32z" />
<glyph unicode="&#x2019;" horiz-adv-x="551" d="M252 986v9q0 13 32 45q103 103 103 175v1l-12 58q0 72 35 142q22 43 60 43h35q10 -2 16 -2q43 0 43 -27v-11q0 -113 -97 -279q-60 -103 -125 -150q-36 -26 -53 -26h-12q-25 0 -25 22z" />
<glyph unicode="&#x201a;" horiz-adv-x="562" d="M18 -244q0 12 33 48q104 115 104 181q0 5 -5 20t-5 33q0 80 36 142q26 44 89.5 44t63.5 -31v-5q0 -112 -80 -249.5t-150 -188.5q-32 -23 -53 -23h-6q-27 0 -27 24v5z" />
<glyph unicode="&#x201c;" horiz-adv-x="845" d="M258 1003v6q0 133 89 286q57 97 105.5 132.5t69.5 35.5h11q21 0 21 -21.5t-27.5 -52t-30.5 -34.5t-6.5 -8t-13.5 -18q-50 -69 -50 -119q0 -9 7 -25t7 -39l-2 -26q0 -68 -34 -121q-20 -32 -64 -32h-17q-65 0 -65 36zM609 1003v6q0 133 75.5 262.5t124 160.5t63.5 31h11 q21 0 21 -26v-5q0 -13 -33 -50q-95 -107 -95 -172q0 -1 7 -22t7 -72t-36 -117q-17 -32 -63 -32h-17q-65 0 -65 36z" />
<glyph unicode="&#x201d;" horiz-adv-x="845" d="M234 991v5q0 14 31 45q102 102 102 176l-12 52l2 25q0 72 40 135q20 31 64 31h12q71 0 71 -29v-12q0 -113 -93 -272q-57 -97 -129 -155q-34 -27 -51 -27h-12q-25 0 -25 26zM585 992v9q0 14 27 38t66.5 78.5t39.5 99.5q0 1 -6 19t-6 33l2 26q0 71 40 134q20 31 65 31h11 q71 0 71 -29v-12q0 -99 -93 -272q-41 -76 -124 -151q-34 -31 -56 -31h-12q-25 0 -25 27z" />
<glyph unicode="&#x201e;" horiz-adv-x="853" d="M-6 -230q0 8 35 48q99 112 99 169q0 7 -5.5 23.5t-5.5 45.5q0 83 41 147q19 30 71 30h6q69 0 69 -30v-6q0 -118 -97 -284q-59 -101 -125 -149q-36 -26 -52 -26h-12q-24 0 -24 23v9zM347 -233q0 12 36 52.5t44 50.5q54 74 54 123q0 6 -5.5 20.5t-5.5 32.5q0 85 37 148 q23 39 79 39q18 -3 33 -3q40 0 40 -29q0 -120 -92 -278q-57 -98 -128 -156q-35 -29 -58 -29h-6q-28 0 -28 29z" />
<glyph unicode="&#x2022;" horiz-adv-x="969" d="M243 638v39q0 108 89 204t202 96h48q100 0 175.5 -82t75.5 -170v-40q0 -115 -92.5 -207.5t-208.5 -92.5h-28q-104 0 -182.5 78.5t-78.5 174.5z" />
<glyph unicode="&#x2026;" horiz-adv-x="1779" d="M123 49v24l1 3l3 25q1 4 1 8q0 53 42 105q18 23 60 23l4 1l3 1l30 3h14l4 -1l23 -3q3 -1 6 -1q18 0 18 -24v-23l-1 -4l-3 -25q-1 -4 -1 -8q0 -41 -38 -98q-18 -27 -53 -27q-14 -4 -18 -4l-23 -3h-32q-40 0 -40 28zM713 46v34l7 40q0 55 31.5 86.5t71.5 31.5q8 2 11 2 l19 2h22l26 -4q20 0 20 -25v-27l-4 -29q0 -58 -40 -106q-21 -25 -59 -25q-8 -2 -11 -2l-8 -2h-7l-19 -2h-10l-4 1l-23 3q-3 1 -6 1q-17 0 -17 21zM1303 49v27l4 29q0 67 33 100t73 33q8 2 11 2l19 2h22l26 -4q20 0 20 -25v-27l-4 -29q0 -58 -40 -106q-20 -24 -55 -24l-22 -5 h-8l-19 -2h-7l-3 1l-27 3q-3 1 -6 1q-17 0 -17 24z" />
<glyph unicode="&#x202f;" horiz-adv-x="372" />
<glyph unicode="&#x2039;" horiz-adv-x="658" d="M151 552q0 23 187 208q188 188 208 188h8q36 0 36 -23v-8q0 -33 -154 -197t-154 -182t82 -158q82 -142 82 -185t-50 -43h-8q-18 0 -75 98q-162 280 -162 302z" />
<glyph unicode="&#x203a;" horiz-adv-x="657" d="M110 176v8q0 30 154 194.5t154 186.5t-81.5 155.5t-81.5 191.5q0 37 51 37h8q22 0 64.5 -80t107 -186t64.5 -131t-187 -212t-199 -187h-17q-37 0 -37 23z" />
<glyph unicode="&#x205f;" horiz-adv-x="465" />
<glyph unicode="&#x20ac;" horiz-adv-x="1163" d="M159 538q0 51 34 73l31 12q56 15 63 21q36 31 36 90q0 21 -68 42q-45 14 -45 53q0 19 34.5 43.5t47 40t32.5 48.5l55 96q46 76 127 141l30 23q98 71 210 105.5t185 34.5h36q66 0 115 -28t49 -72q0 -77 -98 -77q-39 0 -111.5 18.5t-130.5 18.5t-120 -50t-62 -109.5 t42 -82.5q24 -13 157.5 -13t133.5 -31q0 -40 -88 -63q-17 -4 -189.5 -17.5t-193.5 -21.5q-59 -22 -59 -102q0 -44 51 -57q11 -3 54.5 -5.5t77 -7.5t77 -8.5t50.5 -5.5q52 -11 52 -43q0 -70 -178 -88q-75 -8 -101 -23q-72 -44 -72 -104q0 -112 108 -189q73 -52 196 -52 q51 0 145 16.5t98 16.5q51 0 51 -36q0 -59 -130 -112q-95 -39 -199 -39h-41q-73 0 -147 30q-214 86 -254 366q-13 98 -18.5 107.5t-39 21t-33.5 19.5z" />
<glyph unicode="&#x2122;" horiz-adv-x="1657" d="M217 1392v12q0 53 69 53h477q28 0 28 -23v-13q0 -53 -17 -62.5t-111 -9.5t-104 -36q-7 -24 -27 -297t-21 -279q-5 -29 -54 -29h-27q-41 0 -41 36l5 65l3 26l3 39q30 390 30 421t-17 41.5t-71 10.5l-24 2h-27q-74 0 -74 43zM826 777q0 8 37.5 323.5t38.5 319.5 q11 40 85.5 40t97.5 -59q4 -10 16 -56l31 -114q87 -317 94 -317q1 0 45 101l58 136q117 268 119 271q26 40 149 40q24 0 24 -60q0 -520 -28 -645q-8 -37 -75 -37q-28 0 -28 205l2 30l7 146q8 149 8 171.5t-1 22.5q-7 0 -112 -246t-127.5 -290.5t-76.5 -44.5 q-31 0 -110 291.5t-82.5 291.5t-21.5 -204t-40.5 -287.5t-66 -83.5t-43.5 55z" />
<glyph unicode="&#x25fc;" horiz-adv-x="1014" d="M0 0v1015h1015v-1015h-1015z" />
</font>
</defs>
</svg>
