<?xml version="1.0" standalone="no"?>
<!DOCTYPE svg PUBLIC "-//W3C//DTD SVG 1.1//EN" "http://www.w3.org/Graphics/SVG/1.1/DTD/svg11.dtd" >
<svg xmlns="http://www.w3.org/2000/svg">
<metadata></metadata>
<defs>
<font id="averia_sans_librebold_italic" horiz-adv-x="1107" >
<font-face units-per-em="2048" ascent="1638" descent="-410" />
<missing-glyph horiz-adv-x="591" />
<glyph horiz-adv-x="0" />
<glyph unicode="&#xd;" horiz-adv-x="2048" />
<glyph unicode=" "  horiz-adv-x="591" />
<glyph unicode="&#x09;" horiz-adv-x="591" />
<glyph unicode="&#xa0;" horiz-adv-x="591" />
<glyph unicode="!" horiz-adv-x="615" d="M96 60v38l4 34q0 76 37 108t111 32h20q12 -3 27 -3q71 0 71 -42l3 -22v-38l-4 -34q0 -63 -42 -112q-19 -22 -59 -22q-16 -4 -23 -4l-29 -2h-15q-98 0 -98 45zM199 445v22l29 210q0 2 4 25.5t7 50.5q49 406 102 651q11 52 87 52h95q59 0 59 -35q0 -1 -88 -440t-112 -509 q-18 -51 -76 -51h-47q-60 0 -60 24z" />
<glyph unicode="&#x22;" horiz-adv-x="811" d="M202 970v6l1 7q0 164 67 454q7 31 63 31h104q39 0 39 -13v-6q0 -30 -21.5 -105t-28.5 -108t-35 -130.5t-37 -119.5q-18 -44 -86 -44h-32q-34 0 -34 28zM551 970v7l14 113q0 117 53 347q7 31 64 31h103q39 0 39 -13v-6q0 -5 -5 -22.5t-11 -45.5l-11 -49l-2 -7 q-47 -219 -93 -339q-17 -44 -86 -44h-32q-33 0 -33 28z" />
<glyph unicode="#" horiz-adv-x="1280" d="M94 505.5q0 38.5 26.5 59.5t98.5 35t94 40q63 76 63 175q0 36 -12.5 47t-88 11t-75.5 43q0 79 48 113q22 16 97.5 22.5t99 32.5t58.5 135t45 127q25 44 76 44h33q64 0 64 -63q0 -21 -29 -124.5t-29 -131t100.5 -27.5t119.5 33q3 6 31 102.5t45 127.5q43 80 113 80t70 -55 l-6 -32l-16 -65q-13 -63 -13 -115t58 -63q91 -17 91 -71q0 -71 -62 -100q-13 -6 -83 -9.5t-88 -28.5q-55 -75 -55 -188q0 -36 83 -46.5t83 -64.5q0 -60 -23 -84t-95.5 -30t-104.5 -34.5t-72.5 -149t-63 -143t-91.5 -22.5h-34q-29 0 -29 58q0 24 20 95l30 102l8 33 q0 50 -69 50q-104 0 -126 -15t-59 -126t-71.5 -154t-98 -43t-63.5 61l6 32l10 34l8 32q9 47 9 111q0 31 -65.5 71t-65.5 78.5zM521 613q0 -9 10 -9h172q43 0 50 14q67 134 67 232v12q0 5 -9 5h-177q-38 0 -45 -14q-68 -136 -68 -236v-4z" />
<glyph unicode="$" horiz-adv-x="1139" d="M92 234q0 44 26 80t91.5 36t119.5 -48.5t90 -48.5q42 0 72 113.5t30 214.5q0 45 -91.5 108t-140.5 134t-49 202.5t98 231.5q89 91 263 143q60 18 77.5 32t38.5 72t64.5 58t61.5 -16t25 -65.5t22.5 -67t72.5 -40.5t107.5 -59t50.5 -78v-28q0 -22 -35 -59.5t-78 -37.5 t-102 32t-66 32q-15 0 -36 -32q-63 -95 -63 -248q0 -61 116.5 -130.5t155.5 -136t39 -175.5q0 -156 -111 -278q-59 -65 -121.5 -93t-136.5 -48t-86 -27.5t-46 -95.5q-25 -64 -76 -64h-27q-40 0 -40 44l1 28l2 26q0 60 -40 79l-28 8l-27 9q-224 81 -224 193zM467 1027 q0 -51 40.5 -98.5t77.5 -47.5h6q14 0 14 40l4 22q9 36 9 47l5 26q14 63 14 73l9 48q8 36 8 43l5 22v11q0 8 -12 8l-4 -1h-5q-70 0 -120.5 -59t-50.5 -129v-5zM606 216q0 -8 9 -8h4q75 0 137 62t62 142v20q0 53 -43 104.5t-83 51.5h-4q-25 0 -25 -66l-47 -245 q-10 -45 -10 -53v-8z" />
<glyph unicode="%" horiz-adv-x="1565" d="M201 54q0 12 60 93q650 876 912 1180q87 101 146 101q115 0 115 -24q0 -13 -48 -78q-586 -790 -912 -1181q-97 -116 -158 -116q-115 0 -115 25zM209 954v44v4q0 64 29 142q58 158 186 222q68 34 135 34h11q107 0 169.5 -67t62.5 -176v-43q0 -59 -30.5 -146.5 t-87.5 -148.5q-102 -109 -233 -109h-11q-102 0 -166.5 64.5t-64.5 179.5zM362 986q2 -10 2 -16q0 -40 25.5 -65.5t51.5 -25.5h16q60 0 106.5 70t46.5 140q3 15 3 23l2 28v22l-1 6l-2 40q0 18 -24.5 45.5t-57.5 27.5h-11q-58 0 -97 -58q-57 -86 -57 -164l-1 -5l-1 -6l-1 -23 v-39zM871 264v32q0 76 29 159q58 167 208 234q56 25 131 25l12 -1q107 0 170 -68t63 -188v-11q0 -187 -118 -321q-41 -47 -105.5 -77.5t-134.5 -30.5h-11q-116 0 -180 68.5t-64 178.5zM1034 261q0 -49 22 -74t45 -25h22q73 0 127 97.5t54 215.5v6q0 60 -22.5 86t-45.5 26 h-22q-62 0 -111 -73q-66 -99 -66 -193l-3 -30v-36z" />
<glyph unicode="&#x26;" horiz-adv-x="1388" d="M123 281q0 224 203 399q143 124 143 148.5t-26 103.5t-26 148q0 150 118 260t317 110q142 0 218 -66q76 -64 77 -170q0 -184 -199 -337q-117 -89 -117 -134.5t94 -182.5q50 -72 85.5 -72t104 112t126.5 112q95 0 95 -48q0 -61 -89.5 -205t-89.5 -175.5t56.5 -96 t56.5 -110.5q0 -62 -69.5 -62t-142 39.5t-114.5 39.5q-4 0 -149.5 -56t-260.5 -56h-32q-174 0 -276 80t-103 219zM364 327q0 -72 52 -118.5t136 -46.5h33q85 0 170.5 46t85.5 76t-121 191.5t-134 161.5h-12q-59 0 -150 -125q-60 -83 -60 -155v-30zM639 1069q0 -75 45 -135 q15 -20 21 -20h8q50 0 165 115q60 60 60 127v27q0 41 -30.5 67t-72.5 26h-23q-68 0 -120.5 -52.5t-52.5 -127.5v-27z" />
<glyph unicode="'" horiz-adv-x="474" d="M229 968v6l1 7q0 9 17 128l4 28q3 12 5 31l8 47l3 22q28 200 31 207q8 24 55 24h123q29 0 29 -11v-11q0 -11 -9.5 -44t-37 -161t-73.5 -248q-20 -52 -81 -52h-45q-30 0 -30 27z" />
<glyph unicode="(" horiz-adv-x="728" d="M160 254v86q0 162 47.5 366t133.5 380.5t197 307.5t197 131q33 0 59 -23t26 -38q0 -36 -72 -116q-157 -174 -261 -451.5t-104 -612.5q0 -142 19 -227t61 -184.5t42 -124.5t-16 -40q-46 -42 -109 -42q-18 0 -59.5 32t-86.5 152q-74 197 -74 404z" />
<glyph unicode=")" horiz-adv-x="727" d="M-12 -277q0 32 63 102q165 183 269.5 469t104.5 608q0 157 -23.5 253t-59 182.5t-35.5 112.5t26 42q52 33 88.5 33t70 -49t90.5 -196.5t57 -357.5v-43l-1 -22q0 -170 -47.5 -374t-136.5 -382t-175 -273q-148 -163 -209 -163q-29 0 -55.5 23.5t-26.5 34.5z" />
<glyph unicode="*" horiz-adv-x="928" d="M227 935.5q0 24.5 29 64t39 45.5q34 20 34 22q-15 18 -18.5 34t-19.5 43.5t-16 47t23.5 50t36.5 30.5q40 0 99 -26l14 -4l12 -4l11 -5l20 -11q6 0 26 63.5t36 76.5q45 38 117 38q29 0 29 -66t-17.5 -113.5t-9.5 -47.5l153 54q15 0 49 -28.5t34 -59.5t-36.5 -61t-91.5 -45 t-55 -35q0 -12 30 -48.5t30 -92.5t-14.5 -68t-58.5 -12t-77 20t-51 20t-22 -4.5t-13 -20.5t-15 -21q-64 -53 -125 -53q-40 0 -40 67l6 54q0 23 -71 23q-18 -4 -29 -4t-18 10q-30 43 -30 67.5z" />
<glyph unicode="+" horiz-adv-x="1106" d="M127 567q0 109 31 130q17 11 173.5 11t164.5 19q2 5 22 148.5t23 151.5q14 38 97 38h36q62 0 62 -43l-37 -300q0 -14 154.5 -14t170 -8t15.5 -48q0 -110 -35 -127q-16 -8 -169 -8t-161 -8t-29 -156t-24 -157q-12 -41 -58 -41h-90q-49 0 -49 39l39 301q0 22 -151 22 t-168 7.5t-17 42.5z" />
<glyph unicode="," horiz-adv-x="548" d="M40 -213q0 13 37 73t37 96l-1 4l-11 54q-2 12 -2 17l-1 13v13q0 97 36 154q22 35 102 35h60q76 0 76 -21v-19q0 -121 -93 -294q-44 -82 -116 -141q-35 -29 -63 -29h-6q-55 0 -55 36v9z" />
<glyph unicode="-" horiz-adv-x="829" d="M133 510v13q0 79 28 130q10 19 32 19h535q26 0 26 -18v-13q0 -74 -28 -130q-10 -19 -40 -19h-520q-33 0 -33 18z" />
<glyph unicode="." horiz-adv-x="551" d="M104 54v37l2 20l3 24q0 58 42 107q19 22 65 22l5 1l4 1l44 3h10q15 -3 28 -3q68 0 68 -40q2 -8 2 -13l2 -18v-24q0 -82 -44 -152q-16 -26 -73 -26q-10 -2 -14 -2l-24 -2h-25l-32 4q-63 0 -63 61z" />
<glyph unicode="/" horiz-adv-x="840" d="M-53 -134q0 14 95 194q94 180 144 279l360 692q38 72 47 90l140 270q46 80 115 80h19q100 0 100 -21q0 -77 -786 -1525q-44 -81 -115 -81q-119 0 -119 22z" />
<glyph unicode="0" horiz-adv-x="1232" d="M113 452v60q0 177 58 351t143 292t205 176.5t237 58.5h21q196 0 311 -140q37 -45 66.5 -135.5t29.5 -202.5v-40q0 -161 -51.5 -344t-138.5 -304t-201 -186.5t-231 -65.5h-63q-87 0 -163 40q-145 75 -194 239q-29 100 -29 201zM358 461q0 -135 50.5 -213t130.5 -78h39 q66 0 130.5 51t110.5 131.5t84 222.5t38 273v54q0 134 -48.5 212.5t-144.5 78.5h-13q-228 0 -338 -405q-39 -145 -39 -272v-55z" />
<glyph unicode="1" horiz-adv-x="888" d="M235 105q0 113 64.5 197t86.5 157l12 60q7 34 8 41l7 41l8 40l7 41l8 41l7 41q30 150 30 220q0 44 -45 44h-4q-48 -2 -83.5 -2t-61.5 23t-26 65q0 49 122 122q217 130 307 130h20q74 0 74 -42v-18q0 -7 -72 -418.5t-72 -440t22 -80.5t22 -79q0 -123 -91 -227 q-53 -61 -160 -61h-62q-75 0 -101.5 26.5t-26.5 78.5z" />
<glyph unicode="2" horiz-adv-x="1104" d="M73 51q0 85 110 206q55 60 269.5 265t252.5 254q110 143 110 255q0 75 -49.5 109t-121 34t-166 -80.5t-152.5 -80.5q-68 0 -68 92t142 183t310.5 91t265 -83t96.5 -203v-30q0 -168 -146 -353q-63 -80 -274.5 -269t-211.5 -212t133 -23l268 8q102 0 102 -64 q0 -106 -57 -128.5t-242 -22.5h-94l-31 1h-124q-236 0 -279 9.5t-43 41.5z" />
<glyph unicode="3" horiz-adv-x="1105" d="M74 169q0 31 37.5 63t89 32t128 -43.5t172.5 -43.5t171 71.5t75 169t-51 145.5q-31 30 -121.5 57.5t-99.5 34.5q-29 24 -29 65.5t31 64.5q11 8 102.5 51.5t149 103.5t57.5 154q0 27 -34.5 51.5t-88 24.5t-141 -27.5t-156 -27.5t-68.5 59q0 88 97 137q133 68 307 68 t254 -53.5t80 -167.5q0 -187 -151 -331q-83 -79 -83 -80.5t58 -46.5q60 -45 90 -103q30 -59 30 -157q0 -201 -180 -343q-147 -117 -368 -117q-148 0 -253 57t-105 132z" />
<glyph unicode="4" horiz-adv-x="1162" d="M75 355q0 68 49 128q574 697 687 810q53 53 180 53h41q36 0 36 -45q0 -18 -62 -359t-62 -423q0 -30 67.5 -37.5t67.5 -46.5q0 -82 -26 -112.5t-81.5 -35t-71.5 -32.5t-35.5 -136.5t-41 -132t-95.5 -23.5l-22 1q-22 1 -44 1q-57 0 -57 50l2 20l5 42l8 82l3 21q5 35 5 41 q0 45 -38 60q-15 6 -94 6l-258 7q-104 0 -133.5 12.5t-29.5 48.5zM359 488q0 -2 8 -2h297q24 0 34 27q2 4 20 104l67 344q8 28 8 36v9h-2l-192 -230q-10 -11 -15 -17l-96 -114q-129 -155 -129 -157z" />
<glyph unicode="5" horiz-adv-x="1115" d="M76 124q0 55 39 93t77 38t128 -40t171 -40q127 0 205 90t78 212q0 84 -54.5 141.5t-154.5 57.5q-50 0 -129 -14.5t-111 -14.5q-85 0 -85 69t59 320.5t82 280.5t88 41q11 2 165 2l341 6h61q54 0 54 -32q0 -111 -64 -149q-32 -19 -244 -19t-232 -20.5t-50 -118t-30 -145.5 q0 -23 23 -23l118 9q186 0 293.5 -95t107.5 -276q0 -95 -41 -194q-83 -200 -311 -288q-97 -37 -217 -37h-33q-105 0 -219.5 49.5t-114.5 96.5z" />
<glyph unicode="6" horiz-adv-x="1138" d="M118 355v51q0 153 68.5 339t190.5 336q84 103 232.5 186.5t274.5 83.5h23q79 0 112 -28t33 -50q0 -40 -63 -74q-35 -19 -95.5 -31.5t-71.5 -15.5q-193 -55 -308 -234q-23 -36 -23 -67.5t40 -31.5q5 0 38 9.5t62 16t95 6.5h4q64 0 131 -29q186 -80 186 -317 q0 -103 -46 -209q-93 -213 -280 -290q-100 -41 -190 -41h-51q-158 0 -261 103q-46 46 -73.5 121.5t-27.5 165.5zM348 359q0 -91 51 -147t131 -56h8q108 0 194 93.5t86 231.5v25q0 86 -53 134t-133 48h-9q-119 0 -197 -85t-78 -218v-26z" />
<glyph unicode="7" horiz-adv-x="1061" d="M171 18q0 70 198 411q111 192 274.5 437t163.5 258q0 39 -104 39l-47 2h-51l-308 -16q-39 0 -56 17t-17 84t29 92t175 25h24l24 -1l98 -2l48 -2l222 -1q199 0 222 -3q52 -7 52 -42v-19q0 -18 -235 -403.5t-311 -530.5t-114 -231t-43 -94q-30 -55 -89 -55h-24 q-131 0 -131 35z" />
<glyph unicode="8" horiz-adv-x="1146" d="M88 285v23q0 222 230 374q43 28 43 41t-15 37q-79 108 -79 211q0 184 135 299q66 56 154.5 84t167.5 28h24q156 0 255 -74.5t99 -192.5v-22q0 -141 -110 -261q-40 -44 -72.5 -73.5t-32.5 -36t43 -45t74.5 -95.5t31.5 -152.5t-42 -185.5q-85 -185 -308 -257 q-88 -28 -197 -28q-192 0 -296.5 91t-104.5 235zM327 328l1 -8q0 -67 46 -118t121 -51l17 -2h25q115 0 199 92q63 69 63 174v23q0 62 -52 126t-133 64h-24q-97 0 -180 -91.5t-83 -200.5v-8zM496 976q0 -58 43 -106t98 -48h26q88 0 147 76t59 147.5t-35.5 112t-98.5 40.5h-46 q-82 0 -137.5 -62.5t-55.5 -141.5v-18z" />
<glyph unicode="9" horiz-adv-x="1137" d="M178 62.5q0 42.5 41 64.5t167 48q225 47 328 213q36 59 36 89t-44 30q-10 0 -63 -15t-127 -15q-72 1 -142 29q-184 76 -184 326q0 98 46 205t117.5 176t168.5 108t202 39h26q92 0 166 -34q198 -92 199 -356v-52q0 -162 -70.5 -352.5t-173.5 -317t-248 -199t-279 -72.5 h-22q-64 0 -104 21.5t-40 64zM422 815q0 -67 47.5 -119t120.5 -52h41q97 0 175 78t78 195l2 16v42q0 77 -47.5 135t-124.5 58h-32q-92 0 -176 -91.5t-84 -212.5v-49z" />
<glyph unicode=":" horiz-adv-x="594" d="M106 60v28l1 5v9l6 44q0 53 39 98q21 25 73 25l5 1l4 1l34 2h15q12 -3 27 -3q71 0 71 -63v-32l-4 -40q0 -64 -44 -115q-17 -20 -61 -20l-19 -3l-24 -2h-29l-32 4q-62 0 -62 61zM234 773v14l1 5v14q3 22 3 25q0 68 42 117q20 23 64 23q14 3 19 3l24 2h34q12 -3 22 -3 q66 0 66 -63v-32l-4 -39q0 -78 -44 -116q-25 -21 -71 -21l-19 -3h-10l-14 -1h-15q-95 0 -95 48z" />
<glyph unicode=";" horiz-adv-x="571" d="M59 -205l1 4q0 20 36.5 74.5t36.5 89.5l-7 27q-8 40 -8 54l-1 6v33q2 14 2 21q0 76 32.5 112t111.5 36h45q76 0 76 -34v-13l-1 -7v-7q0 -120 -68 -237t-119 -158.5t-75 -41.5h-12q-50 0 -50 41zM247 760v33l4 39q0 50 40 106q19 27 71 27q10 2 14 2l19 2h33q15 -3 23 -3 q64 0 64 -43q2 -8 2 -13l2 -22v-10l-1 -4q0 -108 -46 -154q-28 -28 -106 -28h-24q-95 0 -95 68z" />
<glyph unicode="&#x3c;" horiz-adv-x="1085" d="M135 599q0 62 68 107q14 9 314.5 173t314.5 170q151 62 171 62q36 0 36 -50v-16q0 -70 -92 -137q-19 -14 -270.5 -151t-251.5 -154q0 -10 197.5 -137t218.5 -144q80 -63 80 -134q0 -39 -23.5 -62.5t-46.5 -23.5q-53 0 -652 393q-64 42 -64 104z" />
<glyph unicode="=" horiz-adv-x="1171" d="M128 361v18q0 80 22 117q11 19 50 19h773q59 0 59 -25v-9q0 -94 -18.5 -119.5t-54.5 -25.5h-784q-47 0 -47 25zM177 726v9q0 145 62 145h805q37 0 37 -25v-9q0 -91 -23 -126q-13 -19 -60 -19h-741q-80 0 -80 25z" />
<glyph unicode="&#x3e;" horiz-adv-x="1081" d="M118 147v15q0 74 103 149q33 24 273.5 151.5t240.5 143t-191 139t-218 145.5q-88 72 -88 133q0 91 45 91q71 0 650 -392q69 -47 69 -93q0 -83 -109 -146q-660 -380 -740 -380q-35 0 -35 44z" />
<glyph unicode="?" horiz-adv-x="996" d="M245 1155v16q0 78 119 145.5t261 67.5t238.5 -75t96.5 -207v-19q0 -123 -92 -250q-33 -46 -365 -430q-19 -22 -55 -22h-18q-102 0 -102 40q0 92 75 210q30 48 128 131.5t130 123.5q66 81 66 150.5t-37.5 107t-100 37.5t-141 -43.5t-141 -43.5t-62.5 61zM254 70v18l1 5v9 l4 44l20 106l3 23q0 68 107 68h35q119 0 119 -65l1 -6l1 -5l1 -23v-6l-1 -6l-2 -29q0 -79 -47 -133t-115 -54h-36q-26 0 -58.5 23t-32.5 31z" />
<glyph unicode="@" horiz-adv-x="1755" d="M164 393v56q0 192 78 369q157 358 483 494q166 69 335 69q308 0 479 -169q76 -75 115.5 -183t39.5 -223q0 -274 -125 -447q-68 -94 -154.5 -138t-146 -44t-121 31.5t-77 31.5t-95 -36.5t-147.5 -36.5q-101 0 -168.5 81.5t-67.5 206.5q0 172 102 324q68 101 141 147 t139 46l42 -2q61 -3 77 -3l73 10q36 0 60.5 -25.5t24.5 -86t-29.5 -198.5t-29.5 -169q0 -92 52 -92t93 88t41 202q0 197 -107 299.5t-240.5 102.5t-217.5 -36q-83 -36 -169 -126q-176 -186 -177 -443q0 -124 18 -215.5t75.5 -177.5t141 -131t150.5 -45t110 5l43 6q68 9 79 9 q65 0 65 -34q0 -48 -79 -82q-109 -47 -265.5 -47t-267.5 45q-218 88 -312 297q-61 136 -61 270zM716 406q0 -48 22.5 -74t47.5 -26h13q151 0 256 294q42 118 42 176v20q0 47 -65 47h-20q-35 0 -92 -30.5t-92 -81.5q-112 -162 -112 -288v-37z" />
<glyph unicode="A" horiz-adv-x="1286" d="M12 34.5q0 23.5 88 199.5q418 837 488 945q129 200 137 207q50 40 134 40t106 -21.5t41 -101t97 -649t78 -582.5q0 -59 -93 -59t-133 43q-18 20 -37.5 160t-25.5 153q-18 37 -121 37q-297 0 -332 -26t-101 -164t-73 -147q-44 -58 -167 -58h-45q-41 0 -41 23.5zM532 605 q0 -9 156 -9l99 -2q82 0 82 38q-3 21 -3 30l-4 30q-4 30 -4 38l-4 30q-3 23 -3 30l-10 83l-3 22q-8 61 -8 76q0 165 -27 165q-1 0 -136 -250.5t-135 -280.5z" />
<glyph unicode="B" horiz-adv-x="1227" d="M96 73.5q0 42.5 114 625.5l12 68q19 92 32.5 171t29.5 152t26.5 166t18.5 115q17 46 52 54t252 8h144q296 0 381 -158q33 -61 33 -133v-24q-1 -166 -153 -294q-68 -56 -68 -61q0 -4 22 -19q152 -98 152 -257q0 -107 -47 -201q-98 -195 -340 -249q-97 -21 -237 -21h-213 q-147 0 -179 7.5t-32 50zM369 236q0 -23 50 -23h138q252 0 318 143q27 58 27 118l-1 10q0 92 -65.5 132.5t-195.5 40.5h-85q-100 0 -109.5 -14.5t-49.5 -242.5l-4 -16q-23 -130 -23 -133v-15zM484 862q0 -20 38 -20h105q155 0 222 49q97 71 97 183v25q0 142 -208 142h-76 l-8 -1l-59 -3q-8 -1 -14 -1q-26 0 -33 -24q-64 -208 -64 -337v-13z" />
<glyph unicode="C" horiz-adv-x="1241" d="M138 574q0 170 68.5 349t180.5 296.5t245 169t285.5 51.5t265.5 -52t113 -119q0 -52 -34 -95t-78 -43t-161.5 48.5t-156.5 48.5q-100 0 -188 -50q-169 -97 -243 -350q-36 -121 -36 -279.5t84 -254.5t225 -96q72 0 168 41.5t175 41.5q74 0 74 -88q0 -75 -152 -143 q-151 -68 -297 -68q-258 0 -398 144.5t-140 447.5z" />
<glyph unicode="D" horiz-adv-x="1341" d="M91 49q0 20 25 144.5t34.5 178.5t13.5 76l8 44l9 44q14 81 18.5 102.5t14.5 76.5l12 66q9 44 17 89l8 45l25 133q20 109 28.5 200t21 125.5t62.5 43t238 8.5l68 1h71q381 0 507 -286q44 -101 44 -220v-70q0 -156 -64 -329q-192 -514 -771 -514h-114l-23 1q-253 0 -253 41 zM372 246q0 -36 105 -36h59q119 0 205 36.5t159.5 121t117.5 217t44 244.5v45q0 162 -79.5 255.5t-220.5 93.5h-60l-87 -4q-61 0 -71 -37q-28 -106 -79.5 -404t-54.5 -311l-15 -81l-3 -14l-2 -14l-5 -29l-6 -28q-7 -41 -7 -43v-12z" />
<glyph unicode="E" horiz-adv-x="1140" d="M97 97.5q0 64.5 81 449t89 437.5q60 377 67 388q30 46 426 46h281q104 0 124.5 -14t20.5 -45q0 -91 -48.5 -124.5t-151.5 -33.5l-304 11q-96 0 -126 -46q-58 -89 -58 -253q0 -46 61 -56.5t223.5 -15.5t178.5 -12q37 -18 37 -61q0 -92 -41 -117q-26 -16 -211.5 -16 t-226.5 -10.5t-71 -44.5q-59 -67 -59 -281q0 -60 38 -78t117.5 -18t148.5 4l102 6q99 0 138 -21t39 -87t-76 -94q-33 -12 -240 -12h-280q-174 0 -226.5 17t-52.5 81.5z" />
<glyph unicode="F" horiz-adv-x="1109" d="M104 81l25 139l6 28q2 8 12 67t19 99l10 56q30 159 39.5 222t61.5 362t54 303q36 56 415 56l56 2l200 3h86q86 0 86 -52q0 -90 -42 -127q-26 -23 -132 -23l-50 2h-80l-141 -3q-133 0 -163 -44q-63 -93 -63 -289q0 -38 29 -50.5t206 -12.5t212 -15.5t35 -57.5 q0 -95 -60 -122q-23 -10 -210 -17t-232.5 -46.5t-63 -86t-49.5 -211.5t-48 -194q-28 -49 -123 -49t-95 61z" />
<glyph unicode="G" horiz-adv-x="1348" d="M149 575v38q0 159 66 322.5t176.5 280.5t246 170.5t285.5 53.5t254 -44q130 -55 130 -129q0 -41 -33 -77t-75.5 -36t-151.5 33.5t-195 33.5t-174 -50.5t-152 -144.5q-124 -182 -124 -429q0 -179 95 -268t248 -89q94 0 168.5 50t74.5 120q0 30 -68 69q-67 39 -67 104 q0 42 24 53q47 21 157 21t142 -27t32 -96.5t-51 -276.5q-26 -104 -64.5 -149t-182 -90t-239.5 -45t-190 43t-174.5 132.5t-119 202t-38.5 224.5z" />
<glyph unicode="H" horiz-adv-x="1378" d="M98 52q0 22 55.5 270t99 543t80.5 447q9 39 29 50t87.5 11t86 -15t18.5 -76l-50 -371q0 -49 27.5 -64.5t137.5 -15.5l213 -7l69 -2q70 0 95 51q4 7 34 134t46 210t28 106q39 76 164 76q62 0 62 -33q0 -123 -64.5 -412t-114 -570.5t-57.5 -307.5t-31 -36.5t-116 -10.5 t-93 75q0 30 39.5 236t39.5 247.5t-23.5 54t-66.5 12.5q-394 0 -440 -57q-22 -27 -65 -254.5t-63 -268.5q-28 -58 -124 -58h-35q-68 0 -68 36z" />
<glyph unicode="I" horiz-adv-x="656" d="M124 73q0 40 67 254q12 38 71.5 353t59.5 441l-5 90q0 144 56 184q35 25 189 25h36q50 0 50 -67q0 -27 -60 -247q-11 -42 -75 -379t-64 -477.5t-29.5 -194t-92.5 -53.5h-17q-34 2 -90 2t-76 14.5t-20 54.5z" />
<glyph unicode="J" horiz-adv-x="798" d="M-32 -33q0 93 162 131q80 18 103 35q50 35 101 133.5t108.5 373.5t66.5 388q23 279 33.5 318.5t60.5 55t143 15.5q42 0 42 -92l-1 -18l-1 -55q0 -70 -105 -661q-63 -346 -127 -476q-130 -263 -410 -263l-19 1h-18q-139 0 -139 96v18z" />
<glyph unicode="K" horiz-adv-x="1263" d="M124 48v32q0 6 48.5 296t96 596t61.5 345q23 62 148 62q73 0 73 -66q0 -31 -32.5 -199t-32.5 -205.5t11 -37.5q45 0 115 61q1 1 134.5 128.5t205 205t93.5 91.5q71 46 223 46q43 0 43 -8t-273.5 -298t-273.5 -334q0 -31 57 -132t165 -338.5t108 -256.5q0 -38 -102.5 -38 t-152.5 65q-9 12 -112.5 235.5t-115.5 246.5q-38 69 -82 69q-56 0 -104 -140q-11 -32 -40.5 -207.5t-46.5 -206.5q-30 -55 -90 -55q-124 0 -124 43z" />
<glyph unicode="L" horiz-adv-x="1071" d="M113 63v20q0 22 21 128t69 382t80.5 506.5t41.5 267.5q11 48 128 48h44q71 0 71 -55q0 -138 -84.5 -570t-84.5 -504.5t47 -82.5q57 -12 266 -12t232 -7q36 -11 36 -75.5t-21 -102.5q-13 -23 -55 -23h-71l-23 1l-47 1q-23 1 -46 1l-93 3l-47 2q-47 2 -69 2l-23 1 q-23 1 -47 1l-23 1q-23 1 -46 1l-24 1h-47q-122 0 -153.5 12.5t-31.5 52.5z" />
<glyph unicode="M" horiz-adv-x="1692" d="M124 168l9 47q8 41 20 94l21 95q25 118 42 228q82 531 125 655q15 44 58 73t100 29t80 -14q45 -27 87.5 -124.5t119.5 -393.5t95 -296l23 32q113 167 200 306l106 172q111 179 132 208q91 121 173 121q61 0 97.5 -34.5t36.5 -91.5q0 -149 -156 -1085q-13 -78 -42 -113.5 t-65 -35.5t-76.5 37.5t-40.5 96.5q0 25 18.5 177t26.5 230t25 204t17 142t-5 16q-13 0 -206 -337t-234.5 -376t-127.5 -39q-47 0 -71 40q-9 15 -84.5 349t-112.5 334q-6 0 -67.5 -229.5t-93 -364.5t-45.5 -168t-59.5 -58t-68.5 -25q-57 0 -57 99z" />
<glyph unicode="N" horiz-adv-x="1428" d="M116 58q0 11 45 253.5t61.5 357t53.5 316.5l21 111l5 39l8 78q12 100 15 114q15 64 96.5 64t119.5 -15.5t70 -63.5q78 -116 249 -505t175 -389q16 0 91.5 437t87.5 470.5t51.5 61t119.5 27.5q49 0 49 -58q0 -119 -227 -1240q-12 -61 -23.5 -77t-72.5 -16t-100.5 11.5 t-75 64.5t-220.5 487t-211 434q-1 0 -83.5 -446t-91.5 -473q-24 -74 -118.5 -74t-94.5 31z" />
<glyph unicode="O" horiz-adv-x="1457" d="M137 574q0 161 60 330t164 291q218 256 557 256q374 0 485 -326q35 -103 35 -220v-46q0 -160 -60.5 -330t-164.5 -292q-217 -254 -532 -254h-23q-373 0 -485 325q-36 105 -36 266zM393 550q0 -161 77.5 -261.5t216.5 -100.5h31q184 0 324 197q59 83 100 211t41 257v15 q0 187 -81.5 282t-227.5 95q-202 0 -332 -184q-67 -95 -108 -222t-41 -258v-31z" />
<glyph unicode="P" horiz-adv-x="1170" d="M89 47l83 454l9 43q1 6 63 339t69.5 399.5t16.5 96t56.5 38t255.5 8.5l44 1h69q458 0 458 -339v-24q0 -108 -51 -218q-50 -110 -128 -171q-155 -122 -434 -122q-147 0 -178 -54q-16 -26 -50 -216.5t-40 -207.5q-22 -64 -105 -64h-66q-72 0 -72 37zM467 772q0 -25 39 -25 h113q169 0 258.5 74.5t89.5 205.5v37q0 79 -59 123t-175 44h-70q-110 0 -119 -34q-77 -289 -77 -425z" />
<glyph unicode="Q" horiz-adv-x="1463" d="M132 530v27q0 165 60 338t168 297t239.5 184t263.5 60h55q110 0 211.5 -39t163.5 -106.5t98.5 -170.5t36.5 -225v-53q0 -151 -54.5 -296.5t-115 -227.5t-64.5 -88l-32 -36q-32 -36 -43.5 -55.5t-11.5 -82.5l-3 -31q-5 -28 -5 -49.5t9.5 -57.5t5 -36t-10.5 -6t-25 -19 q-69 -47 -145 -47q-138 0 -394 125q-122 60 -252 182q-74 70 -114.5 182t-40.5 231zM379 550q0 -169 83.5 -265.5t215.5 -96.5h16q69 0 95 22.5t50.5 57.5t56 65t60 61t39 40.5t50.5 34.5t60.5 55t47.5 131t27 208v17q0 262 -178 332q-62 24 -121 25h-17q-212 0 -341 -188 q-70 -101 -107 -224.5t-37 -224.5v-50z" />
<glyph unicode="R" horiz-adv-x="1235" d="M92 64q0 24 104 585t112.5 639.5t16.5 92.5q26 47 316 47l88 1q258 0 365 -75q54 -38 86 -103t32 -133v-29q0 -225 -212 -380q-105 -77 -105 -113q0 -6 28 -66t96 -264.5t68 -218.5q0 -41 -101 -41h-29q-96 0 -130 57q-9 14 -71 214.5t-104 253t-144 52.5q-69 0 -91 -60 q-4 -10 -43 -213t-52 -229q-34 -67 -118 -67t-98 14q-14 12 -14 36zM470 805q0 -22 48 -22h76l8 1l78 2q9 1 17 1q109 0 190.5 75t81.5 181v35q0 71 -56.5 113.5t-165.5 42.5h-85l-8 -1l-25 -1h-16q-16 -2 -24 -2q-37 0 -48 -32q-71 -213 -71 -372v-21z" />
<glyph unicode="S" horiz-adv-x="1158" d="M73 170q0 53 37.5 97t87 44t159.5 -59.5t208 -59.5t173 56t75 147.5t-78 151.5q-41 31 -197 102.5t-224.5 150t-68.5 223.5q0 75 37 149q80 159 261 227q91 34 182 34h66q151 0 270 -54q85 -38 85 -95.5t-34.5 -96.5t-69 -39t-156 45t-183.5 45q-102 0 -158 -58.5 t-56 -146.5q0 -62 79 -120q28 -21 180 -93t210 -127q104 -99 104 -254q0 -95 -40 -175q-81 -161 -263 -233q-103 -41 -217 -41h-32q-170 0 -303.5 57t-133.5 123z" />
<glyph unicode="T" horiz-adv-x="1153" d="M189 1255v23q0 62 16.5 87t57.5 35q104 26 552 26h77q319 0 348.5 -9t29.5 -46q0 -105 -48 -140q-28 -20 -139 -20l-49 2h-48l-45 2q-83 0 -109 -73q-21 -58 -103 -524l-18 -101l-5 -25q-19 -108 -44 -283t-52 -192t-73 -17q-157 0 -157 43q0 80 37 242.5t91 467 t54 393.5q0 62 -90 62l-43 -4q-14 -1 -75.5 -6.5t-88.5 -5.5q-76 0 -76 63z" />
<glyph unicode="U" horiz-adv-x="1371" d="M177 397v36q0 158 103 690q14 73 23.5 163t13.5 97q16 28 150 28q82 0 82 -74q0 -8 -27 -206.5t-31 -232t-34.5 -210.5t-30.5 -273.5t62 -160.5q63 -63 163 -63h3q205 0 295 189q39 81 120 511.5t91 458.5q27 74 168 74h33q35 0 35 -30q0 -130 -147 -826 q-40 -189 -103 -300q-80 -141 -212 -213t-274 -72q-256 0 -369 110q-114 110 -114 304z" />
<glyph unicode="V" horiz-adv-x="1284" d="M195 1362q0 50 112 50t140 -71q51 -132 108 -571t70.5 -439t240.5 471.5t261 524.5q61 96 161 96h31q76 0 76 -33q0 -13 -47 -105q-457 -897 -556 -1068t-122.5 -190t-97.5 -19t-104.5 14t-46.5 70t-51 299t-66 390t-49 261t-39 209t-21 111z" />
<glyph unicode="W" horiz-adv-x="1883" d="M222 1298q0 86 86 86q123 0 160 -150q23 -91 53.5 -450.5t47.5 -359.5q24 0 138.5 256.5t170.5 419.5t65 183l21 41q28 31 139 31q76 0 92 -69q23 -99 60 -487.5t61 -388.5l16 30q119 241 235 520t152.5 334.5t87 78t101 22.5t50.5 -21q0 -36 -62 -172.5t-243.5 -550 t-215.5 -479t-87.5 -99.5t-101.5 -34q-48 1 -68 21q-38 38 -76 307l-13 104q-55 436 -78 436l-85 -174q-162 -335 -278 -538q-82 -143 -135 -143q-85 0 -141 57q-25 25 -32.5 66t-20.5 195t-27 262t-43 366t-29 300z" />
<glyph unicode="X" horiz-adv-x="1276" d="M21 34q0 6 256 349t256 386q0 22 -132 305.5t-132 305t148 21.5q90 0 128 -57q8 -12 94.5 -208.5t94.5 -196.5q13 0 113 124.5t154.5 197t74.5 88.5q66 55 211 55h34q40 0 40 -13t-218 -292t-223 -286q-42 -65 -42 -116q0 -17 132.5 -331t132.5 -327q0 -40 -162 -40 q-71 0 -103.5 43t-113 264t-100.5 221q-5 0 -100.5 -125t-151.5 -204.5t-95 -121.5q-64 -68 -159 -68q-137 0 -137 26z" />
<glyph unicode="Y" horiz-adv-x="1199" d="M206 1319v19q0 55 114 55q67 0 109 -25q20 -12 56 -68q3 -5 89 -229.5t90 -224.5q34 0 197 218q69 92 126.5 179.5t80.5 107.5q62 55 182 55h25q43 0 43 -18.5t-245.5 -367.5t-286.5 -421.5t-74.5 -254.5t-69.5 -275q-24 -61 -76 -61q-101 0 -132 12t-31 47l85 457 q0 94 -34 198q-6 17 -48 107t-81 193l-54 137q-23 61 -44 110t-21 50z" />
<glyph unicode="Z" horiz-adv-x="1193" d="M42 51q0 66 72 162t176.5 222t355.5 441.5t251 329.5q0 22 -121 22t-243.5 -11.5t-156.5 -11.5q-81 0 -81 77q0 97 27.5 120t157.5 23l31 -1l68 1h621q75 0 75 -28q0 -84 -69 -174q-20 -27 -164.5 -204t-385 -479t-240.5 -321.5t135 -19.5t235 9.5t172 9.5t89 -26t17 -85 t-30 -83t-224 -24h-621q-147 0 -147 51z" />
<glyph unicode="[" horiz-adv-x="754" d="M72 -247q0 46 40 254t70.5 385t59 324.5t66 365.5t55 296t49.5 109t106 31h317q42 0 42 -33q0 -96 -49 -130q-31 -21 -143 -21q-62 0 -97 -42q-13 -16 -38.5 -108.5t-121.5 -649t-96 -599.5t42 -65q18 -9 84.5 -14.5t86 -23t19.5 -73.5q0 -90 -86 -90h-317q-89 0 -89 61 v23z" />
<glyph unicode="\" horiz-adv-x="859" d="M197 1437q0 38 138 38q66 0 82 -62q32 -123 60 -268.5t63.5 -304.5t42 -193t39.5 -182l8 -36l7 -37q8 -37 18 -82t18 -82l8 -36q9 -44 35.5 -164.5t26.5 -144.5q0 -38 -138 -38q-65 0 -83 62q0 2 -10 47l-18 81q-8 36 -15 73l-16 73q-60 278 -66.5 306t-11.5 58l-36 164 l-43 200q-4 21 -56.5 264t-52.5 264z" />
<glyph unicode="]" horiz-adv-x="759" d="M-37 -297q0 89 51 128q29 22 105 22t111.5 27.5t55.5 103.5q3 11 40 204l9 52l10 52l9 52l10 52q16 82 42.5 233.5t64 346t37.5 255.5t-43 86q-17 10 -81.5 20t-82 26t-17.5 63.5t17 69.5t64 22h173q133 0 172.5 -13t39.5 -68.5t-125.5 -781t-154.5 -832t-64.5 -127.5 t-107 -21t-122.5 -2l-102 -4h-74q-37 0 -37 13v21z" />
<glyph unicode="^" horiz-adv-x="1133" d="M238 809q0 12 30 62q157 262 327 479q49 63 130 63h13q45 0 93 -105q193 -418 193 -492q0 -42 -90 -42q-55 0 -109 89q-25 41 -80.5 177t-65.5 136q-2 0 -119.5 -165.5t-136.5 -184.5q-51 -51 -118 -51t-67 34z" />
<glyph unicode="_" horiz-adv-x="1074" d="M-27 -179q0 77 27 111q13 16 45 16h891q37 0 37 -28v-10q0 -76 -27 -110q-14 -17 -57 -17h-879q-37 0 -37 19v19z" />
<glyph unicode="`" horiz-adv-x="674" d="M266 1385v10q0 35 69 35h28q95 0 132 -42q138 -158 138 -248v-11q0 -43 -60 -43h-12q-67 0 -127 67q-168 189 -168 232z" />
<glyph unicode="a" horiz-adv-x="1104" d="M84 353v39q0 111 46 227q98 243 285 340q103 53 195 53h37q80 0 137.5 -22.5t76.5 -22.5l105 19q47 0 70.5 -14.5t23.5 -63t-48.5 -267t-48.5 -360.5q0 -42 9 -78.5t9 -43.5q0 -142 -136 -142q-47 0 -76 36q-53 66 -54 66q-8 0 -46 -29.5t-130 -60t-155 -30.5 q-133 0 -216.5 101.5t-83.5 252.5zM333 384q0 -89 37.5 -143.5t95.5 -54.5h18q46 0 102 36t97 105q86 143 86 343v27q0 84 -24.5 113t-92.5 29h-18l-9 -1q-44 0 -98.5 -32.5t-99.5 -98.5q-94 -137 -94 -295v-28z" />
<glyph unicode="b" horiz-adv-x="1101" d="M89 78.5q0 35.5 21.5 147.5t30.5 164t26 140t82 461t84.5 430.5t120.5 57.5h23q79 0 79 -54q0 -41 -35.5 -249.5t-35.5 -223.5q-1 -15 9 -15q10 1 49 19q119 56 240.5 56t197 -101t75.5 -261v-24q0 -115 -40 -235q-84 -253 -269 -353q-87 -47 -176 -47t-149 23l-40 19 l-19 10q-41 20 -51 20t-48.5 -26t-89 -26t-68 16t-17.5 51.5zM369 288q0 -56 42.5 -86.5t99.5 -30.5h28q51 0 101.5 30.5t83.5 79.5q100 150 100 324v28q0 94 -37 147.5t-112 53.5l-10 -1q-57 0 -111.5 -33t-86.5 -86t-65 -171.5t-33 -217.5v-37z" />
<glyph unicode="c" horiz-adv-x="938" d="M94 359v43q0 114 50 246q97 251 325 336q100 37 222 37h21q87 0 160.5 -46t73.5 -88t-35 -79.5t-63 -37.5t-99 30.5t-124 30.5q-112 0 -200 -125.5t-88 -315.5q0 -97 46.5 -155.5t133.5 -58.5q51 0 123 26t121 26q67 0 67 -67t-106 -121.5t-230 -54.5h-22 q-87 0 -160.5 28t-116 72.5t-71 117t-28.5 156.5z" />
<glyph unicode="d" horiz-adv-x="1113" d="M91 350v24q0 121 52 256q97 253 279 340q84 40 182.5 40t152 -19t56.5 -19q40 0 66.5 199t43.5 237q31 70 114 70h22q58 0 75.5 -12.5t17.5 -51t-40 -254.5l-44 -232q-73 -383 -102.5 -604t-32.5 -230q-27 -80 -128 -80q-50 0 -68 23q-5 6 -14 34t-23 28q-3 0 -47 -27 q-117 -72 -260 -72h-23q-119 0 -199 93.5t-80 256.5zM330 379q0 -94 38 -149t109 -55h9l10 1q48 0 106.5 33t91 91t61 186t28.5 205l1 19q0 65 -32 90q-52 40 -126 40h-9q-114 0 -190 -114q-97 -146 -97 -328v-19z" />
<glyph unicode="e" horiz-adv-x="1016" d="M100 361v22q0 124 46 251q92 256 309 347q97 41 207 41h23q143 0 226 -80t83 -208v-22q0 -136 -85 -196q-65 -46 -248 -73q-59 -9 -62 -9l-21 -2q-163 -18 -180 -25q-46 -19 -46 -100q0 -52 53 -89t127.5 -37t156 30t122.5 30q57 0 57 -83q0 -55 -87 -98 q-142 -71 -258 -71h-45q-264 0 -346 209q-32 81 -32 163zM377 596q0 -20 22 -20h49l5 1l29 2l5 1l35 3q66 11 85 11q70 0 137 45q36 24 36 77v16q0 45 -34.5 79.5t-82.5 34.5h-42q-12 -2 -17 -2q-76 0 -151.5 -86.5t-75.5 -147.5v-14z" />
<glyph unicode="f" horiz-adv-x="745" d="M47 -104q0 62 59.5 190.5t96.5 294t37 322.5q0 27 -23.5 108t-23.5 119.5t58 83t76 79t30.5 76.5t34 96.5t68.5 104.5t121.5 77.5t145.5 27.5h26q100 0 130.5 -21t30.5 -41q0 -85 -50 -113q-12 -7 -104 -16.5t-132 -44.5q-59 -51 -59 -151q0 -55 91.5 -71t91.5 -74 q0 -45 -79 -96q-115 -74 -130 -104q-73 -147 -120.5 -415.5t-78 -346.5t-62.5 -107.5t-106 -29.5h-26q-103 0 -103 52z" />
<glyph unicode="g" horiz-adv-x="1106" d="M81 -267q0 35 27 58t76 23t110.5 -27t121.5 -27q107 0 181.5 97t74.5 243l-6 5q-3 0 -34 -20.5t-78 -42.5t-124 -22q-141 0 -221.5 93t-80.5 271q0 103 44 227q85 240 274 326q87 40 168 40t119 -14t77.5 -35t57 -21t45.5 23.5t75 23.5q79 0 79 -41v-22q0 -25 -43 -228.5 t-69 -340.5q-73 -387 -124 -491t-164 -176.5t-254 -72.5t-252 53q-80 38 -80 98zM349 420l14 -113q0 -68 31.5 -111.5t76.5 -43.5l25 -3h23q36 0 107 39.5t97 94.5q89 189 89 382v29q0 66 -30 89q-47 36 -126 36h-21l-10 -1q-99 0 -171 -98q-105 -143 -105 -274v-26z" />
<glyph unicode="h" horiz-adv-x="1105" d="M103 65q0 47 80 459t111.5 622t39.5 241q19 72 133 72q79 0 79 -54q0 -43 -18 -146.5t-37 -185.5t-19 -109.5t22 -27.5q4 0 41.5 17.5t76 28t143 10.5t171 -76t66.5 -198.5t-41 -382t-54 -282.5q-19 -35 -137 -35q-37 0 -47.5 23.5t-10.5 95.5t36.5 294.5t36.5 236.5 q0 147 -116 147q-51 0 -106.5 -33.5t-91 -97t-81 -303.5t-63.5 -285q-34 -86 -105 -86q-109 0 -109 55z" />
<glyph unicode="i" horiz-adv-x="563" d="M104 70v24q0 67 28.5 165t66 300.5t37.5 302.5t28 134q15 18 105 18h38q84 0 84 -29v-34q0 -22 -44 -260t-45 -267t-1 -43v-30l4 -70q0 -68 -26.5 -154.5t-37.5 -97.5q-23 -23 -156 -23l-25 -1q-36 0 -46 6.5t-10 58.5zM314 1248v31l1 5v9q2 10 2 14q0 66 39.5 100 t101.5 34h27l25 -4q63 0 63 -51q2 -10 2 -13l1 -17v-4l-1 -5l-3 -41q0 -50 -32.5 -88t-81.5 -38l-17 -3h-9l-14 -1h-4q-100 0 -100 72z" />
<glyph unicode="j" horiz-adv-x="565" d="M-141 -311q0 53 83 97t109 74t54.5 126.5t85.5 439.5t57 437t21.5 125.5t92.5 31.5h18l18 -1h18q89 0 89 -35l-1 -16l-1 -31q-2 -32 -2 -48q0 -65 -89 -522t-116 -521q-48 -112 -120 -169q-115 -90 -226 -90h-18q-33 0 -53 24.5t-20 61.5v16zM330 1267v13l2 23l4 27 q0 42 42 92q18 22 66 22l27 3h27q98 0 98 -57l3 -26v-22q0 -68 -30.5 -111t-78.5 -43l-18 -3h-9l-14 -1h-9q-58 0 -84 18.5t-26 64.5z" />
<glyph unicode="k" horiz-adv-x="1021" d="M109 53q0 77 67 530t157 807q17 65 120 65h28q59 0 59 -72.5t-57 -335.5t-57 -311.5t26 -48.5q3 0 91.5 75.5t137.5 124.5t91 76.5t151 27.5q62 0 62 -29t-157.5 -215t-157.5 -247q0 -4 39.5 -83t95.5 -223t56 -149q0 -40 -133 -40q-62 0 -96.5 41.5t-99.5 215.5 t-102 174q-47 0 -87.5 -188.5t-57.5 -210t-96.5 -21.5t-79.5 37z" />
<glyph unicode="l" horiz-adv-x="567" d="M117 128v35q0 37 34.5 175.5t97 502.5t62.5 386q0 164 38 226q19 31 140 31l17 1q61 0 61 -44v-18l-1 -17q0 -78 -80 -501t-80 -569l1 -26v-40l5 -82q0 -102 -40 -153q-28 -36 -122 -36h-52q-48 0 -64.5 30t-16.5 99z" />
<glyph unicode="m" horiz-adv-x="1609" d="M90 89q0 66 43 291t58 344q15 120 51 199q24 51 83 51t81 -21l15 -20q21 -33 26.5 -33t104 53t181 53t152.5 -44q116 -73 119 -73l56 34q128 76 235.5 76t172 -68.5t64.5 -200.5q0 -50 -38.5 -310.5t-50 -304.5t-31.5 -68t-82 -24q-95 0 -95 77q0 193 26.5 350.5 t26.5 211.5t-29.5 96.5t-82.5 42.5q-108 0 -163 -103q-40 -74 -92 -341t-57 -288q-19 -69 -106 -69h-41q-53 0 -66 12t-13 47t49 303t49 322q0 124 -110 124q-47 0 -98.5 -36.5t-86 -93.5t-82 -303.5t-74.5 -291.5q-36 -60 -133 -60q-62 0 -62 66z" />
<glyph unicode="n" horiz-adv-x="1103" d="M80 53q0 69 45 257t67.5 352.5t38.5 222.5q27 96 97 96q53 0 76.5 -13t34 -52.5t27.5 -39.5q4 0 48 32q125 92 248 92t191 -72.5t68 -189.5v-25q0 -37 -21.5 -173.5t-42.5 -297.5t-25 -173q-18 -50 -97 -50t-104 32q-9 11 -9 95t35 286.5t35 255.5t-30.5 93.5t-89.5 40.5 t-118.5 -32t-101 -92.5t-94 -333.5t-76 -308.5t-142.5 -35.5q-60 0 -60 33z" />
<glyph unicode="o" horiz-adv-x="1098" d="M96 365v34q0 116 48 247t129 216q157 165 382 165l17 -1h18q154 0 274 -109q47 -43 75.5 -115t28.5 -133v-33q0 -108 -47 -236q-98 -266 -295 -361q-112 -54 -217 -54h-35q-174 0 -278 104q-45 45 -72.5 119.5t-27.5 156.5zM337 379q0 -93 45.5 -151t123.5 -58h29 q37 0 92.5 28t96.5 87q94 137 94 293v59q0 95 -44.5 152t-120.5 57h-29q-44 0 -98.5 -30.5t-96.5 -91.5q-92 -134 -92 -297v-48z" />
<glyph unicode="p" horiz-adv-x="1110" d="M20 -370q0 60 58 343.5t79.5 405t30 164.5t18.5 97l8 45l7 45q4 23 13 90t21 104q25 78 120 78q40 0 56.5 -16.5t28.5 -44.5t18 -28q18 1 58 25q122 74 250.5 74t208 -91t79.5 -250v-24q0 -121 -44 -249q-46 -128 -122 -220q-144 -174 -370 -174q-52 0 -112.5 27 t-71.5 27q-19 0 -58 -190t-63.5 -234t-120.5 -44h-44q-48 0 -48 40zM376 277q0 -61 34.5 -90t89.5 -29h27q57 0 124.5 45t105.5 102q89 134 89 300v39q0 95 -37.5 147.5t-105.5 52.5h-19q-60 0 -116.5 -32t-90 -88.5t-67.5 -186t-34 -241.5v-19z" />
<glyph unicode="q" horiz-adv-x="1098" d="M99 361v23q0 113 42.5 237.5t112.5 214.5q141 180 353 181q73 0 146.5 -29.5t87 -29.5t54 22t111 22t70.5 -47q0 -39 -52 -300t-68.5 -353.5t-41.5 -222.5t-51 -278.5t-29 -158.5q-16 -56 -40.5 -65t-87.5 -9h-23q-84 0 -84 50l74 441q0 16 -17 16q-10 0 -45 -19t-54 -28 q-73 -34 -154 -34q-140 0 -222 96.5t-82 270.5zM337 395q0 -102 36.5 -158.5t107.5 -56.5h19q47 0 105 32.5t86.5 80t62.5 170t34 222.5v45q0 51 -38 82.5t-105 31.5h-19q-111 0 -200 -129t-89 -320z" />
<glyph unicode="r" horiz-adv-x="784" d="M85 37v15q0 24 31.5 167.5t32.5 150.5l6 34l7 34q6 34 12 69l12 68q22 122 31.5 225.5t23.5 154t92.5 50.5t113.5 -33q14 -13 23 -58t13.5 -45t40.5 35q108 104 215 104h16q95 0 95 -57q0 -43 -49 -112q-24 -34 -60 -34h-2q-37 1 -72 1t-98 -33.5t-96 -88.5 q-62 -102 -88.5 -319t-54.5 -305q-19 -60 -128 -60h-70q-47 0 -47 37z" />
<glyph unicode="s" horiz-adv-x="914" d="M59 103q0 56 35 92t67.5 36t112.5 -36t152 -36t122.5 37t50.5 91t-41 83.5t-154 72t-169.5 99t-56.5 154.5q0 133 111 225t269 92h23q114 0 204.5 -33t90.5 -69q0 -61 -28.5 -89.5t-57.5 -28.5t-120 26t-105 26q-73 0 -120.5 -27.5t-47.5 -78.5t55 -89q8 -6 130 -60 q120 -54 176 -112t56 -148q0 -160 -119 -252t-294 -92q-120 0 -231 39t-111 78z" />
<glyph unicode="t" horiz-adv-x="742" d="M154 885q0 54 31 85t72 44.5t54.5 36.5t34 105t41.5 109q40 50 115 50h19q59 0 59 -50l-16 -155q0 -46 13.5 -60.5t84.5 -32t71 -32.5v-31q0 -72 -37 -98q-16 -11 -83.5 -21t-81.5 -31t-62 -213t-48 -271t21 -97t76 -25t63 -12q27 -15 27 -78t-53.5 -89.5t-164 -26.5 t-164.5 61t-54 196q0 52 35 227t35 291q0 43 -44 69.5t-44 48.5z" />
<glyph unicode="u" horiz-adv-x="1105" d="M117 273q0 62 36.5 255t53 294t18.5 108q19 65 81 65h24q76 0 96 -21t20 -78t-44 -290t-44 -287q0 -136 133 -136q38 0 99.5 34.5t98 89.5t83 301.5t77 314t120.5 67.5t89 -54q0 -6 -41 -246.5t-62 -389.5t-31 -190t-33 -67t-79 -26t-70.5 10t-30.5 50t-23 40t-51.5 -31 t-107.5 -59.5t-179 -28.5t-182 87q-51 67 -51 188z" />
<glyph unicode="v" horiz-adv-x="1009" d="M154 952v19q0 34 97 34h22q92 0 115 -73q6 -20 49 -342.5t53 -322.5q5 0 90 171t117 239l84 181q40 90 44 95q36 51 166 51q66 0 66 -18q0 -27 -114 -255q-287 -574 -372 -685q-40 -52 -152 -52q-56 0 -81 13.5t-39 66.5t-79.5 465t-65.5 413z" />
<glyph unicode="w" horiz-adv-x="1463" d="M184 899v31q0 48 36 48q124 0 148 -71q10 -30 22 -319.5t49 -289.5q14 0 90.5 185t128.5 323.5t60 147.5q24 27 136 27q64 0 75.5 -45t30.5 -334.5t25 -289.5q12 0 100 170.5t131 274.5t64 134q56 80 123.5 80t67.5 -18t-36.5 -94t-65.5 -158q-147 -421 -250 -582 q-58 -90 -167 -90q-43 0 -59 38q-27 63 -78 288t-60 225q-1 0 -52.5 -90t-136 -228t-105.5 -162q-59 -67 -109 -67q-103 0 -121 108q-43 247 -43 663l-2 64z" />
<glyph unicode="x" horiz-adv-x="1015" d="M5 28q0 6 183 242t183 254q0 46 -94 206.5t-94 222.5q0 42 159 42q68 0 96 -38.5t78.5 -159.5t58.5 -121q28 0 161 199q42 63 60 80q51 48 171 48h25q61 0 61 -12q0 -39 -179.5 -251t-179.5 -259.5t99 -216.5t99 -216t-129 -47h-25q-72 0 -97.5 33t-81 171.5t-62.5 138.5 t-111.5 -138t-121.5 -154q-52 -49 -155.5 -49t-103.5 25z" />
<glyph unicode="y" horiz-adv-x="1054" d="M80 -357q0 15 93 85l144 109q94 116 94 205q0 15 -76.5 124t-108.5 210q-67 213 -67 495q0 46 17 64q46 49 122.5 49t101.5 -79q36 -116 49 -367.5t37 -251.5q90 0 276 434q84 194 112 227q47 52 173 52q41 0 41 -36q0 -8 -198 -461.5t-277 -573.5t-216 -221t-227 -101 t-90 37z" />
<glyph unicode="z" horiz-adv-x="962" d="M36 40q0 64 65 151q32 42 273 320t241 296t-60.5 18t-133.5 -9.5t-128 -9.5t-72 16t-17 76.5t26 85.5t111 25h73l24 -1q48 -2 49 -2h226q215 0 223 -2q30 -8 30 -41q0 -63 -66 -149q-16 -20 -263 -305.5t-247 -305.5t109 -20q13 0 92.5 8.5t141 8.5t80.5 -19t19 -77.5 t-25.5 -81.5t-136.5 -23h-374q-210 0 -227 4q-33 8 -33 37z" />
<glyph unicode="{" horiz-adv-x="767" d="M118 561q0 82 59 113t62 33q59 40 86 108q7 19 48.5 243.5t98.5 303.5t142.5 117t174.5 38h26q59 0 59 -43v-22q0 -70 -44 -100q-10 -7 -46 -18.5t-59 -22.5q-51 -23 -83.5 -77.5t-64.5 -240t-63 -251.5t-88 -108t-57 -47t24.5 -33t44.5 -65.5t20 -103t-26 -198t-26 -204 t62 -113.5q100 -68 100 -111q0 -104 -91 -104q-145 0 -221 67.5t-76 223.5q0 47 30 200t30 221.5t-41 106.5q-81 76 -81 87z" />
<glyph unicode="|" horiz-adv-x="619" d="M136 -307l44 355l3 21l15 125l3 21q139 1163 154 1252q10 55 60 55h79q64 0 64 -17v-19q0 -1 -32 -270l-2 -21l-26 -209l-3 -21l-5 -42q-138 -1157 -151 -1231q-10 -55 -80 -55h-60q-63 0 -63 17v39z" />
<glyph unicode="}" horiz-adv-x="772" d="M-26 -295q0 56 43 102l96 48q58 29 90.5 80t64.5 239q32 186 54 238q35 85 116 140q51 34 51 39q-1 5 -25 29q-75 75 -75 180q0 47 27.5 187t27.5 216t-77.5 118t-77.5 99q0 98 64 98q296 0 296 -298q0 -80 -25 -207.5t-25 -187.5t34 -104q1 -1 40 -34t39 -57v-23 q0 -70 -77.5 -110.5t-105 -96.5t-66 -274.5t-93 -296.5t-138 -125t-166.5 -47h-23q-69 0 -69 48z" />
<glyph unicode="~" horiz-adv-x="1052" d="M162 607q0 88 85 167.5t177 79.5h22q60 0 175 -63.5t156.5 -63.5t97 51.5t108 51.5t52.5 -21v-19q0 -89 -106 -176q-72 -59 -149 -59t-200 64.5t-148 64.5q-52 0 -105 -53t-109 -53t-56 29z" />
<glyph unicode="&#xa1;" horiz-adv-x="589" d="M52 -250q0 49 30 174t89.5 422t77 357t69.5 60h90q31 0 31 -34v-23q0 -4 -19 -162l-8 -63l-2 -12l-3 -26l-2 -13l-3 -25l-2 -13l-1 -13q-55 -462 -84 -599q-14 -68 -86 -68h-115q-62 0 -62 27v11zM256 1015v9l4 38q0 64 44.5 95.5t103.5 31.5h5q68 0 107 -33 q20 -17 20 -63v-33l-4 -28q0 -53 -40.5 -87.5t-106.5 -34.5h-10q-123 0 -123 105z" />
<glyph unicode="&#xa2;" horiz-adv-x="1031" d="M120 440v24q0 102 35 202q70 201 232 299q55 34 133.5 61.5t91 38.5t36.5 70.5t29 65.5q22 27 64.5 27t58.5 -17.5t16 -87t58 -108.5q105 -71 105 -108q0 -27 -30.5 -54t-63 -27t-65 13t-52.5 13t-33 -40q-3 -9 -59.5 -263.5t-56.5 -264.5q0 -42 32 -42q25 0 73 14.5 t71 14.5t47 -27.5t24 -44.5q0 -49 -93 -99l-40 -18l-19 -10l-19 -9q-57 -28 -69 -38.5t-35.5 -54t-39.5 -56.5q-42 -36 -109 -36q-33 0 -41 65.5t-10 68.5l-31 20l-15 12l-18 11q-87 53 -132 130q-75 126 -75 255zM356 432q0 -60 30.5 -120.5t66.5 -60.5q17 0 23 26 q113 527 113 568v6q0 7 -4 7h-5q-75 0 -148 -115t-73 -221l-1 -7l-1 -8l-1 -22v-53z" />
<glyph unicode="&#xa3;" horiz-adv-x="1129" d="M47 92q0 54 105 159t105 238q0 56 -10 75l-15 16l-21 10l-18 13q-46 39 -46 69.5t67 90t73 70.5t21 85q46 228 133 328q64 74 156.5 114.5t180.5 40.5h34q106 0 196.5 -50t90.5 -103v-28q0 -39 -29.5 -62.5t-58 -23.5t-94.5 26q-65 25 -124 25h-5q-122 0 -186 -110 q-50 -87 -50 -242q0 -31 14 -38.5t143.5 -23.5t129.5 -47q0 -59 -51 -101q-29 -24 -127.5 -53.5t-133.5 -69.5t-66 -139.5t-31 -110.5q0 -54 158 -54q84 0 180 19.5t119.5 19.5t51.5 -22.5t28 -58.5q0 -84 -57 -119.5t-225 -35.5l-232 6l-299 -7q-107 0 -107 94z" />
<glyph unicode="&#xa4;" horiz-adv-x="1162" d="M131 349q0 25 56.5 83.5t56.5 102.5l-11 39q-17 58 -17 189q0 48 33 117.5t33 104.5t-28.5 96t-28.5 84t32.5 59t53.5 36t72 -51t70 -51t78.5 18.5t134 18.5t132 -19.5t79.5 -19.5t86 52t79 52t51 -38.5t36 -64t-63.5 -89t-63.5 -98.5l3 -19l10 -40q7 -37 7 -95t-15 -103 t-39.5 -98.5t-24.5 -83t37.5 -88t37.5 -68.5q0 -40 -26 -69.5t-53 -29.5t-77 50t-88 50l-18 -4l-39 -12q-75 -20 -149 -20t-119 11.5t-61 11.5t-86 -59t-83.5 -59t-50.5 39.5t-37 64.5zM412 725q0 -84 46.5 -146t123.5 -62h31q78 0 158.5 80.5t80.5 191.5v39q-2 16 -2 24 q0 62 -53.5 121t-126.5 59h-16q-103 0 -172.5 -93t-69.5 -199v-15z" />
<glyph unicode="&#xa5;" horiz-adv-x="1223" d="M191 310v24q0 41 30.5 59.5t109.5 29.5t94.5 25t15.5 46.5t-13 44t-95 11.5t-82 46q0 52 69 102.5t69 67.5q0 124 -137 456q-47 114 -47 163.5t73 49.5q133 0 179 -64q20 -28 112.5 -291t103 -263t190 263.5t206.5 288.5q68 64 179 64q51 0 51 -54q0 -16 -98.5 -152.5 t-125.5 -177.5q-171 -259 -171 -304q0 -27 53 -55.5t53 -49.5q0 -54 -58 -78q-24 -10 -86 -14t-84.5 -21.5t-22.5 -59.5q0 -37 114 -49t114 -57q0 -83 -148 -89q-92 -4 -120.5 -27.5t-53 -121t-29.5 -102.5q-20 -21 -97 -21h-38q-51 0 -71.5 11.5t-20.5 75.5l3 96 q0 54 -110.5 74t-110.5 53z" />
<glyph unicode="&#xa6;" horiz-adv-x="547" d="M90 -319q0 234 75 709q7 42 44 42h119q43 0 43 -27v-9q0 -234 -75 -709q-7 -42 -44 -42h-109q-53 0 -53 27v9zM206 765v18q0 43 11 116.5t35.5 319.5t32.5 284.5t47 38.5h121q36 0 36 -35q0 -109 -22.5 -259t-38 -305t-17.5 -164q-9 -39 -38 -39h-131q-36 0 -36 25z" />
<glyph unicode="&#xa7;" horiz-adv-x="1019" d="M104 -28.5q0 52.5 23.5 82.5t58 30t99.5 -20t119.5 -20t90 34.5t35.5 86.5t-29.5 85t-136 111.5t-156.5 144.5q-49 63 -49 156q0 155 123 254q59 47 59 62q-26 82 -26 161q0 163 111.5 261t260.5 98h30q89 0 163 -31t74 -71q0 -124 -87 -124q-23 0 -85 18t-114.5 18 t-85 -32.5t-32.5 -85t40 -93.5t148.5 -115t154.5 -139t46 -168.5t-85 -199.5t-85 -143l3 -21q2 -18 2 -50q0 -281 -222 -377q-86 -37 -165 -37h-29q-103 0 -193 43q-61 29 -61 81.5zM369 698q0 -57 57 -108q114 -101 167 -101h24q31 0 69.5 49.5t38.5 95.5v21 q0 63 -89.5 132.5t-141.5 69.5h-10q-38 0 -76.5 -44t-38.5 -88v-27z" />
<glyph unicode="&#xa8;" horiz-adv-x="845" d="M200 1089v25q0 45 30.5 88t71.5 43l21 3h33q8 -2 23 -2t42 -22.5t27 -72.5v-8l-1 -4q0 -57 -34 -98t-88 -41h-29q-41 0 -68.5 23t-27.5 66zM592 1088v25q5 20 5 39.5t32 57.5t85 38h29q46 0 71 -25t25 -64v-29q-3 -12 -3 -32t-30.5 -57t-64.5 -37q-16 -4 -20 -4h-37 q-43 0 -67.5 24.5t-24.5 63.5z" />
<glyph unicode="&#xa9;" horiz-adv-x="1579" d="M162 639v45q0 136 58 275.5t155.5 240.5t232 166.5t276.5 65.5h45q249 0 425 -165q90 -84 139.5 -203.5t49.5 -242.5v-45q0 -142 -58.5 -280t-162.5 -245t-241 -165.5t-282 -58.5h-22q-250 0 -428 168q-85 80 -136 199.5t-51 244.5zM309 681q0 -241 142 -389 q68 -70 159.5 -103.5t175.5 -33.5h37h4q101 0 207 47q222 97 321 349q41 104 41 210v37q0 221 -142 369q-63 65 -152 101.5t-182 36.5h-37q-109 0 -216 -50q-221 -103 -316 -347q-42 -107 -42 -227zM495 658v52q0 76 32 159q66 171 216 235q74 32 143 32h33 q77 0 145.5 -35.5t68.5 -77.5q0 -23 -26.5 -45t-38 -22t-71.5 13.5t-123 13.5q-92 0 -146 -85q-54 -84 -54 -194q0 -230 175 -231q36 0 98 15t84 15q46 0 46 -65q0 -36 -74 -74.5t-152 -38.5h-50q-129 0 -217.5 96.5t-88.5 236.5z" />
<glyph unicode="&#xaa;" horiz-adv-x="797" d="M180 912v11q0 77 82 164q119 127 119 151.5t-14 36t-14 14.5q0 65 149 65q28 0 70 12t61 12h25q31 0 57 -30t26 -82v-44l-40 -258l14 -84q0 -75 -21.5 -95t-65.5 -20t-61 17q-36 36 -41 36t-74.5 -28.5t-125.5 -28.5t-101 42t-45 109zM330 958q0 -78 64 -78h11 q40 0 85 45t45 94q3 12 3 16l1 3l1 4l3 23v11l1 8v7q0 47 -47 47h-23l-22 -4q-26 0 -74 -48t-48 -108v-20z" />
<glyph unicode="&#xab;" horiz-adv-x="1178" d="M125 532q0 10 31 49q108 136 334 315q77 61 120 61h11q55 0 55 -53v-10q0 -64 -240 -291q-64 -61 -65 -69q0 -8 94 -152q94 -145 94 -182.5t-30.5 -64t-51.5 -26.5q-52 0 -124 91q-228 289 -228 332zM583 526q0 27 346 353q78 73 127 73h10q62 0 62 -57v-10 q0 -46 -151 -197t-151 -162l100 -154q86 -132 86 -167.5t-31.5 -63t-44.5 -27.5q-53 0 -125 86q-228 274 -228 326z" />
<glyph unicode="&#xac;" horiz-adv-x="1231" d="M165 707l1 14v13q0 59 10 76.5t53 17.5h817q46 0 59.5 -13.5t13.5 -69.5v-39q-2 -26 -2 -41q0 -196 -43 -336q-8 -25 -39 -25q-101 0 -120 20.5t-19 96.5q0 1 4 30t4 106.5t-18 89t-91 11.5l-72 2h-238q-259 0 -278 3q-42 6 -42 44z" />
<glyph unicode="&#xad;" horiz-adv-x="812" d="M119 517q0 186 62 186h539q18 0 18 -12q0 -99 -25 -164q-8 -22 -37 -22h-539q-18 0 -18 12z" />
<glyph unicode="&#xae;" horiz-adv-x="1440" d="M93 885v20q0 266 200 472q80 83 198.5 137t254.5 54h20q118 0 222 -44.5t171 -116.5q150 -161 150 -377v-39q0 -129 -51 -249q-111 -259 -356 -364q-117 -50 -225 -50h-60q-105 0 -207 46q-206 94 -281 300q-36 100 -36 211zM219 870q0 -81 33 -166q34 -88 96 -148 q124 -118 306 -119l16 1h16q84 0 180 43q189 85 273 289q44 106 44 217v16l-1 16q0 87 -30 167q-60 157 -203 228q-88 44 -184 44h-33q-101 0 -196.5 -44.5t-167 -122.5t-110.5 -181t-39 -203v-32v-5zM445 624v13q0 6 24.5 243t24.5 313t15.5 92.5t100.5 16.5h104 q118 0 186.5 -42t68.5 -120v-30q0 -54 -30 -97.5t-73 -70.5t-43 -36q0 -1 22 -46.5t63 -142.5t41 -98q0 -17 -74 -17h-13q-46 0 -108.5 140.5t-110.5 140.5q-36 0 -42.5 -25.5t-12.5 -113t-21.5 -114t-68.5 -26.5t-53 20zM616 1001q0 -9 6 -9h75l4 1l32 3q4 1 7 1 q34 0 64.5 30.5t30.5 69.5v20q-3 12 -3 18q0 55 -74 55q-6 2 -11 2l-20 2h-57q-47 0 -47 -113v-8l-1 -3v-8z" />
<glyph unicode="&#xaf;" horiz-adv-x="829" d="M192 1051v14q0 132 53 132h562q22 0 22 -24v-8q0 -131 -46 -131h-578q-13 0 -13 17z" />
<glyph unicode="&#xb0;" horiz-adv-x="719" d="M161 997v18q0 121 92 213t214 92h9q116 0 185 -74.5t69 -180.5l-1 -10v-9q0 -113 -91 -204t-205 -91h-37q-98 0 -166.5 74.5t-68.5 171.5zM307 995q2 -10 2 -15q0 -30 32.5 -68t80.5 -38h10q55 0 103 48t48 103l3 30v5l-1 5q0 47 -30 89t-79 42h-20q-50 0 -99.5 -49.5 t-49.5 -116.5v-35z" />
<glyph unicode="&#xb1;" horiz-adv-x="1112" d="M114 97v19q0 139 54 139h792q25 0 25 -26l-1 -10v-10q0 -74 -14.5 -101.5t-49.5 -27.5h-782q-24 0 -24 17zM181 705q0 112 32 135q15 11 162.5 11t153 7.5t23.5 160.5t53 153h67q81 0 81 -51q0 -9 -4.5 -47.5t-7.5 -68.5l-8 -66q-5 -41 -5 -64.5t163.5 -23.5t163.5 -31 q0 -106 -31 -135q-15 -14 -161 -14t-154.5 -9.5t-25 -146t-18.5 -140.5q-8 -21 -51 -21h-33l-17 1q-55 0 -68.5 9t-13.5 35l22 250q0 22 -161.5 22t-161.5 34z" />
<glyph unicode="&#xb2;" horiz-adv-x="738" d="M141 671q0 50 60 120q22 26 139 138.5t161.5 177t44.5 119.5q0 74 -71 74q-33 0 -113 -41.5t-85 -41.5q-34 0 -34 62.5t87 113.5t188 51t156.5 -51t55.5 -123v-36q0 -75 -57.5 -151.5t-164.5 -175.5t-107 -113q0 -6 99 -6t129.5 -15.5t30.5 -61t-44 -62.5 q-28 -11 -139 -11h-54l-18 1h-54q-210 0 -210 32z" />
<glyph unicode="&#xb3;" horiz-adv-x="730" d="M137 703v13q0 22 24.5 53t49.5 31t78.5 -18.5t98 -18.5t81.5 35t37 97t-74 86q-95 31 -95 73q0 33 92.5 87.5t92.5 105t-81 50.5l-141 -18q-42 0 -42 64q0 36 69.5 69.5t157.5 33.5h37q105 0 144 -37t39 -109q-1 -112 -103 -194q-32 -26 -31 -40l8 -7l27 -18 q71 -52 71 -156t-90.5 -187.5t-226.5 -83.5h-18q-94 0 -149.5 37t-55.5 52z" />
<glyph unicode="&#xb4;" horiz-adv-x="665" d="M273 1088v5q0 84 168 273q42 47 111 47l12 1l7 1l30 1h73q28 0 28 -18q0 -67 -214 -260q-71 -64 -133 -64h-49q-33 0 -33 14z" />
<glyph unicode="&#xb5;" horiz-adv-x="1131" d="M16 -318q0 45 47 310l26 159q10 58 11 64l6 32q5 32 11 63l21 126q73 424 77 442q26 114 91 114q94 0 115 -19.5t21 -79t-37.5 -277.5t-37.5 -258q0 -179 145 -179q52 0 111 42.5t91 102.5t80 332t91 312q28 26 97 26q79 0 79 -88q0 -38 -42.5 -281.5t-42.5 -374.5 q0 -17 12 -85q0 -63 -48 -117q-20 -23 -61.5 -23t-66.5 18t-44 40t-26.5 22t-94 -52t-186.5 -52q-22 0 -73 16t-54 16q-43 -1 -89 -291q-12 -76 -14 -80q-19 -58 -112 -58h-31q-72 0 -72 52v26z" />
<glyph unicode="&#xb6;" horiz-adv-x="1261" d="M176 1017q0 99 54 199q100 186 329 239q98 23 278 23h80l39 -1q214 0 271.5 -10t57.5 -52v-3q0 -94 -59 -212q-60 -120 -74 -194t-86 -544t-82 -500t-52.5 -53.5t-57 -23.5t-43 27t-28.5 82.5t96.5 641.5t96.5 630.5t-105 44.5q-45 0 -58 -71q-6 -33 -31.5 -199.5 t-61.5 -389.5t-70.5 -449.5t-41.5 -253.5q-19 -71 -91 -71h-35q-56 0 -56 90q0 33 26.5 190t26.5 190q0 194 -27 240.5t-120.5 121t-134.5 142.5t-41 166z" />
<glyph unicode="&#xb7;" horiz-adv-x="523" d="M145 604v20l1 5l2 25q0 56 40.5 91t97.5 35h35q64 0 92 -33t28 -85v-20l-1 -6l-2 -24q0 -65 -43.5 -96t-99.5 -31h-20l-5 1h-11q-10 2 -14 2q-46 0 -73 32t-27 84z" />
<glyph unicode="&#xb8;" horiz-adv-x="715" d="M125 -371q0 55 95 55q53 0 78.5 23t25.5 49t-36.5 50.5t-36.5 40.5q0 62 34.5 104.5t62.5 42.5h32q45 0 45 -36q-5 -30 -5 -39t25 -26q10 -10 18 -16q47 -35 47 -85v-24q0 -71 -70.5 -135.5t-159.5 -64.5h-25q-73 0 -115 28q-15 10 -15 20v13z" />
<glyph unicode="&#xb9;" horiz-adv-x="588" d="M234 1280v7q0 20 60 61q126 86 204 86h22l10 -1q33 0 33 -20v-20q0 -2 -38 -220.5t-38 -252.5l3 -37q0 -84 -31 -163.5t-72 -79.5h-92q-52 0 -52 45q0 18 50 193t50 275l2 19v17q0 16 -28 16q-83 0 -83 75z" />
<glyph unicode="&#xba;" horiz-adv-x="807" d="M155 947v45q0 142 116 266q48 51 116.5 80t138.5 29h23q112 0 186 -69t74 -186v-33q0 -71 -32.5 -148.5t-83.5 -128.5q-109 -109 -244 -109h-34q-110 0 -185 69.5t-75 184.5zM337 960q0 -61 30.5 -95.5t76.5 -34.5h6q60 0 116.5 64t56.5 140q2 12 2 17l2 24v24 q0 57 -29 94t-73 37h-16q-62 0 -115.5 -69t-53.5 -142l-2 -12l-1 -23v-24z" />
<glyph unicode="&#xbb;" horiz-adv-x="1171" d="M108 173v10q0 48 151.5 199.5t151.5 159t-94 145t-94 174.5t28.5 65.5t46.5 28.5h10q41 0 97 -59.5t216 -288.5q31 -44 31 -72q0 -19 -211.5 -218t-260.5 -199h-20q-9 0 -30.5 23.5t-21.5 31.5zM559 166v10q0 50 154.5 204.5t154.5 159.5q0 13 -96.5 150.5t-96.5 177 t33.5 67t41.5 27.5h10q47 0 109 -74q242 -290 242 -351q0 -37 -350 -348q-86 -76 -138 -76h-10q-54 0 -54 53z" />
<glyph unicode="&#xbc;" horiz-adv-x="1646" d="M261 -35q0 20 55 99q230 330 521 766.5t387 564.5q52 69 133 69t81 -21v-14q0 -15 -55 -100q-561 -867 -909 -1331q-52 -69 -132.5 -69t-80.5 21v15zM309 1264q0 36 114 108q62 39 124 39h34q42 0 42 -44q-2 -20 -2 -27t-38 -225.5t-38 -262.5q0 -115 -46 -218 q-16 -35 -65 -35h-58q-63 0 -63 54.5t30 141t33 101.5q41 236 41 260q0 18 -31 18t-54 35.5t-23 54.5zM850 217q0 33 38 80q281 347 426 492q31 31 110 31h12q40 0 40 -39q0 -13 -35.5 -204.5t-35.5 -223.5t44.5 -45t44.5 -38v-11q0 -45 -25 -68q-9 -9 -47.5 -17t-48 -22 t-19.5 -84t-24 -82.5t-82 -12.5h-28q-39 0 -39 27l24 148q0 28 -177.5 28t-177.5 41zM1056 308l3 -1h46l4 1h28q101 0 101 29q4 18 9.5 49.5t7 39.5t2.5 13t9 39.5t8 56.5q7 21 7 30v6h-2q-1 0 -90 -107l-15 -18q-5 -7 -8 -10t-8 -9l-15 -18l-53 -60q-34 -34 -34 -39v-2z " />
<glyph unicode="&#xbd;" horiz-adv-x="1678" d="M244 -35q0 60 914 1371q56 80 88.5 106t107 26t74.5 -27q0 -57 -927 -1387q-81 -116 -169 -116t-88 27zM290 1260q0 24 66 69q126 86 193 86h34q42 0 42 -34v-20l-44 -253q-38 -219 -38 -249q0 -99 -43 -216q-17 -46 -68 -46h-70q-55 0 -55 44q0 28 12.5 84t26 93 t34.5 158.5t21 160t-41 38.5q-23 0 -38 19q-32 42 -32 66zM952 33q0 44 34 88.5t160 166t171.5 189.5t45.5 128q0 70 -77 70q-34 0 -110 -46.5t-86 -46.5q-35 0 -35 62t81.5 120.5t188.5 58.5h20q92 0 151 -50t59 -140v-18q0 -81 -71 -178q-35 -48 -149.5 -158t-114.5 -119 t95.5 -9t109.5 -4q59 -17 59 -53q0 -57 -31.5 -76t-140.5 -19h-130q-230 0 -230 34z" />
<glyph unicode="&#xbe;" horiz-adv-x="1801" d="M100 723q0 31 24.5 56.5t48 25.5t68 -14.5t107.5 -14.5t100.5 41t37.5 92.5t-36 76.5q-12 8 -80.5 27t-68.5 49t89 91.5t89 109.5q0 36 -72 36l-133 -12q-42 0 -42 49t44 72q75 39 205 39h19q114 0 152 -29q17 -13 17 -68v-15q0 -96 -93 -193q-19 -20 -35 -33t-16 -17 l46 -37q69 -55 69 -156.5t-92 -186t-217 -84.5h-35q-72 0 -134 32t-62 63zM310 -31q0 32 41 90.5t141.5 207.5t113 166.5t101.5 149.5t108.5 160t49.5 72.5t68 99.5l56 84q41 61 71.5 105t41.5 61t57 83l56 84q42 63 57 83q51 68 128 68h19q70 0 70 -16q0 -28 -59 -115 q-865 -1278 -910.5 -1339t-121.5 -61h-19q-69 0 -69 17zM890 236v19q0 25 35 66q317 373 407 463q32 32 104 32h12q40 0 40 -33q0 -3 -14 -78t-19.5 -112t-9.5 -54l-4 -26l-5 -26q-16 -100 -16 -102q0 -31 32 -39q52 -13 52 -34v-23q0 -48 -36 -64l-77 -35 q-11 -19 -20.5 -79t-18 -75.5t-42.5 -15.5h-66q-41 0 -41 23l23 150q0 22 -168 22t-168 21zM1091 341l2 -1h18l4 1h55q88 0 88 21q23 92 24 115t7.5 52t6.5 38l2 8v5h-1q-6 0 -65 -74t-100 -115t-41 -48v-2z" />
<glyph unicode="&#xbf;" horiz-adv-x="958" d="M41 -18v39q0 116 92 241q46 63 161.5 159.5t144.5 132t55.5 111t35.5 82t50 6.5h38q80 0 80 -70q0 -167 -195 -342q-109 -98 -157.5 -164t-48.5 -139.5t43.5 -110t111 -36.5t155.5 50t115 50t49.5 -27t22.5 -69q0 -77 -128 -143t-245 -66h-40q-142 0 -241 84t-99 212z M518 980v18l1 5l2 24q0 55 38 93t104 38h19q15 -3 38.5 -3t52 -23.5t28.5 -71.5v-19l-1 -4l-2 -24q0 -69 -43.5 -100t-89.5 -31h-38q-43 0 -84 29q-25 18 -25 69z" />
<glyph unicode="&#xc0;" horiz-adv-x="1318" d="M22 82q0 23 55 131q438 857 626 1171q34 56 72 79t114.5 23t93 -30t69.5 -231l100 -650q69 -449 69 -452v-21q0 -53 -71 -53q-115 0 -163 56q-17 21 -41.5 162.5t-32.5 151.5q-24 33 -129 33q-257 0 -319 -32q-40 -21 -118 -189l-23 -47q-40 -81 -48 -90 q-43 -46 -177 -46h-44q-33 0 -33 34zM558 651q0 -10 158 -10l81 -2h15q76 0 76 34l-1 7v7l-32 234q-4 14 -4 29l-15 118q0 103 -15 103h-3l-9 -19q-6 -13 -13 -27l-26 -52q-212 -394 -212 -417v-5zM642 1906v5q0 41 51 41h63q36 -6 52 -6q58 0 92 -51q110 -165 110 -233 q-2 -10 -2 -15q0 -34 -51 -34l-6 1h-12l-23 2q-62 0 -123 69q-151 170 -151 221z" />
<glyph unicode="&#xc1;" horiz-adv-x="1303" d="M18 64v19q0 28 66 157q467 916 612 1151q36 59 74.5 80.5t113 21.5t92.5 -32q66 -117 129 -591q23 -174 67 -453t44 -291v-22q0 -56 -70 -56q-108 0 -161 59q-22 24 -43.5 160.5t-32.5 152.5q-26 36 -129 36q-254 0 -322 -34q-38 -19 -141 -236q-35 -75 -48 -90 q-43 -50 -199 -50q-52 0 -52 18zM548 652q0 -11 153 -11l83 -2h23l7 1h15q20 3 27 3q27 0 27 31v7l-1 7q0 35 -6.5 64.5t-13.5 82t-10 69.5l-6 45q-11 83 -11 90l-9 75q0 68 -11 68h-2q-2 0 -21 -41.5t-35 -71.5q-209 -388 -209 -417zM751 1645v9q0 59 164 243q45 51 99 51 q36 6 50 6l38 4h61q32 0 32 -27q0 -45 -81 -126q-175 -175 -244 -175q-18 -3 -25 -3l-51 -4h-6q-37 0 -37 22z" />
<glyph unicode="&#xc2;" horiz-adv-x="1318" d="M21 49v18q0 25 66 154q445 872 614 1147q36 59 73 81t113 22t96 -35t73 -251q9 -39 24 -150.5t27 -184.5l28 -185q7 -46 13 -90t18 -120l8 -51q7 -52 26 -173t19 -123v-21q0 -53 -71 -53q-114 0 -162 56q-20 24 -41 159.5t-34 153.5q-25 34 -128 34q-261 0 -320 -32 q-40 -22 -107 -166.5t-82 -159.5q-43 -47 -199 -47q-54 0 -54 17zM556 636q0 -10 151 -10l81 -2h22l7 1l21 1q14 2 21 2q27 0 27 30l-51 388q-5 35 -5 72.5t-11 37.5h-2l-13 -26l-12 -27q-14 -26 -52.5 -103t-111 -211.5t-72.5 -152.5zM592 1608v14q0 49 208 225 q102 86 155 86h8q53 0 109 -66q141 -167 141 -219v-16q0 -38 -64.5 -38t-122.5 58q-95 95 -100 95t-47 -33t-103.5 -77t-129.5 -44h-16q-38 0 -38 15z" />
<glyph unicode="&#xc3;" horiz-adv-x="1318" d="M16 35v18q0 33 78 177q226 416 297 582t306 543q37 59 73.5 80.5t113.5 21.5t93 -31q23 -45 75 -255q1 -3 24 -154l12 -77q7 -52 15 -103l4 -26l7 -53l12 -80q16 -106 52.5 -343.5t36.5 -240.5v-21q0 -53 -71 -53q-115 0 -163 56q-20 24 -41.5 161t-32.5 153 q-25 34 -129 34q-256 0 -320 -33q-28 -14 -94 -141l-46 -95q-39 -81 -48 -90q-42 -46 -177 -46h-44q-33 0 -33 16zM552 623q0 -11 150 -11l97 -2q82 0 82 28v13l-1 7q0 4 -20 154l-3 22l-3 14l-6 44q-10 70 -10 81l-10 81q0 88 -14 88h-2q-1 0 -18.5 -37.5t-129.5 -246 t-112 -230.5v-5zM560 1639q0 77 72.5 138.5t148.5 61.5h36q46 0 123.5 -43t112 -43t85 35t95 35t44.5 -34v-9q0 -67 -70.5 -127t-150.5 -60h-19q-52 0 -136.5 44.5t-118 44.5t-78 -37.5t-107.5 -37.5q-37 0 -37 32z" />
<glyph unicode="&#xc4;" horiz-adv-x="1318" d="M30 69.5q0 33.5 78 177.5q219 404 297.5 582t305.5 543q38 61 73 81.5t113 20.5t94 -31q23 -45 75 -255q1 -3 24 -154l12 -77q7 -52 17.5 -117.5t23.5 -158t49.5 -330t36.5 -240.5v-21q0 -53 -71 -53q-115 0 -163 56q-20 24 -41.5 161.5t-32.5 152.5q-25 34 -129 34 q-256 0 -320 -33q-28 -14 -94 -141l-46 -95q-39 -81 -48 -90q-42 -46 -177 -46h-44q-33 0 -33 33.5zM566 640q0 -11 150 -11l97 -2q82 0 82 28v13l-1 7q0 4 -20 154l-3 22q-2 10 -10.5 69t-8.5 70l-10 81q0 88 -14 88h-2q-1 0 -18.5 -37.5t-129.5 -246t-112 -230.5v-5z M604 1693v21l1 4v9q2 8 2 12q0 44 47 91q22 22 77 22h21q47 0 72.5 -21t25.5 -49q2 -8 2 -12l1 -17v-4l-1 -4q0 -58 -33 -97.5t-85 -39.5h-37q-15 3 -21 3q-72 0 -72 82zM1000 1697v17q0 66 47 113q25 25 88 25h8q105 0 105 -83v-32q0 -59 -34 -93t-72 -34l-24 -3h-17 q-101 0 -101 90z" />
<glyph unicode="&#xc5;" horiz-adv-x="1334" d="M26 80q0 36 62 157q176 344 208 420q115 270 194 405q187 318 235.5 382.5t144 64.5t112.5 -24q31 -43 86 -250q5 -20 36.5 -227.5t38.5 -250.5l12 -83q10 -71 44.5 -277t34.5 -248q0 -92 -50 -92q-26 0 -94.5 25.5t-83.5 46.5t-34 168t-33 168t-113 21q-308 0 -370 -51 q-27 -22 -94 -175t-88 -170q-46 -38 -147 -38t-101 28zM567 678q0 -10 159 -10l77 -2h38l43 4q27 0 27 18v13l-9 68q-3 13 -3 16l-12 83l-6 46l-13 83l-6 46q-14 112 -14 144t-10 32q-2 0 -136.5 -269.5t-134.5 -271.5zM707 1782v19q0 77 65.5 142.5t147.5 65.5h27 q72 0 124 -52t52 -122v-13q0 -77 -65 -142t-161 -65h-7l-7 1q-74 0 -125 51t-51 115zM818 1791l1 -3v-7q3 -9 3 -12q0 -54 60 -54l19 -3h7l3 1h7l12 2q23 0 52.5 29.5t29.5 64.5v27q-3 9 -3 15q0 57 -58 57l-16 3h-23q-9 -3 -22 -3t-41 -28t-28 -54l-3 -19v-16z" />
<glyph unicode="&#xc6;" horiz-adv-x="1809" d="M191 144q0 79 531 857q164 240 229.5 289t171.5 61q183 20 377.5 20t228.5 -7q76 -15 76 -62q0 -79 -84 -97q-28 -6 -177.5 -10t-186 -24t-47.5 -40q-32 -57 -32 -178q0 -63 27.5 -79.5t135.5 -16.5l74 -2q37 -1 73 -1q91 0 91 -53q0 -76 -46 -103.5t-194 -40t-180 -40.5 q-48 -42 -48 -214q0 -94 18.5 -110.5t151.5 -16.5l126 4q87 0 99.5 -16t12.5 -64.5t-37 -62.5t-136 -14q-373 0 -464 34q-56 21 -69.5 43t-13.5 107t-16 100q-17 15 -113 15t-135 -20t-128 -126t-129.5 -131.5t-149.5 -25.5q-37 0 -37 25zM646 578l64 -10q4 -9 103 -9 q33 0 77 1l156 472q-1 0 -1 2q0 9 23 64q24 58 33 96q0 14 -18 14h-11q-71 0 -99 -61q-53 -117 -129 -239l-142 -228z" />
<glyph unicode="&#xc7;" horiz-adv-x="1248" d="M168 540v64q0 172 64 342q127 339 406 476q139 68 289 68h32q125 0 256.5 -55t131.5 -102v-27q0 -33 -46 -103q-24 -37 -56.5 -37t-86.5 22q-156 64 -272 64q-114 0 -194 -56q-158 -110 -223 -343q-36 -129 -36 -245q0 -214 89 -319q72 -85 223 -85q63 0 178.5 52 t164.5 52t66 -24.5t17 -79t-19.5 -81t-146 -88.5t-271.5 -62t-239 33.5t-168.5 108t-116.5 187.5t-42 238zM425 -374q1 8 25 15q134 34 134 123q0 22 -22 44t-22 33q0 36 41.5 82.5t77.5 46.5h23q50 0 50 -48l5 -27q0 -10 16.5 -39.5t16.5 -60.5l-1 -7q0 -76 -67.5 -150.5 t-142.5 -74.5h-23q-111 0 -111 60v3z" />
<glyph unicode="&#xc8;" horiz-adv-x="1139" d="M94 131.5q0 75.5 95 532t105 587t18 148.5q20 45 60 54q65 14 315 14l71 2l142 1h70q110 0 138 -7q68 -17 68 -62q0 -65 -48.5 -113.5t-141.5 -48.5l-31 3l-102 5q-123 7 -166 7q-96 0 -132 -72q-51 -102 -51 -224q0 -47 69.5 -58.5t225.5 -18.5t171 -16t15 -47 q0 -114 -53 -136q-13 -5 -230 -14.5t-242 -32.5t-35 -75q-33 -173 -33 -234.5t25.5 -79.5t111.5 -18l36 1q36 1 72 1t104 5l34 3l33 4q29 3 73 3t75.5 -18.5t31.5 -91t-75 -97.5q-50 -17 -313 -17h-211q-226 0 -260.5 17.5t-34.5 93zM536 1885l1 5v5q0 36 50 36h64 q35 -7 57 -7q53 0 86 -50q110 -165 110 -233l-1 -5v-5q0 -39 -52 -39l-6 1h-12l-23 2q-62 0 -123 69q-151 170 -151 221z" />
<glyph unicode="&#xc9;" horiz-adv-x="1135" d="M98 88q0 120 98.5 599t98.5 556q12 142 19 161q18 47 59 57q81 19 488 19h70q144 0 174 -7q71 -17 71 -63q0 -56 -51 -108t-140 -52l-298 13q-91 0 -129 -74q-50 -96 -50 -223q0 -50 63 -62q50 -10 219.5 -20t175.5 -13q22 -12 22 -86t-53 -97q-17 -7 -231 -16.5 t-239 -30.5t-36 -75q-37 -174 -37 -272q0 -37 36.5 -51.5t112.5 -14.5t193 5l35 2l35 3q28 2 70 2q108 0 109 -96q0 -56 -21.5 -77.5t-81 -34t-282.5 -12.5h-212q-155 0 -238 15q-50 9 -50 53zM651 1628v5q0 57 169 247q45 51 125 51l26 3l31 3h62q31 0 31 -23v-9 q0 -49 -85 -125q-192 -171 -239 -171q-18 -3 -19 -3l-38 -3l-6 -1h-19q-38 0 -38 26z" />
<glyph unicode="&#xca;" horiz-adv-x="1139" d="M94 127q0 75 95 532t105 587t18 148q19 45 67 55.5t236 10.5l107 3l178 2h35q145 0 173 -7q68 -17 68 -62q0 -65 -48.5 -113.5t-141.5 -48.5l-64 4q-22 1 -107 6t-97 5q-109 0 -149 -50q-18 -23 -41.5 -119t-23.5 -127q0 -46 65.5 -58t226 -19t175 -16t14.5 -47 q0 -114 -53 -136q-13 -5 -230 -14.5t-242 -32.5t-35 -75q-32 -167 -32 -269q0 -37 44 -53q25 -9 127 -9t190 8t128.5 8t73 -19t32.5 -91t-75 -97q-50 -17 -313 -17h-211q-227 0 -261 18t-34 93zM480 1604v7q0 40 208 232q94 87 152.5 87t108.5 -54q152 -166 152 -232v-16 q0 -38 -64.5 -38t-122.5 58q-95 95 -99 95t-38 -26.5t-102.5 -75.5t-114.5 -49q-24 -3 -26 -3h-16q-38 0 -38 15z" />
<glyph unicode="&#xcb;" horiz-adv-x="1141" d="M110 117q0 108 94 546t107.5 583.5t17.5 155.5q19 45 72 56.5t303 11.5l70 2l142 1h71q110 0 138 -7q67 -17 67 -62q0 -66 -48 -114t-142 -48l-31 3l-102 5q-124 7 -165 7q-96 0 -133 -72q-50 -96 -50 -224q0 -47 69 -58.5t225.5 -18.5t171 -16t14.5 -85t-53 -98 q-13 -5 -229.5 -14.5t-241.5 -32.5t-36 -75q-32 -155 -32 -225.5t25.5 -88.5t111.5 -18l35 1q36 1 72.5 1t104.5 5l33 3l34 4q29 3 73 3t75 -18.5t31 -91t-75 -97.5q-50 -17 -348 -17h-175q-226 0 -261 18t-35 75zM512 1692v25q0 53 32 91.5t70 38.5l21 3h33q40 0 66 -21.5 t26 -60.5v-33q-3 -12 -3 -32.5t-30 -56.5t-65 -36q-8 -2 -12 -2l-17 -2h-25q-93 0 -93 66zM909 1691v21l1 4v9q2 8 2 12q0 37 29.5 72.5t61.5 35.5q12 3 16 3l21 2h21q49 0 72.5 -23.5t23.5 -58.5v-33q-3 -12 -3 -32.5t-30.5 -57t-68.5 -36.5l-20 -3h-34q-12 3 -20 3 q-72 0 -72 82z" />
<glyph unicode="&#xcc;" horiz-adv-x="609" d="M120 98.5q0 53.5 22 134.5q29 90 36 131q128 755 128 822l-6 89q0 119 43 160q29 28 165 28l37 2q61 0 61 -57v-15q0 -56 -16 -120t-30 -148l-18 -108l-28 -162l-7 -36q-92 -552 -92 -631t-21 -122.5t-84 -43.5q-116 0 -164 15q-26 8 -26 61.5zM265 1870v18q0 28 52 28 h62l23 -3l22 -2q65 0 94 -43q111 -167 111 -235l-1 -5v-4q0 -36 -52 -36h-6l-6 1l-23 1q-69 0 -117 55q-159 182 -159 225z" />
<glyph unicode="&#xcd;" horiz-adv-x="621" d="M136 98q0 9 92 482t92 609l-2 14l-3 30q-3 29 -3 45q0 139 53 173q34 22 191 22q63 0 63 -56v-30q0 -48 -17 -115t-35 -178t-24 -142l-21 -127q-91 -546 -91 -632q0 -171 -103 -171q-154 0 -173 16t-19 60zM391 1618v4q0 55 163 238q47 53 108 53q12 2 19 2l12 2l62 4h30 q50 0 50 -22q0 -50 -85 -126q-194 -172 -254 -172q-12 -2 -19 -2l-31 -3h-18q-37 0 -37 22z" />
<glyph unicode="&#xce;" horiz-adv-x="625" d="M118 103q0 56 27 146t31 110q128 755 128 821l-6 90q0 120 36 154.5t190 34.5h36q43 0 43 -56v-30q0 -41 -15.5 -106t-25.5 -124t-17 -95l-24 -144q-6 -30 -57 -336q-51 -308 -51 -386q0 -165 -88 -165h-1h-16l-16 1q-138 0 -156 14.5t-18 70.5zM201 1602q0 70 240 255 q69 53 124.5 53t95.5 -44q160 -175 160 -249q0 -35 -67.5 -35t-120.5 53q-93 93 -99 93q-4 0 -56 -40q-138 -107 -221 -107l-9 1q-47 0 -47 20z" />
<glyph unicode="&#xcf;" horiz-adv-x="622" d="M149 79v31q0 53 26 135.5t51.5 236.5t31.5 184q77 407 77 517l-2 15l-5 75q0 137 54 168q36 21 191 21q61 0 61 -56v-30q0 -51 -95.5 -542t-95.5 -608t-20.5 -161.5t-68.5 -44.5h-32q-100 0 -148 15q-25 8 -25 44zM249 1691v4l1 4l3 33q0 30 31 67t68 37l20 3h28 q46 0 70.5 -24.5t24.5 -62.5v-25q0 -59 -48 -107q-25 -25 -82 -25h-13q-103 0 -103 96zM635 1690v8q0 60 34 100.5t88 40.5h28q46 0 70.5 -24.5t24.5 -58.5v-33q-3 -12 -3 -31.5t-31 -56.5t-71 -37l-24 -3h-17q-99 0 -99 95z" />
<glyph unicode="&#xd0;" horiz-adv-x="1399" d="M81 710q0 70 38 102q12 10 46 14.5t39 6.5q41 15 54 53q62 182 62 424q0 98 33.5 119.5t166.5 21.5l25 1q25 1 49 1l125 2q185 -1 290 -29q226 -61 322 -275q51 -115 51 -269v-26q0 -188 -73 -360q-140 -330 -464 -442q-132 -46 -398 -46h-50q-280 0 -280 41q0 26 44 266 t44 286q0 40 -62 54.5t-62 54.5zM408 273q0 -57 58 -57h70q151 0 242 35t167.5 115.5t123.5 209t47 241.5v73q0 76 -30.5 154.5t-78.5 122.5q-87 80 -278 80l-17 -1q-118 0 -140 -45q-52 -108 -52 -317q0 -60 157 -60q90 0 90 -31q0 -80 -17.5 -110.5t-135 -30.5t-145.5 -45 q-9 -14 -35 -166t-26 -168z" />
<glyph unicode="&#xd1;" horiz-adv-x="1470" d="M131 75q0 15 39 246l21 123q17 84 47.5 304.5t46 308.5t19 136.5t9.5 131.5l3 40q9 35 36 52.5t93 17.5t110 -25.5t99 -114.5q127 -204 207.5 -372t115.5 -244l103 -219q16 0 92 449.5t81 462.5q31 80 144 80h40q43 0 43 -34q0 -49 -108 -690.5t-116 -665.5 q-17 -53 -80.5 -53t-104.5 17t-77 68.5t-247.5 492t-229.5 440.5q-4 0 -78.5 -444.5t-89.5 -484.5q-23 -63 -120.5 -63t-97.5 40zM631 1622v8q0 74 71.5 134.5t146.5 60.5h27q54 0 123.5 -43.5t107.5 -43.5t78 36.5t91 36.5t51 -28q0 -75 -68 -137.5t-152 -62.5h-9 q-48 0 -138 45t-110.5 45t-70.5 -38.5t-99 -38.5t-49 26z" />
<glyph unicode="&#xd2;" horiz-adv-x="1502" d="M130 604v48q0 170 67.5 337t175 281.5t243.5 179t278 64.5h48q245 0 401 -172q69 -76 105.5 -188.5t36.5 -228.5v-24q0 -170 -56 -330t-161.5 -283.5t-248 -198.5t-298.5 -75h-48q-117 0 -219 44q-214 91 -288 317q-36 111 -36 229zM396 610q0 -165 86 -275.5t227 -110.5 h32q91 0 185.5 56.5t157.5 149.5t99 209.5t36 230.5v48q0 171 -87.5 278t-224.5 107h-32q-92 0 -182 -54q-183 -110 -260 -360q-37 -119 -37 -231v-48zM697 1893v9q0 30 66 30h51l23 -3l22 -2q60 0 94 -44q114 -147 114 -233v-5q0 -38 -50 -38h-12l-6 1l-23 1q-69 0 -144 84 q-135 152 -135 200z" />
<glyph unicode="&#xd3;" horiz-adv-x="1508" d="M131 598v47q0 179 65 343q128 322 408 462q144 72 306 72h24q249 0 406 -167q63 -68 105.5 -179t42.5 -238v-47q0 -158 -56 -319t-162 -285t-247.5 -198.5t-289.5 -74.5h-48q-126 0 -231.5 45t-175 121.5t-108.5 188.5t-39 229zM396 612q0 -168 88 -280t227 -112h16 q197 0 347 190q71 90 110.5 221.5t39.5 243.5v32l-1 16q0 180 -90.5 285t-222.5 105h-33q-93 0 -184 -55t-157 -148t-103 -216t-37 -234v-48zM810 1635v5q0 23 32 69q93 133 155 188q43 38 168 38l19 1h12q63 0 63 -22q0 -44 -189 -212q-95 -84 -165 -84q-14 -2 -19 -2 l-25 -2h-12q-39 0 -39 21z" />
<glyph unicode="&#xd4;" horiz-adv-x="1502" d="M128 616q0 172 60 340t173 292q232 255 555 255h25h5q114 0 214 -43q203 -87 280 -299q43 -120 43 -248v-47q0 -148 -57 -312q-58 -162 -174 -294q-228 -257 -556 -258q-268 0 -418 166.5t-150 447.5zM395 599q0 -161 83.5 -274t228.5 -113h32q87 0 178 52 q184 106 264 363q37 119 37 248v16q0 196 -92 298.5t-237 102.5q-196 0 -344 -187q-71 -90 -110.5 -217t-39.5 -226v-63zM650 1613q0 54 186 211q112 95 174 95h8q50 0 103 -58q151 -165 151 -227v-7q0 -34 -65 -34t-125 51q-6 5 -51 50t-49 45t-27 -18t-29.5 -22.5 t-37.5 -28.5l-35 -25q-74 -53 -146 -53h-8q-49 0 -49 21z" />
<glyph unicode="&#xd5;" horiz-adv-x="1502" d="M126 580v47q0 171 66 334t174 281q226 248 547 248q383 0 519 -329q48 -115 48 -237v-71q0 -172 -68 -339q-66 -167 -178 -286q-224 -239 -540 -239q-406 0 -532 362q-36 103 -36 229zM392 585q0 -160 83 -273t229 -113h33q90 0 184.5 57t156.5 148t99.5 207.5 t37.5 234.5v47q0 166 -86 275.5t-226 109.5h-32q-89 0 -183 -54q-181 -105 -264 -375q-32 -103 -32 -216v-48zM619 1639v8q0 70 68.5 132.5t139.5 62.5h35q51 0 123 -45t109.5 -45t73 39t89 39t53.5 -31v-8q0 -74 -69.5 -133t-148.5 -59h-9q-53 0 -134.5 46t-112.5 46 t-72 -41t-93 -41t-52 30z" />
<glyph unicode="&#xd6;" horiz-adv-x="1502" d="M127 592v47q0 176 69 342q134 322 412 454q141 67 283 67h48q111 0 217 -42q106 -40 178 -122q148 -170 148 -426v-23q0 -170 -56 -330.5t-158.5 -281t-243.5 -198t-306 -77.5h-48q-118 0 -218 42q-207 88 -281 298q-44 123 -44 250zM393 614l1 -16q0 -183 92 -285 t236 -102q196 1 338 181q76 96 116 224t40 242v48q0 171 -87.5 278t-223.5 107h-33q-82 0 -174 -49.5t-157.5 -140.5t-106.5 -210t-41 -245v-32zM634 1696v13l4 33q0 45 37.5 76.5t81.5 31.5h29q47 0 71.5 -24.5t24.5 -57.5v-33l-4 -25q0 -27 -30.5 -63.5t-68.5 -36.5 l-16 -3h-8l-12 -1h-4q-105 0 -105 90zM1033 1692v21q0 55 33 94.5t74 39.5l24 3h21q42 0 67.5 -21.5t25.5 -49.5l3 -24v-12l-1 -4l-2 -21q0 -34 -31.5 -71.5t-72.5 -37.5l-24 -3h-17q-52 0 -76 24t-24 62z" />
<glyph unicode="&#xd7;" horiz-adv-x="1091" d="M139 298q0 15 147 157t147 151.5t-109.5 145.5t-109.5 147q0 25 54 72t75 47t131 -136.5t116.5 -136.5t152 135.5t157.5 135.5q26 0 69 -46t43 -64.5t-144 -152.5t-144 -150.5t107 -149t107 -146.5q0 -27 -49.5 -71.5t-74 -44.5t-136.5 133.5t-115 133.5 q-10 0 -153.5 -134t-169.5 -134q-12 0 -56.5 46.5t-44.5 61.5z" />
<glyph unicode="&#xd8;" horiz-adv-x="1447" d="M173 553v26q0 433 177 634q108 122 329 211q118 47 300 47l47 1l21 2l86 -4q2 0 49.5 15t71.5 15h18q107 0 107 -70l-29 -153q0 -11 24 -59q72 -142 72 -313v-28q0 -155 -50 -309q-102 -313 -358 -471q-170 -106 -290 -106h-24l-25 1l-25 2l-53 -1l-187 17l-57 -9l-56 -1 q-91 0 -132 38q-12 11 -12 45.5t25 101.5t25 87t-27 96.5t-27 184.5zM411 592q0 -108 32 -179q7 -16 10 -16q24 0 185 235q365 533 365 570q0 17 -27.5 42.5t-81.5 25.5h-11l-12 -1h-3q-79 0 -166 -51q-174 -101 -258 -368q-33 -104 -33 -221v-37zM590 274q0 -19 26 -43 t76 -24h24q80 1 168 51q177 102 260 363q35 110 35 245v12q0 111 -29 180q-8 19 -16 19q-21 0 -182 -241q-362 -543 -362 -562z" />
<glyph unicode="&#xd9;" horiz-adv-x="1390" d="M185 479q0 62 12 135.5t25.5 193t35 255.5t34 243.5t18.5 117.5q17 27 155 27q81 0 81 -77q0 -15 -7 -69.5t-28 -255t-45.5 -345t-24.5 -208.5q0 -278 260 -278q80 0 154 48.5t123.5 144.5t157.5 734q35 208 51 246t51 59.5t112.5 21.5t77.5 -38q0 -137 -146 -848 q-35 -169 -91 -273q-79 -146 -214.5 -227.5t-292.5 -81.5h-36q-222 0 -342.5 124.5t-120.5 350.5zM660 1876v9q0 28 51 28h74l28 -3q62 0 96 -39q13 -15 65 -109q52 -93 52 -119l-1 -29q0 -27 -45 -27l-11 -2l-5 1h-12l-6 1h-11q-67 0 -135 78q-140 160 -140 211z" />
<glyph unicode="&#xda;" horiz-adv-x="1395" d="M192 473q0 165 88 693q13 78 18.5 165.5t9.5 95.5q16 32 152 32q87 0 87 -73q0 -33 -12.5 -150t-23 -233.5t-36.5 -271.5t-26 -265t66.5 -179.5t166.5 -69.5q198 0 298 183q54 100 125.5 522.5t85 464t49.5 66.5t120 25h32q41 0 41 -29q0 -157 -140 -848 q-34 -169 -89 -277q-75 -147 -211.5 -233.5t-345.5 -86.5t-332 125t-123 344zM790 1615v9q0 13 50 96.5t138 161.5q41 36 163 36h61q31 0 31 -22v-4q0 -46 -89 -125q-188 -167 -237 -167q-30 -5 -43 -5l-25 -2h-6q-43 0 -43 22z" />
<glyph unicode="&#xdb;" horiz-adv-x="1390" d="M185 472q0 61 14 154t25 193t34 241t33 242.5t19 115.5q17 27 155 27q81 0 81 -77q0 -14 -7.5 -73t-13.5 -118l-24 -229q-13 -124 -36.5 -252t-23.5 -206q0 -278 260 -278q94 0 164 54.5t115 141.5t117 506t76 433q21 69 60 93.5t94 24.5h36q65 0 65 -37 q0 -137 -146 -848q-35 -169 -101.5 -292t-202.5 -207t-294 -84h-36q-221 0 -342 126t-121 349zM619 1591v7q0 52 220 238q82 69 140 69h8q51 0 97 -50q154 -168 154 -235v-7q0 -36 -63 -36h-9q-74 0 -162 100q-42 46 -51 46t-90 -63l-35 -25q-81 -58 -145 -58h-25 q-39 0 -39 14z" />
<glyph unicode="&#xdc;" horiz-adv-x="1390" d="M194 439v37q0 36 51 443t62.5 458.5t36 61.5t129.5 10q82 0 82 -77q0 -3 -10 -94l-4 -32q-7 -58 -8 -65l-10 -99q-7 -64 -16 -148t-33 -228.5t-24 -211.5q0 -278 259 -278q180 0 281 201q45 90 116.5 504.5t81.5 450t43.5 66.5t104.5 31h35q65 0 65 -38q0 -132 -145 -847 q-71 -355 -299 -497q-137 -86 -299 -86h-37q-308 1 -422 247q-40 86 -40 191zM619 1678v29q0 51 45 105q23 28 78 28h28q47 0 72 -25t25 -66v-16q0 -55 -34 -96t-93 -41h-21q-46 0 -73 22.5t-27 59.5zM1016 1687v16q0 55 33 94.5t74 39.5l24 3h17q12 -3 24 -3q73 0 73 -68 l3 -24v-13q0 -55 -32 -93.5t-67 -38.5q-8 -2 -12 -2l-16 -2h-25q-42 0 -69 22.5t-27 68.5z" />
<glyph unicode="&#xdd;" horiz-adv-x="1230" d="M186 1394q0 9 32.5 29t88.5 20q91 0 135 -62q63 -89 203 -419q35 -82 38.5 -82t191.5 232l90 111q8 10 56.5 81t52.5 75q68 80 174 80h51q44 0 44 -17q0 -27 -252 -381.5t-279 -409.5q-53 -108 -85.5 -306t-58 -256.5t-87.5 -58.5q-91 0 -121 10.5t-30 50.5q0 2 31 215.5 t31 271.5q0 116 -69 285l-125 269q-112 253 -112 262zM702 1624v5q0 78 173 251q46 46 115 46l7 1l6 1l25 2l6 1l32 2h37q43 0 43 -23v-9q0 -50 -94 -134q-185 -164 -242 -164q-14 -2 -19 -2l-39 -3h-12q-38 0 -38 26z" />
<glyph unicode="&#xde;" horiz-adv-x="1094" d="M126 67q0 146 126 812q20 105 37 292.5t34 229t170 41.5q56 0 64 -10t24 -84.5t33 -83.5q7 -4 114 -16.5t137 -20.5q308 -84 308 -361q0 -213 -134 -347q-80 -80 -197 -120q-37 -13 -194 -39.5t-174 -36.5q-61 -36 -95.5 -168t-77.5 -132q-175 0 -175 44zM467 567 q0 -27 52 -27h50l8 1l26 1l43 3q111 0 193 82t82 195l2 17v27q0 85 -64 133t-185 48h-25q-89 0 -103 -28.5t-23.5 -106.5t-20 -133.5t-12.5 -74.5t-12.5 -74t-10.5 -63z" />
<glyph unicode="&#xdf;" horiz-adv-x="1175" d="M39 -96q0 22 33 151.5t76 386.5t43 381l-1 36l-1 29q0 100 65 217q64 117 148 198q167 162 358 162h39q118 0 203 -85t85 -195t-86.5 -226t-86.5 -201q0 -27 90 -146q90 -120 90 -220q0 -190 -125.5 -306t-344.5 -116q-71 0 -121 25.5t-50 76.5q0 20 28.5 55.5t49 44 t114 14.5t139.5 37q68 46 68 121q0 105 -103 211.5t-103 199.5t91.5 216.5t91.5 159t-25 65t-75.5 29.5t-111.5 -53.5t-104 -151.5t-110.5 -497.5t-120.5 -561.5q-40 -124 -144 -124q-52 0 -75.5 22.5t-23.5 44.5z" />
<glyph unicode="&#xe0;" d="M98 375v59q0 94 40.5 211.5t118.5 211.5t175 145.5t191 51.5h19q106 0 159.5 -22.5t74 -22.5t54.5 9t64 9q79 0 79 -76v-16q0 -31 -48 -253t-48 -373q0 -49 9 -74.5t9 -33.5q0 -66 -34 -104.5t-91.5 -38.5t-87.5 37q-53 66 -54 66q-7 0 -48 -30t-130 -60t-152 -30 q-128 0 -214 96.5t-86 237.5zM347 416q0 -80 37.5 -134.5t104.5 -54.5l9 1q48 0 103.5 37t81.5 81q96 160 96 320l3 28v62q0 75 -29.5 100t-96.5 25h-9q-109 0 -204.5 -130t-95.5 -288v-47zM498 1518l1 5v4q0 26 50 26h11l6 -1l80 -2q6 -1 11 -1q55 0 86 -49 q96 -154 96 -234l3 -28v-10q0 -30 -43 -30h-40q-56 0 -108 60q-153 175 -153 260z" />
<glyph unicode="&#xe1;" horiz-adv-x="1109" d="M98 401l1 20v19v4q0 94 43 212q91 252 305 362q89 46 178 46h19q36 -2 60.5 -2t64.5 -8.5t66 -19.5t46 -11l104 13q88 0 88 -76q0 -38 -45.5 -278t-45.5 -377q0 -41 12 -97q0 -71 -22 -100q-38 -50 -119 -50q-45 0 -73 37q-47 62 -53.5 62t-48 -31t-136 -59t-132.5 -28 h-18q-133 0 -213.5 105t-80.5 257zM351 417q0 -79 36 -135.5t97 -56.5h18q40 0 97 34t94 96q92 153 92 337l2 19v53q0 80 -28 103.5t-88 23.5h-18q-50 0 -105.5 -33.5t-97.5 -94.5q-99 -144 -99 -289v-57zM614 1228q0 20 42 103.5t117 168.5q49 55 121 55l6 1l7 1l43 2h55 q33 0 33 -16v-8q0 -50 -205 -255q-72 -72 -136 -72h-38q-45 0 -45 20z" />
<glyph unicode="&#xe2;" d="M101 380v39q0 101 43 217q91 245 288 350q100 53 195 53h18q110 0 161 -22.5t71.5 -22.5t55.5 9t65 9q78 0 78 -76v-16q0 -31 -48 -253t-48 -373q0 -39 9 -68t9 -40q0 -66 -34 -104.5t-92.5 -38.5t-85.5 36q-51 67 -53 67t-51.5 -32t-133.5 -60t-147 -28 q-137 0 -218.5 102.5t-81.5 251.5zM350 411q0 -90 37.5 -144.5t104.5 -54.5l9 1q48 0 104 37.5t86 87.5q95 158 95 368v17q0 84 -24 113.5t-102 29.5l-9 -1q-111 0 -196 -116q-105 -143 -105 -301v-37zM435 1203v7q0 49 236 267q72 66 124.5 66t96.5 -57q144 -187 144 -264 q0 -39 -43 -39h-17q-52 0 -80 24t-75 84.5t-53.5 60.5t-39 -29.5t-51.5 -45t-41 -35.5t-54.5 -39.5t-89.5 -19.5h-17l-8 1q-32 0 -32 19z" />
<glyph unicode="&#xe3;" d="M96 370v19q0 117 44 238.5t118 207.5q167 194 364 194h18q95 0 156 -22.5t77 -22.5l120 18q79 0 79 -76q0 -42 -48.5 -266t-48.5 -362q0 -42 9 -78.5t9 -43.5q0 -143 -136 -143q-49 0 -76 36q-51 67 -56 67t-44 -29.5t-129 -60t-137 -30.5h-19q-137 0 -218.5 102.5 t-81.5 251.5zM345 410q0 -94 36.5 -151t96.5 -57h18q42 0 98.5 34t100.5 107q86 143 86 344v35q-2 18 -2 46.5t-21.5 57.5t-84.5 29h-36q-35 0 -93.5 -31t-109.5 -108q-89 -134 -89 -287v-19zM394 1225v9q0 77 73 138.5t148 61.5h26q50 0 126.5 -45t111.5 -45t79 36.5 t92 36.5t48 -29q0 -84 -72.5 -145t-148.5 -61h-9l-9 1q-55 0 -132 45.5t-112 45.5t-80 -38t-93 -38t-48 27z" />
<glyph unicode="&#xe4;" d="M112 384v19q0 116 42 232q90 249 290 354q102 54 194 54h19q92 0 153 -22.5t79 -22.5l120 18q79 0 79 -76v-17q0 -11 -14.5 -87.5t-19.5 -96.5l-8 -37q-55 -259 -55 -340.5t9 -124t9 -48.5q0 -142 -135 -142q-48 0 -77 36q-53 66 -54 66q-9 0 -48 -29.5t-124 -59.5 t-140 -30h-37q-120 0 -201 103t-81 251zM362 405q0 -76 36.5 -132.5t96.5 -56.5h17q42 0 99 34.5t96 98.5q90 150 90 342v45q0 85 -29 109t-88 24h-27q-101 0 -196 -129.5t-95 -278.5v-56zM448 1295v25q0 54 44 107q24 29 78 29h30q96 0 96 -93v-17l-5 -37 q0 -27 -30.5 -63.5t-70.5 -36.5l-25 -3h-17q-47 0 -72 21t-25 48zM840 1294v25q5 25 5 43.5t30 54.5t71 36l24 3h17q101 0 101 -97v-9q0 -56 -29.5 -97.5t-64.5 -41.5l-12 -3l-21 -2h-25q-43 0 -68 21t-25 47z" />
<glyph unicode="&#xe5;" d="M100 376v58q0 102 43.5 219.5t118.5 207.5t172 141.5t192 51.5h37q82 0 137.5 -22.5t73.5 -22.5t57.5 9t65.5 9q78 0 78 -76v-16q0 -31 -48 -253t-48 -373q0 -49 9 -74.5t9 -33.5q0 -66 -34 -104.5t-92.5 -38.5t-86.5 37q-50 66 -55 66t-47.5 -30.5t-130.5 -60 t-151 -29.5q-128 0 -214 96.5t-86 238.5zM349 416q0 -80 37.5 -134t86.5 -54h35q34 0 90.5 34t86.5 84q97 162 97 330l2 18v62q0 75 -29.5 100t-96.5 25h-9q-109 0 -204.5 -130t-95.5 -288v-47zM531 1352v28q0 84 74.5 151t164.5 67h14q74 0 131.5 -52t57.5 -131v-14 q0 -91 -73.5 -157.5t-158.5 -66.5h-21q-81 0 -135 54t-54 121zM657 1363l1 -3v-7q3 -9 3 -12q0 -51 55 -51l15 -3h20q12 4 27.5 4t41.5 32t26 55l2 16v16q0 73 -59 73l-16 3h-22q-9 -3 -24 -3t-41.5 -33.5t-26.5 -54.5l-2 -13v-19z" />
<glyph unicode="&#xe6;" horiz-adv-x="1740" d="M133 409v30q0 122 50.5 247.5t134.5 221.5q175 201 410 201q23 0 60 -5l30 -5l28 -6l25 5q20 3 78.5 3t116.5 -42l40 -31q2 0 49 25.5t106.5 45.5t155.5 20q157 0 255 -90.5t98 -261.5q0 -131 -112 -191q-66 -36 -220 -62.5t-211 -26.5l-94 -6q-52 -10 -52 -86.5t71 -123 t176 -46.5q36 0 121 20.5t114 20.5q67 0 67 -43q0 -89 -39 -118.5t-139.5 -63.5t-204.5 -34h-32q-132 0 -227 63l-24 18l-22 20q-56 38 -77 38t-148.5 -68.5t-234.5 -68.5q-151 0 -250 103t-99 297zM401 429q0 -99 42.5 -153t100.5 -54h19q51 0 119 38t88 78q7 13 34 141 t31.5 146t9 40.5t7.5 32.5l38 156q0 8 -31.5 30.5t-106.5 22.5h-39q-45 0 -105 -35.5t-106 -101.5q-101 -147 -101 -300v-41zM1118 689q5 -20 5 -27.5t22 -7.5h12l6 1l109 9l21 2q25 5 41 5l28 4l31 5q64 0 103.5 24.5t39.5 31.5v29q-2 12 -2 17q0 49 -43 92t-107 43h-24 q-71 0 -156.5 -76t-85.5 -148v-4z" />
<glyph unicode="&#xe7;" horiz-adv-x="942" d="M108 399q0 125 48.5 254.5t133.5 223.5q166 185 390 185q110 0 179 -32q118 -56 118 -99v-19q0 -41 -34 -77.5t-52.5 -36.5t-51.5 20.5t-70 38t-103 17.5t-128 -46q-178 -135 -178 -437q0 -102 51 -159t123.5 -57t162 40t124.5 40t35 -75t-85 -126q-130 -77 -268 -77 q-275 0 -364 232q-30 78 -30 166zM260 -383q0 13 48 21q117 21 117 111q0 18 -28 46t-28 33q0 37 41 87t70 50h32q39 0 39 -43q0 -30 30 -64t30 -69v-7l-1 -7q0 -78 -70.5 -148.5t-142.5 -70.5h-31q-106 0 -106 57v4z" />
<glyph unicode="&#xe8;" horiz-adv-x="975" d="M111 402v43q0 123 46 239q94 238 295 332q97 46 200 46h45q116 0 206.5 -75.5t90.5 -195.5v-22q0 -124 -87.5 -180.5t-191.5 -83.5t-182 -36.5t-112 -20.5q-48 -16 -48 -78t46.5 -102t120 -40t161.5 27l124 38q52 0 52 -72.5t-116.5 -130.5t-229.5 -58h-22 q-271 0 -362 210q-36 83 -36 160zM388 619q0 -12 25 -12h26q35 7 60 7q96 0 187.5 51t91.5 100v15q0 44 -35.5 75t-77.5 31h-28q-10 -2 -16 -2q-72 0 -150.5 -90t-78.5 -151l-4 -20v-4zM449 1518v5q0 30 45 30h57q98 0 133.5 -40.5t72 -141.5t36.5 -127v-16q0 -30 -60 -30 h-18q-60 0 -102 47q-164 185 -164 273z" />
<glyph unicode="&#xe9;" horiz-adv-x="980" d="M103 424v22q0 122 47 244q91 238 294 334q102 48 201 48h44q124 0 212.5 -77t88.5 -195v-21q0 -67 -26 -112t-113 -100.5t-320 -94.5q-108 -18 -118 -22q-44 -16 -44 -79.5t47 -104t116 -40.5t115.5 12.5t101 32.5t77.5 20q51 0 51 -74t-122.5 -130.5t-227.5 -56.5h-23 q-273 0 -365 212q-36 83 -36 182zM379 620q0 -11 26 -11h26l5 1l22 2q12 2 17 2q104 0 201.5 54t97.5 106v11l-1 5q0 40 -33.5 73.5t-86.5 33.5h-12q-83 0 -172.5 -89.5t-89.5 -182.5v-5zM557 1223v9q0 65 151 259q50 64 123 64q12 2 18 2l13 2h98q21 0 21 -19v-5 q0 -41 -86 -138q-164 -185 -231 -185l-18 -3h-56q-33 0 -33 14z" />
<glyph unicode="&#xea;" horiz-adv-x="975" d="M105 387v44q0 118 45 235t118 201q157 181 401 181q210 0 289 -153q30 -58 30 -119v-22q0 -116 -78 -174q-116 -86 -357 -122q-119 -18 -138 -24q-47 -15 -47 -97q0 -54 52.5 -89t119.5 -35t155 27l124 38q52 0 52 -72.5t-115.5 -130t-230.5 -57.5h-45q-161 0 -262 97 q-56 54 -84.5 129.5t-28.5 142.5zM379 1202v7q0 49 237 268q72 66 123.5 66t102.5 -65q138 -176 138 -257q0 -38 -55 -38t-81.5 20.5t-76.5 84t-58 63.5q-1 0 -82.5 -69t-107.5 -84.5t-83 -15.5h-16l-9 1q-32 0 -32 19zM382 604q0 -12 35 -12h5l5 1l22 1l27 3q28 5 34 5 q71 0 197 63q65 33 65 85v16q0 39 -33.5 72.5t-90.5 33.5l-6 -1h-5q-82 0 -168.5 -86.5t-86.5 -180.5z" />
<glyph unicode="&#xeb;" horiz-adv-x="979" d="M121 412v22q1 130 51 250q96 229 291 321q97 46 200 46h22q141 0 230.5 -77.5t89.5 -194.5v-21q-1 -124 -91 -182q-128 -81 -344 -115q-117 -17 -138 -24q-48 -16 -48 -82t51.5 -102t125 -36t171 32.5t104.5 32.5q52 0 52 -72.5t-116.5 -130.5t-229.5 -58h-45 q-81 0 -154.5 30t-121.5 81q-100 108 -100 280zM398 1291v33l4 25q0 32 30 68t67 36l20 3h33q92 0 92 -97v-8q0 -64 -32 -102.5t-70 -38.5l-20 -3h-33q-38 0 -64.5 22t-26.5 62zM399 607q0 -11 20 -11h36q30 6 49 6q101 0 193 51t92 101v15q0 39 -33.5 72.5t-79.5 33.5h-23 q-15 -3 -27 -3q-57 0 -141 -84t-84 -166l-2 -10v-5zM785 1295v21l1 4l2 21q0 54 37 84.5t81 30.5h30q41 0 68 -22.5t27 -70.5v-17l-2 -16l-3 -21q0 -28 -30 -64t-70 -36l-25 -3h-17q-99 0 -99 89z" />
<glyph unicode="&#xec;" horiz-adv-x="520" d="M103 49v69l1 12l1 24q1 13 1 31.5t41 275t50 366.5t20 145q15 49 118 49l38 1h13q83 0 83 -20v-24q0 -31 -43 -299.5t-43 -422t-34 -209.5q-20 -32 -179 -32h-26q-41 0 -41 34zM145 1489v9q0 23 69 23h86q64 0 89 -45q98 -176 98 -268v-11q0 -24 -59 -24h-29 q-58 0 -105 61q-149 192 -149 255z" />
<glyph unicode="&#xed;" horiz-adv-x="525" d="M128 52v12l1 11v24l4 97q0 26 49 345l8 52q5 25 9 51l12 77q17 105 26 180.5t10 81.5q13 50 103 50h64q82 0 82 -21v-12q0 -25 -44 -311t-44 -383l-1 -30l-4 -44q0 -157 -38 -195q-21 -21 -158 -21h-39q-40 0 -40 36zM295 1201v5q0 56 163 266q44 57 104 57h103 q59 0 59 -16v-5q0 -62 -178 -220q-116 -103 -159 -103h-62q-30 0 -30 16z" />
<glyph unicode="&#xee;" horiz-adv-x="545" d="M103 1191q0 39 232 271q66 66 125 66h8q61 0 98 -61q133 -222 133 -269q0 -25 -61 -25t-82 14.5t-71 79.5t-57.5 65t-95.5 -81t-137 -81h-34q-58 0 -58 21zM117 67v24l1 11v12q0 57 43.5 340.5t44.5 292.5q15 177 27 223t117 46l38 1h13q84 0 84 -20v-24 q0 -11 -43.5 -293.5t-43.5 -382.5q0 -226 -40 -263q-24 -22 -173 -22l-26 -1q-42 0 -42 56z" />
<glyph unicode="&#xef;" horiz-adv-x="557" d="M109 1293v4q0 56 43 108q28 33 81 33h25q15 -3 29 -3t43 -24.5t29 -70.5v-21l-4 -29q0 -42 -38 -74.5t-83 -32.5h-25q-40 0 -68.5 24t-28.5 53q-2 8 -2 12zM125 80l1 12l2 59q1 12 1 36.5t35 243.5l5 27l8 52l3 13l10 65q5 27 7 37l12 75q3 28 6 62l11 97l3 25l3 36 q9 95 61 95q26 2 39 2l77 2q83 0 83 -21v-23q0 -71 -40.5 -281.5t-40.5 -278.5q0 -2 -3 -35l-3 -33v-30l2 -55l-3 -46q0 -143 -38 -181q-23 -23 -173 -23h-26q-42 0 -42 68zM491 1288v8q0 56 34 97t70 41q8 2 12 2l21 2h8q43 0 74 -26t31 -67v-34q0 -68 -54 -107 q-31 -22 -78 -22h-8q-49 0 -77.5 24t-28.5 53z" />
<glyph unicode="&#xf0;" horiz-adv-x="1072" d="M95 398q0 102 38.5 206.5t110.5 189t165 128t174 43.5l26 -1l47 -3q108 0 108 33q0 60 -40 97t-74 37t-71 -7l-21 -4q-36 -8 -40 -8q-57 0 -57 70q0 26 58 62t58 51.5t-42 56t-42 63.5t29 53t64.5 30t124.5 -51.5t112 -51.5t67 18.5t62 18.5q69 0 69 -55 q0 -29 -54.5 -72.5t-54.5 -79.5q0 -12 40 -116q94 -239 94 -494.5t-148 -434.5q-70 -84 -171 -132.5t-207 -48.5q-190 0 -296 92q-129 111 -129 310zM338 394q0 -90 47 -151t113 -61h18q42 0 95.5 28.5t92.5 89.5q85 132 85 289l1 9q0 94 -44.5 151.5t-115.5 57.5h-27 q-93 0 -178 -108t-85 -243l-2 -18v-44z" />
<glyph unicode="&#xf1;" horiz-adv-x="1100" d="M88 69q0 20 48 274t62 392.5t28 183.5q26 85 93 85t90.5 -22t35 -61.5t15.5 -39.5q10 0 54 34q119 93 249.5 93t200.5 -72t70 -189v-24q0 -28 -7 -78.5t-14.5 -120.5t-17 -130.5t-18 -164t-28.5 -151.5q-24 -60 -166 -60q-38 0 -49 50t-11 136v6q0 85 29 240 q30 160 30 222q0 144 -134 145q-50 0 -105.5 -44.5t-87.5 -109t-78.5 -305.5t-63.5 -281q-26 -61 -128 -61h-24q-73 0 -73 53zM380 1211v8q0 65 68 133t162 68h9q60 0 133 -45.5t109 -45.5t83.5 36.5t93.5 36.5t46 -29q0 -72 -66.5 -138.5t-145.5 -66.5h-36 q-44 0 -121.5 45.5t-114 45.5t-78 -38t-92 -38t-50.5 28z" />
<glyph unicode="&#xf2;" horiz-adv-x="1076" d="M94 417v33q0 109 42 223.5t118 200.5q163 186 397 187l17 -1q161 0 287 -115q52 -48 83.5 -118.5t31.5 -122.5v-48q0 -110 -52 -238q-104 -252 -304 -348q-106 -51 -216 -51h-18q-178 0 -282 113.5t-104 284.5zM343 424q0 -96 47.5 -156.5t117.5 -60.5h19q46 0 100.5 31 t98.5 96q84 126 84 279v19q0 116 -42 181.5t-119 65.5h-29q-40 0 -94 -32.5t-95 -93.5q-88 -132 -88 -281v-48zM451 1512q0 31 47 31h62l5 -1l34 -1q6 -1 12 -1q56 0 83 -40q102 -153 102 -264v-15q0 -23 -49 -23h-28q-64 0 -111 53q-157 177 -157 261z" />
<glyph unicode="&#xf3;" horiz-adv-x="1084" d="M91 422v16l1 17q0 108 42.5 224.5t122.5 208t182 137t199 45.5h34q157 0 287 -119q51 -47 83 -119t32 -124v-49q0 -107 -54 -238q-106 -257 -306 -353q-106 -51 -219 -51h-17q-86 1 -160 31q-147 61 -199 215q-28 84 -28 159zM343 426q0 -101 47.5 -161t117.5 -60h29 q35 0 89.5 30.5t119.5 128t65 263.5v9q0 120 -42.5 186t-118.5 66h-19q-106 0 -184 -106q-104 -142 -104 -308v-48zM563 1222v5q0 16 47.5 103t124.5 174q36 40 89 40q12 2 18 2l31 3h97q23 0 23 -18q0 -47 -137 -184t-192 -137l-12 -2h-56q-33 0 -33 14z" />
<glyph unicode="&#xf4;" horiz-adv-x="1076" d="M94 387v67q0 96 47.5 221t129.5 207q166 166 380 166l17 -1q161 0 287 -115q52 -47 83.5 -118.5t31.5 -138.5v-32q0 -100 -48 -227.5t-128 -219.5q-167 -190 -395 -190h-2h-17q-163 0 -265 97q-57 55 -89 134.5t-32 149.5zM342 430l1 -9q0 -112 48.5 -169.5t116.5 -57.5 h19q106 0 194 120t88 266v58q0 98 -41.5 163t-118.5 65h-29q-40 0 -94 -32.5t-95 -93.5q-89 -134 -89 -300v-10zM382 1203.5q0 19.5 29 56.5q94 119 208 216q71 60 126 60t101 -60q139 -181 139 -263q0 -29 -45 -29h-17l-8 1q-51 0 -84 28q-3 3 -59 69t-62.5 66t-52.5 -42.5 t-64 -56.5q-83 -65 -143 -65h-8q-60 0 -60 19.5z" />
<glyph unicode="&#xf5;" horiz-adv-x="1076" d="M93 393v33q1 112 43 224q91 239 298 339q97 47 200 47h33q83 0 159 -32q151 -65 213 -205q30 -68 30 -119v-49q0 -110 -52.5 -236.5t-128 -213t-175.5 -136.5t-200 -50h-51q-72 0 -142 29q-145 60 -199 211q-28 76 -28 158zM342 400q0 -91 45 -154t120 -63h19 q46 0 100.5 31t98.5 96q84 126 84 278v20q0 116 -42 181.5t-119 65.5h-19q-40 0 -95 -27.5t-99 -91.5q-93 -135 -93 -288v-48zM355 1231q0 76 70.5 140.5t144.5 64.5h18l9 -1q51 0 119.5 -45.5t105.5 -45.5t75 38t88.5 38t50.5 -29v-9q0 -73 -70.5 -133t-136.5 -60h-26 q-49 0 -126.5 46.5t-111 46.5t-69 -39t-88.5 -39t-53 27z" />
<glyph unicode="&#xf6;" horiz-adv-x="1076" d="M100 422q0 256 162 441.5t396 185.5l17 -1q164 0 286 -115q55 -53 85.5 -121.5t30.5 -135.5v-33q0 -97 -48.5 -225.5t-124.5 -215t-174 -141t-209 -54.5h-34q-180 0 -283.5 114.5t-103.5 300.5zM349 422q0 -111 49 -169t117 -58h19q106 0 194 120t88 266v58 q0 91 -39 159.5t-121 68.5h-20l-9 -1q-42 0 -99 -34.5t-96 -98.5q-83 -138 -83 -283v-28zM391 1304v9l4 33q0 47 38 78.5t85 31.5h21q49 0 74.5 -25.5t25.5 -64.5v-24l-4 -29q0 -43 -37.5 -74.5t-89.5 -31.5h-13q-44 0 -72.5 20.5t-28.5 52.5zM784 1304v12q0 66 37 103 t94 37h13q47 0 73.5 -22t26.5 -48q2 -8 2 -12l2 -16v-12l-1 -4l-2 -21q0 -51 -38 -82.5t-82 -31.5h-25l-4 1h-8q-8 2 -22 2t-38.5 20.5t-24.5 49.5z" />
<glyph unicode="&#xf7;" horiz-adv-x="1127" d="M106 584q0 79 22 126q10 21 50 21h851q25 0 25 -20v-21q0 -76 -21 -116q-11 -21 -51 -21h-840q-36 0 -36 31zM403 244v9l4 35q0 49 36.5 79.5t101.5 30.5h10l35 -4q29 0 53 -24t24 -69v-27q0 -58 -31.5 -94.5t-71.5 -36.5q-8 -2 -13 -2l-17 -2h-27q-47 0 -74 22.5 t-27 56.5zM494 975v31q0 59 41 107q25 29 83 29h35q47 0 75.5 -24t28.5 -72v-26l-5 -35q0 -43 -35 -72t-88 -29h-32q-47 0 -75 23.5t-28 67.5z" />
<glyph unicode="&#xf8;" horiz-adv-x="1032" d="M92 385v39q0 132 56 258q110 249 338 321q96 30 177 30h5q83 -1 98 -1l123 36h27q34 0 47 -14t13 -74l-4 -68q0 -27 24.5 -100.5t24.5 -147.5v-20l-1 -19v-19q0 -113 -44 -232t-133 -211.5t-193.5 -131t-237.5 -38.5l-31 -2l-31 1q-9 0 -53 -11.5t-72 -11.5h-13 q-43 0 -61 10.5t-18 55.5l-4 27l3 27v51q0 30 -20 98t-20 147zM336 431l2 -20l2 -26q0 -43 13 -43h3q17 0 104 136q207 325 207 331v10q0 25 -47 25h-26q-41 0 -91.5 -29t-90.5 -93q-76 -119 -76 -263v-28zM449 205q0 -20 45 -20h27q91 0 161 96q91 125 91 247l1 6l1 7l1 21 v51l-4 39q0 38 -13.5 38t-161.5 -232t-148 -238v-15z" />
<glyph unicode="&#xf9;" horiz-adv-x="1094" d="M126 279v25q0 29 51 341t54 319q20 50 117 50q61 0 83.5 -22.5t22.5 -89.5t-38 -286.5t-38 -259.5q0 -143 121 -143q46 0 101.5 36t93.5 98t81.5 294t74 301t101 69t92 -21.5t21.5 -41t-42 -262t-53 -388.5q-18 -259 -110 -259q-79 0 -100.5 17.5t-34 51t-17.5 33.5 t-53 -31q-131 -84 -267 -84h-25q-105 0 -170.5 71.5t-65.5 181.5zM457 1482v9q0 31 50 31h11l6 -1l80 -2q6 -1 11 -1q60 0 89 -53q94 -169 94 -236l2 -11v-21q0 -30 -48 -30h-35q-56 0 -108 60q-152 174 -152 255z" />
<glyph unicode="&#xfa;" horiz-adv-x="1103" d="M128 286v25q0 21 51 339.5t55 326.5q21 47 120 47q61 0 82 -24.5t21 -96.5t-37 -285.5t-37 -260.5q0 -145 121 -145q46 0 105 40t94 108.5t76 286t62.5 272.5t47.5 78.5t82 23.5t78 -22t22 -53.5t-38.5 -236t-50 -343t-29.5 -208.5q-31 -120 -91 -120q-78 0 -99 19.5 t-32.5 54.5t-15 35t-61.5 -38t-118 -61t-162.5 -23t-174 67t-71.5 194zM572 1192v10q0 16 42 99.5t117 168.5q49 55 121 55l12 2l43 2h61q28 0 28 -20v-4q0 -71 -192 -242q-96 -85 -149 -85h-38q-45 0 -45 14z" />
<glyph unicode="&#xfb;" horiz-adv-x="1094" d="M126 272v25q0 71 26.5 211t47.5 281.5t31 167.5q20 50 117 50q59 0 82.5 -21.5t23.5 -91.5t-38 -285.5t-38 -259.5q0 -143 121 -143q46 0 101 36t92.5 97.5t80.5 287t64 279.5q39 98 111.5 98t101.5 -29q14 -14 14 -30.5t-47 -288.5t-47 -379t-44 -193q-27 -52 -67 -52 q-78 0 -100.5 17.5t-35 51t-16.5 33.5t-59.5 -33.5t-69.5 -40.5q-88 -41 -191 -41h-25q-103 0 -169.5 70.5t-66.5 182.5zM390 1184v7q0 67 243 273q71 60 118.5 60t101.5 -64q138 -163 138 -249v-8q0 -39 -43 -39h-17l-8 1q-59 0 -112 63q-89 105 -92 105q-7 0 -97.5 -84.5 t-165.5 -84.5h-34q-32 0 -32 20z" />
<glyph unicode="&#xfc;" horiz-adv-x="1094" d="M137 282v25q0 32 51 343.5t53 316.5q21 50 118 50h24q34 0 58 -22t24 -91.5t-38 -285t-38 -258.5q0 -144 121 -144q44 0 99 34.5t93 96.5t84 299.5t70 290.5q36 77 111 77q108 0 108 -63q0 -12 -47 -284t-47 -379t-44 -193q-27 -53 -67 -53q-79 0 -101 18t-35 51t-15 33 q-7 0 -60 -32.5t-70 -40.5q-86 -42 -191 -42h-25q-102 0 -169 71t-67 182zM395 1282v21l1 4l2 21q0 31 28.5 71t66.5 40q8 2 12 2l17 2h25q42 0 69 -22.5t27 -66.5v-25q0 -55 -34 -95.5t-97 -40.5h-12l-33 4q-22 0 -47 20.5t-25 64.5zM787 1281v21l1 5l2 20q0 54 37.5 85 t86.5 31h20q15 -3 25 -3q73 0 73 -70l3 -24v-13q0 -59 -33.5 -99.5t-89.5 -40.5h-29q-48 0 -72 24t-24 64z" />
<glyph unicode="&#xfd;" horiz-adv-x="1041" d="M119 -322q0 3 89.5 65.5t122.5 105.5q116 150 116 247q0 2 -95.5 107t-131.5 203q-70 192 -70 518q0 28 36 51q70 44 112 44q88 0 125 -136q21 -77 33 -307.5t34 -230.5q52 0 147 154q58 94 128.5 270t95.5 207q49 59 170 59q52 0 52 -26t-193.5 -489t-238.5 -531 q-83 -126 -184 -206q-180 -142 -264 -142t-84 37zM549 1203v5q0 87 160 267q51 57 113 57q28 4 37 4l31 1h61q27 0 27 -21q0 -54 -89 -143q-183 -183 -240 -183l-12 -2h-44q-44 0 -44 15z" />
<glyph unicode="&#xfe;" horiz-adv-x="1087" d="M-15 -417q0 11 57 330l30 168q10 55 21.5 116t97.5 596.5t110 622.5q20 72 104 72h27q57 0 72 -31t15 -106t-25 -230.5t-25 -170t14 -14.5q2 0 26 8q162 54 237 54q120 0 206 -101.5t86 -277.5v-28q0 -121 -48 -239t-118 -198q-146 -165 -370 -165q-47 0 -107.5 22.5 t-63.5 22.5q-29 0 -64 -193t-46 -213q-36 -67 -151 -67h-27q-58 0 -58 22zM363 288q0 -56 31 -87t91 -31h37q97 0 186 121t89 293v37q0 85 -35.5 143t-94.5 58h-9l-8 -1q-46 0 -108 -40t-93 -98q-86 -161 -86 -361v-34z" />
<glyph unicode="&#xff;" horiz-adv-x="1041" d="M114 -319q0 6 82 65.5t123 107.5q122 144 122 230q0 12 -92.5 123.5t-127.5 220.5q-63 196 -63 489q0 29 33 53q61 44 108.5 44t75.5 -27q69 -67 84 -356.5t39 -289.5q50 0 145 157q59 96 131 272.5t95 201.5q50 56 173 56q49 0 49 -22t-188.5 -473t-262.5 -563.5 t-214.5 -220t-226 -107.5t-85.5 39zM368 1291v16q0 59 32.5 98t64.5 39q8 2 13 2l16 2h25q42 0 67 -21t25 -47l3 -20v-25l-4 -29q0 -48 -36.5 -78t-93.5 -30h-8l-33 4q-68 0 -68 64zM757 1282v29q0 56 43 108q24 29 82 29h25q43 0 68 -21t25 -52q2 -6 2 -11l1 -17l-1 -4v-9 l-3 -25q0 -35 -30.5 -71.5t-71.5 -36.5l-24 -3h-21q-95 0 -95 84z" />
<glyph unicode="&#x152;" horiz-adv-x="1905" d="M151 570q1 166 61 334t156 288q197 244 520 244q90 0 196 -38.5t152 -38.5l26 13l25 20q26 16 62 22.5t228 6.5t256.5 -11.5t92.5 -48.5q12 -16 12 -38q0 -72 -92 -99q-27 -8 -218 -8t-229 -37q-64 -63 -64 -244q0 -62 29 -76t198.5 -14t189.5 -8.5t20 -91t-70 -100.5 q-12 -3 -200.5 -3t-212.5 -39q-15 -24 -41.5 -122.5t-26.5 -171.5q0 -51 72 -70t213.5 -19t158.5 -7q66 -27 66 -75q0 -125 -367 -125q-187 0 -228.5 8t-81.5 33.5t-56 25.5t-53 -12l-36 -15q-144 -54 -265 -54q-357 0 -458 300q-35 105 -35 271zM409 522q0 -152 69.5 -234 t174.5 -82h43q96 0 146 44q108 96 185 438q34 153 34 295v41q0 119 -44.5 163.5t-156.5 44.5l-14 -1h-14h-3q-72 0 -148 -47q-146 -89 -224 -325q-48 -144 -48 -265v-72z" />
<glyph unicode="&#x153;" horiz-adv-x="1671" d="M134 394q0 128 44 252t114.5 210.5t166.5 137.5t203 51h60q122 0 229 -93q49 -43 57 -43q6 1 68 43q134 94 285 94h2q152 0 232 -80.5t80 -203.5v-29q-1 -163 -93 -225q-48 -32 -248.5 -46.5t-236.5 -27t-36 -84t49 -111.5t114 -40t133 30t93 30q107 0 107 -60 q0 -83 -115.5 -140.5t-242.5 -57.5t-182.5 28.5t-102 71t-51 42.5t-79 -48.5t-142.5 -71.5t-154 -23q-171 0 -262.5 104t-91.5 290zM378 394q0 -109 44 -157t119 -48l9 1q106 0 179 109q91 137 91 310v56q0 95 -38 145.5t-108 50.5h-18q-108 0 -180 -108q-95 -143 -95 -292 l-1 -10l-1 -9l-1 -29v-19zM1087 636q0 -24 37 -24h10l6 1l180 11q35 7 61 7t51 21.5t25 66.5v32q0 45 -30 80t-83 35h-34q-10 -2 -16 -2q-69 0 -138 -80.5t-69 -143.5v-4z" />
<glyph unicode="&#x178;" horiz-adv-x="1189" d="M219 1355q0 64 153 64q74 0 124 -81q16 -25 91 -241.5t92 -216.5q29 0 199 229q61 81 107 156.5t82 107.5q62 55 180 55h25q38 0 38 -20q0 -30 -223.5 -347t-277.5 -411t-87.5 -274t-66 -262t-105 -82t-120.5 12q-27 7 -27 32.5t45.5 236.5t45.5 298.5t-62 211.5 t-102 233l-51 136q-16 44 -38 87t-22 76zM518 1654v17q0 70 31 113.5t77 43.5q8 2 12 2l21 2h17l31 -5q53 0 53 -73v-9q0 -83 -47 -139q-21 -25 -86 -25h-25l-28 4q-52 0 -52 38q-2 8 -2 12zM929 1644v38l5 35q0 54 36.5 84.5t101.5 30.5h8q87 0 87 -49l3 -23v-21l-1 -5v-4 l-3 -26q0 -35 -39 -93q-17 -25 -59 -25q-12 -3 -16 -3l-21 -2h-25q-12 3 -20 3q-54 0 -54 41z" />
<glyph unicode="&#x2c6;" horiz-adv-x="907" d="M273 1126v7q0 39 234 255q70 65 137 65h8q53 0 91 -49q150 -191 150 -253q0 -46 -71.5 -46t-123.5 62q-83 98 -91.5 98t-42 -30.5t-98 -81.5t-125.5 -51h-8q-60 0 -60 24z" />
<glyph unicode="&#x2dc;" horiz-adv-x="941" d="M273 1186q0 78 76.5 142.5t152.5 64.5h38q47 0 122 -48.5t109.5 -48.5t79.5 41.5t94.5 41.5t49.5 -48q0 -71 -72.5 -138t-166.5 -67h-10q-56 0 -135.5 49.5t-111.5 49.5t-79 -43t-97 -43t-50 47z" />
<glyph unicode="&#x2000;" horiz-adv-x="1004" />
<glyph unicode="&#x2001;" horiz-adv-x="2009" />
<glyph unicode="&#x2002;" horiz-adv-x="1004" />
<glyph unicode="&#x2003;" horiz-adv-x="2009" />
<glyph unicode="&#x2004;" horiz-adv-x="669" />
<glyph unicode="&#x2005;" horiz-adv-x="502" />
<glyph unicode="&#x2006;" horiz-adv-x="334" />
<glyph unicode="&#x2007;" horiz-adv-x="334" />
<glyph unicode="&#x2008;" horiz-adv-x="251" />
<glyph unicode="&#x2009;" horiz-adv-x="401" />
<glyph unicode="&#x200a;" horiz-adv-x="111" />
<glyph unicode="&#x2010;" horiz-adv-x="829" d="M133 510v13q0 79 28 130q10 19 32 19h535q26 0 26 -18v-13q0 -74 -28 -130q-10 -19 -40 -19h-520q-33 0 -33 18z" />
<glyph unicode="&#x2011;" horiz-adv-x="829" d="M133 510v13q0 79 28 130q10 19 32 19h535q26 0 26 -18v-13q0 -74 -28 -130q-10 -19 -40 -19h-520q-33 0 -33 18z" />
<glyph unicode="&#x2012;" horiz-adv-x="829" d="M133 510v13q0 79 28 130q10 19 32 19h535q26 0 26 -18v-13q0 -74 -28 -130q-10 -19 -40 -19h-520q-33 0 -33 18z" />
<glyph unicode="&#x2013;" horiz-adv-x="1105" d="M118 504v8q0 96 32 131q11 12 109 12h697q73 0 73 -22v-9q0 -77 -18.5 -109.5t-69.5 -32.5h-783q-40 0 -40 22z" />
<glyph unicode="&#x2014;" horiz-adv-x="1622" d="M106 508v14q0 132 78 132h1347q35 0 35 -26v-14q0 -132 -77 -132h-1348q-35 0 -35 26z" />
<glyph unicode="&#x2018;" horiz-adv-x="498" d="M205 1047v14l1 8l2 36q1 8 1 14q0 120 78 254q38 65 88.5 94.5t68.5 29.5h13q46 0 46 -39l-1 -5v-5q0 -4 -32 -68t-32 -89.5t13.5 -75t13.5 -108t-26.5 -85t-92.5 -26.5l-15 -2h-36q-90 0 -90 53z" />
<glyph unicode="&#x2019;" horiz-adv-x="499" d="M204 1030l1 5q0 16 36 70t36 100l-13 113q0 88 22 126t83 38l14 2l53 2h22q71 0 71 -32v-21q-2 -14 -2 -21q0 -123 -69.5 -242t-122 -154t-74.5 -35h-7q-50 0 -50 49z" />
<glyph unicode="&#x201a;" horiz-adv-x="510" d="M49 -171q1 9 37 69q35 57 35 89q0 26 -6 57q-4 22 -4 34l-1 13v13q0 94 24 131.5t82 37.5l7 1l8 1l29 1h52q62 0 62 -33v-27q0 -128 -99 -298q-42 -72 -95.5 -107.5t-75.5 -35.5h-7q-48 0 -48 39v15z" />
<glyph unicode="&#x201c;" horiz-adv-x="828" d="M170 1043v27l4 43q0 125 85 258.5t169 133.5h6q46 0 46 -33v-16q0 -14 -33 -70.5t-33 -93t8 -67t8 -78.5l-1 -21q-3 -21 -3 -28q0 -91 -116 -91l-15 -2h-36q-89 0 -89 38zM540 1049v13l1 7l2 29q0 124 91 280q35 59 85.5 93t78.5 34h6q47 0 47 -38v-5q0 -18 -33.5 -75.5 t-33.5 -100.5l2 -21q1 -5 1 -10l5 -22q9 -45 9 -105t-27.5 -90.5t-92.5 -30.5l-15 -2h-36q-90 0 -90 44z" />
<glyph unicode="&#x201d;" horiz-adv-x="816" d="M168 1021v21q0 2 50 88q20 34 20 85l-8 65q-2 12 -2 22v22q0 101 29.5 130.5t118.5 29.5h52q62 0 62 -32v-21q-3 -21 -3 -28q0 -115 -94 -276q-40 -69 -91 -106t-79 -37h-6q-49 0 -49 37zM537 1022v20q0 12 23 46t35.5 57.5t12.5 70.5l-4 36l-5 28l-2 31q0 118 39 153 q23 20 117 20h45q62 0 62 -33v-13l-1 -7q0 -139 -82 -280q-54 -92 -106 -130t-79 -38h-6q-49 0 -49 39z" />
<glyph unicode="&#x201e;" horiz-adv-x="855" d="M31 -194q0 15 37 70.5t37 105.5q-1 12 -7 44q-6 34 -6 92q0 135 97 135h1l14 2l68 3h7q80 0 80 -38v-14l-1 -7q0 -122 -83 -276q-42 -79 -98.5 -125t-87.5 -46h-7q-51 0 -51 39v15zM406 -194q0 10 36.5 69.5t36.5 111.5l-10 71q-2 12 -2 20v18q0 101 30 131t135 30l15 1 h8q79 0 79 -39v-14q0 -138 -88 -289q-45 -78 -98 -121t-85 -43q-57 0 -57 44v10z" />
<glyph unicode="&#x2022;" horiz-adv-x="915" d="M220 588v36q0 113 89.5 195.5t197.5 82.5h9q100 0 175.5 -69t75.5 -163v-36q0 -112 -89.5 -194.5t-197.5 -82.5h-9q-108 0 -179.5 71.5t-71.5 159.5z" />
<glyph unicode="&#x2026;" horiz-adv-x="1558" d="M85 78v29l4 34q0 66 47 106q27 23 90 23h35q53 0 80.5 -19.5t27.5 -68.5v-28l-4 -34q0 -129 -138 -129h-34l-5 1h-9q-10 2 -15 2q-79 0 -79 84zM595 83v19l1 5l2 25q0 68 45 113q22 22 70 22l29 3h24q109 0 109 -61q4 -18 4 -22v-38q-3 -15 -3 -25q0 -45 -42 -104 q-19 -26 -73 -26l-29 -3h-29l-33 4q-75 0 -75 88zM1105 92v5l1 5q0 77 44 139q21 29 97 29h34q105 0 105 -65l3 -23v-33q0 -84 -48 -132q-26 -26 -93 -26h-35l-4 1h-10q-10 2 -14 2q-77 0 -77 66q-2 8 -2 14z" />
<glyph unicode="&#x202f;" horiz-adv-x="401" />
<glyph unicode="&#x2039;" horiz-adv-x="772" d="M159 538v10q0 42 349 352q63 56 120 56h10q69 0 69 -47v-9q0 -40 -152.5 -192.5t-152.5 -165t39 -70.5q144 -212 144 -261q0 -25 -28.5 -48t-45.5 -23h-10q-62 0 -120 69q-222 266 -222 329z" />
<glyph unicode="&#x203a;" horiz-adv-x="774" d="M141 185v10q0 34 153 196.5t153 168t-91.5 146t-91.5 176.5t26.5 55.5t39.5 19.5h10q63 0 112 -64q221 -289 221 -337.5t-345 -352.5q-69 -61 -128 -61t-59 43z" />
<glyph unicode="&#x205f;" horiz-adv-x="502" />
<glyph unicode="&#x20ac;" horiz-adv-x="1234" d="M85 547q0 52 33 76q14 10 61.5 18.5t57 24t9.5 62.5q0 25 -52 43t-52 51t30.5 69.5t64.5 52.5l31 12l29 14q27 17 101 130q207 314 542 314q124 0 222 -53t98 -122q0 -39 -32.5 -69t-85.5 -30q-11 0 -123 23.5t-168 23.5t-137.5 -64.5t-81.5 -119.5q0 -40 162 -66 t162 -51q0 -75 -41 -95.5t-184.5 -20.5t-173.5 -13q-49 -21 -49 -67t135 -46q224 0 224 -56q0 -45 -63 -82q-24 -14 -102.5 -27.5t-138.5 -39.5q-36 -16 -36 -61.5t57.5 -99t152.5 -53.5q51 0 163 19.5t136 19.5q44 0 44 -77q0 -62 -124.5 -125t-248.5 -63q-321 0 -424 257 q-58 142 -71.5 162t-70 48.5t-56.5 80.5z" />
<glyph unicode="&#x2122;" horiz-adv-x="1556" d="M202 1341v23q0 52 38 63t177 11h311q25 0 25 -35v-32q0 -33 -24.5 -46t-91 -13t-80.5 -29t-39 -234l-31 -258q-10 -29 -75 -29h-12q-67 0 -67 42l48 429q0 73 -68 73l-21 -3h-31q-59 0 -59 38zM753 821q0 15 41 261l22 143q23 138 24 141q19 61 135 61q37 0 67 -61 q2 -3 54 -174.5t54 -171.5l95 185q90 177 101 191q30 41 70 41q68 0 94 -25q14 -13 14 -100q0 -382 -35 -500q-12 -40 -61 -40t-65 33.5t-16 114t7 149t7 84t-4.5 15.5t-81 -143.5t-85.5 -155.5q-30 -41 -73.5 -41t-60.5 38t-54 169.5t-52 131.5q-6 0 -29 -160t-39 -190 q-26 -49 -96 -49q-33 0 -33 53z" />
<glyph unicode="&#x25fc;" horiz-adv-x="1004" d="M0 0v1005h1005v-1005h-1005z" />
</font>
</defs>
</svg>
