<?xml version="1.0" standalone="no"?>
<!DOCTYPE svg PUBLIC "-//W3C//DTD SVG 1.1//EN" "http://www.w3.org/Graphics/SVG/1.1/DTD/svg11.dtd" >
<svg xmlns="http://www.w3.org/2000/svg">
<metadata></metadata>
<defs>
<font id="averia_sansregular" horiz-adv-x="1155" >
<font-face units-per-em="2048" ascent="1594" descent="-454" />
<missing-glyph horiz-adv-x="608" />
<glyph horiz-adv-x="0" />
<glyph unicode="&#xd;" horiz-adv-x="2048" />
<glyph unicode=" "  horiz-adv-x="608" />
<glyph unicode="&#x09;" horiz-adv-x="608" />
<glyph unicode="&#xa0;" horiz-adv-x="608" />
<glyph unicode="!" horiz-adv-x="627" d="M216 1317v12q0 84 17.5 104.5t66.5 20.5h44q52 0 66.5 -25.5t14.5 -90.5v-24l-1 -13v-61l-1 -13v-25l-11 -294l-3 -62l-1 -12l-1 -25l-3 -61l-2 -49q-2 -26 -2 -37l-2 -25l-2 -49l-1 -13l-1 -36q0 -83 -14 -110.5t-63 -27.5l-10 1q-33 0 -48 23t-16 141l-4 86l-2 49 q-4 48 -4 74l-8 185v24l-4 86v25l-3 86v25l-1 12v50zM220 117v18l1 4v9l4 30q1 5 1 9q0 58 77 58h29q80 0 80 -65l2 -8l3 -35v-46l-7 -51q0 -46 -54 -46q-8 -2 -11 -2l-14 -2h-21l-28 4q-56 0 -56 61q-2 8 -2 13l-3 26v9z" />
<glyph unicode="&#x22;" horiz-adv-x="813" d="M135 1357v41q0 70 53 70l12 2l24 1h24q73 0 73 -45v-48l-1 -7l-1 -21v-13l-9 -118q-3 -21 -4 -35q-2 -26 -4 -47t-5 -46t-4 -37l-4 -34q0 -81 -62 -81h-24q-48 0 -48 87l-2 21l-1 7l-4 62l-1 7l-6 83v14l-3 48v14l-1 13v21zM487 1349v55q0 66 76 66h43q18 -3 29 -3 q38 0 38 -41v-41l-1 -7l-1 -21v-14l-8 -103l-2 -28q-4 -24 -5.5 -42t-2.5 -33t-4 -40t-4 -36l-4 -34q0 -88 -57 -88h-36q-39 0 -39 59l-3 28l-3 34v14l-5 62l-1 7l-4 55v13l-3 48v14l-1 14v13l-1 14v14z" />
<glyph unicode="#" horiz-adv-x="1238" d="M127 469q0 40 36 63q12 8 75.5 21.5t87.5 39.5q45 50 45 192q0 54 -28 70q-13 7 -61 13t-58 10q-37 13 -37 59t38 65q13 6 90 17t100 51q14 23 40.5 158t34.5 150q21 38 74.5 38t53.5 -67q0 -21 -22 -133t-22 -145q0 -43 130 -43q67 0 82.5 15.5t37 134t38.5 163.5 q25 65 82 65t57 -35q0 -19 -18 -109t-18 -135t16.5 -67.5t72.5 -42t56 -64.5q0 -52 -75 -70q-121 -30 -133 -52q-33 -60 -33 -200q0 -39 12.5 -49.5t73.5 -20t72 -15.5q30 -16 30 -64q0 -53 -83 -65q-111 -16 -136.5 -43.5t-48 -150.5t-31.5 -146q-25 -65 -82.5 -65 t-57.5 43q0 25 25 152t25 155q0 41 -165 41q-45 0 -64 -43q-7 -16 -27.5 -138t-46 -169t-79 -47t-53.5 30q0 12 23 129t23 160.5t-21 61.5l-23 11l-57 14q-51 17 -51 57zM460 557q0 -10 19 -10h21l5 1l42 4q18 3 28 3l12 2l44 4q60 0 73 24q32 58 32 151q0 16 16.5 65.5 t16.5 60.5v5q0 15 -66 15h-26l-6 -1h-16l-11 -1h-11l-55 -5q-74 0 -74 -120z" />
<glyph unicode="$" horiz-adv-x="1160" d="M155 246q0 64 76 64q21 0 102.5 -54t136 -54t65.5 52t11 247q0 105 -29 141q-10 13 -132.5 90.5t-165.5 147t-43 189.5t92 216q54 57 140.5 86t89.5 31q21 14 48 81q19 47 63 47q72 0 299 -227q36 -36 36 -84q0 -56 -67 -56q-21 0 -93.5 37t-108.5 37t-50.5 -33 t-14.5 -173.5t38 -190.5q14 -18 123.5 -87.5t164.5 -141.5t55 -197.5t-73 -223.5q-40 -53 -90 -80.5t-105 -47t-75.5 -34.5t-31.5 -57l-5 -25q-8 -43 -13 -51q-13 -22 -67 -22q-27 0 -42.5 55t-33 77t-96 49t-141.5 81.5t-63 110.5zM351 1058q0 -71 48.5 -139t94.5 -68 q8 0 8 125v169l9 93q0 15 -10 15h-3q-41 0 -94 -53t-53 -106v-36zM644 167q0 -13 13 -13h4q46 0 101.5 55.5t55.5 117.5l1 6l1 5l1 23v6l-1 5v6q0 74 -57.5 141.5t-102.5 67.5h-8q-5 0 -5 -103l3 -44v-17l2 -28v-51l-1 -11v-23l-1 -11v-11l-1 -11v-16l-2 -21v-11l-3 -36v-26 z" />
<glyph unicode="%" horiz-adv-x="1644" d="M154 1069v11l1 12q0 144 77 239t190 95l10 -1q120 0 197.5 -89.5t77.5 -227.5v-48q0 -154 -77 -263t-187 -109h-20q-117 0 -193 111t-76 270zM299 1044l1 -7v-13l2 -27q0 -66 36 -120t80 -54h11q39 0 80.5 53.5t41.5 128.5q2 12 2 20l2 28v35q0 73 -33.5 139.5 t-86.5 66.5h-11q-55 0 -90 -70t-35 -159v-21zM352 -10q0 9 58 104q681 1112 774 1246q46 66 106 66t60 -22q0 -62 -812 -1321q-61 -95 -123.5 -95t-62.5 22zM983 322v47q0 142 78 239.5t184 97.5h29q107 0 177.5 -102.5t70.5 -236.5v-35q0 -154 -78 -251.5t-194 -97.5l-9 1 q-107 0 -182.5 94.5t-75.5 243.5zM1138 301q0 -75 33.5 -142t82.5 -67h22q40 0 78 57.5t38 122.5q2 14 2 21l2 35v7q0 93 -34 161t-88 68h-16q-38 0 -77.5 -56.5t-39.5 -131.5l-1 -6l-1 -7l-1 -21v-41z" />
<glyph unicode="&#x26;" horiz-adv-x="1420" d="M159 393v30q0 144 163 294q109 99 109 139q0 19 -23.5 71.5t-45 111.5t-21.5 134q0 114 78 190t188 76h28q131 0 220.5 -91.5t89.5 -218t-134 -250.5q-80 -74 -80 -145t98 -183q58 -66 124 -66q38 0 86.5 75t101.5 75q19 0 42 -22t23 -49t-20 -89.5t-20 -127t28 -102 t87 -87.5t59 -73q0 -52 -85 -52q-53 0 -126.5 37.5t-110 37.5t-81 -15t-188.5 -37t-214 -22t-145 30q-140 56 -199 188q-32 72 -32 141zM342 409l1 -8q0 -105 76 -174t184 -69h15q82 0 169 58q42 28 42 49v6q0 13 -38 51t-95 106t-110.5 145.5t-66.5 77.5h-13 q-58 0 -126 -107q-38 -60 -38 -135zM530 1117q0 -54 60 -174q20 -39 32 -39h5q6 0 52 36t78 94t32 102v28q0 54 -34 93.5t-75 39.5h-29q-43 0 -81 -44.5t-38 -89.5l-2 -10v-36z" />
<glyph unicode="'" horiz-adv-x="502" d="M160 1351v49q0 63 53 63l30 3h37q70 0 70 -49v-41l-1 -7v-14l-3 -35v-13l-5 -63l-1 -7l-3 -41q-3 -21 -3 -28l-3 -27q-4 -28 -6 -45.5t-4 -33t-2 -25.5q0 -103 -65 -103h-30q-46 0 -46 135l-14 186v13l-2 28v14z" />
<glyph unicode="(" horiz-adv-x="724" d="M161 540v7v88q0 129 36 281q76 321 254 525q60 69 113.5 69t53.5 -48q0 -7 -82 -148t-135 -303.5t-53 -418.5q0 -390 160 -672q113 -198 113 -204q0 -37 -56 -37t-112 64q-189 219 -261 547q-31 142 -31 250z" />
<glyph unicode=")" horiz-adv-x="722" d="M107 1469v15q0 26 51 26h17q47 0 129 -108q164 -215 228 -515q29 -135 29 -259v-67q0 -435 -270 -792q-67 -88 -115 -88h-17q-48 0 -48 43q0 19 81 147.5t119 243.5q72 216 72 473q0 395 -160 675q-116 203 -116 206z" />
<glyph unicode="*" horiz-adv-x="926" d="M164 1239q0 37 64 37q18 0 90.5 -38.5t75.5 -38.5q17 0 17 20q0 12 -6 86l-4 38q-4 38 -4 56q0 48 73 48q50 0 60 -19.5t10 -78.5l-21 -150q0 -12 15 -12q3 0 67 38t93 38q73 0 73 -46q0 -51 -35 -94q-12 -15 -57.5 -33t-45.5 -28q2 -12 2 -27.5t32 -57t32 -72.5 q0 -61 -32 -61l-104 17q-10 0 -26.5 -29t-33.5 -29l-42 6l-15 -3l-25 -6q-23 0 -35 33t-34 33l-82 -5q-50 0 -50 71q0 25 17 46l26 26q12 12 31 41t19 34.5t-43 26t-57 37.5q-45 54 -45 96z" />
<glyph unicode="+" horiz-adv-x="1206" d="M165 608v58q0 57 36 66q19 5 168 5t154 5t5 183.5t8 206t66 27.5h18q47 0 54 -37q3 -17 3 -192.5t5 -183.5t160 -8t177.5 -7.5t22.5 -49.5v-40q0 -55 -37 -65q-16 -4 -167 -4t-156 -5t-5 -185.5t-6 -201.5q-9 -33 -71.5 -33t-67.5 36q-4 26 -4 201t-11 181t-181.5 6 t-170.5 37z" />
<glyph unicode="," horiz-adv-x="577" d="M141 -245q0 11 23 39q72 86 72 176q0 11 -24 43t-25 61.5t-1 35.5l-1 16v15q0 63 20 88t75 25h35q51 0 72 -17t21 -63v-61q-3 -24 -3 -39q0 -128 -69 -228q-94 -136 -161 -136q-34 0 -34 40v5z" />
<glyph unicode="-" horiz-adv-x="740" d="M90 550v38q0 52 25 59q15 4 269 4l125 1h66q55 0 66.5 -10t11.5 -46v-45q0 -47 -30 -54q-8 -2 -256 -2h-22l-29 -1h-170q-56 0 -56 56z" />
<glyph unicode="." horiz-adv-x="567" d="M166 88v36l2 19l3 22q0 85 88 85l26 3h30q12 -3 24 -3q59 0 59 -54q2 -8 2 -13l3 -26v-37l-1 -4l-3 -27q-1 -5 -1 -9q0 -41 -24 -65t-94 -24h-18q-90 0 -90 54q-3 12 -3 17z" />
<glyph unicode="/" horiz-adv-x="824" d="M34 -110q0 15 51 146t77 201t75 196t68.5 180t85.5 224t133.5 357t94 245t81.5 58h17q63 0 63 -15.5t-254.5 -700t-326.5 -848.5q-29 -66 -86 -66h-16q-63 0 -63 23z" />
<glyph unicode="0" horiz-adv-x="1171" d="M150 635v134q0 129 35 265q71 274 232 368q75 44 168 44h18q190 0 306 -181q57 -88 88.5 -225t31.5 -273v-68q-1 -153 -31 -289q-59 -264 -209 -370q-85 -61 -178 -61h-55q-78 1 -156 49q-160 100 -215 339q-35 152 -35 268zM348 668q0 -230 64 -376q92 -123 173 -145 q109 0 177 142t68 402v82q0 229 -66 367t-169 138h-12q-47 0 -92 -37.5t-78 -112.5q-65 -150 -65 -395v-65z" />
<glyph unicode="1" horiz-adv-x="1100" d="M272 1193q0 41 71 83q215 126 267.5 126t70 -51t17.5 -155q6 -114 6 -157l2 -80v-41l1 -41v-185q0 -144 5.5 -197.5t33 -138t27.5 -134.5v-39q0 -83 -50 -152q-22 -30 -83 -30h-35q-80 0 -111 46q-49 72 -49 176q0 40 25 120l11 31q19 59 20 63q15 62 15 306.5t-51 334.5 q-21 37 -107 55.5t-86 59.5z" />
<glyph unicode="2" horiz-adv-x="1153" d="M138 79q0 74 86.5 188.5t261 289t236.5 269.5t62 199.5t-62 162t-154.5 57.5t-195.5 -62q-169 -102 -177 -102q-55 0 -55 55q0 96 138.5 192t290.5 96h32q75 0 151 -28q155 -57 210 -210q23 -64 23 -153q0 -134 -107 -283q-61 -85 -264.5 -284t-203.5 -247q0 -38 222 -38 t301 -18.5t79 -65.5q0 -42 -16 -67t-63 -25h-28l-212 9h-222q-253 0 -278 5q-55 11 -55 60z" />
<glyph unicode="3" d="M129 184.5q0 67.5 70 67.5q31 0 138 -46t210 -46t181 69t78 180t-81 183q-50 45 -163 72t-116 29q-31 20 -31 65q0 48 97 78q220 68 220 274q0 69 -58.5 106.5t-139 37.5t-188 -43.5t-122.5 -43.5q-59 0 -59 52q0 13 19 42q35 53 146.5 108t256.5 55h33q139 0 227.5 -82 t88.5 -193t-34.5 -178.5t-90 -121.5t-55.5 -60.5t76 -54.5q174 -110 174 -287v-33q0 -168 -126 -294t-334 -126h-32q-140 0 -262.5 61.5t-122.5 129z" />
<glyph unicode="4" horiz-adv-x="1175" d="M124 462v20q0 97 517 839q49 70 77.5 89t84 19t72 -16.5t16.5 -90.5l-1 -21q-1 -22 -1 -45l-8 -200l-2 -45l-4 -200q0 -204 15.5 -232.5t65.5 -46.5t68 -35.5t18 -56.5v-17q0 -41 -41 -55l-16 -4l-34 -7q-32 -8 -45.5 -21.5t-13.5 -79.5l5 -171q0 -53 -25 -67.5 t-96 -14.5h-21q-52 0 -52 109l2 43v42q0 107 -26 128q-39 31 -247 31t-258 18t-50 88zM295 533.5q0 -3.5 147 -3.5l31 -1h16l8 1l78 4h41t50 16t18 88l3 53v18l1 18v35l1 17v18l2 36v17l2 36v18l1 8v18l1 9v18l3 62v18l1 9v18l2 35v23q0 13 -2 13h-2l-95 -144q-3 -5 -9 -14 l-20 -30q-114 -171 -131.5 -200.5t-82 -119.5t-64.5 -93.5z" />
<glyph unicode="5" d="M133 157q0 84 93 84q6 0 116.5 -45t189.5 -45q117 0 202.5 81.5t85.5 219t-84.5 214t-252.5 76.5l-150 -11q-62 0 -97 42.5t-35 130t45 341.5q14 79 38 108q47 57 289 57q83 0 185.5 6.5t129.5 6.5h28q48 0 48 -38q0 -78 -53 -108.5t-240 -30.5t-228 -42 q-53 -55 -53 -198q0 -53 13.5 -73t63.5 -20l60 2q220 0 352 -120.5t132 -308.5v-34q0 -100 -42 -192q-85 -186 -282 -247q-75 -23 -161 -23h-34q-115 0 -237 56.5t-122 110.5z" />
<glyph unicode="6" horiz-adv-x="1165" d="M136 648v26q0 131 45 268.5t127.5 238.5t200 155.5t235 54.5t152 -24t34.5 -43q0 -37 -154 -59.5t-236 -92.5q-151 -129 -151 -283q0 -56 58 -56q6 -1 51 15t119.5 16t150.5 -34q145 -64 213 -218q44 -101 44 -195v-25q0 -182 -104 -289.5t-252 -107.5h-25 q-228 0 -374 197q-59 79 -96.5 197t-37.5 259zM377 447q0 -120 64 -213t153 -93h16l8 1q83 0 142 85.5t59 201.5v20q0 122 -56.5 210t-149.5 88h-24q-103 0 -157.5 -78.5t-54.5 -183.5v-38z" />
<glyph unicode="7" horiz-adv-x="1145" d="M139 1313v20q0 56 23 70t98 14h22l189 -8h197q244 0 299 -9t55 -50v-21q0 -89 -544 -1305q-20 -44 -79 -44h-21q-78 0 -78 59q0 124 240.5 639.5t240.5 528.5q0 30 -245 30l-189 -4q-208 0 -208 80z" />
<glyph unicode="8" horiz-adv-x="1160" d="M166 346v46q0 160 145 302q60 58 60 63.5t-20 23.5l-16 13q-130 108 -130 277q0 79 29.5 152t81.5 122q116 108 276 108q160 -1 266 -95q105 -95 106 -248q0 -152 -122 -282q-52 -56 -52.5 -60.5t27.5 -24.5q82 -58 133 -143.5t51 -192.5v-24q0 -159 -115.5 -282.5 t-303.5 -123.5h-22q-165 0 -277 104q-54 50 -85.5 122.5t-31.5 142.5zM334 385q0 -87 72 -159t167 -72h42q92 0 155.5 63.5t63.5 139.5v8q0 104 -76 180q-104 104 -214 104h-24q-61 0 -135 -91q-51 -62 -51 -140v-33zM373 1074q0 -75 76.5 -143.5t156.5 -68.5h13 q57 0 118 69t61 135v27q-2 14 -2 20q0 66 -66.5 112.5t-137.5 46.5h-15q-86 0 -145 -52.5t-59 -118.5v-27z" />
<glyph unicode="9" horiz-adv-x="1163" d="M149 1034q0 184 105 292t271 108q113 0 209 -53q187 -103 262 -343q37 -118 37 -258v-26q0 -143 -51 -286.5t-136 -239t-198 -144.5t-217 -49t-153 21.5t-49 54.5t153 51q248 30 352 220q44 80 44 142.5t-55 62.5q-9 0 -56 -13q-51 -14 -102 -14q-81 0 -159 36 q-168 76 -230 265q-27 81 -27 173zM353 968q0 -128 61.5 -208t144.5 -80h16l8 1q82 0 146.5 64.5t64.5 187.5v48q0 129 -68 217.5t-151 88.5h-16q-82 0 -144 -80.5t-62 -200.5v-38z" />
<glyph unicode=":" horiz-adv-x="583" d="M181 118v33l2 19l3 22q0 74 89 74h37q12 -3 24 -3q68 0 68 -69q4 -18 4 -22l2 -33v-15q0 -75 -19.5 -98t-59.5 -23l-24 -3h-29l-27 4q-66 0 -66 78q-2 8 -2 13zM181 875v23q0 76 23 99t80 23h25l32 -4q31 0 50 -19t19 -84v-43l-1 -4v-9q-4 -20 -4 -27q0 -73 -73 -73 l-20 -3h-37q-12 3 -20 3q-69 0 -69 72l-1 5l-1 4z" />
<glyph unicode=";" horiz-adv-x="599" d="M156 -232q0 9 25.5 43t47.5 75t22 77t-15.5 51.5t-25.5 35.5t-10 90.5t19 97.5t75 27h34q58 0 74.5 -18.5t16.5 -67.5v-54q-3 -21 -3 -39q0 -100 -48 -189t-98.5 -130.5t-74.5 -41.5h-6q-33 0 -33 38v5zM193 886v5l1 4l3 37q1 5 1 9q0 76 72 76q8 2 12 2l16 2h29 q45 0 68.5 -15.5t23.5 -64.5l2 -9v-9l2 -24v-14l-1 -5l-3 -36q-1 -5 -1 -9q0 -77 -75 -77l-24 -3h-29l-4 1h-8q-8 2 -12 2q-66 0 -66 64l-3 13l-3 32v9z" />
<glyph unicode="&#x3c;" horiz-adv-x="1200" d="M129 622q0 53 81 101q23 14 307.5 164.5t386.5 206.5t122 56t20 -51q0 -81 -91 -141t-343 -186t-253 -145q0 -7 246 -127t343 -184t97 -158q-1 -38 -27 -38t-128 57t-367 186t-329 167q-65 38 -65 92z" />
<glyph unicode="=" horiz-adv-x="1212" d="M116 445v30q0 47 33 54q19 4 480 4l114 1h92l12 -1l149 1q110 0 110 -47v-60q0 -31 -41 -35t-335 -4h-526q-63 0 -75.5 10.5t-12.5 46.5zM116 829v40q0 49 29 53.5t473 4.5l34 1h356q71 0 85 -10.5t14 -47.5v-20q0 -59 -43 -65q-14 -2 -458 -2h-150l-34 -1h-241 q-65 0 -65 47z" />
<glyph unicode="&#x3e;" horiz-adv-x="1201" d="M159 159v18q0 74 98 138q54 36 279 151l75 37q37 19 138 69.5t101 54.5q0 14 -262.5 149t-345.5 190.5t-83 130.5v18q0 35 14 35q69 0 814 -426q81 -46 81 -101t-77 -100q-120 -70 -325 -164.5t-329.5 -166t-149.5 -71.5h-13q-15 0 -15 38z" />
<glyph unicode="?" horiz-adv-x="1005" d="M111 1185v17q0 87 107 155q133 84 275 84h20q158 0 261.5 -95.5t103.5 -226.5v-20q0 -163 -163 -341q-113 -122 -131 -148t-22.5 -54.5t-8 -76.5t-13.5 -64.5t-47 -16.5h-17q-86 0 -86 137t134 281q82 89 115 149t33 135.5t-51 124.5t-130 49t-160 -59q-126 -92 -137 -92 q-83 0 -83 62zM353 87v36l4 35q0 79 84 79l24 3h24l26 -4q59 0 59 -94v-27l-1 -4v-9l-1 -4v-9l-4 -26q0 -74 -98 -74h-28l-30 4q-52 0 -52 41q-3 12 -3 16l-3 16v9z" />
<glyph unicode="@" horiz-adv-x="1717" d="M134 637q0 124 58 282q116 320 467 450q107 40 253 40q284 0 466 -165q204 -186 204 -482q0 -121 -36 -218q-73 -193 -198 -262q-70 -39 -133 -39t-101 20l-64 45q-32 0 -111.5 -35.5t-158.5 -35.5q-110 0 -180 86.5t-70 195.5q0 165 91 280t199 115q30 0 80 -12 q26 -6 49 -10h-22q-96 0 -184.5 -115t-88.5 -256v-42q0 -72 36 -121t83 -49h13q77 0 148 118q92 153 92 282q6 48 6 58v31q0 46 -24 70q-17 17 -36 22q9 -1 18 -1l38 9q69 24 80 24q41 0 55.5 -25t14.5 -129l-14 -195l-2 -49q0 -87 33 -116l30 -14q82 0 155 104.5t73 269.5 q0 220 -151.5 367.5t-411 147.5t-443.5 -197.5t-184 -500.5q0 -152 58 -276q170 -365 579 -365q128 0 264 51t164 51t28 -11q0 -60 -161 -124t-319 -64q-325 0 -531 212q-211 217 -211 578z" />
<glyph unicode="A" horiz-adv-x="1317" d="M104 61v19q0 13 186.5 561.5t250.5 703.5q41 99 123 99t119 -89t137.5 -390t194.5 -571.5t94 -302.5v-20q0 -42 -71.5 -42t-122.5 65q-30 38 -76.5 152t-63.5 127q-30 23 -234 23h-46l-22 -1q-22 -1 -46 -1q-85 0 -116 -31q-13 -13 -58.5 -124.5t-84 -161t-95.5 -49.5 h-19q-50 0 -50 33zM476 563q0 -13 25 -13h40q21 3 37 3l107 2q134 0 134 16v6q0 59 -155 555l-5 15l-6 21q-4 0 -17.5 -53.5t-76.5 -268.5l-20 -68q-16 -72 -39.5 -134.5t-23.5 -70.5v-10z" />
<glyph unicode="B" horiz-adv-x="1253" d="M202 728v22q0 1 5.5 127.5t5.5 319t13 208.5q23 28 143 28l82 2l21 1q21 1 41 1l86 2q216 0 314 -82q65 -54 89 -122.5t24 -154.5q0 -146 -98 -243q-65 -65 -66 -68q0 -3 68 -49q168 -116 168 -298q0 -112 -40 -195q-79 -166 -266 -207q-80 -18 -214 -18h-42l-21 1h-21 q-218 0 -255 31q-21 18 -21 184t-5 281l-5 115q-6 92 -6 114zM385 930q0 -50 9 -63.5t53 -13.5h64l8 1l76 3l34 2q99 0 165.5 60.5t66.5 135.5v16l-1 8q0 70 -60.5 115.5t-136.5 45.5q-26 3 -33 3l-43 2h-52l-8 -1l-33 -1h-16q-16 -2 -24 -2q-50 0 -62 -30q-7 -17 -7 -165 v-116zM387 268q0 -52 17.5 -63t79.5 -11h94q168 0 256 56.5t88 154.5v27q0 102 -88.5 159t-244.5 57h-95l-9 -1h-18q-18 -2 -26 -2q-54 0 -54 -65v-312z" />
<glyph unicode="C" horiz-adv-x="1333" d="M112 698v35q0 136 44 271q93 284 358 389q102 40 254 40t309 -77q68 -33 102 -73t34 -72t-23.5 -51.5t-37.5 -19.5t-155 63.5t-245 63.5q-200 0 -314 -155t-114 -432q0 -96 31 -196q98 -315 389 -315h2q110 0 252.5 72.5t155.5 72.5q71 0 71 -60q0 -83 -155 -167 t-319 -84h-32q-129 1 -243 49t-194 140q-170 196 -170 506z" />
<glyph unicode="D" horiz-adv-x="1388" d="M218 76v22l5 112q5 113 5 138l2 92l2 115v47l1 46v162l-1 70v69l-1 23v46l-10 271l-1 23q-1 22 -1 43q0 56 40 68.5t232 12.5l61 1h64q418 0 563 -377q53 -139 53 -301v-26q0 -356 -204 -568q-86 -88 -196 -127t-273 -39h-102q-147 0 -193 14t-46 63zM423 243 q0 -38 28.5 -51t95.5 -13h56q186 0 297 142q59 75 89.5 177t30.5 204v71q0 95 -30 193q-59 192 -204 260q-75 36 -169 36h-57q-123 0 -132 -46q-1 -5 -1 -39v-49l1 -31v-30l2 -62v-62l1 -31v-345l-1 -31v-31l-2 -78v-31z" />
<glyph unicode="E" horiz-adv-x="1145" d="M177 138v32q0 60 17 284.5t17 333.5t-15 274t-15 226t21.5 78.5t80.5 28.5q182 34 537 33h70q111 0 111 -72q0 -41 -73.5 -57.5t-254 -21.5t-217.5 -29q-68 -43 -68 -274q0 -58 45 -83q25 -14 222 -29t211 -21q30 -14 30 -80.5t-52 -84.5q-33 -11 -199.5 -23.5 t-208.5 -32.5q-62 -29 -62 -110q0 -150 30 -253q14 -48 43 -65.5t220 -23.5t259 -17q100 -17 100 -68q0 -46 -61 -62q-34 -9 -241 -9h-107q-221 0 -357 34q-83 21 -83 92z" />
<glyph unicode="F" horiz-adv-x="1079" d="M173 1279.5q0 58.5 20.5 85t88 44.5t414.5 18l170 1h56q79 0 79 -54v-20q0 -38 -74.5 -59.5t-275.5 -21.5t-232 -27q-42 -36 -42 -264q0 -87 26.5 -106t185 -31t210.5 -29q71 -23 71 -83.5t-39 -77.5q-9 -4 -187.5 -25.5t-218.5 -50t-40 -231.5t-19.5 -256.5t-85.5 -53.5 t-81 16t-15 53l20 461q0 242 -15.5 447.5t-15.5 264z" />
<glyph unicode="G" horiz-adv-x="1426" d="M115 692v44q0 138 50 276q102 282 361 382q106 41 260 41t302 -69q90 -42 129 -99q18 -26 18 -52q0 -59 -67 -59q-16 0 -147 52t-231 53q-204 0 -332 -141q-128 -140 -129 -398q0 -261 121 -410q120 -149 326 -149q107 0 184.5 71t77.5 167q0 57 -21 88.5t-76 75.5 t-55 70q0 81 211 81q130 0 161.5 -38.5t31.5 -176.5t-26 -241t-60.5 -130t-83.5 -40l-54 -12q-38 -9 -59 -16q-169 -59 -301 -59t-246 57q-213 107 -298 348q-47 134 -47 284z" />
<glyph unicode="H" horiz-adv-x="1380" d="M154 1138v130q0 100 13 120.5t42 20.5h32q85 0 111 -76q16 -47 16 -323q0 -163 36 -190q51 -38 262 -38t259 42q32 28 32 238.5t28 268.5t129 58q70 0 81 -69q20 -130 20 -657l2 -223q0 -72 2 -108l8 -140v-66q0 -70 -13.5 -83.5t-64.5 -13.5t-75.5 16t-42.5 77.5 t-18 348.5q0 162 -36 189q-56 42 -331 42q-176 0 -207 -57q-15 -27 -15 -239.5t-27.5 -279t-114.5 -66.5t-99 54q-16 70 -16 403t-1 369l-3 110z" />
<glyph unicode="I" horiz-adv-x="616" d="M175 141v18q1 41 17 123t16 192v513l-1 36q0 61 -16 141t-16 117v35q0 79 34 108q18 15 85 15h63q86 0 86 -123v-35q0 -31 -17 -117t-17 -198v-551q0 -60 17 -145t17 -128v-18q0 -66 -21.5 -94.5t-79.5 -28.5h-64q-56 0 -79.5 31t-23.5 109z" />
<glyph unicode="J" horiz-adv-x="933" d="M46 154v18q0 71 83 71q28 0 100 -32.5t126 -32.5q112 0 166 140q38 98 38 343t-14 354q-35 273 -35 274q0 93 31 121t104.5 28t86.5 -28q38 -82 38 -244v-21l-1 -22q-1 -22 -1 -43l-4 -87q-2 -44 -2 -88l-2 -89v-159l-1 -68v-69l-1 -22q-1 -23 -1 -47q0 -331 -211 -430 q-76 -36 -158 -36h-42q-122 0 -230 70q-70 45 -70 99z" />
<glyph unicode="K" horiz-adv-x="1285" d="M188 767v37q0 471 30 575q15 53 90 53t92.5 -34t17.5 -154l-12 -356q0 -35 27 -35q47 0 333 372q82 107 113 134q69 62 133.5 62t64.5 -19.5t-213 -279t-213 -311t259 -415.5t259 -374t-89.5 -10t-147 61t-211.5 296.5t-210 235.5q-44 0 -68.5 -50t-24.5 -198l3 -106 q1 -35 1 -105q0 -137 -86 -137q-99 0 -116 70q-32 128 -32 688z" />
<glyph unicode="L" horiz-adv-x="1056" d="M166 1375v20q0 45 67.5 45t92 -10.5t36 -52.5t11.5 -580t16 -571t81.5 -43t252.5 -10t240 -29q38 -21 38 -96q0 -43 -39 -43h-40l-42 2q-84 4 -131 4l-45 1h-136q-202 0 -281 10t-97 40t-18 434v724q0 22 -2 67z" />
<glyph unicode="M" horiz-adv-x="1664" d="M141 193v44l2 46l3 47q19 299 28.5 620.5t14.5 348.5q18 90 105.5 90t178.5 -147q42 -68 194.5 -428.5t174.5 -360.5l20 33l59 142q193 490 259.5 601.5t103 138t80.5 26.5q92 0 110 -87q4 -21 14 -370t23 -518t13 -221v-43q0 -102 -72 -102q-36 0 -69 47.5t-48 131 t-28.5 428t-41.5 344.5t-252 -566q-87 -218 -98 -237q-37 -69 -94.5 -69t-101.5 89l-20 46q-18 41 -39 95l-38 96q-39 95 -78 191q-147 361 -170 361q-28 0 -38 -336t-29 -442t-49.5 -139t-52.5 -33q-64 0 -64 133z" />
<glyph unicode="N" horiz-adv-x="1396" d="M151 75v36l8 158q2 53 2 206l1 83v295q0 481 3 497q10 53 65.5 53t102.5 -28t107.5 -103t323 -475t289.5 -400q8 0 8 409t22.5 510.5t92.5 101.5q43 0 58 -14t16 -56v-36l-7 -78q-7 -90 -7 -230v-308l-1 -126q0 -474 -6 -495q-11 -39 -72 -39q-91 0 -205 146 q-63 82 -321 482.5t-286 400.5q-7 0 -7 -419.5t-14 -495t-40 -104.5t-79.5 -29t-53.5 58z" />
<glyph unicode="O" horiz-adv-x="1486" d="M183 666v74q1 142 43 280q84 274 284 385q111 62 248 62h21q234 0 391 -201q73 -94 113.5 -232t40.5 -286v-24q0 -330 -159 -540.5t-412 -210.5t-403 184q-80 98 -123.5 236t-43.5 273zM393 684q0 -122 30.5 -225t76.5 -169q98 -142 253 -142h1q154 0 256 155t103 417v18 q0 244 -96 398q-48 76 -113.5 116t-133.5 40h-15q-144 0 -245 -136q-51 -69 -83 -176t-32 -207l-2 -35v-54z" />
<glyph unicode="P" horiz-adv-x="1180" d="M166 48v20q2 40 2 62l1 44v88l1 44v89q0 370 36 874q5 75 16.5 95t41.5 28q144 36 411 36h42q159 0 257 -94q98 -96 98 -274t-146 -320q-78 -76 -166 -104t-203.5 -42t-132.5 -23q-50 -28 -50 -169l-1 -21q-1 -22 -1 -43l-1 -44v-44q0 -162 -19.5 -204t-102.5 -42t-83 44 zM391 809q0 -51 99 -51h35l9 1l27 1l37 2q114 0 193.5 73t79.5 178v27q0 104 -77.5 157.5t-184.5 53.5h-73q-111 0 -127.5 -26.5t-16.5 -249.5v-59l-1 -33v-74z" />
<glyph unicode="Q" horiz-adv-x="1497" d="M183 754v57q0 131 40 251q81 243 259 334q105 55 222 55h25q125 0 229 -51q222 -108 317 -379q51 -147 51 -294v-55q0 -273 -142 -479q-58 -85 -58 -98q0 -42 119 -143q67 -57 67 -96q0 -19 -47 -19q-228 0 -449.5 71t-390.5 221q-112 100 -177 267t-65 358zM396 675 q0 -106 28 -205q53 -186 189 -269q65 -39 127 -39t81 18t31 68q23 103 125 137q50 17 77 56q62 91 62 314l-1 18q0 214 -92 360q-44 70 -108 110t-135 40h-31q-139 0 -248 -156q-48 -69 -76.5 -174t-28.5 -202v-76z" />
<glyph unicode="R" horiz-adv-x="1261" d="M205 699v29l1 29l2 29q3 57 3 58.5t2 57.5l2 59q4 116 4 272.5t20 175.5q33 32 325 32h27q121 0 203 -19q166 -39 228 -201q29 -75 29 -176q0 -174 -142 -301q-90 -81 -90 -96.5t129 -264t158 -295.5t29 -50q0 -22 -81 -22t-130 55q-22 25 -108.5 191.5t-153 250 t-144 83.5t-92.5 -46q-6 -18 -6 -237.5t-16.5 -262t-83 -42.5t-84.5 22.5t-18 168.5l-3 178l-2 30l-1 29q-1 29 -1 60l-2 58q-1 29 -1 59zM390 833q0 -40 52 -40h95l27 2l36 2q113 0 196.5 64.5t83.5 165.5v35q0 83 -70.5 136t-200.5 53h-54q-130 0 -147 -27t-17 -231 l-1 -33v-127z" />
<glyph unicode="S" horiz-adv-x="1150" d="M99 229.5q0 77.5 72 77.5q22 0 149.5 -75t247.5 -75t195 55t75 154t-81 168q-46 40 -248 134.5t-272 167.5q-98 103 -98 230q0 163 109 263q58 53 140 83t162 30h35q150 0 281.5 -66t131.5 -140t-77 -74q-14 0 -130 57t-224 57t-168.5 -55t-60.5 -135.5t91 -151.5 q48 -37 235.5 -123.5t262.5 -159.5q114 -111 114 -274t-128 -274q-129 -110 -341 -110h-36q-150 0 -312 90q-125 69 -125 146.5z" />
<glyph unicode="T" horiz-adv-x="1156" d="M112 1355.5q0 58.5 46.5 69.5t435.5 12l152 1h154q80 0 113.5 -15.5t33.5 -70.5t-37 -73q-22 -11 -155 -24t-155 -47.5t-22 -583t-4 -578t-21.5 -38.5t-89 -9t-81.5 55q-5 26 -5 572t-20.5 579.5t-152 46.5t-162 29t-30.5 74.5z" />
<glyph unicode="U" horiz-adv-x="1358" d="M145 1344q0 66 13.5 74t67.5 8t78 -16q24 -18 39 -68q16 -49 16 -452q-1 -13 -1 -26v-9q0 -420 46 -524q81 -187 288 -187q92 0 168 51t119.5 161.5t43.5 504.5t17.5 458.5t43.5 86t74 21.5q60 0 60 -64l-12 -264l-1 -69v-70l-1 -70v-202q0 -166 -14 -278 q-32 -249 -230 -358q-119 -67 -268 -67h-38h-5q-123 0 -230 53q-220 108 -253 407q-8 72 -8 425l-5 343z" />
<glyph unicode="V" horiz-adv-x="1259" d="M42 1379q0 38 63.5 38t110 -40.5t77 -105t183 -507t159.5 -442.5q19 0 165 421t186 509q76 162 172 163q60 0 60 -32q0 -23 -103 -286t-217.5 -589.5t-140.5 -390.5t-51 -85.5t-71.5 -21.5t-77 21t-69 118t-146 408t-204 557.5t-96.5 264.5z" />
<glyph unicode="W" horiz-adv-x="1797" d="M57 1347q0 58 55 58q61 0 100.5 -40.5t70.5 -123.5t127 -461t118.5 -378t129.5 377l58 203q59 213 71 252l16 49q23 56 49 75t83 19q48 0 80 -99l56 -200q23 -78 43 -152q145 -534 172 -535q15 0 125 411.5t142 484t69.5 96t77.5 23.5t40 -39q0 -30 -45 -181.5 t-150 -533.5l-28 -102q-24 -91 -37.5 -140t-37.5 -142t-34 -122q-35 -104 -116 -104q-68 0 -130 142q-30 68 -126 389l-119 400l-16 35q-11 0 -130 -387t-139 -438t-56.5 -94.5t-80.5 -43.5t-70 28.5t-45 92.5q-323 1092 -323 1181z" />
<glyph unicode="X" horiz-adv-x="1252" d="M117 19.5q0 18.5 190.5 353t190.5 369.5q0 15 -174.5 332t-174.5 337q0 28 91.5 28t147.5 -71q32 -41 135.5 -235t120.5 -194q6 0 103 181t149 250t112 69h29q67 0 67 -17q0 -25 -172 -318.5t-172 -336t186 -375t186 -356.5q0 -35 -91.5 -35t-141.5 63q-33 42 -153.5 264 t-137.5 222q-2 0 -125 -220.5t-154 -259.5q-54 -69 -149 -69q-63 0 -63 18.5z" />
<glyph unicode="Y" horiz-adv-x="1223" d="M114 1394q0 45 60 45h22h2q80 0 133 -71q54 -72 165 -310t131 -238q7 0 121 240t168 308t148 68q46 0 46 -17v-15q0 -6 -182 -370t-188 -381q-30 -85 -30 -331t-12 -284t-87 -39h-24q-60 0 -72 26q-6 13 -6 279v21q0 248 -23 309q-24 64 -198 399q-174 334 -174 361z" />
<glyph unicode="Z" horiz-adv-x="1197" d="M93 90q0 58 99.5 211.5t361 526t261.5 400.5q0 42 -268.5 42t-333.5 15q-93 22 -93 76t18 64t60 10h31l31 -2l99 -4l68 -1l34 -1l276 1q275 0 304 -8q53 -15 53 -70t-362 -584t-362 -557q0 -38 292.5 -38t349 -13t79 -34.5t22.5 -71t-75 -49.5l-263 9l-312 1 q-268 0 -305 7q-65 12 -65 70z" />
<glyph unicode="[" horiz-adv-x="707" d="M196 -49v1331q0 157 39 189t265 32h44q71 0 71 -41q0 -47 -22 -66.5t-107.5 -35.5t-102 -60.5t-16.5 -688t12 -693.5t35 -65t90 -29t90 -31.5t23 -62.5t-69 -45h-67q-211 0 -248 30.5t-37 235.5z" />
<glyph unicode="\" horiz-adv-x="835" d="M48 1469q0 20 64 20t95 -70q127 -289 233.5 -583t228.5 -599.5t122 -330t-65.5 -24.5t-99.5 78q-138 312 -515 1328q-63 170 -63 181z" />
<glyph unicode="]" horiz-adv-x="704" d="M99 -270q0 39 27.5 58.5t86.5 30.5t83.5 24t37.5 56t13 696t-16.5 700.5t-104 69t-107 37t-19.5 62.5q0 37 47 37h82q152 0 197 -15.5t58 -50.5q20 -53 20 -859v-50l1 -101v-478q0 -197 -47.5 -230.5t-280.5 -33.5l-20 1q-58 0 -58 46z" />
<glyph unicode="^" horiz-adv-x="1116" d="M100 740q0 30 338 607q59 101 111 101h16q57 0 104 -81q347 -592 347 -622q0 -16 -54 -16q-81 0 -140 77q-38 50 -146 252.5t-121 202.5q-2 0 -125 -217t-134 -232q-61 -84 -136 -84h-32q-28 0 -28 12z" />
<glyph unicode="_" horiz-adv-x="1086" d="M8 -201q0 33 291 33h731q50 0 50 -33v-53q0 -33 -422 -33h-599q-51 0 -51 43v43z" />
<glyph unicode="`" horiz-adv-x="762" d="M151 1478v8q0 15 50 15q10 2 16 2l28 2h17q77 0 108.5 -37t97.5 -147t66 -128v-4q0 -21 -52 -21h-5q-56 0 -120.5 57t-179.5 205q-26 33 -26 48z" />
<glyph unicode="a" horiz-adv-x="1069" d="M142 859v18q0 53 118 109t246 56h51q147 0 242 -78.5t95 -216.5v-23l-28 -466q0 -42 11 -94.5t11 -89.5t-15.5 -53.5t-75 -16.5t-90 37t-41 37t-48 -24.5t-50.5 -31.5q-76 -40 -159 -40q-266 0 -266 278q0 260 399 364q84 22 104 33q63 33 63 94t-49.5 104t-133.5 43 t-175.5 -51t-141.5 -51q-67 0 -67 63zM298 248q0 -46 37.5 -75.5t90.5 -29.5h7q120 0 204 84q59 59 59 136q4 24 4 32l3 38v47q0 30 -33 30q-137 0 -275 -88q-97 -62 -97 -143v-31z" />
<glyph unicode="b" horiz-adv-x="1146" d="M150 1346v24q0 78 23 102t76 24h21q47 0 62 -32t15 -82l-7 -277q0 -125 26 -125q10 0 38 14q101 52 195 53q188 0 299.5 -149.5t111.5 -399.5v-25q0 -216 -111 -346.5t-260 -130.5q-66 0 -156 37.5t-98 37.5t-39 -13.5t-48 -13.5q-78 0 -96 54q-11 34 -11 241t-17 459 t-17 297l-4 90zM378 513l1 -11v-22l3 -64q1 -11 1 -21q0 -115 48.5 -181t127.5 -66h36q37 0 84 28t78 87q60 113 60 253v46q-2 24 -2 34q0 122 -64.5 210t-153.5 88h-9q-43 0 -90 -28t-72 -71q-48 -82 -48 -271v-11z" />
<glyph unicode="c" horiz-adv-x="1030" d="M101 480v50q0 222 132 367.5t342 145.5h23q119 0 220.5 -48t101.5 -117q0 -24 -22 -50t-49.5 -26t-123 45t-158.5 45q-138 0 -204.5 -106t-66.5 -265t77.5 -259t209.5 -100q72 0 170 49t124 49q58 0 58 -67t-117.5 -129t-240.5 -62h-23q-304 0 -417 286q-36 92 -36 192z " />
<glyph unicode="d" d="M147 443v26q0 256 123 419t320 163q69 0 126 -19t72 -19q28 0 28 181l-3 177q0 119 104 119q54 0 75 -19t21 -102v-119l-1 -23l-1 -67l-2 -45q-1 -23 -1 -43t-9 -159t-11 -183l-4 -71q0 -3 -3 -48l-9 -239l-1 -23q-1 -24 -1 -48l-1 -48v-49q0 -125 -19.5 -149.5 t-66.5 -24.5t-65 15t-31 32.5t-17.5 17.5t-93.5 -53.5t-166 -53.5h-22q-62 0 -126 31t-114 94q-101 127 -101 330zM342 490q2 -22 2 -34q0 -126 75 -228q55 -75 136 -75h27q36 0 84.5 29t74.5 78q43 81 43 275l1 22v11l-1 10l-2 54q0 125 -51 199t-140 74h-27 q-87 0 -154.5 -101.5t-67.5 -243.5v-70z" />
<glyph unicode="e" horiz-adv-x="1092" d="M105 457v48q0 103 41 205q79 197 247 280q108 54 217 54h23q158 0 248 -103.5t90 -225.5t-75 -154q-41 -18 -236 -35l-247 -22q-107 -21 -107 -79q0 -119 82 -191t175.5 -72t212 48.5t150.5 48.5q44 0 44 -52q0 -71 -105 -129q-137 -76 -283 -76h-24q-200 0 -327 135 q-53 56 -89.5 143.5t-36.5 176.5zM314 666q0 -17 44 -17h37l7 1l148 6q230 0 230 26v11q0 95 -69.5 149t-142.5 54h-20q-83 0 -158.5 -67.5t-75.5 -157.5v-5z" />
<glyph unicode="f" horiz-adv-x="725" d="M108 933q0 43 36 81q70 74 78 90t27 122q34 187 171 248q66 29 133 29h46q133 0 133 -79q0 -49 -47 -72q-24 -12 -108 -12q-150 0 -150 -190q0 -61 102 -121q74 -44 74 -109q0 -22 -63 -52.5t-85 -78.5q-31 -68 -31 -276l-2 -47l-3 -186q0 -214 -15.5 -246.5t-92.5 -32.5 h-20q-46 0 -54 28.5t-8 355.5t-11 382t-60.5 100.5t-49.5 65.5z" />
<glyph unicode="g" horiz-adv-x="1137" d="M151 564v63q0 180 99 306q49 63 119.5 100.5t149 37.5t123.5 -20t82.5 -43t55.5 -23l11 6q38 28 85 28t64.5 -25t17.5 -134l-4 -117v-59l-1 -29v-101q0 -114 16.5 -296.5t16.5 -219.5v-27q0 -175 -111 -288q-57 -59 -139.5 -91.5t-172.5 -32.5h-31q-137 0 -252.5 60 t-115.5 127q0 49 61 49q19 0 122.5 -38t210.5 -38t179 80t72 232q0 39 -15 39q-7 0 -38 -20t-73.5 -37.5t-126.5 -17.5q-176 0 -288 144q-50 63 -83.5 163.5t-33.5 221.5zM337 528q0 -132 56 -231.5t141 -99.5h17l8 1q44 0 92 31t87.5 101t39.5 221v32q0 149 -49 236 t-151 87h-17q-87 0 -155.5 -93.5t-68.5 -250.5v-34z" />
<glyph unicode="h" horiz-adv-x="1127" d="M157 1355v28q0 47 22.5 65.5t98.5 18.5q47 0 62 -42.5t15 -216.5l-4 -194q0 -28 23 -28q2 0 32 14q110 54 214 54l3 1q102 -1 168 -45q67 -44 102 -111q53 -102 53 -537l-1 -64v-64l5 -152v-28q0 -42 -97 -42q-60 0 -80 73q-16 57 -16 360t-20 353q-32 79 -122 79 q-48 0 -108 -42t-94.5 -118.5t-34.5 -334t-10 -301.5q-16 -70 -67 -70q-91 0 -107 44q-5 14 -5 369t-14 579l-6 121q-4 88 -6 117z" />
<glyph unicode="i" horiz-adv-x="537" d="M154 1346v27q0 92 69 92q9 3 15 3l24 3h38l42 -7q44 0 44 -54l1 -3l1 -4l3 -34v-4l-1 -4l-3 -30q-1 -4 -1 -8q0 -63 -72 -63l-24 -4h-8l-17 -1h-4l-4 1h-8l-24 2q-12 3 -16 3q-49 0 -49 48q-3 10 -3 15zM158 947v36q0 64 86 64l23 2h45q40 0 49 -64q4 -29 4 -225v-313 l5 -124q2 -24 2 -37l2 -24l1 -51v-75q0 -86 -13 -109.5t-78 -23.5h-34q-57 0 -70 27.5t-13 96.5v82l3 62q1 13 1 25l2 25q1 13 1 37l2 38v232l-1 39v25l-1 39v25q-2 24 -2 36l-7 84l-3 24q-4 46 -4 47z" />
<glyph unicode="j" horiz-adv-x="557" d="M-61 -347q0 48 21 67t79.5 34t87.5 36t49.5 79t20.5 399.5t-3 396.5t-15 156.5t-12 144t23.5 60.5t93.5 18h33q41 0 54.5 -90.5t13.5 -287.5v-569q0 -275 -68 -385q-39 -62 -106.5 -96t-137.5 -34h-17q-117 0 -117 71zM171 1349v15q0 97 77 97l4 1l3 1l37 3h12l25 -2 l27 -5q47 0 47 -55q4 -16 4 -22l1 -16v-15q0 -94 -65 -94l-19 -4l-25 -3h-33l-31 4q-58 0 -58 54q-4 12 -4 18z" />
<glyph unicode="k" horiz-adv-x="1055" d="M143 1425q0 74 72 74h28q57 0 75 -43.5t18 -149.5l2 -63v-191l1 -95q0 -311 20 -311q37 0 169.5 132.5t165.5 156.5q70 51 141 51t71 -23q0 -12 -138 -160.5t-138 -197.5q0 -74 187.5 -314.5t187.5 -261.5q0 -14 -91.5 -14t-150.5 59q-36 36 -164 220.5t-155 184.5 q-51 0 -51 -199q0 -110 -31.5 -159.5t-107 -49.5t-85.5 57q-20 113 -20 789v194l-1 64v128l-2 31z" />
<glyph unicode="l" horiz-adv-x="552" d="M157 1376v50q0 46 22.5 61t89.5 15h31q51 0 60 -93q3 -32 3 -492l1 -53v-177l1 -17v-35l1 -18v-35l1 -52l2 -68q0 -55 18.5 -203t18.5 -153v-32q0 -53 -17.5 -65t-89.5 -12l-16 1q-52 0 -69.5 20.5t-28.5 90t-11 415.5v514q0 139 -8.5 230.5t-8.5 107.5z" />
<glyph unicode="m" horiz-adv-x="1668" d="M142 148v209q0 368 28 558q7 47 15 60q20 32 68 32t75 -34l16 -24q23 -35 29 -35q27 0 106 37.5t162 37.5q132 0 220 -79q49 -43 68 -43q6 0 67.5 50.5t119.5 76t134.5 25.5t140.5 -42.5t102 -148.5t38 -560l1 -84v-42q0 -75 -24 -96.5t-70 -21.5t-66 29t-20 153l-1 37 q-4 120 -4 204q0 251 -40 334.5t-141 83.5q-48 0 -93.5 -32.5t-70 -89t-36.5 -219t-19 -274t-9 -126.5q-13 -57 -99.5 -57t-103 30.5t-31.5 326t-26 334.5q-30 111 -108 111q-59 0 -114 -33.5t-89.5 -106.5t-40.5 -328.5t-15 -304t-27.5 -59t-58 -10.5t-61.5 20.5t-22 100.5 z" />
<glyph unicode="n" horiz-adv-x="1126" d="M133 93v217q0 37 8 141t8 296t10 221q15 43 79 43t85 -26q8 -10 20.5 -39.5t22.5 -29.5q15 0 63 32t66 41q90 45 176 45q175 0 254 -129q60 -97 60 -390l2 -26l1 -27q1 -27 1 -53l11 -208v-121q0 -50 -49 -50h-24q-83 0 -106.5 67t-23.5 323t-45 363q-75 89 -156 107 q-63 0 -126 -42t-98.5 -120t-35.5 -337t-26 -308.5t-116 -49.5q-61 0 -61 60z" />
<glyph unicode="o" d="M146 501v18q0 225 109 377q62 87 146.5 130.5t168.5 43.5h47q77 0 153 -38q157 -78 218 -266q33 -102 33 -200v-36l-1 -18q0 -223 -123 -378t-315 -155h-16q-92 0 -170 39q-163 82 -221 280q-29 100 -29 203zM342 532l1 -11v-12q0 -137 58 -247q31 -59 80.5 -90t86.5 -31 h38q34 0 80.5 29t79.5 88q59 105 59 246v48q-2 22 -2 34q0 123 -69 223t-173 100l-10 -1q-100 0 -164.5 -110t-64.5 -266z" />
<glyph unicode="p" horiz-adv-x="1152" d="M152 -230l1 23q0 124 18.5 401.5t18.5 396.5l2 47l1 47v48l1 72q0 161 10 181q21 41 92 41q40 -1 66 -39t34 -38t40 23q119 87 209 87h22q83 0 155 -44t122 -118q72 -106 72 -305v-53q0 -104 -36 -210q-70 -208 -222 -287q-84 -44 -191 -44q-43 0 -119 19.5t-79 19.5 q-27 0 -27 -128l9 -198q0 -61 -24 -84t-80 -23t-75.5 17.5t-19.5 54.5v93zM381 458l4 -64q0 -116 54.5 -179.5t134.5 -63.5h18q88 0 157.5 94.5t69.5 225.5l2 23l1 35v12l-1 12q0 139 -56.5 239.5t-145.5 100.5h-27q-88 0 -148 -82t-60 -212l-2 -22l-1 -43v-76z" />
<glyph unicode="q" horiz-adv-x="1154" d="M147 520v52q0 209 111.5 348t272.5 139h21q56 0 142 -43t91 -43t38 21.5t54 21.5q64 0 80 -37.5t16 -232.5l1 -71l2 -95l1 -24q1 -24 1 -36.5t8 -196.5l6 -137q3 -46 4.5 -77.5t10.5 -161.5t9 -199v-69q0 -42 -20 -59.5t-79 -17.5t-79 34t-20 131l1 43l1 21l1 45v45 q0 137 -23 137q-12 0 -52 -18q-42 -18 -78 -29q-35 -12 -113 -12q-3 1 -7 1q-84 0 -161 42q-142 79 -205 260q-35 103 -35 218zM340 504q0 -155 65 -252t156 -97h9q95 0 164 94q47 64 47 192q4 40 4 54v88q0 164 -49 242.5t-158 78.5l-9 -1q-93 0 -161 -102.5t-68 -249.5 v-47z" />
<glyph unicode="r" horiz-adv-x="782" d="M150 51v47l1 17l1 33v331q0 419 6.5 460t23 63t73.5 22t81 -18q26 -18 42 -46q16 -30 22 -30t30 22q100 88 178 88q121 0 121 -84q0 -67 -28.5 -87.5t-108.5 -20.5t-117 -21q-60 -34 -96.5 -115.5t-36.5 -358.5t-16 -313.5t-117 -36.5h-15q-44 0 -44 48z" />
<glyph unicode="s" horiz-adv-x="944" d="M93 169q0 64 65 64h1q34 0 125 -47q93 -48 185 -48t138 40t46 102.5t-77 113.5q-22 14 -166 76t-196 110q-90 82 -90 204t100 195t239 73h27q113 0 215 -44t102 -97q0 -70 -90 -70h-1q-12 0 -92 33q-82 34 -150 34t-117 -28t-49 -88t66 -105q30 -21 176 -83t205 -116 q87 -80 87 -194v-25q0 -109 -99 -192t-255 -83h-27q-143 0 -255 55q-113 55 -113 120z" />
<glyph unicode="t" horiz-adv-x="738" d="M88 967q0 50 42 64q69 24 81 39.5t23.5 105.5t24.5 115q26 50 75 50h16q40 0 54 -38q1 -3 13 -92t39 -121t79 -42t69.5 -20.5t17.5 -47.5q0 -60 -67 -78q-93 -26 -111 -68q-29 -67 -29 -303t26.5 -290.5t113 -83.5t86.5 -78t-36 -66.5t-115.5 -17.5t-138 36t-92.5 108 t-34 351t-17 332t-68.5 74t-51.5 71z" />
<glyph unicode="u" horiz-adv-x="1122" d="M127 876l1 24v24q0 104 42 104h24q94 0 120 -72q17 -46 17 -318t29.5 -352t74 -107.5t105 -27.5t120.5 42.5t94 121t34 340.5t25 313.5t138 51.5q40 0 40 -104v-119q0 -47 -3 -99l-4 -52q-7 -121 -7 -328t-9 -229q-19 -48 -114 -48q-35 0 -57.5 36t-38.5 36 q-4 -1 -44 -27q-126 -83 -221 -83h-2h-26q-83 0 -151 36.5t-109 100.5q-65 101 -65 371z" />
<glyph unicode="v" horiz-adv-x="1021" d="M39 1011q0 19 57 19t97.5 -25t74.5 -87.5t136.5 -349t114.5 -286.5t121 293t133 338q62 117 158 117q50 0 50 -22q0 -94 -356 -911q-38 -88 -95 -88h-21q-72 0 -115 94q-18 38 -112 292t-168.5 419t-74.5 197z" />
<glyph unicode="w" horiz-adv-x="1500" d="M44 1000q0 23 37 23h30q84 0 140 -111q27 -53 107 -319.5t104 -266.5q17 0 99 272t96 314l13 34q31 67 105 67q48 0 73 -54q17 -36 105.5 -334.5t114.5 -298.5q14 0 98.5 273t100.5 304q59 118 132 118q56 0 56 -27.5t-44 -146.5t-137.5 -419.5t-99.5 -317.5 q-32 -86 -119 -86q-50 0 -102 116q-26 59 -109.5 308.5t-89.5 249.5q-17 0 -96.5 -246.5t-117.5 -321.5q-52 -103 -102 -103q-82 0 -116 92q-3 8 -58 185l-22 74q-74 237 -136 413.5t-62 208.5z" />
<glyph unicode="x" horiz-adv-x="1036" d="M100 20q0 20 146 254q147 236 147 256q0 23 -133 248q-134 226 -134 248t96 22h23q59 0 109 -60q24 -28 94 -152t83 -124q4 0 82 129t101 157q41 50 115 50t74 -27q-1 -11 -129 -216t-128 -271l154 -261q135 -228 135 -251t-86 -23t-122 36q-35 37 -125 191t-100 154 q-2 0 -96 -156t-130.5 -190t-141.5 -34q-34 0 -34 20z" />
<glyph unicode="y" horiz-adv-x="1035" d="M112 978.5q0 56.5 75.5 56.5t136.5 -119q27 -54 112.5 -319.5t92.5 -265.5q20 0 111 277.5t111 322.5q50 110 126 110q55 0 55 -31v-17q0 -21 -178.5 -547t-205.5 -582q-127 -263 -310 -263q-93 0 -93 55q0 44 35 76q6 6 96 55q51 28 97 95t46 170t-153.5 486.5 t-153.5 440z" />
<glyph unicode="z" horiz-adv-x="993" d="M84 78.5q0 55.5 271.5 412t271.5 382.5q0 18 -207 18t-260.5 21t-53.5 80q0 53 64 53h23l99 -4q77 -3 104 -3h211q216 0 236 -3q53 -8 53 -48q0 -61 -54 -139t-135.5 -182t-217 -286t-135.5 -196q0 -27 213.5 -27t280 -19.5t66.5 -81.5q0 -54 -63 -54h-23q-16 0 -49 2 l-50 3q-75 3 -103 3l-159 1h-79q-239 0 -261 4q-43 8 -43 63.5z" />
<glyph unicode="{" horiz-adv-x="752" d="M101 585q0 44 11 57.5t44.5 26.5t39.5 16q43 22 71.5 68.5t28.5 200.5l-6 179q0 183 83.5 277.5t237.5 94.5h21q32 0 32 -31q0 -50 -17.5 -72t-74 -51.5t-84.5 -74t-28 -173.5l6 -177q0 -122 -27.5 -179.5t-49.5 -77.5t-59 -48t-37 -29q0 -6 26 -23q78 -51 112.5 -118 t34.5 -216l-5 -178q0 -100 25.5 -148.5t101 -91.5t75.5 -106q0 -38 -43 -38h-23q-73 0 -136.5 29.5t-102.5 79.5q-67 86 -67 278l6 204q0 107 -29 160t-84 78q-83 39 -83 83z" />
<glyph unicode="|" horiz-adv-x="655" d="M250 -209v735l1 20v61l-1 41v795q0 84 57 84h53q46 0 46 -95v-40l-1 -21v-223l-1 -21v-1405q-5 -65 -54 -65h-54q-46 0 -46 134z" />
<glyph unicode="}" horiz-adv-x="750" d="M94 -291q0 63 59 97q94 55 114 93q30 57 30 184l-3 75q-3 77 -3 102q0 120 30 177.5t52.5 78t57 45.5t34.5 30.5t-24.5 22t-56.5 42t-61.5 85t-29.5 208.5l3 76q3 76 3 101q0 103 -26 145.5t-67 69.5l-37 21q-39 22 -56.5 42.5t-17.5 66.5q0 34 45 34h22q76 0 141 -38 t102 -95q54 -82 54 -284l-1 -25l-3 -51q-3 -77 -3 -102q0 -109 30.5 -159.5t85.5 -74.5q80 -35 80 -88.5t-67 -80t-98.5 -82.5t-31.5 -208l1 -25q5 -125 5 -154q0 -249 -172 -335q-60 -30 -125 -30h-21q-45 0 -45 36z" />
<glyph unicode="~" horiz-adv-x="1193" d="M98 602v12q0 84 89 164t196 80l13 -1q75 0 227 -85t206.5 -85t116 73t105.5 73t44 -50v-12q0 -85 -87 -163t-172 -78h-37q-64 0 -217 85.5t-212.5 85.5t-122 -74t-106 -74t-43.5 49z" />
<glyph unicode="&#xa1;" horiz-adv-x="649" d="M194 1053v11l1 4v7l3 24q4 12 4 20q0 33 40 33q20 5 26 5l31 3h47l5 -1l31 -3q16 -4 26 -4q34 0 34 -34q3 -9 3 -10l2 -13v-7l2 -18v-22l-2 -17l-4 -21q0 -39 -41 -39q-25 -5 -26 -5l-23 -2l-5 -1h-9l-19 -1h-5l-4 1h-19l-36 4q-13 3 -17 3q-38 0 -38 34l-3 10l-3 21v7z M227 -148l1 12l1 25v25l2 74v25l6 160v24l2 37v25l4 87v25l4 100l1 13l3 74v25q0 121 10 153t43 32h29q44 0 51 -57q18 -138 18 -507l1 -12v-25l3 -86v-49l2 -37v-25l1 -25v-25l1 -25v-25l1 -37v-59q0 -58 -75 -58h-39q-70 0 -70 64v72z" />
<glyph unicode="&#xa2;" horiz-adv-x="1181" d="M231 571q0 267 101 399q58 76 196 121l44 14q62 22 80.5 35t54.5 94t72 81q21 0 29 -30q30 -115 55 -137q96 -84 96 -150.5t-80 -66.5q-25 0 -61 8.5t-51 8.5q-61 0 -84 -91q-59 -231 -59 -459q0 -119 91 -119q35 0 93.5 20t95.5 20q57 0 57 -67t-101.5 -123.5 t-131.5 -98.5q-75 -104 -95 -104q-30 0 -46 29q-60 111 -111 162q-165 165 -172 177q-73 125 -73 277zM399 597l1 -9l3 -55q0 -75 43.5 -162t80.5 -87t37 160v16l7 114q0 50 26.5 191t26.5 167v15q0 35 -20 35l-6 -1h-6q-20 0 -66 -34.5t-86.5 -115.5t-40.5 -206v-28z" />
<glyph unicode="&#xa3;" horiz-adv-x="1167" d="M162 105q0 43 56 119q108 146 109 316q0 62 -64 105t-64 105q1 22 25 62q24 38 34 62t29 162q35 252 216 334q86 40 180 40h33q112 0 197 -39t85 -80q0 -76 -76 -76q-20 0 -105 18.5t-138 18.5q-85 0 -146.5 -75t-61.5 -192q0 -73 22.5 -100.5t125.5 -77t103 -83.5 q0 -57 -63 -82q-113 -45 -138 -89q-12 -21 -44.5 -144t-32.5 -145q0 -57 57 -73q22 -6 212.5 -6t242.5 -16q83 -25 83 -91.5t-127 -66.5h-93q-13 0 -156 10.5t-210 10.5l-196 -8q-49 0 -72 19t-23 62z" />
<glyph unicode="&#xa4;" horiz-adv-x="1201" d="M207 266.5q0 17.5 52.5 86.5t52.5 103q0 9 -9 39l-7 20q-25 81 -25 158t21.5 161t21.5 100t-52.5 78.5t-52.5 84.5t31.5 59.5t49 37.5t64 -56t75.5 -56q6 0 37 14.5t62 26.5t91 12t111 -24.5t71 -24.5t67.5 53t64.5 53t44 -33.5t27 -51t-54 -84t-54 -98.5q0 -10 8 -38 l6 -20q10 -34 18.5 -67.5t8.5 -96t-9 -101.5t-22 -83t-13 -66t53 -84t53 -84t-30 -59.5t-48 -37.5t-64.5 56t-75.5 56l-78 -33q-50 -21 -101.5 -21t-73.5 7t-61 23.5t-58.5 16.5t-68 -52t-63 -52t-42.5 30t-28 47.5zM401 680q0 -111 56 -191.5t133 -80.5h28q75 0 130.5 80 t55.5 166l2 19v37q-2 18 -2 27q0 83 -57.5 159.5t-129.5 76.5h-27q-80 0 -134.5 -85t-54.5 -189v-19z" />
<glyph unicode="&#xa5;" horiz-adv-x="1191" d="M195 1394q0 37 39 37q95 0 140 -75q29 -49 127 -283.5t99 -234.5q12 0 113 241.5t126 281.5q42 68 137 68q20 0 20 -33t-93.5 -242.5t-93.5 -265t36.5 -101.5t36.5 -79t-72.5 -84.5t-72.5 -83.5t86 -73t86 -66q0 -43 -61 -67q-130 -50 -133 -54q-26 -35 -33.5 -138 t-13.5 -115q-15 -29 -74 -29h-30q-33 0 -46.5 18t-13.5 116t-25.5 134.5t-116 55.5t-90.5 71q0 32 92.5 67t92.5 85q0 28 -78 74.5t-78 92.5q0 28 40 77t40 92t-93 244.5t-93 268.5z" />
<glyph unicode="&#xa6;" horiz-adv-x="694" d="M277 277v91q0 62 48 62h51q41 0 46 -27q3 -15 3 -207v-305l1 -9v-37l1 -27v-63q0 -53 -40 -53h-73q-36 0 -36 366v173zM277 826v118l1 9v315l-1 37v126q2 18 2 25q0 29 52 29h44q52 0 52 -66v-72l-1 -9v-18l-1 -27v-180q0 -316 -4 -334.5t-56 -18.5h-22q-46 0 -56 10 t-10 56z" />
<glyph unicode="&#xa7;" horiz-adv-x="1113" d="M189 -40q0 66 75 66q13 0 114.5 -46t177 -46t126 38.5t50.5 104.5t-59 122q-9 8 -156 100t-204 160q-90 107 -90 255q0 71 39.5 144.5t39.5 91.5t-41.5 89t-41.5 146q0 119 89 200t234 81h34q121 0 247 -59q88 -41 88 -104.5t-59 -63.5q-34 0 -124 44t-165 44t-123 -36.5 t-48 -100.5t65 -119q6 -5 192 -121q106 -66 171.5 -149.5t65.5 -216.5q0 -74 -39.5 -153t-39.5 -98q0 -3 44 -86.5t44 -160.5q0 -118 -90.5 -204t-248.5 -86h-34q-122 0 -240 58q-93 46 -93 106zM353 718q0 -80 85 -157q163 -147 246 -147h6q23 0 55 32t32 73v25 q0 72 -80 137q-198 162 -261 162h-5q-25 0 -51.5 -30t-26.5 -76v-19z" />
<glyph unicode="&#xa8;" horiz-adv-x="895" d="M180 1372v28l1 4v8l5 38q0 45 45 45l6 2l23 3h26l4 -1l22 -3q3 -1 6 -1q36 0 36 -34q3 -9 3 -11l4 -38v-40l-1 -4v-8l-3 -27q-3 -11 -3 -15q0 -35 -34 -35q-12 -4 -15 -4l-20 -3h-33q-15 5 -29 5q-35 0 -35 35q-3 10 -3 14l-2 8zM582 1379v20l1 4l3 31q3 12 3 19 q0 42 48 42l6 2l29 3h7l3 -1l29 -3q16 -4 19 -4q26 0 26 -31q3 -10 3 -15l4 -30v-8l1 -16v-4l-1 -4v-12l-4 -35l-3 -18q0 -38 -40 -38q-16 -4 -19 -4l-17 -2h-20q-71 0 -71 43q-2 8 -2 11l-4 30v8z" />
<glyph unicode="&#xa9;" horiz-adv-x="1579" d="M200 681v24q0 130 46 258.5t133 228t199 152.5t220 53h20q243 0 405 -194q71 -85 116 -217t45 -263v-71q0 -118 -44 -253q-82 -255 -294 -358q-113 -55 -215 -55h-19l-20 1q-124 1 -236 61q-233 126 -318 385q-38 117 -38 248zM304 677q0 -242 141 -414 q71 -87 162.5 -134.5t178.5 -47.5h33q93 0 184.5 47.5t159.5 130.5q144 176 144 426v20q0 127 -42 239q-82 219 -263 314q-87 45 -187 45h-16q-196 0 -345 -176q-71 -84 -110.5 -198.5t-39.5 -231.5v-20zM443 678v21q0 182 105 300q50 57 119 86t137 29h38q82 0 165 -43 t83 -91.5t-48 -48.5q-19 0 -85 35.5t-134 35.5q-94 0 -154 -87t-60 -233t67.5 -222t168.5 -76q56 0 121 39t80 39q57 0 57 -39q0 -56 -89.5 -106t-185.5 -50q-180 0 -282 115t-103 296z" />
<glyph unicode="&#xaa;" horiz-adv-x="794" d="M138 1340v10q0 18 27 33q106 58 225 58h36q105 0 168.5 -47t63.5 -123v-30l-32 -301q0 -28 6.5 -60.5t6.5 -76.5t-81 -44q-25 0 -44.5 19.5t-27.5 19.5t-25 -10q-62 -38 -122 -39h-26q-78 0 -121 55q-26 33 -26 127.5t67.5 153t210.5 99.5q55 15 70 25t15 49.5t-38 61.5 t-88 22t-121.5 -26.5t-94.5 -26.5q-49 0 -49 51zM257 924q0 -46 70 -46h5l4 1l25 2l24 4q35 0 82 39t47 72q2 8 2 11l3 18v10l1 13v12q0 14 -12 14h-6q-24 -8 -64 -8t-110.5 -40t-70.5 -89v-13z" />
<glyph unicode="&#xab;" horiz-adv-x="1076" d="M116 579q0 22 150 191q26 29 53 64q125 161 170 161h9q43 0 43 -46.5t-130 -202.5t-130 -177q0 -10 130 -166t130 -208v-8q0 -38 -42 -38t-84 42q-112 112 -263 317q-36 49 -36 71zM521 571.5q0 18.5 168 220t203 201.5q52 0 52 -42q0 -51 -129 -206t-129 -176 q0 -2 129 -165.5t129 -206.5v-9q0 -38 -43.5 -38t-211.5 201.5t-168 220z" />
<glyph unicode="&#xac;" horiz-adv-x="1257" d="M105 758q0 40 27 40h14l45 -3q45 -3 62 -3h372q433 0 458 -11q44 -19 44 -231q0 -63 5 -141l13 -130v-13q0 -27 -12 -27h-13q-76 0 -105 36.5t-29 152.5q0 177 -55 204q-38 19 -392 19t-376 5q-58 13 -58 102z" />
<glyph unicode="&#xad;" horiz-adv-x="811" d="M103 548v53q0 61 36 69q13 3 273 3l95 1h149q53 0 53 -58v-53q0 -71 -42 -71h-140l-16 -1h-142l-24 -1h-95l-31 -1h-48q-68 0 -68 59z" />
<glyph unicode="&#xae;" horiz-adv-x="1472" d="M246 752v44q0 127 42 249q85 249 264 355q99 58 207 58h34q188 0 344 -202q66 -86 101.5 -208.5t35.5 -227.5v-44q0 -132 -42 -252q-86 -251 -278 -356q-89 -49 -192 -49h-17q-95 0 -188 48q-187 97 -271 338q-40 114 -40 247zM352 762q0 -210 132 -377q49 -62 121 -101 t151 -39h14q165 0 281.5 161t116.5 381v18q0 222 -119.5 379t-286.5 157l-13 -1h-14q-73 0 -145.5 -47t-126.5 -122.5t-82.5 -173.5t-28.5 -182v-53zM543 711v45l4 58q1 17 3 31t6.5 81t4.5 69l2 31l1 47q0 65 28 76q39 15 161 15h38q186 0 186 -198q0 -106 -89 -179 q-36 -29 -36 -37.5t21.5 -47t56.5 -105.5l41 -82q14 -27 21 -39l20 -32v-6q0 -5 -45 -5t-63.5 17.5t-68.5 114t-66 119t-70 22.5q-36 0 -36 -54q0 -2 1 -34t1 -62l2 -30l1 -42q0 -58 -29 -58h-24q-38 0 -48.5 13.5t-10.5 87.5zM626 895q0 -44 7.5 -53t57.5 -9h40l5 1l52 3 q14 3 19 3q38 0 72 28.5t34 65.5v17q0 43 -42.5 67.5t-97.5 24.5h-46l-5 -1h-10l-10 -1h-9l-33 -4q-34 0 -34 -75v-67z" />
<glyph unicode="&#xaf;" horiz-adv-x="901" d="M73 1418v45q0 33 383 33l241 2h62q70 0 70 -48v-30q0 -40 -54 -40h-285l-17 -1h-169l-36 -1h-142q-53 0 -53 40z" />
<glyph unicode="&#xb0;" horiz-adv-x="880" d="M154 1121v26q0 122 97.5 219.5t208.5 97.5h26q74 0 138 -53.5t64 -140.5v-34q0 -107 -93.5 -208t-212.5 -101h-35q-81 0 -137 62t-56 132zM295 1171q0 -53 33.5 -99.5t77.5 -46.5h21q34 0 75.5 41.5t41.5 93.5q4 20 4 27v28q0 50 -31 99.5t-73 49.5l-21 3h-4 q-42 0 -83 -47.5t-41 -110.5v-38z" />
<glyph unicode="&#xb1;" horiz-adv-x="1248" d="M117 762v15q0 45 34 53q13 3 184 3t188 16t17 140t8.5 140.5t72.5 16.5h19q59 0 69 -25q5 -12 5 -137.5t17.5 -138t188.5 -12.5t188 -4q30 -7 30 -61t-28 -62.5t-194 -8.5t-184 -15.5t-18 -136.5t-8.5 -138.5t-51.5 -17.5h-58q-40 0 -48 19t-8 141.5t-23 139.5 q-11 8 -180 8t-194.5 8t-25.5 57zM119 84v18q0 65 65 65h59l12 -1l779 1h36q66 0 66 -44v-37q0 -56 -53 -56h-909q-55 0 -55 54z" />
<glyph unicode="&#xb2;" horiz-adv-x="802" d="M118 1361q0 42 99 90t201 48q102 -1 169 -57t67 -152t-64 -177q-37 -47 -158 -152t-121 -137q0 -16 139 -16t168 -9q56 -17 56 -75v-14q0 -26 -34 -26h-14q-8 0 -33 3l-34 4q-34 3 -71 5h-171q-191 0 -191 38q0 66 55 134t151 150t139 140q44 58 44 113t-31 85t-88 30 t-126 -39t-103 -39q-49 0 -49 53z" />
<glyph unicode="&#xb3;" horiz-adv-x="808" d="M115 787v12q0 47 51 47q34 0 93 -22t129 -22t108.5 37t38.5 87.5t-36 80.5t-104 44t-79.5 23t-11.5 54q0 31 60.5 49t85.5 38q48 39 48 104q0 22 -24 46t-79 24t-116.5 -18t-96.5 -18q-43 0 -43 44q0 38 97 69.5t194 31.5t143 -34q65 -48 65 -136t-72 -149 q-45 -38 -45 -40q0 -9 50.5 -40t76.5 -71.5t26 -104.5q0 -109 -84.5 -171t-191.5 -62h-41q-116 0 -211 57q-31 19 -31 40z" />
<glyph unicode="&#xb4;" horiz-adv-x="816" d="M253 1228q0 19 30 57.5t53 71.5t27.5 38.5t25.5 38.5q21 34 55 64t121 30h42q45 0 45 -13.5t-33 -51.5q-133 -152 -218 -218q-33 -26 -88 -26l-5 -1l-6 -1l-21 -1h-6q-22 0 -22 12z" />
<glyph unicode="&#xb5;" horiz-adv-x="1147" d="M166 -159l12 349l2 33l1 32l3 197l-8 414q0 98 6 125.5t66 27.5t85.5 -26.5t25.5 -148.5l-2 -32l-1 -32l-2 -129l-1 -33v-67l-1 -67q0 -195 27.5 -258t75.5 -87q26 -13 82 -13t99.5 41.5t64 99.5t36.5 303t39 324t95.5 79t83.5 -28t11 -408l-1 -83q0 -131 8.5 -201 t8.5 -84q0 -88 -69 -88q-50 0 -86 30t-47.5 30t-105 -52t-188.5 -52l-23 1l-40 3q-34 0 -41.5 -142.5t-23.5 -180.5q-22 -53 -92 -53t-85 29.5t-15 116.5v30z" />
<glyph unicode="&#xb6;" horiz-adv-x="1208" d="M243 1064q0 104 31 184q32 80 68 121q80 90 265 90h30q188 0 262 -37q33 -17 33 -67.5t-14 -113.5t-14 -148t24.5 -263.5t24.5 -329.5v-161l-1 -40v-121q0 -307 -5.5 -363t-41.5 -56h-22q-35 0 -44 88q-5 48 -5 314v302l-1 74v75l-2 153l-4 156q-3 119 -3 185t-11 82.5 t-55 16.5t-48 -13t-4 -457t-39 -834q-11 -109 -61 -109q-39 0 -50.5 60.5t-11.5 500.5l-1 40q-1 40 -1 110.5t-14.5 110.5t-103.5 116.5t-120 127.5q-61 102 -61 206z" />
<glyph unicode="&#xb7;" horiz-adv-x="653" d="M233 616v43l2 24l4 27q0 71 93 71h24q12 -3 23 -3q60 0 60 -52q2 -8 2 -13l2 -9v-9l2 -24v-34l-1 -5v-10l-1 -4v-10l-4 -32q0 -67 -69 -67l-20 -3h-32q-15 5 -30 5q-48 0 -48 46l-3 13z" />
<glyph unicode="&#xb8;" horiz-adv-x="822" d="M231 -361q0 49 55.5 49t98.5 23.5t43 60t-43 58t-43 67t33 90.5q14 19 45 19l14 2h20q15 0 15 -23l-6 -49q0 -13 17 -25t53.5 -52.5t36.5 -88.5v-7l-1 -7q0 -76 -78 -118q-58 -31 -167 -31l-16 -1h-24q-53 0 -53 33z" />
<glyph unicode="&#xb9;" horiz-adv-x="761" d="M192 1357v8q0 27 43 50q128 68 140 68h31q38 0 52.5 -27.5t14.5 -120.5l4 -48q3 -36 3 -49v-25l1 -25v-65q0 -151 6.5 -172.5t19.5 -42.5t24 -47t11 -78t-37 -89q-17 -17 -58 -17h-52q-50 0 -89 50q-21 27 -21 91q0 28 47 122q16 32 16 164.5t-31 173.5 q-10 13 -67.5 27.5t-57.5 51.5z" />
<glyph unicode="&#xba;" horiz-adv-x="816" d="M162 1074v37q0 159 70.5 255t174.5 96h29q98 0 166 -93t68 -231v-75q0 -137 -69 -231t-175 -94h-18l-10 1q-107 0 -171.5 97t-64.5 238zM295 1080l1 -8q0 -87 30 -146.5t82 -59.5h15q51 0 83 64.5t32 166.5v23l-1 7l-1 22l-2 28q0 49 -30 103t-74 54h-20q-39 0 -75 -54 t-36 -120q-2 -14 -2 -21l-2 -14v-45z" />
<glyph unicode="&#xbb;" horiz-adv-x="1076" d="M144 195q0 41 131 209.5t131 176t-130.5 164.5t-130.5 204t41 47h8q32 0 196 -208t164 -213q0 -19 -167.5 -220t-194.5 -201q-48 0 -48 41zM547 193.5q0 41.5 132 209t132 176.5t-131.5 167t-131.5 211q0 41 48 41q26 0 194.5 -202t168.5 -220q0 -7 -199 -259 q-130 -165 -171.5 -165t-41.5 41.5z" />
<glyph unicode="&#xbc;" horiz-adv-x="1638" d="M155 1265v6q0 23 46 49q140 79 162 79h9q59 0 59 -112l2 -22l5 -112v-93q0 -125 3 -145t14 -73t11 -96v-12q0 -69 -23 -101q-9 -12 -67 -12l-10 -1q-53 0 -72.5 33t-19.5 86.5t14 123.5t14 164t-18 127.5t-73.5 63t-55.5 47.5zM315 -17q0 13 803 1351q42 70 102 70h16 q40 0 40 -8.5t-53 -99.5q-536 -923 -760 -1265q-37 -56 -93 -56h-15q-40 0 -40 8zM935 236v25q0 31 217 335q122 171 148 171h34q69 0 69 -57q-8 -104 -8 -156l-2 -26l-3 -78l-2 -63q0 -80 6.5 -90t54 -20.5t47.5 -50.5v-33q0 -27 -50 -27q-39 0 -39 -62l3 -36q2 -25 2 -38 q0 -54 -103 -54q-34 0 -34 45l1 24l1 12l1 37q0 47 -14 59t-129 12h-34q-22 2 -76 2t-72 14.5t-18 54.5zM1045 280q0 -2 5 -2h88q100 0 112.5 18.5t12.5 88.5v75l1 14v9l1 5v9l4 55v26l-1 3q-5 0 -27 -35t-38 -57.5t-24 -35.5t-19.5 -28t-27.5 -40.5t-51.5 -61t-35.5 -41.5 v-2z" />
<glyph unicode="&#xbd;" horiz-adv-x="1626" d="M140 1273v7q0 26 44 51q137 77 155 77h17q61 0 61 -100q6 -66 6 -100l1 -23v-106q0 -121 3 -152.5t14 -75.5t11 -89v-35q0 -60 -21 -91q-9 -13 -48 -13h-39q-84 0 -84 137q0 35 15 110t15 169.5t-19.5 127.5t-75 61t-55.5 45zM285 -14q0 16 31 68q311 518 462 778 t304 502q45 71 103 71h16q40 0 40 -9.5t-31 -66.5q-286 -522 -767 -1281q-44 -70 -102 -70h-16q-40 0 -40 8zM967 17q0 58 51 120t154.5 151.5t143.5 144.5t40 107.5t-33 84.5t-91.5 32t-124.5 -44t-102 -44t-36 51t90.5 100.5t189.5 49.5h20q100 0 164 -59t64 -149.5 t-51 -155.5t-171.5 -165.5t-120.5 -125.5q0 -18 143 -18t171 -10q45 -16 45 -65v-16q0 -29 -33 -29h-30q-11 0 -34 2l-34 3q-70 4 -72 4h-149q-194 0 -194 31z" />
<glyph unicode="&#xbe;" horiz-adv-x="1683" d="M129 723v13q0 42 58 42q27 0 88 -25.5t126 -25.5t101 39.5t36 89.5t-36 80t-68 36t-64.5 9.5t-49 11t-16.5 52.5q0 35 62 49q132 29 132 130q0 33 -29 56t-82.5 23t-112 -23.5t-86.5 -23.5q-35 0 -35 38q0 44 87.5 79.5t170.5 35.5h19q99 0 152.5 -45.5t53.5 -125.5 t-67 -138q-38 -34 -38.5 -39t45.5 -33q98 -62 99 -170q0 -106 -81 -170q-80 -63 -207 -63h-4l-19 1h-20q-99 0 -183 56q-32 21 -32 41zM405 -13q0 11 376 637.5t425 703.5t96 77h16q46 0 46 -15q0 -4 -48 -87q-526 -905 -760 -1263q-42 -64 -96.5 -64t-54.5 11zM1007 236v25 q0 31 224 345q116 162 140 162h34q53 0 60 -10t7 -72l-2 -52q-6 -78 -6 -118l-2 -26l-4 -102v-25q0 -53 8 -65.5t36 -17.5t34 -7q31 -11 31 -57v-12q0 -33 -44.5 -37.5t-44.5 -41.5l2 -55l2 -25v-25q0 -43 -90 -43h-23q-23 0 -23 56l3 36v49q0 30 -18 37q-35 11 -147 11 t-153 15q-24 9 -24 55zM1117 280q0 -2 8 -2h54l3 1h20q102 0 117 15t15 157l2 23v14l1 5v9l4 55v22l-1 3q-3 0 -13.5 -16.5t-22 -32t-18.5 -27t-27 -39.5t-32 -47t-34 -50l-39 -45q-12 -14 -24.5 -26.5t-12.5 -16.5v-2z" />
<glyph unicode="&#xbf;" horiz-adv-x="1003" d="M125 44v20q0 99 47 183t136.5 173.5t121.5 135.5t33 106l-1 80q0 26 39 26h14q52 0 78.5 -23t26.5 -102t-35 -143t-115.5 -144.5t-118.5 -139.5t-38 -141t54.5 -132t138.5 -50t182 49t124 49q69 0 69 -63v-14q0 -57 -105 -109q-140 -70 -252 -70h-59q-136 0 -238 90.5 t-102 218.5zM441 1007v17l1 4v37l1 5v9l4 31q1 5 1 9q0 65 94 65h23l3 -1l21 -2q4 -1 7 -1l17 -4q26 0 26 -22l1 -4l1 -3l3 -36v-62l-1 -5v-9l-4 -31q-1 -5 -1 -9q0 -65 -95 -65h-26l-38 6q-38 0 -38 71z" />
<glyph unicode="&#xc0;" horiz-adv-x="1299" d="M176 51v18q0 14 157 581.5t209 713.5q29 80 116 80q51 0 73 -16t52 -100.5t108 -371.5t158 -556t80 -330q0 -44 -61.5 -44t-98.5 52t-73.5 162.5t-53.5 123.5q-31 24 -197 24t-195 -29q-18 -18 -50.5 -123t-57.5 -144q-43 -68 -101 -68h-17q-48 0 -48 27zM378 1808 q0 16 58 16h21l6 -1l38 -2l32 -4q45 0 81 -41q175 -200 175 -234v-7q0 -7 -13 -7h-15l-6 1q-86 0 -127 32q-250 194 -250 247zM486 566q0 -19 53 -19l7 1l221 3q7 1 13 1q25 0 25 21q0 55 -45.5 201t-76 268t-34 122t-18.5 -60.5t-34 -122.5t-31.5 -110t-23.5 -83 t-17.5 -63.5t-12.5 -49.5t-9 -33l-8 -32q-9 -36 -9 -38v-6z" />
<glyph unicode="&#xc1;" horiz-adv-x="1297" d="M174 45v18q0 3 149.5 555.5t220.5 750.5q30 83 115 83t105 -61q10 -28 298 -1047q62 -219 62 -275v-17q0 -29 -61.5 -29t-98.5 51.5t-74 162.5t-54 124q-32 24 -196 24t-195 -31q-18 -18 -50.5 -124.5t-56.5 -145.5q-41 -67 -101 -67h-18q-45 0 -45 28zM485 567 q0 -14 45 -14h27l7 1l200 3q7 1 13 1q23 0 23 16v13l-68 272q-11 42 -17 63t-17 66.5t-18 67.5t-18.5 69t-15 47t-11.5 -34l-8 -32q-4 -12 -8.5 -30.5t-12.5 -45t-10 -35.5l-12 -47q-22 -76 -34 -124.5t-38.5 -133t-26.5 -112.5v-11zM523 1556q0 35 169 228q41 47 99 47 q30 6 43 6l21 2h31q46 0 46 -12v-6q0 -46 -244 -236q-42 -33 -96 -33l-16 -3l-27 -2q-26 0 -26 9z" />
<glyph unicode="&#xc2;" horiz-adv-x="1294" d="M165 42v17q0 12 155 572t217 734q30 83 114 83t117 -87t195 -673q162 -584 162 -627q-1 -42 -65 -42q-101 0 -166 199q-43 129 -61 142q-32 24 -199 24t-196 -31q-17 -19 -49.5 -124.5t-57.5 -146.5q-42 -68 -102 -68h-18q-46 0 -46 28zM335 1555v4q0 57 214 238 q37 31 100 31h8q62 0 97 -32q214 -196 214 -236v-5q0 -7 -41 -7h-16l-8 1q-62 0 -107 31q-13 9 -75 71t-72 62t-113 -103q-60 -60 -129 -60l-16 -2h-24q-32 0 -32 7zM479 569q0 -16 27 -16l12 -2h76l7 1h42q154 0 154 25q0 98 -139 543q-15 49 -17.5 49t-29 -106 t-79.5 -276.5t-53 -211.5v-6z" />
<glyph unicode="&#xc3;" horiz-adv-x="1292" d="M166 46v18q0 9 157 576.5t213 728.5q29 83 116 83q50 0 71 -16t40.5 -67.5t133.5 -464t167 -589.5t53 -246q0 -46 -61.5 -46t-98.5 52t-75 163.5t-54 122.5q-36 26 -198.5 26t-192.5 -31q-15 -16 -48.5 -123.5t-58.5 -147.5q-41 -67 -101 -67h-18q-45 0 -45 28zM308 1614 v15q0 50 91 122q47 37 111 37h9q48 0 142.5 -44.5t128 -44.5t70.5 44t82 44t45 -41v-7q0 -53 -66 -108.5t-126 -55.5h-17q-52 0 -137 45t-128 45t-77.5 -45t-71.5 -45h-8q-48 0 -48 39zM477 572q0 -19 45 -19h20l7 1l207 3q6 1 13 1q23 0 23 16v13q0 55 -44 196t-75 265.5 t-34.5 124.5t-24.5 -84.5t-79 -282t-58 -228.5v-6z" />
<glyph unicode="&#xc4;" horiz-adv-x="1293" d="M167 55q0 17 159 592t192.5 671t56.5 115t91 19t96 -79q10 -28 34 -113l33 -118q17 -59 38.5 -138t35.5 -127l13 -48q18 -66 20 -72l34 -122q24 -83 37 -131.5t61 -209.5t48 -222v-19q0 -32 -76 -32q-89 0 -149 189q-41 133 -57 147q-31 27 -195 27t-190 -22 t-60.5 -132.5t-69 -163t-93.5 -52.5t-59 41zM366 1658v16l1 4v12l6 46q0 56 75 56h29l3 -1l24 -3q3 -1 6 -1q25 0 25 -20q2 -6 2 -10l1 -3v-7l3 -26v-43l-1 -4v-8l-1 -4v-8l-4 -26q0 -56 -75 -56h-29l-3 1l-21 3q-15 5 -20 5q-21 0 -21 77zM478 571q0 -19 52 -19h13l7 1h91 q153 0 153 20v13q0 55 -44 196t-75 265.5t-34.5 124.5t-25 -87t-79.5 -284t-58 -224v-6zM756 1636v47l1 4l3 27q1 4 1 8l4 19q0 47 78 47h26l33 -6q26 0 26 -20q4 -16 4 -20l3 -22v-7l1 -12v-20l-1 -4v-12l-6 -46q0 -49 -53 -49l-20 -4h-7l-13 -1h-4l-3 1h-10l-31 5 q-32 0 -32 65z" />
<glyph unicode="&#xc5;" horiz-adv-x="1300" d="M212 13.5q0 26.5 135.5 580.5t205.5 758q26 75 104 75t103.5 -84t126 -486.5t145.5 -561.5t45 -246v-18q0 -35 -55 -35t-87.5 51.5t-68.5 167t-40 119.5q-29 31 -179.5 31t-177 -20.5t-60 -138t-51.5 -150.5q-39 -69 -91 -69h-16q-39 0 -39 26.5zM448 1670v10 q0 58 65.5 101.5t154.5 43.5h13q61 0 120 -33t59 -83v-28q0 -49 -63 -91t-122 -42l-14 -2h-46q-59 0 -113 36t-54 88zM493 552q0 -14 55 -14h31l7 1h50q146 0 146 27v8q0 23 -57.5 253t-67.5 280.5t-14.5 50.5t-10.5 -33t-14 -59.5t-21 -79.5l-8 -34l-5 -17l-12 -51 q-5 -17 -42 -165t-37 -156v-11zM555 1650q3 -6 3 -10q0 -34 53 -34h25l23 4q29 0 62 33t33 59v17q-3 9 -3 11q0 30 -37 30q-6 2 -8 2l-14 2h-15l-3 -1h-7q-6 -2 -21 -2t-53 -30.5t-38 -63.5v-17z" />
<glyph unicode="&#xc6;" horiz-adv-x="1771" d="M157 119q0 18 211 408q66 123 172.5 421t164.5 368t125.5 88.5t289 18.5t305.5 4t114 4q81 0 81 -38q0 -61 -88 -89q-51 -17 -226 -32t-186 -21q-77 -42 -77 -251q0 -73 29.5 -100t189.5 -48.5t161 -21.5q29 -14 29 -81t-46 -92q-17 -9 -177.5 -31.5t-195.5 -40.5 q-58 -30 -58 -105q0 -173 41 -236q26 -40 115 -40l78 2l121 -1h5q234 0 234 -103q0 -54 -97.5 -75t-331.5 -21q-123 0 -170.5 35.5t-52.5 127.5q-8 144 -22 169q-21 38 -157 38t-216 -50q-34 -21 -97 -103.5t-102 -118.5t-102.5 -36t-63.5 51zM534 598q0 -14 110 -14h71 q81 0 98 32q7 13 7 78v78l1 9v18l2 26l2 34q6 48 6 77l2 17v18l1 17v130l2 44v47q0 17 -9 17q-25 0 -69 -100q-224 -512 -224 -523v-5z" />
<glyph unicode="&#xc7;" horiz-adv-x="1292" d="M98 740q0 546 359 700q107 46 261.5 46t286.5 -75q159 -89 159 -183q0 -47 -21.5 -70t-42.5 -23q-1 0 -160.5 72t-252.5 72h-1q-351 0 -351 -555q0 -385 188 -491q66 -37 163 -37t247.5 81.5t181.5 81.5q57 0 57 -85q0 -104 -144 -197t-314 -93q-315 0 -473 204 q-143 185 -143 552zM490 -337q0 18 57.5 26.5t88 33t30.5 55.5t-27.5 49.5t-27.5 52.5q0 84 59 84h44q27 0 41.5 -32.5t17.5 -34.5q20 -13 43.5 -46.5t23.5 -78.5v-7q-2 -14 -2 -20q0 -60 -63 -106t-150 -46h-15l-8 1q-112 0 -112 54v15z" />
<glyph unicode="&#xc8;" horiz-adv-x="1150" d="M198 158v30q0 35 27.5 255t27.5 316.5t-25 293.5t-25 240t23 57.5t147.5 42t426.5 27.5h70q121 0 121 -66q0 -40 -42.5 -60.5t-148.5 -20.5q-292 0 -350 -46t-58 -231q0 -74 57 -91q35 -11 200 -29.5t189.5 -32t24.5 -105.5q0 -65 -60 -81q-6 -2 -168.5 -25t-195.5 -36 q-66 -26 -66 -101q0 -185 54 -263q37 -54 234.5 -54t280.5 -15t83 -66t-58 -64q-36 -8 -240 -8h-105q-220 0 -368 54q-56 20 -56 79zM318 1816v3q0 12 40 12h38q10 -2 16 -2l21 -3q15 -3 20 -3q59 0 101 -48q169 -193 169 -225v-7q0 -7 -13 -7h-19l-20 2l-21 3q-53 0 -98 40 q-234 208 -234 235z" />
<glyph unicode="&#xc9;" horiz-adv-x="1150" d="M200 159q0 61 35.5 281t35.5 316.5t-31.5 288.5t-31.5 233.5t26 58t158 46t440 29.5l35 1q83 0 103.5 -23t20.5 -43q0 -43 -45.5 -58.5t-170.5 -15.5q-266 0 -315 -39q-26 -20 -49 -88t-23 -168q0 -47 47 -63t205.5 -40t181 -37.5t22.5 -105.5q0 -64 -59 -83 q-23 -7 -171.5 -31.5t-184.5 -40.5q-64 -29 -64 -114.5t27 -165.5t52 -101q39 -33 244.5 -33t271 -16t65.5 -62t-61 -58q-34 -7 -207 -7l-71 -2h-35q-216 0 -372 53q-79 27 -79 88zM464 1552v3q0 54 172 226q46 46 122 46q16 3 21 3l27 2h21q45 0 45 -11v-3q0 -47 -244 -237 q-42 -33 -96 -33l-16 -3l-27 -2h-5q-20 0 -20 9z" />
<glyph unicode="&#xca;" horiz-adv-x="1150" d="M194 148v31q0 40 28 260.5t28 316.5t-25 293t-25 245q0 59 109 83q186 41 494 41h70q64 0 93 -15t29 -51q0 -55 -80 -73q-54 -12 -243.5 -12t-235 -58t-45.5 -218q0 -73 58 -91q35 -11 201 -29.5t191 -31.5t25 -107q0 -64 -61 -80q-31 -8 -191 -28.5t-201.5 -45 t-41.5 -90.5q0 -108 24 -186t46 -98q38 -35 233 -35t274 -16t79 -67t-59 -63q-38 -8 -242 -8l-70 -1q-210 0 -379 46q-83 23 -83 88zM278 1562q0 40 214 236q35 32 99 32h8q65 0 104 -36q211 -193 211 -232q0 -7 -61.5 -7t-92.5 20t-94 83t-72.5 63t-74 -64.5t-95 -84 t-95.5 -19.5h-24q-27 0 -27 9z" />
<glyph unicode="&#xcb;" horiz-adv-x="1144" d="M188 141v30q0 2 28.5 262.5t28.5 336.5t-25.5 277t-25.5 243q0 58 77 78q193 49 486 49h106q125 0 125 -63q0 -49 -54.5 -68t-254 -19t-246 -55.5t-46.5 -244.5q0 -50 53 -68q30 -10 197 -29t195.5 -31.5t28.5 -90.5t-57 -96q-14 -4 -185.5 -28.5t-213 -47.5t-41.5 -85 q0 -187 52 -267q38 -58 189 -58q243 0 330 -15.5t87 -65t-53 -63.5q-34 -9 -170 -9l-71 -1l-36 -1h-35l-35 1q-231 0 -373 52q-61 22 -61 77zM305 1655v15l1 4v8l6 46q0 56 75 56h29q18 -6 37 -6q29 0 29 -80v-12l-1 -4v-12l-1 -8v-8l-4 -26q-1 -4 -1 -8q0 -56 -78 -56h-23 l-13 2h-6q-12 4 -17 4q-25 0 -25 21l-2 6l-4 28v7zM699 1646v31l2 19l3 19l4 22q0 43 54 43q6 2 9 2l13 2h29l3 -1l21 -3q3 -1 6 -1q33 0 33 -83l-1 -4v-24l-1 -4v-8l-6 -37q0 -51 -59 -51l-12 -3h-7l-13 -1h-3l-3 1h-13l-21 4q-3 1 -6 1q-25 0 -25 20q-2 6 -2 10l-4 27v7z " />
<glyph unicode="&#xcc;" horiz-adv-x="634" d="M55 1826v4q0 12 36 12h43l17 -2l22 -2q65 0 108 -38l144 -185q38 -49 38 -59v-3q0 -8 -17 -8h-21l-33 4q-56 0 -93 32q-244 214 -244 245zM198 1303v17q0 73 35 108q20 20 91 20h29q63 0 83 -32t20 -87.5t-19.5 -139.5t-19.5 -144l-1 -36v-455l1 -36v-101q0 -56 20 -139 t20 -148t-26.5 -91.5t-82.5 -26.5h-44q-61 0 -82 33.5t-21 90.5t19 135.5t19 145.5v248l-1 55q0 292 -3 346.5t-20 124.5t-17 112z" />
<glyph unicode="&#xcd;" horiz-adv-x="634" d="M188 1300v17q0 72 36 108q20 20 93 20h29q58 0 82 -27t24 -86v-36q0 -22 -21 -112t-21 -204v-269q0 -294 2.5 -333.5t20.5 -117.5t18 -133q0 -126 -97 -126h-59q-62 0 -84 33t-22 91t20 141t20 187v260q0 296 -3 349.5t-20.5 128t-17.5 109.5zM189 1563q0 15 31 55 q125 160 159 190t93 30l27 4l5 1l6 1l21 1h21q44 0 44 -11v-3q0 -24 -248 -241q-34 -30 -91 -30l-16 -3l-27 -2h-5q-20 0 -20 8z" />
<glyph unicode="&#xce;" horiz-adv-x="648" d="M20 1563q0 56 213 236q38 32 100 32h8q61 0 104 -36q209 -177 209 -229v-4q0 -7 -61 -7t-90.5 19t-94 83.5t-74 64.5t-74 -64.5t-95 -84t-94.5 -19.5h-24q-27 0 -27 9zM204 1292v18q0 73 28 101t100 28h15l14 -1q60 0 83 -26t23 -87v-17q0 -54 -20.5 -131t-20.5 -192 v-279q0 -292 2.5 -339.5t20 -112.5t17.5 -133.5t-34 -104.5q-19 -20 -77 -20h-44q-63 0 -84 34t-21 86t19 143.5t19 201.5v521l-1 37q0 68 -19.5 151.5t-19.5 121.5z" />
<glyph unicode="&#xcf;" horiz-adv-x="644" d="M54 1652v27l1 4l3 31q3 12 3 19q0 53 83 53h6l4 -1l25 -2l12 -2q30 0 30 -22q4 -16 4 -20l3 -23v-7l1 -12v-24l-1 -4v-8l-6 -46q0 -47 -48 -47l-6 -2l-25 -3h-20l-3 1l-22 3q-3 1 -5 1q-32 0 -32 29q-2 8 -2 11l-4 25v7zM204 1291v18q0 75 28 101.5t100 26.5h30 q56 0 80 -28t24 -105v-18q0 -28 -20 -114t-20 -132v-64l-1 -36v-238q0 -293 2.5 -335.5t20 -115t17.5 -146.5t-43 -101q-18 -11 -83 -11h-30q-61 0 -82.5 36.5t-21.5 87t19.5 144.5t19.5 206v386l-1 37v145q0 63 -19.5 136t-19.5 120zM444 1646v35l1 4l3 27q4 16 4 22 q0 47 58 47l3 1l4 1l22 2h7l3 -1l34 -4q3 -1 6 -1q24 0 24 -17q4 -12 4 -19l3 -25v-7l1 -12v-15l-1 -4v-12l-6 -46q0 -58 -82 -58h-20l-3 1l-25 3q-3 1 -5 1q-30 0 -30 27l-1 7l-1 3l-2 21v8z" />
<glyph unicode="&#xd0;" horiz-adv-x="1377" d="M166 744q0 70 11.5 81t52.5 23t50 28.5t9 86.5l-2 47q-1 24 -1 46l-21 322q0 43 24 55q25 12 140 12l96 3l40 2h62q263 0 405 -202q73 -104 99 -201t26 -281v-131q0 -128 -49 -255t-129.5 -215.5t-175.5 -128t-234 -39.5h-78l-117 3q-58 0 -85.5 13.5t-27.5 56.5l19 234 q12 192 12 264t-54 87q-72 19 -72 89zM437 1194q0 -234 50 -300q20 -26 113.5 -40.5t114 -32t20.5 -74t-18.5 -69t-112 -27.5t-118.5 -58q-48 -82 -48 -357q0 -45 87 -45h29h4q74 0 160 39q178 80 264 333q32 93 32 206v20q0 177 -124 312q-147 161 -325 161h-46 q-82 0 -82 -53v-15z" />
<glyph unicode="&#xd1;" horiz-adv-x="1377" d="M148 79q0 21 10 109t11 216v233l1 85v125q0 447 1 458q7 80 73 80q53 0 105.5 -29.5t121.5 -123.5t295.5 -473.5t252.5 -379.5q14 0 14 81l-1 43q-1 42 -1 94v114l2 166l1 41l1 83q0 262 30 337.5t122 75.5q38 0 38 -60q0 -22 -12 -122t-12 -288v-398q0 -405 -1 -416 q-7 -71 -79 -71q-54 0 -101.5 30t-101.5 102.5t-301.5 481t-266.5 408.5q-12 0 -12 -435.5t-16 -503t-44 -91.5t-84 -24q-46 0 -46 52zM352 1617v15q0 50 91 121q46 36 112 36t150 -44.5t123.5 -44.5t77.5 45t72 45h8q47 0 47 -39v-7q0 -58 -90 -127q-47 -36 -109.5 -36 t-148.5 45.5t-125.5 45.5t-78.5 -46t-73 -46h-7q-49 0 -49 37z" />
<glyph unicode="&#xd2;" horiz-adv-x="1424" d="M246 707v48q0 163 38 303q114 414 437 415h18q202 0 327 -183q137 -203 137 -526v-25l-1 -24q0 -318 -121 -512q-63 -100 -150.5 -151.5t-181.5 -51.5h-37q-96 0 -183 46q-172 92 -248 369q-35 127 -35 292zM426 689q0 -234 90 -393q73 -132 206 -132h12q56 0 110 37 q53 37 91 103q88 156 88 398v54q0 225 -77 373q-36 68 -89.5 110.5t-115.5 42.5h-12q-131 0 -217 -151t-86 -388v-54zM444 1825q0 15 44 15h43q15 -3 33 -3l33 -5q60 0 97 -48q166 -213 166 -229v-7q0 -9 -28 -9h-11l-6 1h-11q-10 2 -16 2l-23 3q-37 0 -179 126t-142 154z " />
<glyph unicode="&#xd3;" horiz-adv-x="1424" d="M243 668v74q0 152 38 293q78 289 261 390q84 46 186 46h37q81 0 164 -44.5t144 -134t97 -221t36 -284.5v-72q0 -162 -38 -300q-77 -279 -259 -382q-81 -46 -186 -46l-18 1h-18q-80 0 -166 44q-168 87 -240 347q-38 138 -38 289zM426 689q0 -221 84 -382q33 -63 87.5 -103 t112.5 -40h24q57 0 112.5 37.5t94.5 113.5q82 157 82 387v53q0 238 -82 382.5t-212.5 144.5t-216.5 -151.5t-86 -387.5v-54zM597 1557q0 18 30 57q127 163 161 193t101 30q12 2 17 2l27 3h26q52 0 52 -12v-3q0 -52 -246 -243q-46 -36 -125 -36h-27q-16 0 -16 9z" />
<glyph unicode="&#xd4;" horiz-adv-x="1420" d="M233 689v49q0 156 37 294q80 298 260 389q89 46 187 46h37q84 -1 170 -49q173 -98 240 -348q41 -153 41 -312v-48q0 -324 -136 -531q-58 -88 -146 -141t-201 -53q-343 1 -452 407q-37 138 -37 297zM403 1558v5q0 57 215 239q37 31 102 31h8q63 0 98 -32 q215 -197 215 -238v-4q0 -8 -50 -8h-16q-62 0 -107 31q-1 1 -72 66.5t-77.5 65.5t-79 -67t-78.5 -71q-41 -25 -101 -25h-25q-32 0 -32 7zM418 668q0 -215 83 -361t215 -146h12q69 0 126 47.5t89 115.5q76 159 76 376v53q0 235 -82 380t-202 145h-25q-122 0 -207 -151.5 t-85 -387.5v-71z" />
<glyph unicode="&#xd5;" horiz-adv-x="1419" d="M235 693v25l1 24q0 155 38 296q75 279 244 379q92 54 201 54h18q213 0 340 -197q54 -84 89 -214t35 -273v-73q-1 -156 -39 -300q-76 -284 -256 -381q-84 -45 -186 -45h-18q-204 0 -331 178q-62 87 -99 225t-37 302zM380 1628.5q0 52.5 70 107.5t132 55h9q55 0 144 -44.5 t127 -44.5t75.5 44t82.5 44t45 -40l-1 -8v-7q0 -48 -66.5 -104t-124.5 -56h-27q-47 0 -131 44.5t-124.5 44.5t-81 -44t-85 -44t-44.5 52.5zM420 707q0 -239 72 -377q86 -166 211 -166h25q65 0 118 42t88 109q82 157 82 405v18q0 243 -78.5 393.5t-202.5 150.5h-25 q-109 0 -193 -132q-37 -58 -65.5 -161.5t-28.5 -191.5l-2 -36z" />
<glyph unicode="&#xd6;" horiz-adv-x="1419" d="M240 668v73q0 159 38 301q73 272 242 373q90 54 199 54h19q99 -1 185 -49q169 -95 237 -349q39 -145 39 -289v-73v-8q0 -147 -35 -289q-64 -265 -242 -375q-85 -53 -201 -53q-333 0 -444 404q-37 135 -37 280zM422 686q0 -221 78 -370q41 -78 95.5 -116.5t110.5 -38.5h24 q50 0 107 34t100 117q81 155 81 370v88q0 221 -82 365t-200 144h-24q-61 0 -116.5 -43.5t-95.5 -121.5q-78 -150 -78 -374v-54zM442 1647v39l8 57q0 49 73 49h29l30 -5q27 0 27 -17q2 -6 2 -9l4 -28v-8l1 -11v-28l-1 -4v-8l-7 -53q0 -45 -54 -45l-6 -2h-7l-19 -2h-6l-4 1h-9 l-30 5q-31 0 -31 69zM827 1667v4l1 4v8l3 28q3 12 3 19q0 58 82 58h23l4 -1l25 -3q3 -1 7 -1q28 0 28 -18q3 -10 3 -13l1 -4l1 -3l4 -37v-36l-1 -4l-3 -32q-5 -20 -5 -27q0 -42 -52 -42q-8 -2 -10 -2l-14 -2h-34q-15 5 -28 5q-30 0 -30 25l-2 6l-4 29v7l-1 8v12z" />
<glyph unicode="&#xd7;" horiz-adv-x="1279" d="M270 241q0 19 134 187.5t134 185.5q0 6 -21 28.5t-48 56.5l-27 34q-34 44 -40 52q-130 164 -130 186.5t38.5 66.5t59.5 44q13 0 143 -163.5t135 -163.5q17 0 139 164t153 164q10 0 39.5 -35.5t29.5 -53t-134.5 -187t-134.5 -186.5q0 -4 26 -33t45 -53l66 -85 q131 -171 131 -190t-38.5 -63t-58 -44t-144.5 163.5t-135 163.5q-15 0 -140 -163.5t-152 -163.5q-12 0 -41 34.5t-29 53.5z" />
<glyph unicode="&#xd8;" horiz-adv-x="1431" d="M193 4q0 12 43.5 82t43.5 96.5t-16 81.5t-29.5 115.5t-13.5 224.5t50 334t134 282t192.5 170.5t264.5 58.5q44 0 127 -13.5t102.5 -13.5t62 30.5t68.5 30.5q35 0 35 -31v-15q0 -18 -40 -78.5t-40 -103.5q0 -11 18 -69q43 -140 43 -310q0 -373 -163 -619 q-80 -121 -198 -189t-260 -68q-54 0 -144.5 13.5t-92.5 13.5q-36 0 -79.5 -34t-67.5 -34q-40 0 -40 45zM367 575q0 -167 40 -167q3 0 122 198.5t203 318.5l195 279q0 20 -33 48t-79 28h-38q-68 0 -147 -50q-157 -99 -225 -332q-38 -130 -38 -265v-58zM531 241 q0 -19 36.5 -47.5t86.5 -28.5h40q81 0 163 52q159 101 212 316q32 128 32 245v73q0 103 -29 165q-10 21 -18 21t-141 -211t-257.5 -388.5t-124.5 -196.5z" />
<glyph unicode="&#xd9;" horiz-adv-x="1343" d="M145 1358v27q0 34 60 34q104 0 130 -99q10 -39 10 -449.5t45 -521.5t115.5 -152t156.5 -41q176 0 255.5 127.5t79.5 435.5l2 70v70l2 139q0 272 17.5 331t54 75.5t89.5 16.5q38 0 38 -47q0 -6 -11.5 -127t-11.5 -417.5t-8 -367.5q-17 -155 -75 -251t-165.5 -152.5 t-226.5 -56.5h-38q-132 0 -238 48q-202 93 -245 361q-16 99 -16 253v206l2 69l-1 69q0 142 -10.5 232t-10.5 118zM393 1814v3q0 9 27 9h30q15 -3 32 -3q92 0 137.5 -40t157.5 -184q26 -33 26 -49q0 -11 -18 -11h-31l-6 1l-32 3q-22 4 -27 4q-16 0 -156 124.5t-140 142.5z " />
<glyph unicode="&#xda;" horiz-adv-x="1344" d="M144 1363v27q0 33 62 33t89.5 -26t39 -71.5t11.5 -454.5t43.5 -523t116 -156t166.5 -42q204 0 279 192q51 133 51 658q0 275 17.5 334.5t54 76t89.5 16.5q38 0 38 -47q0 -21 -11.5 -127t-11.5 -421.5t-16 -427.5q-35 -246 -227 -348q-116 -61 -261 -61q-392 0 -481 346 q-27 105 -27 284l-1 36q-1 35 -1 70l1 70v175q0 140 -10 265zM552 1561q0 14 71 108.5t114 132t120 37.5l10 2l37 2q56 0 56 -14q0 -47 -240 -234q-49 -38 -105 -38q-20 -4 -27 -4h-20q-16 0 -16 8z" />
<glyph unicode="&#xdb;" horiz-adv-x="1343" d="M142 1356v28q0 34 61.5 34t90 -26t40 -71t11.5 -458t44.5 -522.5t116.5 -151.5t166 -42q189 0 267 161q35 73 49 195.5t14 442.5t18 381t53 78t90 17q39 0 39 -47q0 -7 -11.5 -128.5t-11.5 -432.5t-12 -394q-63 -429 -513 -429q-146 0 -253 60q-188 105 -223 352 q-15 104 -15 416t-10.5 420.5t-10.5 116.5zM356 1561v4q0 39 215 236q34 31 100 31h8q62 0 97 -32q215 -197 215 -234v-4q0 -6 -63.5 -6t-91.5 19.5t-91.5 83t-74 63.5t-75.5 -65t-95 -83.5t-95 -18.5h-24q-25 0 -25 6z" />
<glyph unicode="&#xdc;" horiz-adv-x="1345" d="M143 1353v28q0 34 51 34q102 0 132 -74q19 -48 19 -388t12 -460q106 -273 317 -351q95 0 169 47.5t111 143.5q51 133 51 658q0 278 18.5 336t52.5 74.5t90 16.5q38 0 38 -47q0 -22 -11 -119.5t-11 -421.5t-16 -434.5t-72 -203t-164 -149.5t-264 -57q-303 0 -426 222 q-48 88 -62 196.5t-14 419.5t-10.5 417t-10.5 112zM390 1638v39l2 20l3 19l4 22q0 45 70 45h35l3 -1l22 -3q3 -1 6 -1q25 0 25 -24l2 -6l4 -36v-43l-1 -4l-3 -31q-3 -12 -3 -18q0 -50 -58 -50l-20 -3h-26l-3 1l-21 3q-3 1 -6 1q-35 0 -35 70zM784 1633v50l6 42q0 58 82 58 h20l3 -1l24 -3q15 -5 20 -5q15 0 15 -20q2 -6 2 -10l4 -35v-39l-1 -4l-3 -31q-4 -16 -4 -22q0 -51 -84 -51h-13l-3 1h-6l-22 3l-11 3q-29 0 -29 64z" />
<glyph unicode="&#xdd;" horiz-adv-x="1211" d="M167 1420q0 28 54 28h20q82 0 128 -77q32 -53 137 -300.5t112 -247.5q2 0 104.5 246.5t134.5 296.5q50 79 148 79q44 0 44 -13v-14q0 -26 -152.5 -360t-177.5 -413.5t-25 -328.5t-9 -278q-12 -40 -78 -40h-22q-54 0 -65.5 20t-11.5 120l2 105l2 80v53q0 195 -17 246 t-82 199l-40 92q-33 71 -119.5 275t-86.5 232zM490 1564v4q0 53 177 230q44 44 118 44l16 3l27 2h26q15 -3 30.5 -3t15.5 -11q0 -48 -250 -242q-41 -32 -102 -32l-17 -3h-26q-15 0 -15 8z" />
<glyph unicode="&#xde;" horiz-adv-x="1189" d="M195 83v19l14 140q4 40 22.5 184.5t18.5 302.5l2 45l2 90v67q0 148 -9.5 275t-9.5 160q0 59 63.5 59t81.5 -24t18 -85.5t16 -81.5t78 -20l135 7q85 0 156 -29t134 -104q95 -113 95 -285v-48q0 -97 -40 -185q-86 -192 -274 -255q-53 -18 -165.5 -37t-114.5 -20 q-32 -15 -32 -94t-15.5 -107t-60.5 -28h-34q-81 0 -81 54zM395 561q0 -43 89 -43h35q160 0 253 64t93 176v34q0 92 -82 153q-60 45 -176 45h-79q-95 0 -117 -30q-13 -18 -13 -218l-1 -8v-47l-1 -8v-32l-1 -24v-62z" />
<glyph unicode="&#xdf;" horiz-adv-x="1164" d="M146 75q0 7 10.5 96t10.5 253.5t-7 297.5t-7 150q0 304 101 458q44 67 127 108t196 41q159 0 249.5 -85.5t90.5 -225.5q0 -68 -61.5 -182t-61.5 -155.5t61 -102.5q103 -103 125 -137q65 -101 65 -210q0 -157 -103 -269q-44 -47 -114.5 -81.5t-124.5 -34.5h-31 q-49 0 -77 20.5t-28 56.5q0 43 87 82q130 59 162 91q58 58 58 143.5t-39.5 139t-71 78t-74.5 54.5t-57 44q-46 48 -46 114t80 170t80 176t-42.5 114.5t-116.5 42.5t-128 -43t-87 -136.5t-33 -536.5v-161l-2 -79v-78q0 -137 -37 -203t-116 -66q-38 0 -38 56z" />
<glyph unicode="&#xe0;" horiz-adv-x="1084" d="M166 903q0 53 122 100.5t249 47.5h26q224 0 308 -162q30 -58 30 -123v-45q0 -4 -19 -213t-19 -256l15 -162q0 -64 -90 -64q-35 0 -65.5 27.5t-47 27.5t-49.5 -21q-93 -59 -207 -59t-173.5 69.5t-59.5 171t24 161.5q57 139 262 212q31 11 122.5 35t104.5 31q35 19 35 57 q0 72 -49 119t-139.5 47t-180.5 -33t-127 -33q-72 0 -72 65zM283 1465v3q0 13 52 13l5 -1l37 -2l5 -1l16 -1q80 0 117 -48q165 -212 165 -242v-7q0 -6 -14 -6h-21l-44 4q-48 0 -86 33q-232 203 -232 255zM314 247q0 -32 29.5 -61.5t75.5 -29.5h34q116 0 205 89q65 65 65 193 v17q0 39 -23 39h-16l-43 -5q-131 0 -229 -68.5t-98 -156.5v-17z" />
<glyph unicode="&#xe1;" horiz-adv-x="1084" d="M165 900q0 54 124 102.5t280 48.5t244.5 -83t88.5 -223v-23q0 -30 -20.5 -210.5t-20.5 -259.5l16 -163q0 -33 -22 -49.5t-86 -16.5q-24 0 -52.5 28.5t-43 28.5t-46 -19t-75 -41t-108.5 -22h-20q-109 0 -175 61t-66 167t25 172q56 146 285 220q13 4 102 27.5t105 31.5 q34 18 34 58q0 84 -55 125.5t-140 41.5t-173 -33t-144.5 -33t-56.5 64zM314 246q0 -27 29 -56t88 -29h7q119 0 200.5 72.5t81.5 191.5v49q0 23 -22 23h-16q-23 0 -132.5 -25.5t-153.5 -59.5q-82 -64 -82 -138v-28zM419 1194q0 51 169 244q42 48 121 48l5 1l6 1l43 2h5 q49 0 49 -12v-3q0 -42 -232 -248q-43 -38 -88 -38l-16 -3l-27 -2h-21q-14 0 -14 10z" />
<glyph unicode="&#xe2;" horiz-adv-x="1071" d="M153 901v15q0 45 130.5 90.5t243.5 45.5h26q150 0 244.5 -77.5t94.5 -207.5v-46q0 -36 -19.5 -211.5t-19.5 -260.5l17 -163q0 -66 -91 -66q-38 0 -69.5 30t-43.5 30t-48 -22q-161 -60 -207 -60h-6q-113 0 -173.5 68t-60.5 173.5t23.5 163t90 121.5t280.5 121 q110 29 120 34q37 19 37 56q0 84 -56.5 126t-137 42t-177 -33t-143.5 -33q-55 0 -55 64zM223 1198v5q0 58 215 255q33 30 93 30h8q63 0 103 -40q203 -203 203 -246q0 -8 -61.5 -8t-103.5 29q-7 5 -73.5 77t-74.5 72t-74.5 -72t-69.5 -74q-44 -34 -107 -34h-25q-33 0 -33 6z M302 251q0 -33 29 -62t82 -29h21q112 0 194 73t82 193v49q0 24 -32 24l-6 -1l-24 -2q-144 0 -245 -70.5t-101 -157.5v-17z" />
<glyph unicode="&#xe3;" horiz-adv-x="1071" d="M153 904q0 50 123 98t252 48h26q226 0 310 -162q28 -56 29 -123v-46q0 -25 -20.5 -205.5t-20.5 -284.5l2 -21l6 -39q6 -46 6 -81q0 -64 -111 -64q-24 0 -50 29t-42.5 29t-43.5 -17.5t-74 -41t-114 -23.5h-20q-124 0 -190 77q-50 58 -50 201t114 242q81 71 304 129 q85 22 99 30q33 19 33 74.5t-50 102t-141.5 46.5t-178 -32.5t-128.5 -32.5q-70 0 -70 67zM199 1256v22q0 53 90 122q47 36 103 36h17q42 0 138.5 -45.5t127 -45.5t68.5 45.5t67 45.5h15q44 0 44 -35v-15q0 -48 -63.5 -106.5t-128.5 -58.5h-8l-9 1q-49 0 -134.5 45.5 t-121 45.5t-77.5 -45.5t-85 -45.5t-43 34zM302 252q0 -33 28.5 -61.5t81.5 -28.5h20q123 0 212 89q64 64 64 175v49q0 23 -27 23h-11q-157 0 -262.5 -70.5t-105.5 -159.5v-16z" />
<glyph unicode="&#xe4;" horiz-adv-x="1071" d="M148 900q0 54 127 100.5t251 46.5h25q145 0 239.5 -77.5t94.5 -212.5v-45q0 -30 -20 -206t-20 -243l17 -184q0 -62 -111 -62q-21 0 -49 29.5t-37 29.5t-88.5 -41t-148.5 -41h-20q-110 0 -174.5 62t-64.5 171v9q0 103 23 159q56 141 268 214q43 15 127 37t100 31 q32 18 32 59q0 83 -57.5 123t-141 40t-174 -33t-128.5 -33q-70 0 -70 67zM251 1309v4l1 4v19l5 35q1 4 1 7l4 18q0 35 52 35q6 2 9 2l16 2h19l3 -1l27 -3q9 -3 12 -3q24 0 24 -61v-47l-1 -4v-7l-1 -4v-8l-7 -41q0 -38 -52 -38l-13 -3h-6l-10 -1h-13l-3 1h-6l-30 5 q-30 0 -30 81zM299 242q0 -28 28.5 -56.5t82.5 -28.5h26q107 0 187 72t80 169l2 12l1 23v33q0 28 -27 28h-5l-6 -1l-24 -2q-143 0 -262 -83q-83 -58 -83 -139v-27zM635 1289v31l1 4l3 27q4 16 4 22q0 48 51 48l33 6h30l33 -6q20 0 20 -18l2 -6l3 -21v-7l1 -7v-7l1 -12v-16 l-1 -4v-7l-7 -54q0 -49 -54 -49l-26 -5h-31l-3 1l-22 3q-4 1 -5 1q-26 0 -26 20q-2 6 -2 10l-4 27v8z" />
<glyph unicode="&#xe5;" horiz-adv-x="1068" d="M146 883q0 46 116.5 97t235.5 51h51q142 0 237 -75.5t95 -214.5v-46q0 -62 -20.5 -212t-20.5 -235l17 -184q0 -63 -94 -63q-35 0 -65 30t-44 30t-44 -20t-76.5 -41.5t-141.5 -21.5t-160.5 60.5t-65.5 170.5t23.5 169t85.5 116.5t149.5 87t162 48.5t100 33.5t25.5 58.5 q0 82 -57 122t-140 40t-171 -33t-143 -33t-55 65zM294 233q0 -31 30.5 -57.5t73.5 -26.5h33q115 0 209 94q61 61 61 182v27q0 33 -28 33h-11q-10 -2 -17 -2q-142 0 -246.5 -69.5t-104.5 -153.5v-27zM317 1338v21q0 62 64 112t149 50h27q12 -2 19 -2q59 0 109 -44t50 -96v-11 l-1 -6q0 -62 -63.5 -111.5t-142.5 -49.5h-34q-68 0 -122.5 42.5t-54.5 94.5zM438 1334q0 -77 59 -77h17q29 0 64.5 35.5t35.5 91.5v3q0 74 -46 74l-13 3h-20q-27 0 -62 -35t-35 -92v-3z" />
<glyph unicode="&#xe6;" horiz-adv-x="1626" d="M96 347.5q0 60.5 40.5 124t114.5 106.5q21 12 400 91q41 9 41 45q0 74 -75 114q-43 23 -113.5 23t-177.5 -38t-111 -38q-61 0 -61 56.5t81 89.5q112 45 261.5 45t245.5 -57q58 -34 72 -34t50 24q108 73 219 73h36q186 0 312 -122q56 -55 88.5 -132t32.5 -148.5t-80 -91.5 q-57 -14 -274.5 -23.5t-232.5 -13.5q-42 -12 -42 -51q0 -91 70 -139.5t188 -48.5q43 0 158 37t120 37q70 0 70 -70q0 -50 -98 -92.5t-218 -42.5q-183 0 -293 70q-109 70 -121 70q-10 0 -67 -43q-120 -90 -277 -90q-252 0 -332 157q-27 52 -27 112.5zM308 252q2 -10 2 -22.5 t28 -40.5t75 -28h38q96 0 169 65t73 137l3 18l2 28v47q0 31 -37 31h-17q-18 -3 -31 -3q-123 0 -234 -78q-69 -48 -69 -120l-2 -12v-22zM916 670q0 -19 28 -19l4 -1l5 -1l21 -1h6l5 1l302 7l20 2q29 0 29 16v26q0 70 -57.5 120t-124.5 50h-31q-14 -2 -19 -2q-54 0 -120 -58 t-66 -125l-2 -10v-5z" />
<glyph unicode="&#xe7;" horiz-adv-x="1052" d="M113 513v57q1 112 37 217q106 306 458 306q117 0 215 -49q126 -63 126 -128q0 -84 -60.5 -84t-141.5 36t-153 36q-256 0 -257 -372q0 -254 142 -327q47 -24 122 -24q29 0 162 42t143 42q53 0 53 -76.5t-114 -139.5t-243 -63h-24q-95 0 -187 38q-173 71 -240 265 q-38 109 -38 224zM388 -337q0 22 56 31q120 19 120 91q0 28 -27.5 46t-27.5 53q0 84 66 84h15l7 -1q43 0 57 -34q1 -2 42 -53.5t41 -96.5v-21q0 -66 -60 -115t-139 -49h-45q-24 3 -37 3q-68 0 -68 52v10z" />
<glyph unicode="&#xe8;" horiz-adv-x="1091" d="M127 482.5q0 100.5 38.5 206.5t114.5 187t179 122t186 41h21q124 0 199 -81t75 -242q0 -119 -66 -151q-26 -13 -250.5 -44t-248.5 -38q-68 -19 -68 -71q0 -113 95 -190q68 -55 196 -55q50 0 153.5 31t127.5 31q73 0 73 -61.5t-110 -105.5t-244 -44q-336 0 -436 270 q-35 94 -35 194.5zM295 1468v3q0 14 56 14h5l6 -1l33 -1l33 -4q58 0 97 -44q167 -191 167 -249v-3q0 -6 -18 -6h-21q-15 3 -26 3q-54 0 -89 31q-243 213 -243 257zM327 656q0 -14 52 -14h24l6 1l344 9q5 1 10 1q15 0 15 15v23l-1 6q0 76 -59.5 128t-139.5 52h-27 q-81 0 -152 -63.5t-71 -146.5z" />
<glyph unicode="&#xe9;" horiz-adv-x="1091" d="M127 472q0 98 35.5 202t109.5 185.5t179.5 127.5t195.5 46h21q125 0 199.5 -81t74.5 -220t-68 -169q-27 -12 -243 -42t-236 -35q-84 -20 -84 -77q0 -98 74.5 -170t192.5 -72q62 0 173 30.5t124 30.5q71 0 71 -59v-15q0 -55 -122 -95.5t-235 -40.5q-226 0 -344 126 t-118 328zM325 649q0 -16 53 -16h45l6 1l27 1q58 0 106 8h95q116 0 116 28v39q-3 15 -3 24q0 57 -64 101.5t-125 44.5h-28q-92 0 -160 -68t-68 -146v-17zM441 1191v4q0 20 41.5 73t82 111t55.5 71q43 38 131 38h48q39 0 39 -12v-3q0 -12 -31 -47q-121 -139 -213 -210 q-35 -27 -81 -27q-22 -4 -27 -4h-31q-14 0 -14 6z" />
<glyph unicode="&#xea;" horiz-adv-x="1091" d="M122 476q0 106 42 214q84 217 293 305q101 43 223.5 43t194 -87.5t71.5 -224.5t-64 -167q-39 -18 -238 -40.5t-248 -34.5q-90 -21 -90 -73q0 -105 76.5 -176.5t192.5 -71.5q62 0 177.5 31t124.5 31q74 0 74 -57v-16q0 -51 -95 -89q-130 -52 -260 -52h-47q-74 1 -157 29 q-168 58 -236 239q-34 91 -34 197zM251 1198v4q0 9 87.5 114t123.5 138t100 33t102 -35q209 -192 209 -252q0 -8 -48 -8h-8l-8 1q-58 0 -83 17.5t-91.5 89.5t-75 72t-75 -72t-74.5 -78q-39 -30 -92 -30h-41q-26 0 -26 6zM327 658q0 -14 57 -14h13l6 1l355 10q5 1 12.5 1 t7.5 14v23l-1 6q0 75 -58.5 126.5t-120.5 51.5l-13 2h-34q-80 0 -151.5 -63.5t-71.5 -146.5z" />
<glyph unicode="&#xeb;" horiz-adv-x="1078" d="M111 445v48q1 100 47 207q86 199 273 285q106 49 207 49h21q125 0 198.5 -83.5t73.5 -223t-72 -173.5q-38 -18 -237.5 -40.5t-247.5 -35.5q-82 -22 -82 -80q0 -101 78 -171.5t219 -70.5q49 0 153 30.5t128 30.5q70 0 70 -62q0 -56 -84 -94q-123 -56 -278 -56h-24 q-190 0 -305 111q-65 63 -101.5 153t-36.5 176zM271 1295v27l1 4v8l5 38q4 14 4 18q0 37 46 37l35 6h13l3 -1l24 -3l12 -2q31 0 31 -66v-43l-1 -4l-3 -31q-3 -12 -3 -18q0 -53 -70 -53h-35q-54 0 -54 24l-2 6l-4 27v7zM315 654q0 -14 40 -14h48l6 1l142 7q216 0 216 23l-1 6 v12l-2 21q0 68 -62.5 116.5t-142.5 48.5h-7q-93 0 -165 -64t-72 -146v-11zM655 1298v19l1 4v8l5 38q0 56 52 56q12 4 16 4l20 2h13l3 -1l26 -3q12 -4 18 -4q22 0 22 -28l1 -4l1 -3l4 -36v-39l-1 -4v-8l-4 -26q-1 -4 -1 -8q0 -52 -54 -52l-4 -1l-3 -1l-30 -3h-7l-34 5 q-37 0 -37 28q-2 6 -2 10l-4 28v8z" />
<glyph unicode="&#xec;" horiz-adv-x="596" d="M42 1477v3q0 8 19 8l33 4h27q91 0 126.5 -31.5t72 -92t78 -108t41.5 -67.5v-4q0 -6 -19 -6h-16q-30 5 -57 5t-82 43t-192 199q-31 35 -31 47zM198 983v24q0 48 90 48h21q64 0 74.5 -40.5t10.5 -222.5v-332l4 -75l10 -149v-77q-2 -26 -2 -68t-15 -63t-76 -21h-21 q-60 0 -72 31t-12 144l2 38l2 50l10 149v157q0 218 -12 285.5t-12 98.5z" />
<glyph unicode="&#xed;" horiz-adv-x="595" d="M176 1199v3q0 18 46.5 78t83 112.5t54.5 67.5q42 37 142 37h26q44 0 44 -12q0 -45 -250 -264q-30 -26 -86 -26l-27 -3h-16q-17 0 -17 7zM188 987.5q0 38.5 12.5 51t80.5 12.5h21q66 0 79 -54q7 -29 7 -211v-335l4 -76l11 -135v-92q0 -103 -17 -126.5t-80 -23.5h-21 q-61 0 -73 31.5t-12 102.5t6 143l8 99q1 14 1 36v174q0 209 -13.5 287t-13.5 116.5z" />
<glyph unicode="&#xee;" horiz-adv-x="591" d="M-4 1205v4q0 45 203 248q36 36 98 36h8q63 0 97 -34q205 -205 205 -251q0 -8 -61 -8t-101 30q-3 2 -71.5 76.5t-77.5 74.5t-68 -70t-75 -81q-45 -31 -115 -31h-9q-33 0 -33 6zM189 979v24q0 50 88.5 50t100 -38t11.5 -217v-332l3 -76l12 -162v-66q0 -107 -15.5 -136 t-80.5 -29h-21q-57 0 -72 26.5t-15 135.5l2 52q1 13 1 25l12 149l1 25v172q0 212 -13.5 289t-13.5 108z" />
<glyph unicode="&#xef;" horiz-adv-x="587" d="M21 1304v31l1 4l3 31q4 16 4 22q0 39 46 39l6 2l28 3l3 -1h6q66 0 66 -29q2 -6 2 -10l1 -3l1 -4l4 -37v-40l-1 -4l-3 -31q-3 -12 -3 -18q0 -42 -43 -42q-6 -2 -9 -2l-19 -3h-22l-3 1l-21 3q-3 1 -6 1q-34 0 -34 32q-2 6 -2 10l-4 26v7zM184 985q0 61 70 61h64 q50 0 61 -63q6 -33 6 -225v-298l12 -200q2 -24 2 -38l1 -53q0 -116 -14.5 -147t-70.5 -31h-43q-52 0 -64 30.5t-12 87.5v70q2 26 2 38l12 149q1 13 1 25l1 26v40l-1 26v199l-4 102zM402 1311v4l1 4v16l5 38q3 10 3 14q0 43 53 43q6 2 9 2l16 2h22l22 -3l23 -6q13 0 13 -17 q2 -6 2 -10l5 -39v-39l-1 -4l-3 -31q-3 -12 -3 -18q0 -50 -55 -50q-6 -2 -9 -2l-16 -2h-22l-33 6q-24 0 -24 17l-1 4l-1 3l-5 42v19z" />
<glyph unicode="&#xf0;" horiz-adv-x="1135" d="M188 435q0 259 125 419t323 160q40 0 40 45.5t-58 97.5q-29 26 -87 26l-43 -4q-43 -4 -62 -4q-69 0 -69 45q0 19 24 57.5t24 53t-31 43.5t-31 47q0 42 74 42q37 0 101 -31t125 -31q9 0 46 4l23 3q39 6 45 6q76 0 76 -74l-4 -15l-11 -34q-9 -32 -10 -64q0 -32 48 -131 q92 -195 93 -420v-57v-4q0 -426 -237 -583q-78 -52 -171 -52h-25q-157 0 -242.5 125.5t-85.5 329.5zM366 468l1 -11l1 -22q1 -11 1 -21q0 -92 52.5 -179t130.5 -87h24q83 0 137.5 102t54.5 240v67l-2 22q-2 22 -2 33q0 87 -42 152q-60 93 -131 93h-24q-83 0 -140.5 -89 t-57.5 -223l-2 -22l-1 -44v-11z" />
<glyph unicode="&#xf1;" horiz-adv-x="1132" d="M140 90v238q0 7 5 49l5 50q14 146 14 328t10 201q23 45 111 45q37 0 57 -42.5t27 -42.5t55.5 35.5t52.5 37.5q91 54 175 54q174 0 261 -130q65 -98 65 -318l1 -28q1 -28 1 -68.5t8 -144.5l2 -26l6 -50q7 -70 7 -74v-132q0 -38 -29 -38h-22q-91 0 -118 62t-27 324 q0 394 -114 458q-40 22 -99 22l-1 1h-2q-56 0 -117 -47q-62 -48 -92 -111q-48 -101 -48 -348t-31 -296t-138 -49q-25 0 -25 40zM236 1280.5q0 49.5 85 121.5q48 41 109 41h17q51 0 138 -46t120.5 -46t76 46t74.5 46h8q43 0 43 -34v-15q0 -46 -63.5 -104.5t-129.5 -58.5h-8 q-54 0 -141.5 46.5t-123 46.5t-78 -46.5t-74.5 -46.5h-8q-45 0 -45 49.5z" />
<glyph unicode="&#xf2;" horiz-adv-x="1146" d="M199 497v56q0 229 106 380q45 65 113 105t146 40h29q79 0 147 -38q131 -74 189 -268q28 -93 28 -218l-1 -19q0 -246 -105 -399q-46 -66 -114 -104.5t-145 -38.5h-29q-157 0 -262 141q-42 57 -72 157t-30 206zM308 1471q0 17 50 17h27l6 -1l33 -2q6 -1 11 -1q71 0 111 -51 q165 -212 165 -246q0 -11 -25 -11h-16l-5 1h-11q-12 2 -17 2q-50 0 -90 35q-239 209 -239 257zM369 501q0 -163 58 -260t149 -97h8q87 0 145 103t58 249v72q0 135 -56 234.5t-142 99.5h-17q-86 0 -143.5 -102t-57.5 -228l-2 -23v-48z" />
<glyph unicode="&#xf3;" horiz-adv-x="1146" d="M195 483v55v7q0 103 29 202q60 208 204 289q69 39 156 39h14q168 0 265.5 -140.5t97.5 -359.5v-18l-1 -19v-18q0 -112 -30 -216q-58 -198 -202 -281q-67 -38 -141 -38h-43q-69 0 -139 36.5t-118 110.5q-92 141 -92 351zM369 526l1 -12v-11q0 -158 56.5 -258t149.5 -100h8 q87 0 145 103t58 248v72q0 134 -63 246q-50 89 -134 89h-18q-85 0 -144 -104.5t-59 -260.5v-12zM455 1193v3q0 54 172 251q37 42 101 42l6 1l5 1l43 3h22q49 0 49 -13v-3q0 -13 -27 -44q-130 -149 -214 -214q-39 -30 -80 -30q-16 -3 -22 -3l-27 -2h-5q-23 0 -23 8z" />
<glyph unicode="&#xf4;" horiz-adv-x="1137" d="M182 505v19q0 246 109 400q108 153 281 153h2h14q76 0 146 -37q137 -72 191 -254q32 -110 32 -217v-55q-1 -106 -31 -212q-58 -199 -202 -281q-65 -37 -157 -37h-15q-79 0 -150 37q-141 73 -191 265q-29 112 -29 219zM262 1200v4q0 12 36.5 52t105 121t72.5 84 q35 30 93 30h17q52 0 80 -26t123 -138t95 -119v-5q0 -9 -48 -9h-16q-58 0 -100 29l-60 61l-11 13q-75 75 -80.5 75t-69.5 -69t-72 -76q-39 -33 -98 -33h-41q-26 0 -26 6zM359 491q0 -145 63 -257q51 -90 137 -90h25q81 0 139.5 104.5t58.5 283.5l-1 12q0 153 -55 256.5 t-144 103.5h-26q-76 0 -136.5 -100.5t-60.5 -240.5v-72z" />
<glyph unicode="&#xf5;" horiz-adv-x="1133" d="M183 488v55q0 107 30 210q62 212 202 284q73 38 156 38h15q159 0 264 -143q42 -57 71 -153.5t29 -208.5v-55q0 -110 -29 -209q-94 -321 -359 -321h-14q-83 1 -151 39q-130 74 -186 263q-28 96 -28 201zM236 1257v23q0 46 90 122q43 36 102 36h26q44 0 130 -45.5 t122 -45.5t74.5 45t82.5 45t44 -43l-1 -8v-7q0 -48 -82 -117q-48 -41 -109 -41h-18q-37 0 -134.5 46t-127.5 46t-72 -45.5t-84.5 -45.5t-42.5 35zM359 503q0 -164 58 -261t139 -97h17l8 1q79 0 136.5 102t57.5 248v60q0 147 -56.5 247t-140.5 100h-25q-74 0 -133 -98 t-59 -231l-2 -23v-48z" />
<glyph unicode="&#xf6;" horiz-adv-x="1133" d="M183 502v19q0 239 102 391q56 84 128 121.5t143 37.5h42q67 0 138 -40t119 -114q92 -141 92 -352v-19l-1 -18v-19q0 -113 -30 -216q-57 -196 -189 -271q-76 -43 -152 -43h-28q-159 0 -263 140q-43 59 -72 158t-29 225zM289 1294v30l1 4v8l5 38q2 8 2 11q0 45 51 45l6 2 l26 3h12l3 -1l28 -3q15 -5 20 -5q14 0 14 -20l1 -7l1 -3l3 -36v-32l-1 -4v-12l-6 -45q0 -53 -77 -53h-22l-3 1l-24 3q-3 1 -6 1q-34 0 -34 75zM357 510l1 -12q0 -158 56.5 -258t140.5 -100h26q79 0 135.5 100.5t56.5 215.5l2 23l1 36v24q0 158 -57 259t-141 101h-17 q-94 0 -149 -110.5t-55 -254.5v-24zM672 1303v16l1 4v8l5 39q3 11 3 15q0 46 77 46h24q18 -6 40.5 -6t22.5 -21q3 -9 3 -10l5 -43v-36l-1 -4v-8l-3 -27q-3 -12 -3 -15q0 -49 -50 -49q-9 -3 -12 -3l-17 -2h-27l-34 6q-27 0 -27 28l-4 20v8l-2 15v7z" />
<glyph unicode="&#xf7;" horiz-adv-x="1261" d="M135 601v19q0 54 38 59q21 3 449 3h345q152 0 170 -8t18 -55v-9l-1 -10q0 -54 -37 -59q-21 -3 -450 -3h-403q-90 0 -109.5 7.5t-19.5 55.5zM516 217v7l4 26q0 62 62 62q10 2 13 2l48 4h18l4 -1l39 -3l17 -2q48 0 48 -51q2 -6 2 -10l2 -13v-20l-4 -23q0 -55 -45 -55 l-16 -4l-34 -4h-9l-13 -1h-18l-5 1h-9l-8 1h-9l-45 7q-36 0 -36 45zM522 1000l2 17v7q2 8 2 11q0 67 69 67l8 2l43 4h39l4 -1l36 -4q4 -1 7 -1q33 0 33 -45q2 -8 2 -10l2 -17v-11l-1 -3v-7l-1 -11l-5 -24q0 -54 -69 -54q-8 -2 -13 -2l-26 -3h-9l-13 -1h-13l-4 1h-8l-9 1h-8 l-31 5q-31 0 -31 39q-4 12 -4 16z" />
<glyph unicode="&#xf8;" horiz-adv-x="1145" d="M157 -17q0 19 35 65.5t35 67t-14.5 60.5t-25.5 86t-11 154t35 230q69 241 255 343q93 51 206 51l151 -10q35 0 78.5 30t57.5 30q45 0 45 -45q0 -18 -34 -63.5t-34 -64t15 -63t25 -86.5t10 -158t-38 -236q-79 -249 -273 -340q-87 -41 -190 -41l-86 6q-25 3 -57 3 t-81.5 -33t-60.5 -33q-43 0 -43 34v13zM332 420q0 -106 22 -106q5 0 97.5 150.5t129.5 198.5q131 170 131 179v5q0 44 -69 44h-32q-102 0 -189 -116.5t-87 -276.5l-3 -24v-54zM453 186q0 -48 81 -48h19q117 0 200.5 111.5t83.5 288.5v48l-2 23l-2 30q0 74 -24 74 q-12 0 -83 -115.5t-172 -261.5t-101 -150z" />
<glyph unicode="&#xf9;" horiz-adv-x="1139" d="M144 884v87q0 53 37 53q100 0 128 -55t28 -309q1 -254 41 -381t168 -127q66 0 124.5 43.5t95 127.5t36.5 334t30.5 299t116.5 49q48 0 48 -85v-151q0 -44 -11 -134t-11 -300.5t-10 -231.5q-23 -47 -109 -47q-38 0 -57 35.5t-33 35.5q-4 0 -46 -30q-119 -85 -214 -85h-26 q-80 0 -147 36.5t-107 105.5q-60 103 -60 375q0 113 -11 226.5t-11 128.5zM297 1473v3q0 9 28 9h36l5 -1l49 -5q72 0 112 -46q170 -194 170 -240q0 -11 -24 -11h-21q-68 0 -132.5 50t-143.5 140.5t-79 100.5z" />
<glyph unicode="&#xfa;" horiz-adv-x="1139" d="M142 860v109q0 52 38 52q91 0 123.5 -46.5t32.5 -206.5l3 -166q0 -236 44 -346q19 -48 59 -78.5t99 -30.5t117.5 36t93.5 105q51 100 51 426q0 196 30.5 243.5t118.5 47.5q47 0 47 -107v-86q0 -54 -12 -176.5t-12 -318.5t-10 -218q-22 -47 -110 -47q-36 0 -56.5 36 t-32.5 36q-4 0 -40.5 -26.5t-93.5 -58.5t-127 -32h-27q-80 0 -147.5 36.5t-106.5 105.5q-60 106 -60 377l-6 159q-1 39 -8.5 99.5t-7.5 75.5zM451 1198v4q0 23 37 65.5t79.5 106t64.5 82.5q46 40 151 40l11 1q53 0 53 -12v-4q0 -8 -138 -146t-182 -138l-21 -4l-32 -2 q-23 0 -23 7z" />
<glyph unicode="&#xfb;" horiz-adv-x="1127" d="M132 884v87q0 51 40 51q90 0 122.5 -46.5t32.5 -210.5v-55l1 -27q1 -28 1 -56q0 -263 47 -374q76 -89 157 -107q136 0 218 154q44 82 44 334t24.5 313t125.5 61q46 0 46 -110v-86q0 -55 -6 -115l-5 -50q-13 -108 -13 -322t-9 -232q-23 -45 -113 -45q-26 0 -36.5 12.5 t-23 37t-16 24.5t-98 -58t-178.5 -58h-26q-77 0 -140.5 34.5t-100.5 89.5q-70 103 -70 316l-2 56v52q0 24 -8 160l-2 25l-6 50q-6 60 -6 95zM253 1205v5q0 8 87.5 113t123.5 138t96 33h16q55 0 89 -34q209 -209 209 -247v-5q0 -7 -62 -7t-102 30q-6 4 -73.5 77.5t-75 73.5 t-76 -74t-94.5 -91t-87 -17h-25q-26 0 -26 5z" />
<glyph unicode="&#xfc;" horiz-adv-x="1134" d="M142 865v88q0 61 53 61q91 0 121 -73q21 -51 21 -311t45.5 -376t167.5 -116q50 0 106 32.5t94 98.5q55 96 55 359.5t26.5 317.5t135.5 54q34 0 34 -100v-87q0 -11 -11.5 -157.5t-11.5 -344t-7 -217.5q-19 -54 -106 -54q-39 0 -64.5 36t-28.5 36q-11 0 -46 -26 q-122 -89 -220 -89h-2q-191 0 -276 136q-65 104 -65 402q0 94 -10.5 199t-10.5 131zM291 1286v42l1 4v8l4 27q1 4 1 7q0 52 53 52l6 2l25 3h13l3 -1q61 0 61 -22q2 -6 2 -10l2 -6l3 -33v-47l-1 -4v-8l-4 -30q-3 -11 -3 -15q0 -39 -44 -39q-9 -3 -12 -3l-19 -3h-26l-3 1 l-21 3q-3 1 -6 1q-28 0 -28 22q-2 6 -2 10zM681 1297v27l1 4l3 31q3 12 3 18q0 48 49 48q12 4 15 4l22 2h3l4 -1l34 -3q8 -3 11 -3q22 0 22 -16q4 -12 4 -20l4 -36v-32l-1 -4v-8l-3 -26q-3 -12 -3 -19q0 -47 -45 -47q-9 -3 -13 -3l-19 -3h-28q-37 0 -50 13t-13 74z" />
<glyph unicode="&#xfd;" horiz-adv-x="1025" d="M154 -364q0 44 29 76q7 6 77 48q165 97 165 276q0 109 -135 488q-136 384 -136 451q0 56 76 56q48 0 74.5 -32t52 -100t93 -331.5t76.5 -263.5t96.5 313.5t92.5 326.5q41 96 103 96t62 -35q0 -10 -43 -176l-21 -81q-21 -81 -29 -107q-148 -581 -213.5 -731.5t-154.5 -230 t-178 -79.5h-23q-64 0 -64 36zM402 1197v3q0 50 177 252q35 40 102 40l5 1l6 1l43 3h15q15 -3 31.5 -3t16.5 -9v-3q0 -45 -245 -259q-33 -29 -85 -29q-12 -2 -17 -2l-21 -2h-10q-18 0 -18 7z" />
<glyph unicode="&#xfe;" horiz-adv-x="1143" d="M184 -290q0 16 26 242t26 586t-26 582t-26 239q0 57 51 57h21q68 0 91 -48q15 -32 15 -191t16 -159q2 0 27.5 18.5t43.5 27.5q49 26 137 26t158 -44q220 -138 220 -515q0 -257 -118 -421q-58 -80 -135.5 -119t-144.5 -39t-123.5 26t-60.5 26q-20 0 -20 -141.5t-14 -167.5 q-25 -46 -94.5 -46t-69.5 61zM407 462q0 -165 31 -227q42 -83 120 -83h31q85 0 141 104.5t56 267.5v25q0 138 -48 240.5t-134 102.5h-23q-81 0 -125.5 -79.5t-44.5 -197.5q-2 -22 -2 -33l-2 -54v-66z" />
<glyph unicode="&#xff;" horiz-adv-x="1025" d="M154 966q0 55 93 55q58 0 112 -141q24 -62 91 -326t76 -264q2 0 57.5 183.5t87 303t45.5 154.5q39 97 99 97h19q48 0 48 -32q0 -17 -21 -96l-72 -268q-5 -16 -21 -81q-138 -545 -206 -683q-139 -280 -340 -280q-66 0 -66 35q0 45 29 77q8 9 78 51t103 89q59 83 59 198 q0 76 -135.5 474.5t-135.5 453.5zM240 1284v31l1 4v12l5 34q2 8 2 11q0 45 51 45l6 2l25 3h13l3 -1l28 -3q12 -4 17 -4q17 0 17 -21l1 -7l1 -3l3 -36v-32l-1 -4v-12l-6 -45q0 -50 -58 -50l-19 -3h-25l-3 1l-21 3q-3 1 -6 1q-34 0 -34 74zM632 1276v50l1 4l3 27q1 4 1 7l3 15 q0 43 56 43l6 2l26 2l3 -1l36 -4q3 -1 6 -1q25 0 25 -20q2 -6 2 -10l4 -28v-7l1 -12v-19l-1 -4v-16l-5 -38q-2 -8 -2 -11q0 -50 -72 -50h-29l-3 1h-6l-12 2l-21 5q-22 0 -22 63z" />
<glyph unicode="&#x152;" horiz-adv-x="1906" d="M229 644v4v16q0 188 23 314q50 280 272 407q118 68 259 68q65 0 160 -21.5t148 -21.5t165.5 25t258.5 25h69q81 0 113.5 -17.5t32.5 -53.5q0 -63 -83 -86q-38 -10 -213.5 -24.5t-209.5 -40.5q-55 -43 -55 -261q0 -55 32.5 -69.5t195.5 -26t184 -28.5t21 -86.5t-46 -90.5 q-22 -10 -172 -26.5t-178 -29.5q-53 -25 -53 -100q0 -218 55 -281q42 -48 228.5 -48t246 -27t59.5 -75.5t-51.5 -64.5t-200.5 -16h-103q-17 0 -155 28t-172 28t-129 -23t-192.5 -23t-197 48t-171.5 132q-141 165 -141 446zM385 702q0 -211 87 -365q44 -78 105 -117.5 t123 -39.5h26q54 0 97.5 27.5t58.5 62.5q59 136 59 400l2 32v32l1 32v17l-1 16q0 286 -57 411q-14 31 -57.5 55t-108 24t-130 -40.5t-114.5 -127.5q-91 -161 -91 -384v-35z" />
<glyph unicode="&#x153;" horiz-adv-x="1743" d="M102 550q0 213 127.5 327.5t312 114.5t322.5 -107q34 -26 46.5 -26t72 45t119.5 66t161 21q188 0 303 -115t115 -275q0 -84 -83 -108.5t-301 -24.5l-31 -1q-30 -1 -100.5 -1t-98.5 -9.5t-28 -47.5q0 -79 70 -140.5t160 -61.5t201.5 42t136.5 42q54 0 54 -65 q0 -55 -135 -110q-94 -38 -198 -38q-178 0 -299 75q-82 51 -88.5 51t-134.5 -77q-82 -49 -198 -49h-32q-90 0 -179 33t-155 95q-140 131 -140 344zM355 508q0 -143 58.5 -246.5t155.5 -103.5l9 1q80 0 138 96.5t58 253.5v70q0 136 -54 231.5t-131 95.5h-26 q-87 0 -147.5 -107t-60.5 -245v-46zM1032 670q0 -12 21 -12l24 -3h33l6 1l121 7q229 0 229 43l-1 5l-2 27q0 53 -55 101t-123 48h-32q-76 0 -148.5 -64.5t-72.5 -142.5v-10z" />
<glyph unicode="&#x178;" horiz-adv-x="1211" d="M144 1417q0 28 55 28h21q82 0 129 -71.5t151.5 -305.5t111 -234t105 221t153 304t148.5 83q52 0 52 -24q0 -34 -162 -365t-185.5 -412.5t-23.5 -328.5t-12.5 -280t-88.5 -33h-22q-62 0 -70 51q-2 13 -2 125l3 159q0 253 -29 333q-3 7 -168.5 361t-165.5 389zM307 1657v15 l1 3v4l3 22q1 4 1 8q0 39 25.5 59t54.5 20q12 3 15 3l18 2h14q68 0 68 -35l4 -16l3 -21v-26l-4 -30q0 -37 -23.5 -60.5t-64.5 -23.5l-22 -3h-22l-26 4q-39 0 -39 38q-4 12 -4 16zM708 1664v10q0 113 84 113q8 2 11 2l22 3h15l3 -1l21 -2q3 -1 6 -1l13 -3q28 0 28 -37l1 -3 l1 -4l3 -23v-26l-6 -37q0 -73 -82 -73l-7 -2h-7l-19 -2h-11l-3 1l-24 3q-3 1 -6 1q-38 0 -38 43l-2 6z" />
<glyph unicode="&#x2c6;" horiz-adv-x="891" d="M131 1251v5q0 48 214 246q42 39 101 39t109 -46q208 -191 208 -240q0 -15 -73.5 -15t-131.5 63q-102 110 -113.5 110t-74.5 -68t-90.5 -87t-76.5 -19h-17q-16 2 -35.5 2t-19.5 10z" />
<glyph unicode="&#x2dc;" horiz-adv-x="910" d="M109 1313v7q0 48 68.5 106t124.5 58h26q44 0 142 -46t125.5 -46t72 44.5t80.5 44.5q54 0 54 -47v-15q0 -41 -67.5 -98t-124.5 -57h-26q-50 0 -136.5 46t-124 46t-78.5 -44.5t-88.5 -44.5t-47.5 46z" />
<glyph unicode="&#x2000;" horiz-adv-x="923" />
<glyph unicode="&#x2001;" horiz-adv-x="1847" />
<glyph unicode="&#x2002;" horiz-adv-x="923" />
<glyph unicode="&#x2003;" horiz-adv-x="1847" />
<glyph unicode="&#x2004;" horiz-adv-x="615" />
<glyph unicode="&#x2005;" horiz-adv-x="461" />
<glyph unicode="&#x2006;" horiz-adv-x="307" />
<glyph unicode="&#x2007;" horiz-adv-x="307" />
<glyph unicode="&#x2008;" horiz-adv-x="230" />
<glyph unicode="&#x2009;" horiz-adv-x="369" />
<glyph unicode="&#x200a;" horiz-adv-x="102" />
<glyph unicode="&#x2010;" horiz-adv-x="740" d="M90 550v38q0 52 25 59q15 4 269 4l125 1h66q55 0 66.5 -10t11.5 -46v-45q0 -47 -30 -54q-8 -2 -256 -2h-22l-29 -1h-170q-56 0 -56 56z" />
<glyph unicode="&#x2011;" horiz-adv-x="740" d="M90 550v38q0 52 25 59q15 4 269 4l125 1h66q55 0 66.5 -10t11.5 -46v-45q0 -47 -30 -54q-8 -2 -256 -2h-22l-29 -1h-170q-56 0 -56 56z" />
<glyph unicode="&#x2012;" horiz-adv-x="740" d="M90 550v38q0 52 25 59q15 4 269 4l125 1h66q55 0 66.5 -10t11.5 -46v-45q0 -47 -30 -54q-8 -2 -256 -2h-22l-29 -1h-170q-56 0 -56 56z" />
<glyph unicode="&#x2013;" horiz-adv-x="1096" d="M74 555v57q0 46 107 46h67l11 -1l122 1h555q87 0 87 -43v-57q0 -44 -53 -44h-542l-23 -1h-133l-33 -1h-78q-87 0 -87 43z" />
<glyph unicode="&#x2014;" horiz-adv-x="1806" d="M73 567v32q0 55 62 60q23 2 782 2l127 1h618q72 0 72 -50v-32q0 -53 -45 -59q-23 -3 -797 -3h-439l-18 -1h-164l-72 -1h-36q-90 0 -90 51z" />
<glyph unicode="&#x2018;" horiz-adv-x="635" d="M230 1098v32l1 8q0 133 56 224q77 125 156 125q31 0 31 -36v-5q0 -19 -20.5 -41.5t-46 -70t-25.5 -100.5q0 -17 24 -37.5t37 -52.5t13 -92.5t-21 -81.5t-67 -21h-34q-64 0 -84 28.5t-20 120.5z" />
<glyph unicode="&#x2019;" horiz-adv-x="634" d="M155 977v10q0 12 27 45q72 88 72 165q0 17 -22 39t-23 24q-20 40 -20 78v45q2 14 2 22q0 43 26 61t83 18h7l7 -1q60 0 77 -17t17 -52l1 -7l1 -8l1 -31v-31l-1 -8l-2 -40q0 -106 -73.5 -225t-150.5 -119q-29 0 -29 32z" />
<glyph unicode="&#x201a;" horiz-adv-x="594" d="M158 -217q0 9 20 39q58 86 58 156q0 11 -11.5 31.5t-17.5 37.5t-6 93t19.5 105.5t80.5 29.5h20q53 0 72.5 -13.5t19.5 -53.5v-14l-1 -8v-15l-3 -45q-2 -16 -2 -23q0 -109 -69 -237t-142 -128h-6q-32 0 -32 35v10z" />
<glyph unicode="&#x201c;" horiz-adv-x="953" d="M223 1113v16l1 8v16l3 46q1 8 1 15q0 96 73.5 186t128.5 90h7q27 0 27 -32v-10q0 -18 -22 -44q-68 -82 -68 -160q0 -23 23.5 -44t28.5 -31q22 -48 22 -107t-18.5 -83t-71.5 -24h-27q-64 0 -86 25t-22 133zM606 1090v63l1 8l1 23l2 30q0 87 71 182t137 95q29 0 29 -37 l-1 -5v-5q0 -12 -24 -40q-66 -81 -66 -165q0 -21 23 -38q51 -38 51 -140q0 -60 -20.5 -83t-68.5 -23h-28q-71 0 -89 28.5t-18 106.5z" />
<glyph unicode="&#x201d;" horiz-adv-x="954" d="M122 980v5l1 5q0 1 49 74.5t49 141.5q0 9 -22 31t-25 30q-17 47 -17 107t19.5 85t84.5 25h21q12 -2 20 -2q49 0 61.5 -22.5t12.5 -76.5v-54l-1 -8l-1 -24l-4 -39q0 -99 -79 -204.5t-135 -105.5h-7q-27 0 -27 32zM505 979v9q0 13 25 44t49.5 70.5t24.5 95.5 q0 16 -21.5 37.5t-23.5 25.5q-19 38 -19 106t21.5 92t89.5 24l7 -1q56 0 77.5 -15t21.5 -63l2 -15v-62l-1 -7l-1 -24q-3 -24 -3 -31q0 -105 -80 -211.5t-135 -106.5h-7q-27 0 -27 32z" />
<glyph unicode="&#x201e;" horiz-adv-x="923" d="M125 -215q1 13 19 39q59 81 59 153q0 20 -18 48.5t-18 74.5v51l2 31q0 91 69 91l32 3h13q93 0 93 -56v-44l-1 -8q0 -265 -155 -403q-26 -23 -49 -23h-13q-33 0 -33 39v4zM518 -213q0 4 39 70t39 100.5t-18 66.5t-18 70v52l2 23q1 8 1 15q0 89 71 89l13 2h38 q50 0 67.5 -13.5t17.5 -51.5v-30l-1 -7l-1 -23l-2 -30q0 -123 -68.5 -250.5t-142.5 -127.5q-37 0 -37 41v4z" />
<glyph unicode="&#x2022;" horiz-adv-x="923" d="M224 656v38q0 114 72 192.5t165 78.5h7q95 0 164.5 -82t69.5 -183v-38q0 -107 -69.5 -189t-159.5 -82h-16l-7 1q-83 0 -154.5 78t-71.5 186z" />
<glyph unicode="&#x2026;" horiz-adv-x="1796" d="M187 165v24l1 5l3 33q1 5 1 9q0 86 100 86h25l24 -3l23 -4q49 0 49 -90v-52l-3 -24l-4 -27q0 -68 -73 -68q-8 -2 -13 -2l-16 -2h-29l-27 4q-56 0 -56 61l-1 5l-1 4zM783 150v43l2 19l3 23q0 36 21 61.5t97 25.5l4 -1l25 -1l23 -4q46 0 46 -46q4 -16 4 -21l2 -27v-33 l-7 -61q0 -75 -87 -75q-8 -2 -13 -2l-16 -1h-9l-4 1h-8l-31 5q-46 0 -46 47q-4 16 -4 21zM1377 157v14l1 5v9l2 18l6 37q0 32 22.5 54.5t70.5 22.5l25 3h22l31 -4q48 0 48 -49l2 -8l3 -35v-23l-1 -5v-9l-3 -28q-3 -13 -3 -35.5t-24.5 -47t-95.5 -24.5h-21l-36 5 q-42 0 -42 40l-3 12l-3 26v9z" />
<glyph unicode="&#x202f;" horiz-adv-x="369" />
<glyph unicode="&#x2039;" horiz-adv-x="718" d="M121 571q0 27 87 125t127 151q123 164 170 164h10q50 0 50 -41v-9q0 -51 -134 -211t-134 -177t134 -176t134 -211q0 -51 -45 -51h-2h-10q-45 0 -178 169q-209 265 -209 267z" />
<glyph unicode="&#x203a;" horiz-adv-x="719" d="M158 185.5q0 49.5 136 211t136 177t-135.5 176.5t-135.5 221q0 41 44 41h9q34 0 163 -163q215 -272 215 -276q0 -19 -176 -228t-204 -209h-9q-43 0 -43 49.5z" />
<glyph unicode="&#x205f;" horiz-adv-x="461" />
<glyph unicode="&#x20ac;" horiz-adv-x="1256" d="M115 845q0 44 73 88q49 30 141 177t171 207q125 95 295 95q117 0 196.5 -35.5t79.5 -86.5q0 -59 -77 -59l-139 5q-107 0 -181 -40q-109 -59 -109 -129q0 -47 62 -65q18 -5 119 -16t124 -23t23 -56.5t-86 -69.5q-40 -12 -174 -22.5t-161 -14.5q-63 -10 -63 -49 q0 -55 39 -74q20 -10 135 -18t169.5 -24.5t54.5 -54.5t-40 -69q-12 -9 -81.5 -25t-90.5 -27q-63 -34 -63 -77q0 -77 114 -133q75 -37 199 -37l183 11q76 0 76 -42q0 -67 -89 -118.5t-209 -51.5q-341 0 -481 283q-92 187 -120 208q-71 52 -71 78q0 47 35 68q55 32 55 79 t-54.5 60.5t-54.5 57.5z" />
<glyph unicode="&#x2122;" horiz-adv-x="1696" d="M134 1386v36q0 36 27 36l307 5h64q75 0 75 -41v-12q0 -45 -20 -59.5t-80.5 -14.5t-70.5 -48q-7 -34 -7 -202v-283l1 -28v-40q0 -34 -39 -34h-43q-33 0 -37 36q-1 8 -1 121l1 28v138l-1 27v164q-2 29 -2 57q0 61 -77 61h-2q-20 2 -30 2q-65 0 -65 51zM769 803v21 q0 9 8.5 111t8.5 274.5t13.5 198.5t53.5 26q86 0 134 -77q21 -34 94.5 -216.5t88.5 -182.5q2 0 75.5 182t97.5 218q49 74 109.5 74t73.5 -26.5t13 -218t13 -295.5l5 -48v-43q0 -57 -46 -57t-65.5 77t-19.5 245t-19.5 168t-107.5 -228.5t-125 -228.5q-57 0 -79 44 q-7 13 -83 211.5t-96.5 198.5t-20.5 -168q0 -316 -79 -316q-47 0 -47 56z" />
<glyph unicode="&#x25fc;" horiz-adv-x="1050" d="M0 0v1050h1050v-1050h-1050z" />
</font>
</defs>
</svg>
